G04*
G04 #@! TF.GenerationSoftware,Altium Limited,Altium Designer,21.1.1 (26)*
G04*
G04 Layer_Color=16711935*
%FSLAX25Y25*%
%MOIN*%
G70*
G04*
G04 #@! TF.SameCoordinates,D9F95C0E-15A9-44F3-8ABD-4EC37FB7AC5F*
G04*
G04*
G04 #@! TF.FilePolarity,Positive*
G04*
G01*
G75*
%ADD12C,0.00787*%
G36*
X115263Y378563D02*
Y391437D01*
X131725D01*
Y378563D01*
X115263D01*
D02*
G37*
G36*
X129241Y414476D02*
X128958D01*
Y414714D01*
X128956Y414712D01*
X128955Y414709D01*
X128949Y414701D01*
X128940Y414690D01*
X128931Y414679D01*
X128920Y414667D01*
X128893Y414636D01*
X128860Y414603D01*
X128822Y414569D01*
X128780Y414536D01*
X128735Y414507D01*
X128733D01*
X128729Y414503D01*
X128722Y414499D01*
X128713Y414496D01*
X128700Y414490D01*
X128685Y414485D01*
X128669Y414477D01*
X128649Y414470D01*
X128629Y414465D01*
X128605Y414458D01*
X128580Y414452D01*
X128552Y414447D01*
X128494Y414439D01*
X128431Y414436D01*
X128409D01*
X128391Y414437D01*
X128370Y414439D01*
X128347Y414443D01*
X128321Y414447D01*
X128292Y414450D01*
X128261Y414458D01*
X128228Y414465D01*
X128194Y414476D01*
X128159Y414487D01*
X128123Y414501D01*
X128088Y414518D01*
X128054Y414536D01*
X128019Y414558D01*
X128017Y414559D01*
X128012Y414563D01*
X128003Y414570D01*
X127990Y414579D01*
X127974Y414592D01*
X127957Y414607D01*
X127939Y414625D01*
X127917Y414645D01*
X127895Y414667D01*
X127874Y414692D01*
X127852Y414721D01*
X127828Y414750D01*
X127806Y414783D01*
X127786Y414820D01*
X127766Y414856D01*
X127748Y414896D01*
X127746Y414898D01*
X127744Y414905D01*
X127739Y414918D01*
X127734Y414934D01*
X127726Y414954D01*
X127719Y414978D01*
X127712Y415007D01*
X127703Y415038D01*
X127693Y415073D01*
X127686Y415109D01*
X127679Y415149D01*
X127672Y415191D01*
X127666Y415235D01*
X127661Y415280D01*
X127659Y415326D01*
X127657Y415375D01*
Y415378D01*
Y415387D01*
Y415402D01*
X127659Y415422D01*
X127661Y415446D01*
X127663Y415475D01*
X127666Y415508D01*
X127670Y415542D01*
X127675Y415580D01*
X127682Y415621D01*
X127701Y415706D01*
X127712Y415750D01*
X127724Y415793D01*
X127741Y415837D01*
X127759Y415879D01*
X127761Y415881D01*
X127764Y415888D01*
X127770Y415901D01*
X127777Y415915D01*
X127788Y415935D01*
X127801Y415955D01*
X127815Y415981D01*
X127834Y416006D01*
X127852Y416034D01*
X127874Y416061D01*
X127897Y416090D01*
X127925Y416119D01*
X127952Y416147D01*
X127983Y416174D01*
X128016Y416199D01*
X128050Y416223D01*
X128052Y416225D01*
X128059Y416228D01*
X128068Y416234D01*
X128083Y416241D01*
X128101Y416250D01*
X128121Y416261D01*
X128145Y416270D01*
X128172Y416281D01*
X128201Y416294D01*
X128232Y416303D01*
X128265Y416314D01*
X128299Y416323D01*
X128336Y416330D01*
X128374Y416336D01*
X128412Y416339D01*
X128452Y416341D01*
X128467D01*
X128478Y416339D01*
X128492D01*
X128507Y416338D01*
X128525Y416336D01*
X128545Y416334D01*
X128589Y416325D01*
X128634Y416314D01*
X128683Y416299D01*
X128731Y416278D01*
X128733D01*
X128736Y416274D01*
X128742Y416270D01*
X128751Y416265D01*
X128762Y416259D01*
X128773Y416252D01*
X128802Y416232D01*
X128833Y416208D01*
X128867Y416179D01*
X128900Y416148D01*
X128931Y416112D01*
Y417000D01*
X129241D01*
Y414476D01*
D02*
G37*
G36*
X124838Y416339D02*
X124858D01*
X124883Y416338D01*
X124913Y416334D01*
X124945Y416328D01*
X124980Y416323D01*
X125016Y416316D01*
X125053Y416305D01*
X125093Y416294D01*
X125131Y416279D01*
X125167Y416263D01*
X125206Y416243D01*
X125238Y416221D01*
X125271Y416196D01*
X125273Y416194D01*
X125278Y416188D01*
X125286Y416181D01*
X125296Y416168D01*
X125307Y416154D01*
X125322Y416137D01*
X125337Y416117D01*
X125351Y416094D01*
X125366Y416068D01*
X125380Y416039D01*
X125395Y416008D01*
X125406Y415975D01*
X125417Y415939D01*
X125424Y415903D01*
X125429Y415863D01*
X125431Y415821D01*
Y415819D01*
Y415815D01*
Y415808D01*
X125429Y415797D01*
Y415786D01*
X125428Y415771D01*
X125424Y415739D01*
X125417Y415702D01*
X125406Y415660D01*
X125391Y415619D01*
X125371Y415577D01*
Y415575D01*
X125367Y415571D01*
X125366Y415566D01*
X125360Y415559D01*
X125347Y415539D01*
X125329Y415513D01*
X125306Y415484D01*
X125278Y415455D01*
X125247Y415426D01*
X125213Y415398D01*
X125211D01*
X125207Y415395D01*
X125202Y415391D01*
X125195Y415387D01*
X125186Y415382D01*
X125175Y415375D01*
X125147Y415360D01*
X125115Y415344D01*
X125076Y415328D01*
X125034Y415311D01*
X124989Y415297D01*
X124987D01*
X124985Y415295D01*
X124980D01*
X124973Y415293D01*
X124962Y415291D01*
X124951Y415287D01*
X124936Y415286D01*
X124920Y415282D01*
X124902Y415278D01*
X124882Y415275D01*
X124860Y415271D01*
X124834Y415267D01*
X124807Y415264D01*
X124778Y415258D01*
X124747Y415255D01*
X124714Y415251D01*
X124711D01*
X124705Y415249D01*
X124698D01*
X124678Y415246D01*
X124652Y415244D01*
X124621Y415238D01*
X124587Y415233D01*
X124547Y415227D01*
X124505Y415220D01*
X124461Y415213D01*
X124416Y415205D01*
X124325Y415187D01*
X124279Y415176D01*
X124237Y415166D01*
X124199Y415155D01*
X124163Y415144D01*
Y415140D01*
Y415133D01*
Y415124D01*
X124161Y415111D01*
Y415084D01*
Y415073D01*
Y415064D01*
Y415062D01*
Y415054D01*
Y415045D01*
X124163Y415033D01*
Y415018D01*
X124166Y415000D01*
X124172Y414960D01*
X124183Y414916D01*
X124199Y414871D01*
X124208Y414851D01*
X124221Y414831D01*
X124234Y414814D01*
X124250Y414798D01*
X124252Y414796D01*
X124256Y414792D01*
X124263Y414789D01*
X124272Y414782D01*
X124285Y414774D01*
X124299Y414765D01*
X124317Y414754D01*
X124337Y414745D01*
X124361Y414736D01*
X124388Y414725D01*
X124416Y414716D01*
X124448Y414709D01*
X124483Y414701D01*
X124519Y414696D01*
X124559Y414694D01*
X124601Y414692D01*
X124621D01*
X124638Y414694D01*
X124656D01*
X124676Y414696D01*
X124700Y414700D01*
X124723Y414701D01*
X124776Y414711D01*
X124829Y414725D01*
X124880Y414745D01*
X124903Y414756D01*
X124923Y414771D01*
X124925D01*
X124927Y414774D01*
X124933Y414780D01*
X124940Y414785D01*
X124949Y414794D01*
X124958Y414805D01*
X124969Y414818D01*
X124982Y414832D01*
X124994Y414851D01*
X125007Y414871D01*
X125020Y414892D01*
X125031Y414916D01*
X125044Y414943D01*
X125056Y414972D01*
X125067Y415005D01*
X125076Y415040D01*
X125378Y414998D01*
Y414996D01*
X125377Y414989D01*
X125375Y414980D01*
X125371Y414965D01*
X125366Y414949D01*
X125360Y414931D01*
X125355Y414909D01*
X125346Y414887D01*
X125328Y414836D01*
X125304Y414785D01*
X125277Y414732D01*
X125244Y414685D01*
X125242Y414683D01*
X125240Y414679D01*
X125235Y414674D01*
X125225Y414665D01*
X125216Y414656D01*
X125204Y414643D01*
X125191Y414630D01*
X125175Y414618D01*
X125156Y414603D01*
X125135Y414587D01*
X125113Y414572D01*
X125089Y414558D01*
X125062Y414541D01*
X125034Y414527D01*
X125004Y414514D01*
X124971Y414501D01*
X124969D01*
X124963Y414498D01*
X124952Y414496D01*
X124940Y414490D01*
X124922Y414487D01*
X124902Y414481D01*
X124878Y414474D01*
X124852Y414468D01*
X124823Y414463D01*
X124791Y414456D01*
X124756Y414450D01*
X124720Y414447D01*
X124681Y414441D01*
X124641Y414439D01*
X124556Y414436D01*
X124518D01*
X124498Y414437D01*
X124474Y414439D01*
X124448Y414441D01*
X124421Y414443D01*
X124361Y414450D01*
X124297Y414459D01*
X124235Y414474D01*
X124205Y414483D01*
X124177Y414492D01*
X124175D01*
X124170Y414494D01*
X124163Y414498D01*
X124154Y414501D01*
X124141Y414507D01*
X124128Y414514D01*
X124095Y414530D01*
X124061Y414550D01*
X124024Y414574D01*
X123992Y414599D01*
X123962Y414630D01*
Y414632D01*
X123959Y414634D01*
X123955Y414640D01*
X123951Y414645D01*
X123939Y414663D01*
X123924Y414689D01*
X123908Y414720D01*
X123893Y414754D01*
X123879Y414796D01*
X123866Y414842D01*
Y414845D01*
X123864Y414851D01*
Y414856D01*
X123862Y414865D01*
X123861Y414878D01*
X123859Y414891D01*
X123857Y414907D01*
Y414925D01*
X123855Y414945D01*
X123853Y414969D01*
X123851Y414994D01*
Y415024D01*
X123850Y415054D01*
Y415089D01*
Y415125D01*
Y415537D01*
Y415539D01*
Y415542D01*
Y415548D01*
Y415555D01*
Y415566D01*
Y415577D01*
Y415606D01*
Y415640D01*
X123848Y415679D01*
Y415722D01*
Y415766D01*
X123846Y415859D01*
X123844Y415904D01*
X123842Y415950D01*
X123840Y415990D01*
X123837Y416026D01*
X123835Y416057D01*
X123833Y416072D01*
X123831Y416083D01*
Y416085D01*
X123830Y416088D01*
Y416094D01*
X123828Y416103D01*
X123824Y416112D01*
X123822Y416125D01*
X123813Y416154D01*
X123802Y416187D01*
X123790Y416223D01*
X123771Y416261D01*
X123751Y416301D01*
X124074D01*
Y416299D01*
X124075Y416297D01*
X124079Y416292D01*
X124081Y416285D01*
X124086Y416276D01*
X124090Y416263D01*
X124101Y416237D01*
X124112Y416203D01*
X124123Y416165D01*
X124130Y416123D01*
X124137Y416076D01*
X124139Y416077D01*
X124144Y416083D01*
X124154Y416090D01*
X124166Y416099D01*
X124183Y416112D01*
X124201Y416125D01*
X124221Y416141D01*
X124243Y416157D01*
X124268Y416174D01*
X124294Y416190D01*
X124350Y416225D01*
X124408Y416257D01*
X124439Y416270D01*
X124468Y416283D01*
X124470D01*
X124476Y416285D01*
X124485Y416288D01*
X124496Y416292D01*
X124510Y416296D01*
X124529Y416301D01*
X124548Y416307D01*
X124570Y416312D01*
X124594Y416318D01*
X124621Y416323D01*
X124680Y416332D01*
X124741Y416339D01*
X124809Y416341D01*
X124821D01*
X124838Y416339D01*
D02*
G37*
G36*
X130642Y416341D02*
X130671Y416339D01*
X130706Y416338D01*
X130744Y416334D01*
X130786Y416330D01*
X130829Y416325D01*
X130875Y416319D01*
X130971Y416301D01*
X131020Y416290D01*
X131068Y416278D01*
X131115Y416261D01*
X131159Y416245D01*
X131161Y416243D01*
X131170Y416239D01*
X131181Y416234D01*
X131197Y416226D01*
X131217Y416216D01*
X131239Y416203D01*
X131264Y416187D01*
X131290Y416170D01*
X131319Y416150D01*
X131348Y416128D01*
X131379Y416103D01*
X131408Y416076D01*
X131439Y416046D01*
X131468Y416015D01*
X131495Y415981D01*
X131521Y415944D01*
X131523Y415943D01*
X131526Y415935D01*
X131534Y415924D01*
X131541Y415910D01*
X131552Y415890D01*
X131563Y415868D01*
X131576Y415842D01*
X131586Y415813D01*
X131599Y415781D01*
X131612Y415746D01*
X131623Y415708D01*
X131634Y415670D01*
X131643Y415628D01*
X131650Y415584D01*
X131656Y415539D01*
X131657Y415491D01*
X131343Y415464D01*
Y415466D01*
X131341Y415473D01*
Y415482D01*
X131337Y415495D01*
X131335Y415511D01*
X131332Y415531D01*
X131326Y415551D01*
X131321Y415575D01*
X131308Y415624D01*
X131290Y415677D01*
X131268Y415728D01*
X131241Y415777D01*
X131239Y415779D01*
X131237Y415782D01*
X131231Y415788D01*
X131224Y415797D01*
X131217Y415808D01*
X131206Y415819D01*
X131193Y415832D01*
X131179Y415846D01*
X131162Y415861D01*
X131142Y415877D01*
X131122Y415894D01*
X131099Y415910D01*
X131075Y415926D01*
X131048Y415943D01*
X131019Y415957D01*
X130988Y415972D01*
X130986D01*
X130980Y415975D01*
X130970Y415979D01*
X130957Y415983D01*
X130940Y415988D01*
X130922Y415995D01*
X130898Y416003D01*
X130875Y416008D01*
X130848Y416015D01*
X130817Y416023D01*
X130786Y416028D01*
X130751Y416035D01*
X130678Y416043D01*
X130600Y416046D01*
X130582D01*
X130567Y416045D01*
X130551D01*
X130533Y416043D01*
X130511Y416041D01*
X130487Y416039D01*
X130434Y416032D01*
X130378Y416023D01*
X130322Y416008D01*
X130265Y415990D01*
X130263D01*
X130258Y415988D01*
X130251Y415984D01*
X130242Y415979D01*
X130229Y415974D01*
X130216Y415966D01*
X130183Y415950D01*
X130149Y415928D01*
X130112Y415901D01*
X130078Y415870D01*
X130049Y415835D01*
Y415833D01*
X130045Y415830D01*
X130041Y415824D01*
X130038Y415817D01*
X130032Y415808D01*
X130025Y415797D01*
X130012Y415770D01*
X129999Y415739D01*
X129987Y415702D01*
X129979Y415660D01*
X129976Y415619D01*
Y415617D01*
Y415613D01*
Y415608D01*
X129978Y415599D01*
Y415588D01*
X129979Y415577D01*
X129985Y415548D01*
X129992Y415517D01*
X130005Y415482D01*
X130023Y415448D01*
X130047Y415413D01*
Y415411D01*
X130050Y415409D01*
X130060Y415398D01*
X130078Y415382D01*
X130089Y415371D01*
X130101Y415360D01*
X130116Y415349D01*
X130132Y415337D01*
X130150Y415324D01*
X130172Y415311D01*
X130194Y415298D01*
X130220Y415286D01*
X130245Y415275D01*
X130274Y415262D01*
X130276D01*
X130280Y415260D01*
X130285Y415258D01*
X130296Y415255D01*
X130309Y415251D01*
X130323Y415246D01*
X130343Y415240D01*
X130367Y415233D01*
X130396Y415224D01*
X130427Y415215D01*
X130464Y415205D01*
X130505Y415195D01*
X130551Y415182D01*
X130604Y415169D01*
X130660Y415155D01*
X130722Y415140D01*
X130724D01*
X130726Y415138D01*
X130731D01*
X130736Y415136D01*
X130755Y415131D01*
X130778Y415125D01*
X130806Y415118D01*
X130838Y415109D01*
X130875Y415100D01*
X130911Y415089D01*
X130991Y415065D01*
X131071Y415038D01*
X131110Y415024D01*
X131146Y415009D01*
X131177Y414996D01*
X131206Y414982D01*
X131208Y414980D01*
X131213Y414978D01*
X131222Y414972D01*
X131235Y414965D01*
X131250Y414956D01*
X131268Y414943D01*
X131286Y414931D01*
X131308Y414916D01*
X131352Y414883D01*
X131395Y414843D01*
X131439Y414798D01*
X131457Y414772D01*
X131475Y414747D01*
X131477Y414745D01*
X131479Y414740D01*
X131483Y414732D01*
X131488Y414721D01*
X131495Y414709D01*
X131503Y414694D01*
X131510Y414676D01*
X131519Y414656D01*
X131526Y414632D01*
X131535Y414609D01*
X131548Y414556D01*
X131559Y414498D01*
X131561Y414467D01*
X131563Y414434D01*
Y414432D01*
Y414425D01*
Y414416D01*
X131561Y414401D01*
X131559Y414385D01*
X131557Y414365D01*
X131554Y414343D01*
X131550Y414317D01*
X131543Y414290D01*
X131537Y414263D01*
X131528Y414234D01*
X131517Y414203D01*
X131504Y414172D01*
X131490Y414141D01*
X131474Y414108D01*
X131455Y414077D01*
X131454Y414075D01*
X131450Y414070D01*
X131445Y414061D01*
X131435Y414050D01*
X131424Y414035D01*
X131410Y414021D01*
X131394Y414003D01*
X131375Y413984D01*
X131355Y413964D01*
X131332Y413942D01*
X131306Y413922D01*
X131277Y413901D01*
X131246Y413881D01*
X131213Y413861D01*
X131179Y413842D01*
X131141Y413826D01*
X131139Y413824D01*
X131131Y413822D01*
X131121Y413819D01*
X131104Y413811D01*
X131084Y413806D01*
X131062Y413799D01*
X131035Y413790D01*
X131004Y413782D01*
X130971Y413773D01*
X130937Y413766D01*
X130898Y413759D01*
X130858Y413751D01*
X130815Y413746D01*
X130771Y413742D01*
X130726Y413740D01*
X130678Y413739D01*
X130651D01*
X130631Y413740D01*
X130607D01*
X130578Y413744D01*
X130547Y413746D01*
X130511Y413750D01*
X130474Y413755D01*
X130434Y413760D01*
X130352Y413777D01*
X130309Y413788D01*
X130267Y413799D01*
X130225Y413813D01*
X130185Y413830D01*
X130183Y413831D01*
X130176Y413833D01*
X130165Y413839D01*
X130150Y413846D01*
X130132Y413855D01*
X130112Y413868D01*
X130089Y413881D01*
X130065Y413897D01*
X130038Y413913D01*
X130012Y413933D01*
X129985Y413955D01*
X129957Y413979D01*
X129930Y414004D01*
X129905Y414033D01*
X129879Y414063D01*
X129857Y414095D01*
X129856Y414097D01*
X129852Y414103D01*
X129847Y414114D01*
X129839Y414126D01*
X129830Y414143D01*
X129819Y414163D01*
X129810Y414185D01*
X129797Y414210D01*
X129787Y414237D01*
X129776Y414268D01*
X129765Y414301D01*
X129755Y414335D01*
X129746Y414372D01*
X129739Y414410D01*
X129736Y414450D01*
X129732Y414490D01*
X130052Y414514D01*
Y414510D01*
X130054Y414503D01*
X130056Y414490D01*
X130060Y414474D01*
X130063Y414456D01*
X130069Y414432D01*
X130076Y414406D01*
X130085Y414379D01*
X130094Y414350D01*
X130107Y414321D01*
X130121Y414292D01*
X130138Y414261D01*
X130156Y414232D01*
X130178Y414205D01*
X130201Y414177D01*
X130227Y414153D01*
X130229Y414152D01*
X130234Y414148D01*
X130242Y414143D01*
X130254Y414134D01*
X130271Y414124D01*
X130289Y414115D01*
X130311Y414104D01*
X130336Y414092D01*
X130365Y414081D01*
X130398Y414070D01*
X130434Y414061D01*
X130473Y414050D01*
X130516Y414043D01*
X130562Y414037D01*
X130611Y414033D01*
X130664Y414032D01*
X130693D01*
X130713Y414033D01*
X130738Y414035D01*
X130766Y414037D01*
X130798Y414041D01*
X130831Y414046D01*
X130904Y414059D01*
X130940Y414068D01*
X130977Y414079D01*
X131011Y414092D01*
X131046Y414106D01*
X131077Y414123D01*
X131104Y414143D01*
X131106Y414144D01*
X131110Y414148D01*
X131117Y414153D01*
X131126Y414163D01*
X131135Y414174D01*
X131148Y414186D01*
X131159Y414201D01*
X131172Y414217D01*
X131184Y414235D01*
X131197Y414257D01*
X131219Y414303D01*
X131228Y414326D01*
X131235Y414354D01*
X131239Y414381D01*
X131241Y414410D01*
Y414412D01*
Y414416D01*
Y414423D01*
X131239Y414432D01*
X131237Y414445D01*
X131235Y414458D01*
X131228Y414488D01*
X131217Y414525D01*
X131201Y414561D01*
X131190Y414581D01*
X131175Y414599D01*
X131161Y414618D01*
X131144Y414634D01*
X131142Y414636D01*
X131139Y414638D01*
X131133Y414643D01*
X131122Y414649D01*
X131110Y414658D01*
X131091Y414667D01*
X131071Y414678D01*
X131046Y414690D01*
X131015Y414703D01*
X130980Y414718D01*
X130938Y414732D01*
X130893Y414749D01*
X130840Y414765D01*
X130782Y414782D01*
X130717Y414798D01*
X130644Y414816D01*
X130642D01*
X130638Y414818D01*
X130633D01*
X130625Y414820D01*
X130616Y414821D01*
X130605Y414825D01*
X130578Y414831D01*
X130545Y414840D01*
X130507Y414849D01*
X130465Y414858D01*
X130422Y414871D01*
X130329Y414894D01*
X130283Y414907D01*
X130238Y414922D01*
X130194Y414934D01*
X130154Y414949D01*
X130118Y414962D01*
X130087Y414974D01*
X130085Y414976D01*
X130078Y414980D01*
X130065Y414985D01*
X130050Y414993D01*
X130032Y415003D01*
X130012Y415014D01*
X129989Y415029D01*
X129963Y415045D01*
X129938Y415062D01*
X129910Y415082D01*
X129856Y415125D01*
X129805Y415176D01*
X129783Y415204D01*
X129761Y415233D01*
X129759Y415235D01*
X129755Y415240D01*
X129752Y415249D01*
X129745Y415260D01*
X129737Y415275D01*
X129728Y415293D01*
X129717Y415313D01*
X129708Y415335D01*
X129699Y415360D01*
X129688Y415387D01*
X129679Y415417D01*
X129672Y415449D01*
X129665Y415482D01*
X129659Y415517D01*
X129657Y415551D01*
X129655Y415590D01*
Y415591D01*
Y415599D01*
Y415610D01*
X129657Y415624D01*
X129659Y415642D01*
X129661Y415662D01*
X129665Y415686D01*
X129670Y415713D01*
X129675Y415741D01*
X129684Y415771D01*
X129694Y415802D01*
X129705Y415835D01*
X129717Y415868D01*
X129734Y415903D01*
X129752Y415935D01*
X129772Y415970D01*
X129774Y415972D01*
X129777Y415977D01*
X129785Y415986D01*
X129794Y415999D01*
X129805Y416014D01*
X129819Y416032D01*
X129836Y416050D01*
X129856Y416070D01*
X129877Y416092D01*
X129903Y416114D01*
X129930Y416137D01*
X129959Y416161D01*
X129990Y416183D01*
X130025Y416205D01*
X130061Y416225D01*
X130101Y416245D01*
X130103Y416247D01*
X130110Y416248D01*
X130123Y416254D01*
X130140Y416259D01*
X130160Y416267D01*
X130183Y416276D01*
X130210Y416285D01*
X130242Y416294D01*
X130276Y416303D01*
X130314Y416312D01*
X130354Y416319D01*
X130396Y416328D01*
X130440Y416334D01*
X130487Y416339D01*
X130536Y416341D01*
X130585Y416343D01*
X130618D01*
X130642Y416341D01*
D02*
G37*
G36*
X123369Y413782D02*
X123060D01*
Y415220D01*
X122328Y414476D01*
X121928D01*
X122625Y415155D01*
X121857Y416301D01*
X122239D01*
X122843Y415368D01*
X123060Y415579D01*
Y416301D01*
X123369D01*
Y413782D01*
D02*
G37*
G36*
X119656Y414476D02*
X119378D01*
Y414756D01*
X119376Y414754D01*
X119372Y414747D01*
X119367Y414738D01*
X119360Y414725D01*
X119351Y414709D01*
X119340Y414690D01*
X119314Y414650D01*
X119283Y414609D01*
X119251Y414565D01*
X119234Y414547D01*
X119218Y414529D01*
X119200Y414512D01*
X119183Y414499D01*
X119181D01*
X119179Y414496D01*
X119174Y414494D01*
X119167Y414488D01*
X119149Y414479D01*
X119125Y414467D01*
X119094Y414456D01*
X119061Y414445D01*
X119025Y414437D01*
X118985Y414436D01*
X118968D01*
X118957Y414437D01*
X118943Y414439D01*
X118927Y414441D01*
X118908Y414445D01*
X118886Y414448D01*
X118863Y414454D01*
X118837Y414459D01*
X118785Y414477D01*
X118755Y414488D01*
X118726Y414503D01*
X118697Y414518D01*
X118666Y414536D01*
X118775Y414821D01*
X118777D01*
X118781Y414818D01*
X118786Y414816D01*
X118796Y414811D01*
X118805Y414807D01*
X118817Y414802D01*
X118846Y414789D01*
X118879Y414776D01*
X118917Y414767D01*
X118959Y414760D01*
X119001Y414756D01*
X119018D01*
X119038Y414760D01*
X119061Y414763D01*
X119088Y414771D01*
X119120Y414782D01*
X119150Y414798D01*
X119181Y414818D01*
X119185Y414821D01*
X119194Y414829D01*
X119209Y414843D01*
X119225Y414861D01*
X119245Y414885D01*
X119263Y414914D01*
X119281Y414949D01*
X119296Y414987D01*
Y414989D01*
X119298Y414994D01*
X119301Y415003D01*
X119303Y415016D01*
X119307Y415031D01*
X119312Y415049D01*
X119316Y415071D01*
X119322Y415093D01*
X119327Y415120D01*
X119331Y415147D01*
X119334Y415176D01*
X119340Y415207D01*
X119345Y415275D01*
X119347Y415347D01*
Y416301D01*
X119656D01*
Y414476D01*
D02*
G37*
G36*
X126545Y416339D02*
X126556D01*
X126583Y416338D01*
X126618Y416334D01*
X126656Y416328D01*
X126700Y416321D01*
X126747Y416310D01*
X126796Y416297D01*
X126849Y416281D01*
X126902Y416261D01*
X126954Y416237D01*
X127007Y416210D01*
X127058Y416177D01*
X127107Y416139D01*
X127153Y416095D01*
X127155Y416092D01*
X127162Y416085D01*
X127175Y416070D01*
X127189Y416050D01*
X127208Y416024D01*
X127226Y415994D01*
X127248Y415959D01*
X127269Y415917D01*
X127291Y415870D01*
X127311Y415819D01*
X127331Y415762D01*
X127349Y415701D01*
X127364Y415633D01*
X127375Y415562D01*
X127384Y415486D01*
X127386Y415404D01*
Y415402D01*
Y415398D01*
Y415393D01*
Y415384D01*
X127384Y415373D01*
Y415360D01*
Y415346D01*
X127382Y415328D01*
X127379Y415289D01*
X127373Y415246D01*
X127366Y415196D01*
X127357Y415142D01*
X127344Y415087D01*
X127328Y415029D01*
X127309Y414969D01*
X127286Y414909D01*
X127259Y414851D01*
X127227Y414794D01*
X127191Y414740D01*
X127149Y414690D01*
X127146Y414687D01*
X127138Y414679D01*
X127126Y414667D01*
X127106Y414650D01*
X127082Y414630D01*
X127055Y414610D01*
X127022Y414587D01*
X126984Y414563D01*
X126942Y414539D01*
X126894Y414516D01*
X126845Y414494D01*
X126791Y414476D01*
X126731Y414459D01*
X126669Y414447D01*
X126603Y414439D01*
X126534Y414436D01*
X126518D01*
X126499Y414437D01*
X126474Y414439D01*
X126441Y414443D01*
X126407Y414448D01*
X126367Y414456D01*
X126323Y414467D01*
X126276Y414479D01*
X126228Y414496D01*
X126177Y414516D01*
X126128Y414541D01*
X126077Y414569D01*
X126030Y414603D01*
X125983Y414641D01*
X125937Y414685D01*
X125935Y414689D01*
X125926Y414696D01*
X125915Y414711D01*
X125901Y414731D01*
X125883Y414756D01*
X125863Y414787D01*
X125842Y414823D01*
X125821Y414865D01*
X125799Y414913D01*
X125777Y414965D01*
X125759Y415024D01*
X125741Y415085D01*
X125726Y415153D01*
X125713Y415226D01*
X125706Y415304D01*
X125704Y415386D01*
Y415387D01*
Y415391D01*
Y415397D01*
Y415406D01*
Y415418D01*
Y415431D01*
X125706Y415448D01*
Y415468D01*
X127067D01*
Y415471D01*
X127066Y415480D01*
Y415497D01*
X127062Y415517D01*
X127058Y415542D01*
X127055Y415571D01*
X127047Y415602D01*
X127040Y415637D01*
X127031Y415675D01*
X127018Y415711D01*
X127006Y415750D01*
X126989Y415788D01*
X126971Y415826D01*
X126949Y415863D01*
X126925Y415897D01*
X126898Y415928D01*
X126896Y415930D01*
X126891Y415935D01*
X126882Y415943D01*
X126871Y415953D01*
X126856Y415965D01*
X126838Y415977D01*
X126816Y415992D01*
X126793Y416006D01*
X126767Y416023D01*
X126738Y416035D01*
X126707Y416050D01*
X126672Y416061D01*
X126636Y416072D01*
X126598Y416079D01*
X126558Y416085D01*
X126516Y416086D01*
X126499D01*
X126487Y416085D01*
X126472Y416083D01*
X126456Y416081D01*
X126436Y416079D01*
X126416Y416076D01*
X126370Y416065D01*
X126321Y416048D01*
X126296Y416039D01*
X126272Y416026D01*
X126248Y416014D01*
X126225Y415997D01*
X126223Y415995D01*
X126219Y415994D01*
X126214Y415988D01*
X126205Y415981D01*
X126194Y415970D01*
X126183Y415959D01*
X126170Y415944D01*
X126156Y415928D01*
X126141Y415908D01*
X126125Y415888D01*
X126110Y415864D01*
X126094Y415839D01*
X126077Y415810D01*
X126063Y415779D01*
X126048Y415746D01*
X126034Y415710D01*
X125715Y415752D01*
Y415755D01*
X125719Y415764D01*
X125724Y415779D01*
X125730Y415797D01*
X125739Y415821D01*
X125750Y415848D01*
X125762Y415879D01*
X125779Y415912D01*
X125797Y415944D01*
X125817Y415981D01*
X125841Y416017D01*
X125866Y416054D01*
X125893Y416088D01*
X125924Y416123D01*
X125959Y416156D01*
X125995Y416187D01*
X125997Y416188D01*
X126005Y416194D01*
X126015Y416201D01*
X126032Y416210D01*
X126052Y416223D01*
X126077Y416236D01*
X126105Y416250D01*
X126137Y416263D01*
X126174Y416278D01*
X126212Y416292D01*
X126256Y416305D01*
X126301Y416318D01*
X126350Y416327D01*
X126403Y416334D01*
X126460Y416339D01*
X126518Y416341D01*
X126536D01*
X126545Y416339D01*
D02*
G37*
G36*
X120872D02*
X120883D01*
X120910Y416338D01*
X120945Y416334D01*
X120983Y416328D01*
X121027Y416321D01*
X121074Y416310D01*
X121123Y416297D01*
X121176Y416281D01*
X121229Y416261D01*
X121282Y416237D01*
X121334Y416210D01*
X121385Y416177D01*
X121434Y416139D01*
X121480Y416095D01*
X121482Y416092D01*
X121489Y416085D01*
X121502Y416070D01*
X121516Y416050D01*
X121535Y416024D01*
X121553Y415994D01*
X121575Y415959D01*
X121597Y415917D01*
X121618Y415870D01*
X121638Y415819D01*
X121658Y415762D01*
X121677Y415701D01*
X121691Y415633D01*
X121702Y415562D01*
X121711Y415486D01*
X121713Y415404D01*
Y415402D01*
Y415398D01*
Y415393D01*
Y415384D01*
X121711Y415373D01*
Y415360D01*
Y415346D01*
X121709Y415328D01*
X121706Y415289D01*
X121700Y415246D01*
X121693Y415196D01*
X121684Y415142D01*
X121671Y415087D01*
X121655Y415029D01*
X121636Y414969D01*
X121613Y414909D01*
X121586Y414851D01*
X121555Y414794D01*
X121518Y414740D01*
X121476Y414690D01*
X121473Y414687D01*
X121465Y414679D01*
X121453Y414667D01*
X121433Y414650D01*
X121409Y414630D01*
X121382Y414610D01*
X121349Y414587D01*
X121311Y414563D01*
X121269Y414539D01*
X121222Y414516D01*
X121172Y414494D01*
X121118Y414476D01*
X121058Y414459D01*
X120996Y414447D01*
X120930Y414439D01*
X120861Y414436D01*
X120845D01*
X120827Y414437D01*
X120801Y414439D01*
X120768Y414443D01*
X120734Y414448D01*
X120694Y414456D01*
X120650Y414467D01*
X120603Y414479D01*
X120555Y414496D01*
X120504Y414516D01*
X120455Y414541D01*
X120404Y414569D01*
X120357Y414603D01*
X120310Y414641D01*
X120264Y414685D01*
X120262Y414689D01*
X120253Y414696D01*
X120242Y414711D01*
X120228Y414731D01*
X120210Y414756D01*
X120190Y414787D01*
X120170Y414823D01*
X120148Y414865D01*
X120126Y414913D01*
X120104Y414965D01*
X120086Y415024D01*
X120068Y415085D01*
X120053Y415153D01*
X120040Y415226D01*
X120033Y415304D01*
X120031Y415386D01*
Y415387D01*
Y415391D01*
Y415397D01*
Y415406D01*
Y415418D01*
Y415431D01*
X120033Y415448D01*
Y415468D01*
X121395D01*
Y415471D01*
X121393Y415480D01*
Y415497D01*
X121389Y415517D01*
X121385Y415542D01*
X121382Y415571D01*
X121374Y415602D01*
X121367Y415637D01*
X121358Y415675D01*
X121345Y415711D01*
X121333Y415750D01*
X121316Y415788D01*
X121298Y415826D01*
X121276Y415863D01*
X121253Y415897D01*
X121225Y415928D01*
X121223Y415930D01*
X121218Y415935D01*
X121209Y415943D01*
X121198Y415953D01*
X121183Y415965D01*
X121165Y415977D01*
X121143Y415992D01*
X121120Y416006D01*
X121094Y416023D01*
X121065Y416035D01*
X121034Y416050D01*
X121000Y416061D01*
X120963Y416072D01*
X120925Y416079D01*
X120885Y416085D01*
X120843Y416086D01*
X120827D01*
X120814Y416085D01*
X120799Y416083D01*
X120783Y416081D01*
X120763Y416079D01*
X120743Y416076D01*
X120697Y416065D01*
X120648Y416048D01*
X120623Y416039D01*
X120599Y416026D01*
X120575Y416014D01*
X120552Y415997D01*
X120550Y415995D01*
X120546Y415994D01*
X120541Y415988D01*
X120532Y415981D01*
X120521Y415970D01*
X120510Y415959D01*
X120497Y415944D01*
X120483Y415928D01*
X120468Y415908D01*
X120452Y415888D01*
X120437Y415864D01*
X120421Y415839D01*
X120404Y415810D01*
X120390Y415779D01*
X120375Y415746D01*
X120361Y415710D01*
X120042Y415752D01*
Y415755D01*
X120046Y415764D01*
X120051Y415779D01*
X120057Y415797D01*
X120066Y415821D01*
X120077Y415848D01*
X120089Y415879D01*
X120106Y415912D01*
X120124Y415944D01*
X120144Y415981D01*
X120168Y416017D01*
X120193Y416054D01*
X120221Y416088D01*
X120252Y416123D01*
X120286Y416156D01*
X120323Y416187D01*
X120324Y416188D01*
X120332Y416194D01*
X120343Y416201D01*
X120359Y416210D01*
X120379Y416223D01*
X120404Y416236D01*
X120432Y416250D01*
X120464Y416263D01*
X120501Y416278D01*
X120539Y416292D01*
X120583Y416305D01*
X120628Y416318D01*
X120677Y416327D01*
X120730Y416334D01*
X120787Y416339D01*
X120845Y416341D01*
X120863D01*
X120872Y416339D01*
D02*
G37*
G36*
X266771Y380101D02*
X266796Y380099D01*
X266827Y380097D01*
X266863Y380092D01*
X266903Y380086D01*
X266947Y380077D01*
X266992Y380066D01*
X267040Y380053D01*
X267089Y380037D01*
X267138Y380017D01*
X267187Y379993D01*
X267235Y379968D01*
X267280Y379937D01*
X267324Y379901D01*
X267326Y379899D01*
X267333Y379891D01*
X267344Y379880D01*
X267358Y379864D01*
X267375Y379844D01*
X267393Y379822D01*
X267413Y379795D01*
X267435Y379764D01*
X267455Y379729D01*
X267475Y379693D01*
X267493Y379653D01*
X267509Y379609D01*
X267524Y379564D01*
X267535Y379517D01*
X267542Y379466D01*
X267544Y379413D01*
Y379411D01*
Y379405D01*
Y379396D01*
X267542Y379385D01*
Y379371D01*
X267540Y379353D01*
X267537Y379334D01*
X267535Y379313D01*
X267526Y379267D01*
X267511Y379216D01*
X267491Y379162D01*
X267480Y379136D01*
X267466Y379109D01*
Y379107D01*
X267462Y379103D01*
X267457Y379094D01*
X267451Y379083D01*
X267442Y379071D01*
X267429Y379054D01*
X267417Y379036D01*
X267400Y379014D01*
X267380Y378991D01*
X267358Y378965D01*
X267333Y378938D01*
X267306Y378909D01*
X267275Y378876D01*
X267242Y378843D01*
X267204Y378807D01*
X267164Y378770D01*
X267162Y378768D01*
X267156Y378765D01*
X267149Y378758D01*
X267140Y378748D01*
X267127Y378738D01*
X267113Y378725D01*
X267082Y378696D01*
X267049Y378665D01*
X267016Y378632D01*
X266987Y378601D01*
X266976Y378587D01*
X266965Y378574D01*
X266963Y378570D01*
X266958Y378563D01*
X266949Y378550D01*
X266940Y378532D01*
X266929Y378510D01*
X266916Y378485D01*
X266905Y378457D01*
X266896Y378426D01*
Y378423D01*
X266894Y378417D01*
X266892Y378410D01*
X266891Y378403D01*
X266889Y378390D01*
X266887Y378377D01*
X266885Y378363D01*
X266883Y378344D01*
X266881Y378326D01*
X266878Y378304D01*
X266876Y378279D01*
Y378253D01*
X266874Y378224D01*
X266872Y378193D01*
Y378161D01*
X266576D01*
Y378162D01*
Y378170D01*
Y378181D01*
Y378195D01*
X266574Y378224D01*
Y378239D01*
Y378252D01*
Y378253D01*
Y378259D01*
Y378270D01*
Y378282D01*
X266576Y378297D01*
X266578Y378317D01*
Y378337D01*
X266581Y378359D01*
X266587Y378408D01*
X266596Y378461D01*
X266609Y378516D01*
X266625Y378567D01*
Y378568D01*
X266627Y378572D01*
X266629Y378576D01*
X266632Y378583D01*
X266641Y378603D01*
X266654Y378628D01*
X266672Y378659D01*
X266692Y378694D01*
X266718Y378730D01*
X266747Y378767D01*
X266751Y378770D01*
X266760Y378781D01*
X266774Y378798D01*
X266785Y378808D01*
X266798Y378821D01*
X266812Y378836D01*
X266829Y378852D01*
X266847Y378870D01*
X266867Y378890D01*
X266889Y378910D01*
X266914Y378934D01*
X266940Y378958D01*
X266969Y378983D01*
X266971Y378985D01*
X266976Y378989D01*
X266983Y378998D01*
X266994Y379007D01*
X267007Y379020D01*
X267022Y379032D01*
X267054Y379065D01*
X267091Y379101D01*
X267124Y379138D01*
X267140Y379158D01*
X267155Y379174D01*
X267165Y379192D01*
X267176Y379209D01*
Y379211D01*
X267178Y379213D01*
X267184Y379223D01*
X267193Y379240D01*
X267202Y379263D01*
X267209Y379291D01*
X267218Y379322D01*
X267224Y379356D01*
X267226Y379393D01*
Y379395D01*
Y379400D01*
Y379411D01*
X267224Y379424D01*
X267222Y379438D01*
X267218Y379456D01*
X267213Y379478D01*
X267207Y379500D01*
X267200Y379524D01*
X267191Y379549D01*
X267180Y379575D01*
X267165Y379602D01*
X267149Y379629D01*
X267131Y379657D01*
X267109Y379684D01*
X267084Y379709D01*
X267082Y379711D01*
X267078Y379715D01*
X267069Y379722D01*
X267058Y379731D01*
X267045Y379742D01*
X267029Y379753D01*
X267009Y379766D01*
X266989Y379779D01*
X266963Y379791D01*
X266938Y379804D01*
X266909Y379815D01*
X266880Y379826D01*
X266847Y379835D01*
X266812Y379842D01*
X266778Y379846D01*
X266740Y379848D01*
X266720D01*
X266707Y379846D01*
X266690Y379844D01*
X266670Y379840D01*
X266649Y379837D01*
X266623Y379831D01*
X266598Y379826D01*
X266572Y379817D01*
X266545Y379808D01*
X266516Y379795D01*
X266488Y379780D01*
X266461Y379764D01*
X266434Y379744D01*
X266408Y379722D01*
X266406Y379720D01*
X266403Y379717D01*
X266396Y379709D01*
X266387Y379698D01*
X266377Y379686D01*
X266365Y379669D01*
X266352Y379649D01*
X266337Y379627D01*
X266323Y379602D01*
X266308Y379573D01*
X266296Y379542D01*
X266281Y379507D01*
X266268Y379469D01*
X266255Y379427D01*
X266246Y379384D01*
X266237Y379336D01*
X265919Y379376D01*
Y379378D01*
Y379380D01*
X265921Y379385D01*
Y379393D01*
X265924Y379411D01*
X265928Y379435D01*
X265935Y379464D01*
X265942Y379498D01*
X265953Y379535D01*
X265966Y379575D01*
X265981Y379618D01*
X265999Y379662D01*
X266019Y379708D01*
X266042Y379751D01*
X266070Y379795D01*
X266101Y379839D01*
X266133Y379879D01*
X266172Y379915D01*
X266174Y379917D01*
X266181Y379922D01*
X266194Y379933D01*
X266210Y379944D01*
X266232Y379959D01*
X266257Y379975D01*
X266288Y379992D01*
X266323Y380010D01*
X266361Y380026D01*
X266403Y380043D01*
X266448Y380059D01*
X266499Y380073D01*
X266552Y380086D01*
X266610Y380095D01*
X266670Y380101D01*
X266734Y380103D01*
X266751D01*
X266771Y380101D01*
D02*
G37*
G36*
X265480Y378605D02*
Y378603D01*
Y378601D01*
Y378596D01*
Y378588D01*
Y378579D01*
Y378568D01*
X265478Y378543D01*
Y378510D01*
X265476Y378474D01*
X265473Y378432D01*
X265469Y378388D01*
X265464Y378341D01*
X265458Y378292D01*
X265444Y378192D01*
X265433Y378141D01*
X265422Y378093D01*
X265407Y378046D01*
X265393Y378002D01*
X265391Y378000D01*
X265389Y377993D01*
X265384Y377980D01*
X265376Y377966D01*
X265366Y377946D01*
X265354Y377924D01*
X265340Y377900D01*
X265322Y377873D01*
X265302Y377844D01*
X265280Y377815D01*
X265254Y377786D01*
X265225Y377755D01*
X265194Y377724D01*
X265162Y377695D01*
X265123Y377666D01*
X265083Y377638D01*
X265082Y377637D01*
X265072Y377633D01*
X265060Y377625D01*
X265043Y377616D01*
X265020Y377606D01*
X264994Y377595D01*
X264961Y377582D01*
X264927Y377569D01*
X264885Y377556D01*
X264841Y377544D01*
X264794Y377533D01*
X264741Y377522D01*
X264685Y377513D01*
X264625Y377505D01*
X264563Y377502D01*
X264495Y377500D01*
X264461D01*
X264437Y377502D01*
X264406Y377504D01*
X264372Y377507D01*
X264332Y377511D01*
X264290Y377515D01*
X264244Y377522D01*
X264197Y377529D01*
X264150Y377540D01*
X264101Y377551D01*
X264053Y377566D01*
X264004Y377582D01*
X263959Y377600D01*
X263915Y377622D01*
X263913Y377624D01*
X263906Y377627D01*
X263893Y377635D01*
X263878Y377644D01*
X263860Y377657D01*
X263839Y377673D01*
X263817Y377691D01*
X263791Y377711D01*
X263766Y377735D01*
X263738Y377762D01*
X263711Y377789D01*
X263686Y377822D01*
X263660Y377855D01*
X263636Y377893D01*
X263615Y377931D01*
X263595Y377973D01*
X263593Y377977D01*
X263591Y377984D01*
X263585Y377997D01*
X263580Y378015D01*
X263573Y378039D01*
X263565Y378068D01*
X263556Y378101D01*
X263547Y378139D01*
X263538Y378183D01*
X263529Y378230D01*
X263522Y378281D01*
X263514Y378337D01*
X263509Y378397D01*
X263504Y378463D01*
X263502Y378532D01*
X263500Y378605D01*
Y380061D01*
X263833D01*
Y378607D01*
Y378603D01*
Y378592D01*
Y378576D01*
X263835Y378554D01*
Y378526D01*
X263837Y378496D01*
X263839Y378461D01*
X263840Y378423D01*
X263844Y378384D01*
X263848Y378344D01*
X263859Y378264D01*
X263866Y378226D01*
X263873Y378188D01*
X263882Y378153D01*
X263893Y378122D01*
Y378121D01*
X263897Y378115D01*
X263900Y378108D01*
X263906Y378097D01*
X263911Y378084D01*
X263920Y378070D01*
X263942Y378035D01*
X263971Y377997D01*
X263988Y377977D01*
X264008Y377957D01*
X264028Y377937D01*
X264051Y377919D01*
X264075Y377900D01*
X264102Y377884D01*
X264104D01*
X264110Y377880D01*
X264117Y377877D01*
X264130Y377871D01*
X264144Y377864D01*
X264161Y377857D01*
X264181Y377849D01*
X264204Y377842D01*
X264230Y377835D01*
X264257Y377828D01*
X264286Y377820D01*
X264319Y377813D01*
X264353Y377807D01*
X264390Y377804D01*
X264426Y377802D01*
X264466Y377800D01*
X264483D01*
X264501Y377802D01*
X264526D01*
X264557Y377806D01*
X264590Y377809D01*
X264628Y377815D01*
X264670Y377820D01*
X264712Y377829D01*
X264756Y377840D01*
X264799Y377855D01*
X264843Y377869D01*
X264885Y377889D01*
X264923Y377911D01*
X264960Y377937D01*
X264990Y377966D01*
X264992Y377968D01*
X264998Y377973D01*
X265005Y377984D01*
X265014Y377999D01*
X265027Y378019D01*
X265040Y378044D01*
X265054Y378073D01*
X265069Y378110D01*
X265083Y378150D01*
X265098Y378195D01*
X265111Y378248D01*
X265123Y378306D01*
X265132Y378372D01*
X265140Y378443D01*
X265145Y378521D01*
X265147Y378607D01*
Y380061D01*
X265480D01*
Y378605D01*
D02*
G37*
G36*
X266872Y377542D02*
X266521D01*
Y377893D01*
X266872D01*
Y377542D01*
D02*
G37*
G36*
X121061Y444746D02*
X121059Y444720D01*
Y444695D01*
X121057Y444666D01*
X121055Y444604D01*
X121050Y444540D01*
X121044Y444478D01*
X121039Y444449D01*
X121035Y444424D01*
Y444422D01*
X121033Y444415D01*
X121032Y444406D01*
X121030Y444393D01*
X121026Y444376D01*
X121021Y444358D01*
X121015Y444338D01*
X121010Y444314D01*
X120993Y444265D01*
X120972Y444214D01*
X120948Y444162D01*
X120917Y444112D01*
X120915Y444111D01*
X120913Y444107D01*
X120908Y444100D01*
X120900Y444093D01*
X120893Y444081D01*
X120882Y444069D01*
X120870Y444054D01*
X120855Y444040D01*
X120839Y444025D01*
X120820Y444009D01*
X120779Y443974D01*
X120729Y443941D01*
X120675Y443911D01*
X120673Y443909D01*
X120668Y443907D01*
X120659Y443903D01*
X120648Y443898D01*
X120633Y443892D01*
X120615Y443887D01*
X120595Y443880D01*
X120573Y443872D01*
X120549Y443865D01*
X120522Y443858D01*
X120495Y443852D01*
X120464Y443847D01*
X120400Y443838D01*
X120331Y443834D01*
X120327D01*
X120316D01*
X120300Y443836D01*
X120278Y443838D01*
X120249Y443840D01*
X120218Y443845D01*
X120182Y443850D01*
X120143Y443859D01*
X120101Y443870D01*
X120058Y443885D01*
X120012Y443901D01*
X119967Y443921D01*
X119921Y443945D01*
X119876Y443972D01*
X119830Y444003D01*
X119789Y444040D01*
X119787Y444041D01*
X119779Y444049D01*
X119769Y444062D01*
X119754Y444080D01*
X119738Y444103D01*
X119718Y444133D01*
X119697Y444167D01*
X119677Y444209D01*
X119658Y444256D01*
X119637Y444309D01*
X119617Y444371D01*
X119601Y444436D01*
X119587Y444511D01*
X119581Y444551D01*
X119576Y444593D01*
X119572Y444637D01*
X119568Y444682D01*
X119567Y444730D01*
Y445423D01*
X118542D01*
Y445756D01*
X121061D01*
Y444746D01*
D02*
G37*
G36*
Y442920D02*
X119277Y442323D01*
X119273Y442322D01*
X119266Y442320D01*
X119253Y442316D01*
X119237Y442311D01*
X119215Y442303D01*
X119192Y442296D01*
X119166Y442287D01*
X119137Y442278D01*
X119077Y442258D01*
X119015Y442238D01*
X118984Y442229D01*
X118955Y442220D01*
X118930Y442211D01*
X118904Y442203D01*
X118906D01*
X118911Y442202D01*
X118919Y442198D01*
X118930Y442194D01*
X118944Y442191D01*
X118962Y442185D01*
X118982Y442178D01*
X119006Y442171D01*
X119033Y442161D01*
X119062Y442150D01*
X119095Y442140D01*
X119132Y442129D01*
X119172Y442114D01*
X119213Y442101D01*
X119259Y442085D01*
X119308Y442069D01*
X121061Y441464D01*
Y441015D01*
X118542D01*
Y441337D01*
X120649D01*
X118542Y442070D01*
Y442373D01*
X120686Y443099D01*
X118542D01*
Y443421D01*
X121061D01*
Y442920D01*
D02*
G37*
G36*
X119858Y440574D02*
X119885D01*
X119920Y440571D01*
X119960Y440569D01*
X120005Y440563D01*
X120054Y440558D01*
X120105Y440549D01*
X120160Y440540D01*
X120218Y440527D01*
X120276Y440513D01*
X120334Y440496D01*
X120393Y440476D01*
X120449Y440452D01*
X120506Y440427D01*
X120509Y440425D01*
X120518Y440420D01*
X120533Y440411D01*
X120555Y440400D01*
X120578Y440383D01*
X120606Y440365D01*
X120638Y440341D01*
X120671Y440316D01*
X120706Y440289D01*
X120744Y440256D01*
X120780Y440221D01*
X120817Y440183D01*
X120853Y440141D01*
X120888Y440098D01*
X120921Y440050D01*
X120951Y439999D01*
X120953Y439996D01*
X120959Y439987D01*
X120966Y439972D01*
X120975Y439950D01*
X120988Y439925D01*
X121001Y439894D01*
X121013Y439857D01*
X121028Y439819D01*
X121043Y439775D01*
X121055Y439728D01*
X121070Y439677D01*
X121081Y439624D01*
X121090Y439568D01*
X121097Y439510D01*
X121102Y439450D01*
X121104Y439388D01*
Y439362D01*
X121102Y439351D01*
X121101Y439324D01*
X121099Y439291D01*
X121093Y439255D01*
X121088Y439213D01*
X121081Y439166D01*
X121070Y439117D01*
X121057Y439066D01*
X121043Y439013D01*
X121022Y438960D01*
X121001Y438907D01*
X120975Y438853D01*
X120946Y438802D01*
X120911Y438753D01*
X120910Y438749D01*
X120902Y438742D01*
X120891Y438727D01*
X120875Y438711D01*
X120857Y438689D01*
X120831Y438665D01*
X120804Y438640D01*
X120771Y438611D01*
X120735Y438582D01*
X120695Y438551D01*
X120649Y438521D01*
X120602Y438492D01*
X120549Y438463D01*
X120493Y438438D01*
X120433Y438412D01*
X120369Y438392D01*
X120293Y438720D01*
X120296Y438722D01*
X120305Y438724D01*
X120318Y438729D01*
X120338Y438736D01*
X120360Y438745D01*
X120386Y438756D01*
X120415Y438771D01*
X120446Y438785D01*
X120478Y438802D01*
X120511Y438822D01*
X120544Y438842D01*
X120578Y438865D01*
X120609Y438891D01*
X120640Y438916D01*
X120668Y438945D01*
X120693Y438976D01*
X120695Y438978D01*
X120698Y438984D01*
X120704Y438993D01*
X120713Y439006D01*
X120722Y439022D01*
X120733Y439042D01*
X120744Y439066D01*
X120757Y439091D01*
X120768Y439120D01*
X120779Y439151D01*
X120790Y439186D01*
X120799Y439222D01*
X120808Y439262D01*
X120813Y439304D01*
X120817Y439348D01*
X120819Y439395D01*
Y439422D01*
X120817Y439442D01*
X120815Y439468D01*
X120811Y439497D01*
X120808Y439530D01*
X120800Y439564D01*
X120793Y439603D01*
X120784Y439641D01*
X120773Y439681D01*
X120760Y439723D01*
X120744Y439763D01*
X120724Y439803D01*
X120704Y439843D01*
X120678Y439881D01*
X120677Y439883D01*
X120673Y439890D01*
X120664Y439899D01*
X120653Y439912D01*
X120638Y439928D01*
X120622Y439947D01*
X120602Y439966D01*
X120580Y439988D01*
X120555Y440010D01*
X120527Y440034D01*
X120496Y440056D01*
X120462Y440077D01*
X120427Y440099D01*
X120389Y440119D01*
X120349Y440138D01*
X120305Y440154D01*
X120304D01*
X120294Y440158D01*
X120282Y440161D01*
X120265Y440167D01*
X120244Y440172D01*
X120218Y440179D01*
X120189Y440185D01*
X120156Y440192D01*
X120122Y440200D01*
X120083Y440207D01*
X120043Y440214D01*
X120001Y440219D01*
X119914Y440229D01*
X119869Y440230D01*
X119821Y440232D01*
X119818D01*
X119807D01*
X119790D01*
X119767Y440230D01*
X119739Y440229D01*
X119707Y440227D01*
X119670Y440225D01*
X119632Y440221D01*
X119588Y440216D01*
X119543Y440210D01*
X119450Y440192D01*
X119401Y440183D01*
X119353Y440170D01*
X119306Y440156D01*
X119261Y440139D01*
X119259Y440138D01*
X119250Y440136D01*
X119239Y440130D01*
X119222Y440121D01*
X119202Y440112D01*
X119179Y440099D01*
X119153Y440085D01*
X119126Y440068D01*
X119099Y440048D01*
X119070Y440027D01*
X119039Y440003D01*
X119009Y439978D01*
X118980Y439948D01*
X118953Y439917D01*
X118928Y439885D01*
X118904Y439848D01*
X118902Y439846D01*
X118898Y439839D01*
X118893Y439828D01*
X118886Y439814D01*
X118877Y439795D01*
X118866Y439774D01*
X118857Y439748D01*
X118846Y439721D01*
X118833Y439690D01*
X118824Y439657D01*
X118813Y439621D01*
X118804Y439584D01*
X118797Y439544D01*
X118791Y439504D01*
X118788Y439462D01*
X118786Y439421D01*
Y439408D01*
X118788Y439393D01*
Y439373D01*
X118791Y439350D01*
X118795Y439322D01*
X118798Y439290D01*
X118806Y439257D01*
X118815Y439220D01*
X118826Y439182D01*
X118839Y439142D01*
X118853Y439102D01*
X118871Y439062D01*
X118893Y439022D01*
X118919Y438984D01*
X118946Y438945D01*
X118948Y438944D01*
X118953Y438936D01*
X118962Y438927D01*
X118977Y438915D01*
X118993Y438898D01*
X119013Y438880D01*
X119039Y438860D01*
X119066Y438840D01*
X119099Y438818D01*
X119133Y438796D01*
X119173Y438773D01*
X119217Y438753D01*
X119263Y438731D01*
X119314Y438713D01*
X119366Y438696D01*
X119424Y438682D01*
X119341Y438348D01*
X119339D01*
X119335Y438350D01*
X119330Y438352D01*
X119323Y438354D01*
X119314Y438356D01*
X119301Y438359D01*
X119273Y438369D01*
X119239Y438381D01*
X119201Y438396D01*
X119157Y438414D01*
X119110Y438436D01*
X119059Y438460D01*
X119008Y438487D01*
X118957Y438518D01*
X118904Y438552D01*
X118853Y438591D01*
X118804Y438632D01*
X118758Y438678D01*
X118715Y438727D01*
X118713Y438731D01*
X118706Y438740D01*
X118695Y438754D01*
X118682Y438776D01*
X118666Y438802D01*
X118647Y438834D01*
X118627Y438871D01*
X118607Y438913D01*
X118587Y438958D01*
X118567Y439009D01*
X118549Y439064D01*
X118533Y439122D01*
X118520Y439186D01*
X118509Y439251D01*
X118502Y439320D01*
X118500Y439393D01*
Y439421D01*
X118502Y439433D01*
Y439461D01*
X118505Y439495D01*
X118509Y439535D01*
X118515Y439581D01*
X118520Y439628D01*
X118529Y439681D01*
X118540Y439734D01*
X118554Y439790D01*
X118569Y439845D01*
X118589Y439899D01*
X118611Y439954D01*
X118636Y440007D01*
X118666Y440056D01*
X118667Y440059D01*
X118673Y440067D01*
X118684Y440079D01*
X118696Y440098D01*
X118713Y440119D01*
X118735Y440143D01*
X118758Y440170D01*
X118788Y440200D01*
X118820Y440230D01*
X118855Y440261D01*
X118895Y440294D01*
X118937Y440327D01*
X118984Y440358D01*
X119033Y440389D01*
X119088Y440418D01*
X119144Y440443D01*
X119146D01*
X119148Y440445D01*
X119159Y440449D01*
X119175Y440456D01*
X119199Y440463D01*
X119228Y440474D01*
X119263Y440485D01*
X119303Y440498D01*
X119346Y440509D01*
X119395Y440522D01*
X119448Y440534D01*
X119503Y440545D01*
X119563Y440556D01*
X119623Y440563D01*
X119687Y440571D01*
X119752Y440574D01*
X119819Y440576D01*
X119821D01*
X119825D01*
X119830D01*
X119838D01*
X119847D01*
X119858Y440574D01*
D02*
G37*
G36*
X120438Y437824D02*
X120442Y437817D01*
X120449Y437803D01*
X120458Y437784D01*
X120469Y437762D01*
X120484Y437735D01*
X120500Y437706D01*
X120518Y437675D01*
X120540Y437641D01*
X120562Y437604D01*
X120613Y437528D01*
X120669Y437450D01*
X120731Y437375D01*
X120733Y437373D01*
X120739Y437366D01*
X120748Y437357D01*
X120760Y437344D01*
X120777Y437327D01*
X120795Y437309D01*
X120817Y437289D01*
X120839Y437267D01*
X120864Y437246D01*
X120891Y437222D01*
X120948Y437177D01*
X121008Y437135D01*
X121039Y437116D01*
X121070Y437100D01*
Y436900D01*
X118542D01*
Y437209D01*
X120511D01*
X120509Y437211D01*
X120506Y437215D01*
X120500Y437220D01*
X120493Y437229D01*
X120484Y437240D01*
X120471Y437255D01*
X120458Y437271D01*
X120444Y437288D01*
X120429Y437309D01*
X120411Y437331D01*
X120395Y437355D01*
X120375Y437380D01*
X120356Y437409D01*
X120336Y437439D01*
X120296Y437504D01*
X120294Y437506D01*
X120291Y437511D01*
X120285Y437522D01*
X120280Y437535D01*
X120271Y437550D01*
X120260Y437568D01*
X120249Y437590D01*
X120236Y437611D01*
X120211Y437662D01*
X120185Y437717D01*
X120160Y437773D01*
X120138Y437828D01*
X120436D01*
X120438Y437824D01*
D02*
G37*
G36*
X305480Y446260D02*
Y446258D01*
X305477Y446254D01*
X305475Y446249D01*
X305469Y446240D01*
X305466Y446231D01*
X305460Y446218D01*
X305448Y446189D01*
X305435Y446156D01*
X305426Y446118D01*
X305418Y446076D01*
X305415Y446034D01*
Y446018D01*
X305418Y445998D01*
X305422Y445974D01*
X305429Y445947D01*
X305440Y445916D01*
X305457Y445885D01*
X305477Y445854D01*
X305480Y445850D01*
X305488Y445841D01*
X305502Y445827D01*
X305520Y445810D01*
X305544Y445790D01*
X305573Y445772D01*
X305608Y445754D01*
X305646Y445739D01*
X305648D01*
X305653Y445738D01*
X305662Y445734D01*
X305675Y445732D01*
X305690Y445728D01*
X305708Y445723D01*
X305730Y445719D01*
X305751Y445714D01*
X305779Y445709D01*
X305806Y445705D01*
X305835Y445701D01*
X305866Y445696D01*
X305933Y445690D01*
X306006Y445688D01*
X306960D01*
Y445379D01*
X305135D01*
Y445657D01*
X305415D01*
X305413Y445659D01*
X305406Y445663D01*
X305397Y445668D01*
X305384Y445676D01*
X305367Y445685D01*
X305349Y445696D01*
X305309Y445721D01*
X305267Y445752D01*
X305224Y445785D01*
X305205Y445801D01*
X305187Y445818D01*
X305171Y445836D01*
X305158Y445852D01*
Y445854D01*
X305155Y445856D01*
X305153Y445861D01*
X305147Y445869D01*
X305138Y445887D01*
X305125Y445911D01*
X305115Y445941D01*
X305104Y445974D01*
X305096Y446011D01*
X305095Y446051D01*
Y446067D01*
X305096Y446078D01*
X305098Y446093D01*
X305100Y446109D01*
X305104Y446127D01*
X305107Y446149D01*
X305113Y446173D01*
X305118Y446198D01*
X305136Y446251D01*
X305147Y446280D01*
X305162Y446309D01*
X305176Y446338D01*
X305195Y446369D01*
X305480Y446260D01*
D02*
G37*
G36*
X306960Y444606D02*
X306729D01*
X306733Y444604D01*
X306740Y444598D01*
X306754Y444587D01*
X306771Y444573D01*
X306792Y444555D01*
X306814Y444533D01*
X306840Y444506D01*
X306863Y444476D01*
X306889Y444442D01*
X306914Y444404D01*
X306936Y444362D01*
X306958Y444316D01*
X306975Y444267D01*
X306989Y444212D01*
X306996Y444156D01*
X307000Y444094D01*
Y444072D01*
X306998Y444058D01*
X306996Y444038D01*
X306993Y444016D01*
X306989Y443990D01*
X306985Y443963D01*
X306978Y443932D01*
X306971Y443901D01*
X306962Y443868D01*
X306949Y443834D01*
X306936Y443799D01*
X306920Y443763D01*
X306902Y443728D01*
X306880Y443694D01*
X306878Y443692D01*
X306874Y443686D01*
X306867Y443676D01*
X306858Y443665D01*
X306845Y443648D01*
X306831Y443630D01*
X306813Y443612D01*
X306792Y443590D01*
X306771Y443568D01*
X306745Y443544D01*
X306718Y443521D01*
X306687Y443497D01*
X306656Y443475D01*
X306622Y443452D01*
X306583Y443432D01*
X306545Y443412D01*
X306543Y443410D01*
X306536Y443408D01*
X306523Y443402D01*
X306507Y443395D01*
X306487Y443388D01*
X306463Y443381D01*
X306434Y443372D01*
X306403Y443363D01*
X306368Y443352D01*
X306330Y443342D01*
X306288Y443335D01*
X306245Y443328D01*
X306199Y443321D01*
X306152Y443315D01*
X306101Y443313D01*
X306050Y443312D01*
X306046D01*
X306037D01*
X306023D01*
X306005Y443313D01*
X305979Y443315D01*
X305952Y443317D01*
X305921Y443319D01*
X305886Y443323D01*
X305848Y443328D01*
X305810Y443333D01*
X305726Y443350D01*
X305682Y443359D01*
X305641Y443372D01*
X305597Y443384D01*
X305555Y443401D01*
X305553Y443402D01*
X305546Y443404D01*
X305533Y443410D01*
X305519Y443417D01*
X305500Y443428D01*
X305479Y443439D01*
X305455Y443454D01*
X305429Y443470D01*
X305402Y443486D01*
X305375Y443508D01*
X305346Y443530D01*
X305318Y443554D01*
X305289Y443581D01*
X305264Y443610D01*
X305238Y443641D01*
X305215Y443674D01*
X305213Y443676D01*
X305209Y443683D01*
X305204Y443692D01*
X305196Y443707D01*
X305187Y443723D01*
X305176Y443743D01*
X305166Y443766D01*
X305155Y443792D01*
X305144Y443821D01*
X305133Y443852D01*
X305122Y443887D01*
X305113Y443921D01*
X305105Y443960D01*
X305100Y443998D01*
X305096Y444038D01*
X305095Y444080D01*
Y444096D01*
X305096Y444107D01*
Y444121D01*
X305098Y444140D01*
X305100Y444158D01*
X305104Y444178D01*
X305111Y444223D01*
X305124Y444273D01*
X305142Y444323D01*
X305166Y444373D01*
Y444374D01*
X305169Y444378D01*
X305173Y444385D01*
X305178Y444394D01*
X305186Y444405D01*
X305193Y444418D01*
X305215Y444447D01*
X305240Y444482D01*
X305271Y444516D01*
X305307Y444551D01*
X305347Y444584D01*
X304441D01*
Y444893D01*
X306960D01*
Y444606D01*
D02*
G37*
G36*
Y442594D02*
Y442274D01*
X305868Y441985D01*
X305557Y441912D01*
X306960Y441539D01*
Y441219D01*
X305135Y440662D01*
Y440982D01*
X306190Y441273D01*
X306581Y441379D01*
X306580D01*
X306576Y441381D01*
X306571D01*
X306563Y441382D01*
X306554Y441386D01*
X306540Y441390D01*
X306523Y441393D01*
X306501Y441399D01*
X306476Y441406D01*
X306447Y441413D01*
X306410Y441422D01*
X306368Y441433D01*
X306321Y441446D01*
X306267Y441459D01*
X306236Y441468D01*
X306205Y441475D01*
X305135Y441766D01*
Y442083D01*
X306194Y442358D01*
X306543Y442447D01*
X306192Y442551D01*
X305135Y442866D01*
Y443166D01*
X306960Y442594D01*
D02*
G37*
G36*
X306449Y440516D02*
X306463D01*
X306480Y440512D01*
X306498Y440511D01*
X306518Y440507D01*
X306561Y440496D01*
X306611Y440480D01*
X306636Y440469D01*
X306663Y440458D01*
X306689Y440443D01*
X306714Y440427D01*
X306716Y440425D01*
X306720Y440423D01*
X306727Y440418D01*
X306736Y440411D01*
X306749Y440401D01*
X306762Y440389D01*
X306776Y440376D01*
X306792Y440359D01*
X306809Y440343D01*
X306825Y440323D01*
X306843Y440301D01*
X306862Y440278D01*
X306878Y440252D01*
X306894Y440225D01*
X306911Y440196D01*
X306925Y440165D01*
Y440163D01*
X306929Y440158D01*
X306933Y440148D01*
X306936Y440136D01*
X306942Y440119D01*
X306949Y440099D01*
X306956Y440077D01*
X306962Y440054D01*
X306969Y440026D01*
X306976Y439997D01*
X306982Y439964D01*
X306989Y439932D01*
X306996Y439859D01*
X307000Y439781D01*
Y439764D01*
X306998Y439746D01*
Y439722D01*
X306995Y439692D01*
X306993Y439659D01*
X306987Y439621D01*
X306982Y439579D01*
X306975Y439535D01*
X306964Y439491D01*
X306953Y439446D01*
X306938Y439400D01*
X306922Y439357D01*
X306902Y439313D01*
X306878Y439273D01*
X306853Y439236D01*
X306851Y439235D01*
X306845Y439229D01*
X306836Y439218D01*
X306825Y439207D01*
X306809Y439193D01*
X306791Y439175D01*
X306769Y439156D01*
X306742Y439138D01*
X306713Y439118D01*
X306681Y439096D01*
X306645Y439078D01*
X306605Y439058D01*
X306563Y439040D01*
X306516Y439025D01*
X306467Y439011D01*
X306414Y439000D01*
X306367Y439306D01*
X306368D01*
X306374Y439307D01*
X306385Y439309D01*
X306398Y439311D01*
X306412Y439315D01*
X306430Y439320D01*
X306450Y439326D01*
X306470Y439333D01*
X306516Y439351D01*
X306563Y439377D01*
X306587Y439391D01*
X306609Y439408D01*
X306629Y439428D01*
X306649Y439448D01*
X306651Y439450D01*
X306652Y439453D01*
X306658Y439460D01*
X306663Y439469D01*
X306671Y439482D01*
X306680Y439497D01*
X306689Y439513D01*
X306696Y439533D01*
X306705Y439555D01*
X306714Y439580D01*
X306723Y439608D01*
X306731Y439637D01*
X306736Y439670D01*
X306742Y439704D01*
X306743Y439741D01*
X306745Y439779D01*
Y439799D01*
X306743Y439814D01*
Y439832D01*
X306740Y439852D01*
X306738Y439874D01*
X306734Y439899D01*
X306723Y439950D01*
X306709Y440003D01*
X306687Y440052D01*
X306674Y440076D01*
X306660Y440096D01*
X306658Y440097D01*
X306656Y440099D01*
X306651Y440105D01*
X306643Y440112D01*
X306625Y440128D01*
X306602Y440148D01*
X306572Y440167D01*
X306536Y440183D01*
X306518Y440190D01*
X306498Y440196D01*
X306478Y440198D01*
X306456Y440199D01*
X306454D01*
X306450D01*
X306445D01*
X306439Y440198D01*
X306419Y440194D01*
X306396Y440188D01*
X306370Y440177D01*
X306343Y440161D01*
X306330Y440150D01*
X306316Y440137D01*
X306303Y440123D01*
X306292Y440106D01*
X306290Y440103D01*
X306288Y440099D01*
X306285Y440094D01*
X306281Y440085D01*
X306276Y440074D01*
X306270Y440059D01*
X306263Y440045D01*
X306256Y440025D01*
X306248Y440003D01*
X306239Y439976D01*
X306230Y439946D01*
X306221Y439914D01*
X306210Y439877D01*
X306199Y439835D01*
X306188Y439790D01*
Y439788D01*
X306187Y439786D01*
X306185Y439775D01*
X306179Y439757D01*
X306174Y439735D01*
X306167Y439706D01*
X306157Y439675D01*
X306148Y439641D01*
X306137Y439602D01*
X306114Y439524D01*
X306088Y439446D01*
X306076Y439409D01*
X306063Y439375D01*
X306050Y439344D01*
X306039Y439317D01*
Y439315D01*
X306035Y439311D01*
X306032Y439304D01*
X306028Y439295D01*
X306021Y439284D01*
X306014Y439271D01*
X305994Y439242D01*
X305970Y439211D01*
X305941Y439178D01*
X305906Y439146D01*
X305866Y439118D01*
X305864D01*
X305861Y439115D01*
X305855Y439113D01*
X305846Y439107D01*
X305837Y439102D01*
X305824Y439096D01*
X305810Y439091D01*
X305793Y439085D01*
X305757Y439073D01*
X305715Y439062D01*
X305670Y439055D01*
X305621Y439051D01*
X305619D01*
X305615D01*
X305608D01*
X305601Y439053D01*
X305590D01*
X305577Y439055D01*
X305546Y439058D01*
X305511Y439064D01*
X305473Y439075D01*
X305435Y439087D01*
X305395Y439106D01*
X305393D01*
X305389Y439107D01*
X305384Y439111D01*
X305377Y439116D01*
X305358Y439129D01*
X305335Y439146D01*
X305307Y439167D01*
X305278Y439195D01*
X305249Y439224D01*
X305222Y439258D01*
X305220Y439262D01*
X305213Y439271D01*
X305204Y439288D01*
X305191Y439311D01*
X305176Y439338D01*
X305162Y439371D01*
X305147Y439411D01*
X305133Y439455D01*
Y439457D01*
X305131Y439460D01*
X305129Y439468D01*
X305127Y439477D01*
X305124Y439488D01*
X305120Y439502D01*
X305116Y439519D01*
X305113Y439535D01*
X305107Y439575D01*
X305100Y439621D01*
X305096Y439670D01*
X305095Y439722D01*
Y439759D01*
X305096Y439777D01*
X305098Y439799D01*
X305100Y439824D01*
X305102Y439852D01*
X305105Y439879D01*
X305109Y439910D01*
X305120Y439974D01*
X305136Y440039D01*
X305156Y440101D01*
Y440103D01*
X305160Y440108D01*
X305162Y440117D01*
X305167Y440128D01*
X305175Y440141D01*
X305182Y440156D01*
X305200Y440192D01*
X305224Y440230D01*
X305253Y440270D01*
X305286Y440307D01*
X305304Y440325D01*
X305324Y440340D01*
X305326Y440341D01*
X305329Y440343D01*
X305335Y440347D01*
X305344Y440352D01*
X305353Y440359D01*
X305366Y440367D01*
X305382Y440374D01*
X305398Y440383D01*
X305418Y440392D01*
X305438Y440401D01*
X305462Y440411D01*
X305488Y440418D01*
X305515Y440427D01*
X305542Y440436D01*
X305606Y440449D01*
X305648Y440147D01*
X305646D01*
X305642Y440145D01*
X305635D01*
X305624Y440141D01*
X305613Y440139D01*
X305599Y440134D01*
X305568Y440123D01*
X305533Y440106D01*
X305497Y440087D01*
X305460Y440059D01*
X305444Y440043D01*
X305429Y440025D01*
X305428Y440023D01*
X305426Y440021D01*
X305422Y440014D01*
X305417Y440006D01*
X305411Y439995D01*
X305404Y439985D01*
X305397Y439970D01*
X305389Y439954D01*
X305382Y439934D01*
X305375Y439914D01*
X305367Y439890D01*
X305362Y439866D01*
X305357Y439839D01*
X305353Y439810D01*
X305349Y439779D01*
Y439726D01*
X305351Y439712D01*
Y439693D01*
X305353Y439673D01*
X305355Y439651D01*
X305358Y439628D01*
X305366Y439577D01*
X305378Y439526D01*
X305387Y439502D01*
X305397Y439480D01*
X305408Y439459D01*
X305420Y439440D01*
Y439439D01*
X305424Y439437D01*
X305433Y439426D01*
X305448Y439411D01*
X305468Y439395D01*
X305491Y439378D01*
X305519Y439364D01*
X305550Y439353D01*
X305568Y439351D01*
X305584Y439349D01*
X305586D01*
X305595D01*
X305606Y439351D01*
X305621Y439355D01*
X305637Y439359D01*
X305655Y439364D01*
X305675Y439373D01*
X305693Y439386D01*
X305695Y439388D01*
X305701Y439393D01*
X305710Y439402D01*
X305722Y439415D01*
X305735Y439431D01*
X305748Y439453D01*
X305762Y439477D01*
X305775Y439506D01*
Y439508D01*
X305777Y439511D01*
X305779Y439517D01*
X305781Y439524D01*
X305784Y439533D01*
X305786Y439544D01*
X305792Y439557D01*
X305795Y439573D01*
X305801Y439593D01*
X305808Y439615D01*
X305815Y439641D01*
X305822Y439670D01*
X305832Y439703D01*
X305842Y439741D01*
X305853Y439781D01*
Y439782D01*
X305855Y439784D01*
X305857Y439795D01*
X305862Y439812D01*
X305868Y439833D01*
X305875Y439861D01*
X305884Y439892D01*
X305893Y439926D01*
X305904Y439961D01*
X305926Y440037D01*
X305952Y440114D01*
X305963Y440148D01*
X305975Y440183D01*
X305986Y440212D01*
X305997Y440239D01*
Y440241D01*
X305999Y440245D01*
X306003Y440252D01*
X306008Y440261D01*
X306014Y440272D01*
X306021Y440285D01*
X306039Y440314D01*
X306063Y440347D01*
X306090Y440379D01*
X306123Y440412D01*
X306161Y440443D01*
X306163D01*
X306167Y440447D01*
X306172Y440450D01*
X306179Y440454D01*
X306190Y440461D01*
X306203Y440467D01*
X306217Y440474D01*
X306234Y440481D01*
X306252Y440487D01*
X306272Y440494D01*
X306316Y440507D01*
X306367Y440514D01*
X306423Y440518D01*
X306425D01*
X306430D01*
X306438D01*
X306449Y440516D01*
D02*
G37*
G36*
X241766Y317776D02*
X241792D01*
X241819Y317774D01*
X241852Y317771D01*
X241884Y317769D01*
X241921Y317763D01*
X241959Y317760D01*
X242035Y317745D01*
X242112Y317725D01*
X242148Y317714D01*
X242181Y317700D01*
X242183D01*
X242188Y317696D01*
X242197Y317692D01*
X242210Y317685D01*
X242225Y317678D01*
X242241Y317667D01*
X242261Y317656D01*
X242281Y317641D01*
X242303Y317627D01*
X242325Y317608D01*
X242347Y317590D01*
X242370Y317568D01*
X242392Y317545D01*
X242414Y317521D01*
X242434Y317494D01*
X242454Y317465D01*
X242456Y317463D01*
X242458Y317457D01*
X242463Y317448D01*
X242470Y317437D01*
X242478Y317423D01*
X242485Y317405D01*
X242494Y317387D01*
X242505Y317365D01*
X242514Y317339D01*
X242523Y317314D01*
X242538Y317257D01*
X242550Y317195D01*
X242552Y317164D01*
X242554Y317132D01*
Y317130D01*
Y317124D01*
Y317115D01*
X242552Y317104D01*
Y317090D01*
X242549Y317073D01*
X242547Y317053D01*
X242543Y317033D01*
X242532Y316986D01*
X242516Y316935D01*
X242507Y316908D01*
X242494Y316882D01*
X242481Y316855D01*
X242465Y316828D01*
X242463Y316826D01*
X242461Y316822D01*
X242456Y316815D01*
X242449Y316804D01*
X242440Y316791D01*
X242428Y316779D01*
X242414Y316762D01*
X242399Y316746D01*
X242381Y316728D01*
X242363Y316709D01*
X242341Y316691D01*
X242318Y316671D01*
X242290Y316651D01*
X242263Y316633D01*
X242234Y316615D01*
X242201Y316598D01*
X242203D01*
X242212Y316595D01*
X242223Y316591D01*
X242239Y316586D01*
X242257Y316578D01*
X242279Y316569D01*
X242305Y316558D01*
X242330Y316544D01*
X242359Y316529D01*
X242389Y316513D01*
X242418Y316495D01*
X242447Y316473D01*
X242474Y316451D01*
X242503Y316425D01*
X242529Y316398D01*
X242552Y316369D01*
X242554Y316367D01*
X242558Y316362D01*
X242563Y316353D01*
X242572Y316340D01*
X242581Y316325D01*
X242592Y316307D01*
X242603Y316285D01*
X242614Y316262D01*
X242625Y316234D01*
X242638Y316205D01*
X242647Y316174D01*
X242656Y316140D01*
X242665Y316105D01*
X242671Y316067D01*
X242674Y316029D01*
X242676Y315989D01*
Y315987D01*
Y315981D01*
Y315970D01*
X242674Y315958D01*
Y315943D01*
X242672Y315925D01*
X242671Y315903D01*
X242667Y315881D01*
X242658Y315830D01*
X242643Y315774D01*
X242625Y315716D01*
X242600Y315657D01*
Y315656D01*
X242596Y315650D01*
X242592Y315643D01*
X242587Y315632D01*
X242580Y315619D01*
X242570Y315605D01*
X242549Y315572D01*
X242521Y315534D01*
X242490Y315495D01*
X242456Y315457D01*
X242416Y315424D01*
X242414D01*
X242410Y315421D01*
X242405Y315417D01*
X242396Y315412D01*
X242385Y315405D01*
X242372Y315397D01*
X242358Y315388D01*
X242341Y315379D01*
X242321Y315368D01*
X242301Y315359D01*
X242254Y315337D01*
X242201Y315319D01*
X242141Y315301D01*
X242139D01*
X242134Y315299D01*
X242125Y315297D01*
X242112Y315294D01*
X242095Y315292D01*
X242075Y315288D01*
X242054Y315284D01*
X242028Y315281D01*
X242001Y315275D01*
X241970Y315272D01*
X241935Y315268D01*
X241901Y315266D01*
X241863Y315263D01*
X241823Y315261D01*
X241779Y315259D01*
X240776D01*
Y317778D01*
X241746D01*
X241766Y317776D01*
D02*
G37*
G36*
X239187D02*
X239216D01*
X239247Y317774D01*
X239282D01*
X239355Y317769D01*
X239429Y317763D01*
X239466Y317758D01*
X239500Y317754D01*
X239533Y317749D01*
X239564Y317741D01*
X239566D01*
X239573Y317740D01*
X239584Y317736D01*
X239600Y317732D01*
X239618Y317725D01*
X239640Y317718D01*
X239664Y317710D01*
X239691Y317700D01*
X239748Y317676D01*
X239810Y317643D01*
X239871Y317607D01*
X239902Y317585D01*
X239932Y317561D01*
X239933Y317559D01*
X239941Y317554D01*
X239951Y317543D01*
X239964Y317530D01*
X239981Y317514D01*
X240001Y317494D01*
X240021Y317470D01*
X240044Y317445D01*
X240068Y317414D01*
X240092Y317381D01*
X240117Y317346D01*
X240143Y317308D01*
X240166Y317266D01*
X240188Y317225D01*
X240210Y317177D01*
X240230Y317130D01*
X240232Y317126D01*
X240234Y317117D01*
X240239Y317104D01*
X240246Y317084D01*
X240254Y317059D01*
X240261Y317030D01*
X240270Y316995D01*
X240281Y316957D01*
X240290Y316915D01*
X240299Y316868D01*
X240306Y316819D01*
X240314Y316766D01*
X240321Y316711D01*
X240326Y316653D01*
X240328Y316593D01*
X240330Y316531D01*
Y316527D01*
Y316518D01*
Y316504D01*
X240328Y316482D01*
Y316458D01*
X240326Y316429D01*
X240325Y316396D01*
X240321Y316360D01*
X240317Y316322D01*
X240314Y316280D01*
X240301Y316194D01*
X240285Y316107D01*
X240263Y316021D01*
Y316020D01*
X240259Y316012D01*
X240255Y316000D01*
X240250Y315985D01*
X240245Y315967D01*
X240235Y315945D01*
X240226Y315919D01*
X240215Y315894D01*
X240192Y315836D01*
X240161Y315774D01*
X240128Y315714D01*
X240090Y315656D01*
X240088Y315654D01*
X240084Y315650D01*
X240079Y315641D01*
X240072Y315632D01*
X240062Y315619D01*
X240050Y315605D01*
X240022Y315572D01*
X239988Y315535D01*
X239950Y315497D01*
X239906Y315461D01*
X239861Y315426D01*
X239859D01*
X239855Y315423D01*
X239848Y315419D01*
X239839Y315414D01*
X239826Y315406D01*
X239811Y315399D01*
X239795Y315390D01*
X239777Y315381D01*
X239755Y315370D01*
X239733Y315359D01*
X239708Y315350D01*
X239682Y315339D01*
X239624Y315319D01*
X239560Y315301D01*
X239558D01*
X239553Y315299D01*
X239542Y315297D01*
X239529Y315294D01*
X239513Y315292D01*
X239493Y315288D01*
X239469Y315284D01*
X239444Y315281D01*
X239415Y315275D01*
X239384Y315272D01*
X239351Y315268D01*
X239315Y315266D01*
X239278Y315263D01*
X239238Y315261D01*
X239156Y315259D01*
X238248D01*
Y317778D01*
X239163D01*
X239187Y317776D01*
D02*
G37*
G36*
X288500Y339465D02*
X287976Y339132D01*
X287974Y339130D01*
X287967Y339124D01*
X287954Y339117D01*
X287940Y339108D01*
X287919Y339095D01*
X287898Y339081D01*
X287874Y339064D01*
X287848Y339048D01*
X287792Y339010D01*
X287734Y338970D01*
X287679Y338930D01*
X287654Y338910D01*
X287630Y338892D01*
X287628Y338890D01*
X287625Y338888D01*
X287619Y338882D01*
X287610Y338875D01*
X287588Y338857D01*
X287563Y338835D01*
X287535Y338808D01*
X287506Y338780D01*
X287481Y338751D01*
X287461Y338722D01*
X287459Y338719D01*
X287454Y338709D01*
X287444Y338695D01*
X287435Y338675D01*
X287424Y338653D01*
X287412Y338628D01*
X287403Y338600D01*
X287393Y338571D01*
Y338569D01*
X287392Y338560D01*
X287390Y338546D01*
X287386Y338527D01*
X287384Y338502D01*
X287383Y338469D01*
X287381Y338431D01*
Y338000D01*
X288500D01*
Y337667D01*
X285981D01*
Y338815D01*
X285983Y338837D01*
Y338866D01*
X285985Y338899D01*
X285987Y338933D01*
X285990Y338973D01*
X285994Y339013D01*
X285998Y339055D01*
X286010Y339141D01*
X286017Y339181D01*
X286027Y339221D01*
X286038Y339259D01*
X286050Y339294D01*
Y339296D01*
X286054Y339301D01*
X286058Y339310D01*
X286063Y339323D01*
X286070Y339337D01*
X286081Y339354D01*
X286092Y339374D01*
X286105Y339394D01*
X286121Y339416D01*
X286138Y339439D01*
X286158Y339463D01*
X286179Y339487D01*
X286205Y339508D01*
X286230Y339532D01*
X286260Y339554D01*
X286291Y339574D01*
X286292Y339576D01*
X286298Y339579D01*
X286307Y339583D01*
X286320Y339590D01*
X286336Y339598D01*
X286356Y339607D01*
X286378Y339618D01*
X286402Y339627D01*
X286429Y339636D01*
X286458Y339647D01*
X286489Y339656D01*
X286522Y339663D01*
X286556Y339670D01*
X286593Y339676D01*
X286631Y339678D01*
X286669Y339680D01*
X286673D01*
X286680D01*
X286695Y339678D01*
X286715D01*
X286736Y339674D01*
X286764Y339670D01*
X286793Y339665D01*
X286826Y339658D01*
X286860Y339649D01*
X286897Y339638D01*
X286935Y339623D01*
X286973Y339607D01*
X287011Y339587D01*
X287048Y339563D01*
X287086Y339536D01*
X287121Y339505D01*
X287122Y339503D01*
X287128Y339497D01*
X287137Y339487D01*
X287150Y339472D01*
X287164Y339454D01*
X287180Y339430D01*
X287199Y339405D01*
X287219Y339374D01*
X287239Y339337D01*
X287259Y339299D01*
X287277Y339254D01*
X287297Y339206D01*
X287313Y339154D01*
X287330Y339097D01*
X287343Y339035D01*
X287353Y338970D01*
Y338971D01*
X287357Y338975D01*
X287359Y338983D01*
X287364Y338992D01*
X287370Y339002D01*
X287377Y339015D01*
X287393Y339044D01*
X287412Y339077D01*
X287434Y339110D01*
X287455Y339141D01*
X287479Y339170D01*
X287481Y339172D01*
X287485Y339177D01*
X287494Y339184D01*
X287503Y339195D01*
X287517Y339208D01*
X287532Y339223D01*
X287550Y339241D01*
X287572Y339259D01*
X287596Y339279D01*
X287621Y339301D01*
X287648Y339325D01*
X287677Y339348D01*
X287710Y339372D01*
X287743Y339397D01*
X287816Y339447D01*
X288500Y339882D01*
Y339465D01*
D02*
G37*
G36*
Y335322D02*
X285981D01*
Y337142D01*
X286278D01*
Y335655D01*
X287050D01*
Y337048D01*
X287346D01*
Y335655D01*
X288203D01*
Y337201D01*
X288500D01*
Y335322D01*
D02*
G37*
G36*
Y333346D02*
X285981D01*
Y333679D01*
X288203D01*
Y334918D01*
X288500D01*
Y333346D01*
D02*
G37*
G36*
X287801Y332898D02*
X287816D01*
X287834Y332896D01*
X287856Y332895D01*
X287878Y332891D01*
X287929Y332882D01*
X287985Y332867D01*
X288043Y332849D01*
X288102Y332824D01*
X288103D01*
X288109Y332820D01*
X288116Y332816D01*
X288127Y332811D01*
X288140Y332804D01*
X288154Y332794D01*
X288187Y332773D01*
X288225Y332745D01*
X288263Y332714D01*
X288302Y332680D01*
X288334Y332640D01*
Y332638D01*
X288338Y332634D01*
X288342Y332629D01*
X288347Y332620D01*
X288354Y332609D01*
X288362Y332596D01*
X288371Y332581D01*
X288380Y332565D01*
X288391Y332545D01*
X288400Y332525D01*
X288422Y332478D01*
X288440Y332425D01*
X288458Y332365D01*
Y332363D01*
X288460Y332358D01*
X288462Y332349D01*
X288465Y332336D01*
X288467Y332319D01*
X288471Y332299D01*
X288474Y332278D01*
X288478Y332252D01*
X288484Y332225D01*
X288487Y332194D01*
X288491Y332159D01*
X288493Y332125D01*
X288496Y332086D01*
X288498Y332047D01*
X288500Y332003D01*
Y331000D01*
X285981D01*
Y331970D01*
X285983Y331990D01*
Y332015D01*
X285985Y332043D01*
X285988Y332076D01*
X285990Y332108D01*
X285996Y332145D01*
X285999Y332183D01*
X286014Y332259D01*
X286034Y332336D01*
X286045Y332372D01*
X286059Y332405D01*
Y332407D01*
X286063Y332412D01*
X286067Y332421D01*
X286074Y332434D01*
X286081Y332449D01*
X286092Y332465D01*
X286103Y332485D01*
X286118Y332505D01*
X286132Y332527D01*
X286150Y332549D01*
X286169Y332571D01*
X286191Y332594D01*
X286214Y332616D01*
X286238Y332638D01*
X286265Y332658D01*
X286294Y332678D01*
X286296Y332680D01*
X286301Y332682D01*
X286311Y332687D01*
X286321Y332694D01*
X286336Y332702D01*
X286354Y332709D01*
X286372Y332718D01*
X286394Y332729D01*
X286420Y332738D01*
X286445Y332747D01*
X286502Y332762D01*
X286563Y332774D01*
X286595Y332776D01*
X286627Y332778D01*
X286629D01*
X286634D01*
X286644D01*
X286655Y332776D01*
X286669D01*
X286685Y332773D01*
X286705Y332771D01*
X286725Y332767D01*
X286773Y332756D01*
X286824Y332740D01*
X286851Y332731D01*
X286877Y332718D01*
X286904Y332705D01*
X286931Y332689D01*
X286933Y332687D01*
X286937Y332685D01*
X286944Y332680D01*
X286955Y332673D01*
X286968Y332663D01*
X286980Y332652D01*
X286997Y332638D01*
X287013Y332623D01*
X287031Y332605D01*
X287050Y332587D01*
X287068Y332565D01*
X287088Y332541D01*
X287108Y332514D01*
X287126Y332487D01*
X287144Y332458D01*
X287160Y332425D01*
Y332427D01*
X287164Y332436D01*
X287168Y332447D01*
X287173Y332463D01*
X287180Y332481D01*
X287190Y332503D01*
X287201Y332529D01*
X287215Y332554D01*
X287230Y332583D01*
X287246Y332612D01*
X287264Y332642D01*
X287286Y332671D01*
X287308Y332698D01*
X287333Y332727D01*
X287361Y332753D01*
X287390Y332776D01*
X287392Y332778D01*
X287397Y332782D01*
X287406Y332787D01*
X287419Y332796D01*
X287434Y332805D01*
X287452Y332816D01*
X287474Y332827D01*
X287497Y332838D01*
X287525Y332849D01*
X287554Y332862D01*
X287585Y332871D01*
X287619Y332880D01*
X287654Y332889D01*
X287692Y332895D01*
X287730Y332898D01*
X287770Y332900D01*
X287772D01*
X287777D01*
X287788D01*
X287801Y332898D01*
D02*
G37*
G36*
X159958Y424574D02*
X157989D01*
X157991Y424572D01*
X157994Y424568D01*
X158000Y424563D01*
X158007Y424553D01*
X158016Y424543D01*
X158029Y424528D01*
X158042Y424512D01*
X158056Y424495D01*
X158071Y424473D01*
X158089Y424451D01*
X158105Y424428D01*
X158125Y424402D01*
X158144Y424373D01*
X158164Y424344D01*
X158204Y424279D01*
X158205Y424277D01*
X158209Y424271D01*
X158215Y424260D01*
X158220Y424248D01*
X158229Y424233D01*
X158240Y424215D01*
X158251Y424193D01*
X158264Y424171D01*
X158289Y424120D01*
X158315Y424066D01*
X158340Y424009D01*
X158362Y423955D01*
X158064D01*
X158062Y423958D01*
X158058Y423966D01*
X158051Y423980D01*
X158042Y423998D01*
X158031Y424020D01*
X158016Y424048D01*
X158000Y424077D01*
X157982Y424108D01*
X157960Y424142D01*
X157938Y424179D01*
X157887Y424255D01*
X157831Y424333D01*
X157769Y424408D01*
X157767Y424410D01*
X157761Y424417D01*
X157752Y424426D01*
X157740Y424439D01*
X157723Y424455D01*
X157705Y424473D01*
X157683Y424493D01*
X157661Y424515D01*
X157636Y424537D01*
X157608Y424561D01*
X157552Y424606D01*
X157492Y424648D01*
X157461Y424666D01*
X157430Y424683D01*
Y424883D01*
X159958D01*
Y424574D01*
D02*
G37*
G36*
Y423106D02*
X159434Y422774D01*
X159432Y422772D01*
X159425Y422766D01*
X159412Y422759D01*
X159398Y422750D01*
X159378Y422737D01*
X159356Y422722D01*
X159332Y422706D01*
X159307Y422690D01*
X159250Y422652D01*
X159192Y422612D01*
X159137Y422572D01*
X159112Y422551D01*
X159088Y422533D01*
X159086Y422531D01*
X159083Y422530D01*
X159077Y422524D01*
X159068Y422517D01*
X159046Y422499D01*
X159021Y422477D01*
X158994Y422449D01*
X158965Y422422D01*
X158939Y422393D01*
X158919Y422364D01*
X158917Y422360D01*
X158912Y422351D01*
X158903Y422337D01*
X158894Y422317D01*
X158882Y422295D01*
X158870Y422269D01*
X158861Y422242D01*
X158852Y422213D01*
Y422211D01*
X158850Y422202D01*
X158848Y422187D01*
X158844Y422169D01*
X158843Y422144D01*
X158841Y422111D01*
X158839Y422073D01*
Y421641D01*
X159958D01*
Y421308D01*
X157439D01*
Y422457D01*
X157441Y422479D01*
Y422508D01*
X157443Y422541D01*
X157445Y422575D01*
X157448Y422615D01*
X157452Y422655D01*
X157456Y422697D01*
X157468Y422783D01*
X157476Y422823D01*
X157485Y422863D01*
X157496Y422901D01*
X157508Y422935D01*
Y422937D01*
X157512Y422943D01*
X157516Y422952D01*
X157521Y422965D01*
X157528Y422979D01*
X157539Y422996D01*
X157550Y423015D01*
X157563Y423036D01*
X157579Y423057D01*
X157596Y423081D01*
X157616Y423105D01*
X157638Y423128D01*
X157663Y423150D01*
X157689Y423174D01*
X157718Y423196D01*
X157749Y423216D01*
X157750Y423218D01*
X157756Y423221D01*
X157765Y423225D01*
X157778Y423232D01*
X157794Y423239D01*
X157814Y423248D01*
X157836Y423259D01*
X157860Y423269D01*
X157887Y423278D01*
X157916Y423289D01*
X157947Y423298D01*
X157980Y423305D01*
X158014Y423312D01*
X158051Y423318D01*
X158089Y423319D01*
X158127Y423321D01*
X158131D01*
X158138D01*
X158153Y423319D01*
X158173D01*
X158195Y423316D01*
X158222Y423312D01*
X158251Y423307D01*
X158284Y423300D01*
X158318Y423290D01*
X158355Y423279D01*
X158393Y423265D01*
X158431Y423248D01*
X158469Y423229D01*
X158506Y423205D01*
X158544Y423177D01*
X158579Y423147D01*
X158580Y423145D01*
X158586Y423139D01*
X158595Y423128D01*
X158608Y423114D01*
X158622Y423096D01*
X158639Y423072D01*
X158657Y423046D01*
X158677Y423015D01*
X158697Y422979D01*
X158717Y422941D01*
X158735Y422895D01*
X158755Y422848D01*
X158772Y422795D01*
X158788Y422739D01*
X158801Y422677D01*
X158812Y422612D01*
Y422613D01*
X158815Y422617D01*
X158817Y422624D01*
X158823Y422633D01*
X158828Y422644D01*
X158835Y422657D01*
X158852Y422686D01*
X158870Y422719D01*
X158892Y422752D01*
X158914Y422783D01*
X158937Y422812D01*
X158939Y422814D01*
X158943Y422819D01*
X158952Y422826D01*
X158961Y422837D01*
X158975Y422850D01*
X158990Y422864D01*
X159008Y422883D01*
X159030Y422901D01*
X159054Y422921D01*
X159079Y422943D01*
X159106Y422966D01*
X159135Y422990D01*
X159168Y423014D01*
X159201Y423039D01*
X159274Y423088D01*
X159958Y423523D01*
Y423106D01*
D02*
G37*
G36*
X158200Y420877D02*
X158222Y420875D01*
X158251Y420873D01*
X158282Y420868D01*
X158318Y420862D01*
X158357Y420853D01*
X158398Y420843D01*
X158442Y420828D01*
X158488Y420812D01*
X158533Y420791D01*
X158579Y420768D01*
X158624Y420741D01*
X158670Y420710D01*
X158712Y420673D01*
X158713Y420671D01*
X158721Y420664D01*
X158731Y420651D01*
X158746Y420633D01*
X158762Y420610D01*
X158782Y420580D01*
X158802Y420546D01*
X158823Y420504D01*
X158843Y420457D01*
X158862Y420404D01*
X158882Y420342D01*
X158899Y420276D01*
X158914Y420202D01*
X158919Y420162D01*
X158924Y420120D01*
X158928Y420076D01*
X158932Y420031D01*
X158933Y419983D01*
Y419290D01*
X159958D01*
Y418957D01*
X157439D01*
Y419967D01*
X157441Y419992D01*
Y420018D01*
X157443Y420047D01*
X157445Y420109D01*
X157450Y420173D01*
X157456Y420235D01*
X157461Y420264D01*
X157465Y420289D01*
Y420291D01*
X157467Y420298D01*
X157468Y420307D01*
X157470Y420320D01*
X157474Y420336D01*
X157479Y420355D01*
X157485Y420375D01*
X157490Y420398D01*
X157507Y420447D01*
X157528Y420499D01*
X157552Y420551D01*
X157583Y420600D01*
X157585Y420602D01*
X157587Y420606D01*
X157592Y420613D01*
X157599Y420620D01*
X157607Y420631D01*
X157618Y420644D01*
X157630Y420659D01*
X157645Y420673D01*
X157661Y420688D01*
X157679Y420704D01*
X157721Y420739D01*
X157771Y420772D01*
X157825Y420802D01*
X157827Y420804D01*
X157832Y420806D01*
X157842Y420810D01*
X157852Y420815D01*
X157867Y420821D01*
X157885Y420826D01*
X157905Y420833D01*
X157927Y420841D01*
X157951Y420848D01*
X157978Y420855D01*
X158005Y420861D01*
X158036Y420866D01*
X158100Y420875D01*
X158169Y420879D01*
X158173D01*
X158184D01*
X158200Y420877D01*
D02*
G37*
G36*
X159281Y418500D02*
X159299Y418498D01*
X159319Y418497D01*
X159343Y418493D01*
X159370Y418487D01*
X159398Y418482D01*
X159429Y418473D01*
X159459Y418464D01*
X159492Y418453D01*
X159525Y418440D01*
X159560Y418424D01*
X159592Y418405D01*
X159627Y418386D01*
X159629Y418384D01*
X159634Y418380D01*
X159643Y418373D01*
X159656Y418364D01*
X159671Y418353D01*
X159689Y418338D01*
X159707Y418322D01*
X159727Y418302D01*
X159749Y418280D01*
X159771Y418254D01*
X159794Y418227D01*
X159818Y418198D01*
X159840Y418167D01*
X159862Y418132D01*
X159882Y418096D01*
X159902Y418056D01*
X159904Y418054D01*
X159905Y418047D01*
X159911Y418034D01*
X159916Y418018D01*
X159924Y417998D01*
X159933Y417974D01*
X159942Y417947D01*
X159951Y417916D01*
X159960Y417881D01*
X159969Y417843D01*
X159976Y417803D01*
X159985Y417761D01*
X159991Y417718D01*
X159996Y417670D01*
X159998Y417621D01*
X160000Y417572D01*
Y417539D01*
X159998Y417516D01*
X159996Y417486D01*
X159995Y417452D01*
X159991Y417414D01*
X159987Y417372D01*
X159982Y417328D01*
X159976Y417282D01*
X159958Y417186D01*
X159947Y417137D01*
X159934Y417090D01*
X159918Y417042D01*
X159902Y416999D01*
X159900Y416997D01*
X159896Y416988D01*
X159891Y416977D01*
X159883Y416960D01*
X159873Y416940D01*
X159860Y416919D01*
X159844Y416893D01*
X159827Y416868D01*
X159807Y416839D01*
X159785Y416809D01*
X159760Y416778D01*
X159732Y416749D01*
X159703Y416718D01*
X159672Y416689D01*
X159638Y416662D01*
X159601Y416636D01*
X159600Y416635D01*
X159592Y416631D01*
X159581Y416624D01*
X159567Y416616D01*
X159547Y416606D01*
X159525Y416595D01*
X159500Y416582D01*
X159470Y416571D01*
X159438Y416558D01*
X159403Y416545D01*
X159365Y416535D01*
X159327Y416524D01*
X159285Y416514D01*
X159241Y416507D01*
X159196Y416502D01*
X159148Y416500D01*
X159121Y416815D01*
X159123D01*
X159130Y416817D01*
X159139D01*
X159152Y416820D01*
X159168Y416822D01*
X159188Y416826D01*
X159208Y416831D01*
X159232Y416837D01*
X159281Y416849D01*
X159334Y416868D01*
X159385Y416889D01*
X159434Y416917D01*
X159436Y416919D01*
X159440Y416920D01*
X159445Y416926D01*
X159454Y416933D01*
X159465Y416940D01*
X159476Y416951D01*
X159489Y416964D01*
X159503Y416979D01*
X159518Y416995D01*
X159534Y417015D01*
X159550Y417035D01*
X159567Y417059D01*
X159583Y417082D01*
X159600Y417110D01*
X159614Y417139D01*
X159629Y417170D01*
Y417171D01*
X159632Y417177D01*
X159636Y417188D01*
X159640Y417201D01*
X159645Y417217D01*
X159652Y417235D01*
X159660Y417259D01*
X159665Y417282D01*
X159672Y417310D01*
X159680Y417341D01*
X159685Y417372D01*
X159693Y417406D01*
X159700Y417479D01*
X159703Y417557D01*
Y417576D01*
X159702Y417590D01*
Y417606D01*
X159700Y417625D01*
X159698Y417647D01*
X159696Y417670D01*
X159689Y417723D01*
X159680Y417779D01*
X159665Y417836D01*
X159647Y417892D01*
Y417894D01*
X159645Y417900D01*
X159642Y417907D01*
X159636Y417916D01*
X159631Y417929D01*
X159623Y417941D01*
X159607Y417974D01*
X159585Y418009D01*
X159558Y418045D01*
X159527Y418080D01*
X159492Y418109D01*
X159490D01*
X159487Y418113D01*
X159481Y418116D01*
X159474Y418120D01*
X159465Y418125D01*
X159454Y418132D01*
X159427Y418145D01*
X159396Y418158D01*
X159359Y418171D01*
X159318Y418178D01*
X159276Y418182D01*
X159274D01*
X159270D01*
X159265D01*
X159256Y418180D01*
X159245D01*
X159234Y418178D01*
X159205Y418173D01*
X159174Y418165D01*
X159139Y418153D01*
X159105Y418134D01*
X159070Y418111D01*
X159068D01*
X159066Y418107D01*
X159055Y418098D01*
X159039Y418080D01*
X159028Y418069D01*
X159017Y418056D01*
X159006Y418042D01*
X158994Y418025D01*
X158981Y418007D01*
X158968Y417985D01*
X158955Y417963D01*
X158943Y417938D01*
X158932Y417912D01*
X158919Y417883D01*
Y417881D01*
X158917Y417878D01*
X158915Y417872D01*
X158912Y417861D01*
X158908Y417849D01*
X158903Y417834D01*
X158897Y417814D01*
X158890Y417790D01*
X158881Y417761D01*
X158872Y417730D01*
X158862Y417694D01*
X158852Y417652D01*
X158839Y417606D01*
X158826Y417554D01*
X158812Y417497D01*
X158797Y417435D01*
Y417434D01*
X158795Y417432D01*
Y417426D01*
X158793Y417421D01*
X158788Y417403D01*
X158782Y417379D01*
X158775Y417352D01*
X158766Y417319D01*
X158757Y417282D01*
X158746Y417246D01*
X158722Y417166D01*
X158695Y417086D01*
X158680Y417048D01*
X158666Y417011D01*
X158653Y416980D01*
X158639Y416951D01*
X158637Y416950D01*
X158635Y416944D01*
X158630Y416935D01*
X158622Y416922D01*
X158613Y416908D01*
X158600Y416889D01*
X158588Y416871D01*
X158573Y416849D01*
X158540Y416806D01*
X158500Y416762D01*
X158455Y416718D01*
X158429Y416700D01*
X158404Y416682D01*
X158402Y416680D01*
X158397Y416678D01*
X158389Y416675D01*
X158378Y416669D01*
X158366Y416662D01*
X158351Y416655D01*
X158333Y416647D01*
X158313Y416638D01*
X158289Y416631D01*
X158266Y416622D01*
X158213Y416609D01*
X158154Y416598D01*
X158124Y416596D01*
X158091Y416595D01*
X158089D01*
X158082D01*
X158073D01*
X158058Y416596D01*
X158042Y416598D01*
X158022Y416600D01*
X158000Y416604D01*
X157974Y416607D01*
X157947Y416615D01*
X157920Y416620D01*
X157891Y416629D01*
X157860Y416640D01*
X157829Y416653D01*
X157798Y416667D01*
X157765Y416684D01*
X157734Y416702D01*
X157732Y416704D01*
X157727Y416707D01*
X157718Y416713D01*
X157707Y416722D01*
X157692Y416733D01*
X157678Y416748D01*
X157659Y416764D01*
X157641Y416782D01*
X157621Y416802D01*
X157599Y416826D01*
X157579Y416851D01*
X157558Y416880D01*
X157538Y416911D01*
X157518Y416944D01*
X157499Y416979D01*
X157483Y417017D01*
X157481Y417019D01*
X157479Y417026D01*
X157476Y417037D01*
X157468Y417053D01*
X157463Y417073D01*
X157456Y417095D01*
X157447Y417122D01*
X157439Y417153D01*
X157430Y417186D01*
X157423Y417221D01*
X157416Y417259D01*
X157408Y417299D01*
X157403Y417343D01*
X157399Y417386D01*
X157397Y417432D01*
X157396Y417479D01*
Y417506D01*
X157397Y417526D01*
Y417550D01*
X157401Y417579D01*
X157403Y417610D01*
X157406Y417647D01*
X157412Y417683D01*
X157418Y417723D01*
X157434Y417805D01*
X157445Y417849D01*
X157456Y417890D01*
X157470Y417932D01*
X157487Y417972D01*
X157488Y417974D01*
X157490Y417981D01*
X157496Y417992D01*
X157503Y418007D01*
X157512Y418025D01*
X157525Y418045D01*
X157538Y418069D01*
X157554Y418092D01*
X157570Y418120D01*
X157590Y418145D01*
X157612Y418173D01*
X157636Y418200D01*
X157661Y418227D01*
X157691Y418253D01*
X157720Y418278D01*
X157752Y418300D01*
X157754Y418302D01*
X157760Y418305D01*
X157771Y418311D01*
X157783Y418318D01*
X157800Y418327D01*
X157820Y418338D01*
X157842Y418347D01*
X157867Y418360D01*
X157894Y418371D01*
X157925Y418382D01*
X157958Y418393D01*
X157993Y418402D01*
X158029Y418411D01*
X158067Y418418D01*
X158107Y418422D01*
X158147Y418426D01*
X158171Y418105D01*
X158167D01*
X158160Y418103D01*
X158147Y418102D01*
X158131Y418098D01*
X158113Y418094D01*
X158089Y418089D01*
X158064Y418082D01*
X158036Y418072D01*
X158007Y418063D01*
X157978Y418051D01*
X157949Y418036D01*
X157918Y418020D01*
X157889Y418002D01*
X157861Y417980D01*
X157834Y417956D01*
X157811Y417931D01*
X157809Y417929D01*
X157805Y417923D01*
X157800Y417916D01*
X157791Y417903D01*
X157781Y417887D01*
X157772Y417869D01*
X157761Y417847D01*
X157749Y417821D01*
X157738Y417792D01*
X157727Y417759D01*
X157718Y417723D01*
X157707Y417685D01*
X157700Y417641D01*
X157694Y417596D01*
X157691Y417547D01*
X157689Y417494D01*
Y417464D01*
X157691Y417445D01*
X157692Y417419D01*
X157694Y417392D01*
X157698Y417359D01*
X157703Y417326D01*
X157716Y417253D01*
X157725Y417217D01*
X157736Y417181D01*
X157749Y417146D01*
X157763Y417111D01*
X157780Y417080D01*
X157800Y417053D01*
X157801Y417051D01*
X157805Y417048D01*
X157811Y417040D01*
X157820Y417031D01*
X157831Y417022D01*
X157843Y417010D01*
X157858Y416999D01*
X157874Y416986D01*
X157893Y416973D01*
X157914Y416960D01*
X157960Y416939D01*
X157984Y416929D01*
X158011Y416922D01*
X158038Y416919D01*
X158067Y416917D01*
X158069D01*
X158073D01*
X158080D01*
X158089Y416919D01*
X158102Y416920D01*
X158115Y416922D01*
X158145Y416929D01*
X158182Y416940D01*
X158218Y416957D01*
X158238Y416968D01*
X158256Y416982D01*
X158275Y416997D01*
X158291Y417013D01*
X158293Y417015D01*
X158295Y417019D01*
X158300Y417024D01*
X158306Y417035D01*
X158315Y417048D01*
X158324Y417066D01*
X158335Y417086D01*
X158347Y417111D01*
X158360Y417142D01*
X158375Y417177D01*
X158389Y417219D01*
X158406Y417264D01*
X158422Y417317D01*
X158439Y417375D01*
X158455Y417441D01*
X158473Y417514D01*
Y417516D01*
X158475Y417519D01*
Y417525D01*
X158477Y417532D01*
X158478Y417541D01*
X158482Y417552D01*
X158488Y417579D01*
X158497Y417612D01*
X158506Y417650D01*
X158515Y417692D01*
X158528Y417736D01*
X158551Y417829D01*
X158564Y417874D01*
X158579Y417919D01*
X158591Y417963D01*
X158606Y418003D01*
X158619Y418040D01*
X158631Y418071D01*
X158633Y418072D01*
X158637Y418080D01*
X158642Y418092D01*
X158650Y418107D01*
X158660Y418125D01*
X158671Y418145D01*
X158686Y418169D01*
X158702Y418194D01*
X158719Y418220D01*
X158739Y418247D01*
X158782Y418302D01*
X158833Y418353D01*
X158861Y418374D01*
X158890Y418396D01*
X158892Y418398D01*
X158897Y418402D01*
X158906Y418405D01*
X158917Y418413D01*
X158932Y418420D01*
X158950Y418429D01*
X158970Y418440D01*
X158992Y418449D01*
X159017Y418458D01*
X159045Y418469D01*
X159074Y418478D01*
X159106Y418486D01*
X159139Y418493D01*
X159174Y418498D01*
X159208Y418500D01*
X159247Y418502D01*
X159248D01*
X159256D01*
X159267D01*
X159281Y418500D01*
D02*
G37*
G36*
X223820Y480584D02*
X223818Y480561D01*
Y480532D01*
X223816Y480501D01*
Y480466D01*
X223811Y480393D01*
X223805Y480319D01*
X223800Y480282D01*
X223796Y480248D01*
X223791Y480215D01*
X223783Y480184D01*
Y480182D01*
X223781Y480175D01*
X223778Y480164D01*
X223774Y480148D01*
X223767Y480129D01*
X223760Y480108D01*
X223752Y480084D01*
X223741Y480057D01*
X223718Y480000D01*
X223685Y479938D01*
X223649Y479877D01*
X223627Y479846D01*
X223603Y479816D01*
X223601Y479815D01*
X223596Y479807D01*
X223585Y479797D01*
X223572Y479784D01*
X223556Y479767D01*
X223536Y479747D01*
X223512Y479727D01*
X223487Y479704D01*
X223456Y479680D01*
X223423Y479656D01*
X223388Y479631D01*
X223350Y479605D01*
X223308Y479582D01*
X223266Y479560D01*
X223219Y479538D01*
X223172Y479518D01*
X223168Y479516D01*
X223159Y479514D01*
X223146Y479509D01*
X223126Y479502D01*
X223101Y479494D01*
X223072Y479487D01*
X223037Y479478D01*
X222999Y479467D01*
X222957Y479458D01*
X222910Y479449D01*
X222861Y479442D01*
X222808Y479434D01*
X222753Y479427D01*
X222695Y479422D01*
X222635Y479420D01*
X222573Y479418D01*
X222569D01*
X222560D01*
X222546D01*
X222524Y479420D01*
X222500D01*
X222471Y479422D01*
X222438Y479423D01*
X222402Y479427D01*
X222364Y479431D01*
X222322Y479434D01*
X222236Y479447D01*
X222149Y479463D01*
X222063Y479485D01*
X222061D01*
X222054Y479489D01*
X222042Y479493D01*
X222027Y479498D01*
X222009Y479503D01*
X221987Y479513D01*
X221961Y479522D01*
X221936Y479533D01*
X221878Y479556D01*
X221816Y479587D01*
X221756Y479620D01*
X221697Y479658D01*
X221696Y479660D01*
X221692Y479664D01*
X221683Y479669D01*
X221674Y479676D01*
X221661Y479685D01*
X221646Y479698D01*
X221614Y479726D01*
X221577Y479760D01*
X221539Y479798D01*
X221503Y479842D01*
X221468Y479887D01*
Y479889D01*
X221464Y479893D01*
X221461Y479900D01*
X221455Y479909D01*
X221448Y479922D01*
X221441Y479937D01*
X221432Y479953D01*
X221423Y479971D01*
X221412Y479993D01*
X221401Y480015D01*
X221392Y480040D01*
X221381Y480066D01*
X221361Y480124D01*
X221343Y480188D01*
Y480190D01*
X221341Y480195D01*
X221339Y480206D01*
X221335Y480219D01*
X221334Y480235D01*
X221330Y480255D01*
X221326Y480279D01*
X221323Y480304D01*
X221317Y480333D01*
X221314Y480364D01*
X221310Y480397D01*
X221308Y480434D01*
X221304Y480470D01*
X221303Y480510D01*
X221301Y480592D01*
Y481500D01*
X223820D01*
Y480584D01*
D02*
G37*
G36*
X222584Y479041D02*
X222609D01*
X222642Y479038D01*
X222680Y479036D01*
X222724Y479030D01*
X222771Y479023D01*
X222822Y479016D01*
X222877Y479005D01*
X222933Y478994D01*
X222991Y478979D01*
X223052Y478961D01*
X223113Y478941D01*
X223173Y478917D01*
X223234Y478890D01*
X223235D01*
X223237Y478888D01*
X223248Y478883D01*
X223265Y478874D01*
X223286Y478861D01*
X223312Y478846D01*
X223343Y478826D01*
X223377Y478803D01*
X223414Y478777D01*
X223452Y478748D01*
X223490Y478715D01*
X223530Y478679D01*
X223569Y478639D01*
X223607Y478595D01*
X223643Y478550D01*
X223678Y478501D01*
X223709Y478448D01*
X223710Y478444D01*
X223716Y478435D01*
X223723Y478419D01*
X223732Y478397D01*
X223745Y478370D01*
X223758Y478337D01*
X223772Y478299D01*
X223787Y478257D01*
X223800Y478209D01*
X223814Y478159D01*
X223827Y478104D01*
X223840Y478046D01*
X223849Y477984D01*
X223856Y477920D01*
X223862Y477853D01*
X223863Y477784D01*
Y477756D01*
X223862Y477738D01*
Y477713D01*
X223858Y477685D01*
X223856Y477654D01*
X223852Y477620D01*
X223847Y477582D01*
X223842Y477543D01*
X223825Y477460D01*
X223816Y477418D01*
X223803Y477374D01*
X223791Y477332D01*
X223774Y477290D01*
X223772Y477288D01*
X223770Y477281D01*
X223765Y477269D01*
X223758Y477254D01*
X223749Y477236D01*
X223738Y477214D01*
X223725Y477190D01*
X223710Y477163D01*
X223692Y477136D01*
X223674Y477108D01*
X223632Y477050D01*
X223583Y476994D01*
X223556Y476966D01*
X223527Y476943D01*
X223525Y476941D01*
X223519Y476937D01*
X223510Y476930D01*
X223498Y476923D01*
X223483Y476912D01*
X223463Y476899D01*
X223441Y476886D01*
X223416Y476872D01*
X223388Y476857D01*
X223356Y476841D01*
X223323Y476824D01*
X223286Y476810D01*
X223246Y476793D01*
X223204Y476779D01*
X223161Y476764D01*
X223113Y476752D01*
X223032Y477052D01*
X223033D01*
X223041Y477054D01*
X223050Y477057D01*
X223064Y477063D01*
X223079Y477068D01*
X223099Y477074D01*
X223119Y477083D01*
X223143Y477090D01*
X223190Y477112D01*
X223241Y477136D01*
X223290Y477163D01*
X223312Y477177D01*
X223334Y477194D01*
X223336Y477196D01*
X223339Y477198D01*
X223345Y477203D01*
X223352Y477208D01*
X223361Y477217D01*
X223372Y477228D01*
X223385Y477241D01*
X223397Y477256D01*
X223412Y477272D01*
X223427Y477288D01*
X223456Y477330D01*
X223485Y477380D01*
X223510Y477434D01*
Y477436D01*
X223514Y477441D01*
X223516Y477451D01*
X223521Y477461D01*
X223527Y477476D01*
X223532Y477494D01*
X223537Y477514D01*
X223545Y477536D01*
X223550Y477560D01*
X223556Y477587D01*
X223561Y477616D01*
X223567Y477645D01*
X223574Y477711D01*
X223578Y477780D01*
Y477802D01*
X223576Y477818D01*
Y477838D01*
X223574Y477862D01*
X223572Y477887D01*
X223569Y477915D01*
X223565Y477946D01*
X223561Y477978D01*
X223548Y478044D01*
X223530Y478111D01*
X223507Y478177D01*
Y478179D01*
X223503Y478184D01*
X223499Y478193D01*
X223494Y478204D01*
X223487Y478219D01*
X223479Y478235D01*
X223468Y478253D01*
X223457Y478271D01*
X223432Y478315D01*
X223399Y478359D01*
X223363Y478404D01*
X223323Y478444D01*
X223321Y478446D01*
X223317Y478448D01*
X223312Y478453D01*
X223303Y478461D01*
X223292Y478470D01*
X223281Y478479D01*
X223266Y478490D01*
X223250Y478503D01*
X223214Y478528D01*
X223172Y478555D01*
X223124Y478581D01*
X223075Y478604D01*
X223073Y478606D01*
X223064Y478608D01*
X223052Y478614D01*
X223035Y478619D01*
X223013Y478626D01*
X222988Y478633D01*
X222957Y478643D01*
X222924Y478652D01*
X222888Y478661D01*
X222850Y478670D01*
X222808Y478677D01*
X222762Y478685D01*
X222717Y478690D01*
X222668Y478695D01*
X222618Y478697D01*
X222568Y478699D01*
X222566D01*
X222564D01*
X222553D01*
X222535D01*
X222511Y478697D01*
X222482Y478695D01*
X222449Y478694D01*
X222411Y478690D01*
X222371Y478685D01*
X222327Y478679D01*
X222282Y478672D01*
X222234Y478661D01*
X222187Y478650D01*
X222140Y478637D01*
X222092Y478623D01*
X222047Y478604D01*
X222003Y478584D01*
X222001Y478582D01*
X221994Y478579D01*
X221981Y478572D01*
X221967Y478562D01*
X221947Y478550D01*
X221927Y478535D01*
X221903Y478519D01*
X221878Y478499D01*
X221850Y478475D01*
X221823Y478450D01*
X221794Y478422D01*
X221767Y478391D01*
X221739Y478359D01*
X221714Y478324D01*
X221690Y478286D01*
X221668Y478246D01*
X221667Y478244D01*
X221663Y478235D01*
X221657Y478224D01*
X221652Y478208D01*
X221643Y478188D01*
X221634Y478162D01*
X221625Y478135D01*
X221614Y478104D01*
X221603Y478069D01*
X221594Y478033D01*
X221585Y477995D01*
X221576Y477955D01*
X221570Y477911D01*
X221565Y477867D01*
X221561Y477822D01*
X221559Y477776D01*
Y477754D01*
X221561Y477740D01*
Y477720D01*
X221563Y477696D01*
X221567Y477671D01*
X221570Y477642D01*
X221574Y477611D01*
X221579Y477578D01*
X221594Y477507D01*
X221614Y477430D01*
X221626Y477392D01*
X221641Y477354D01*
X221643Y477352D01*
X221645Y477345D01*
X221650Y477334D01*
X221656Y477319D01*
X221663Y477303D01*
X221672Y477283D01*
X221683Y477261D01*
X221696Y477238D01*
X221721Y477187D01*
X221752Y477134D01*
X221785Y477083D01*
X221801Y477061D01*
X221819Y477039D01*
X222289D01*
Y477780D01*
X222586D01*
Y476713D01*
X221650D01*
X221648Y476717D01*
X221641Y476724D01*
X221632Y476737D01*
X221617Y476755D01*
X221603Y476779D01*
X221583Y476804D01*
X221563Y476835D01*
X221541Y476868D01*
X221517Y476906D01*
X221494Y476944D01*
X221468Y476986D01*
X221445Y477032D01*
X221397Y477125D01*
X221377Y477172D01*
X221357Y477221D01*
X221355Y477225D01*
X221354Y477232D01*
X221348Y477247D01*
X221343Y477267D01*
X221335Y477290D01*
X221326Y477318D01*
X221317Y477350D01*
X221308Y477385D01*
X221299Y477425D01*
X221290Y477467D01*
X221283Y477511D01*
X221273Y477556D01*
X221263Y477654D01*
X221261Y477705D01*
X221259Y477756D01*
Y477782D01*
X221261Y477793D01*
Y477818D01*
X221264Y477851D01*
X221268Y477889D01*
X221272Y477933D01*
X221279Y477980D01*
X221288Y478031D01*
X221297Y478084D01*
X221310Y478140D01*
X221326Y478198D01*
X221344Y478257D01*
X221364Y478315D01*
X221390Y478373D01*
X221417Y478432D01*
X221419Y478435D01*
X221425Y478444D01*
X221434Y478461D01*
X221446Y478481D01*
X221463Y478506D01*
X221483Y478535D01*
X221506Y478568D01*
X221534Y478603D01*
X221565Y478639D01*
X221599Y478677D01*
X221636Y478715D01*
X221677Y478754D01*
X221723Y478790D01*
X221770Y478826D01*
X221821Y478859D01*
X221876Y478890D01*
X221880Y478892D01*
X221890Y478897D01*
X221907Y478905D01*
X221929Y478914D01*
X221958Y478925D01*
X221990Y478939D01*
X222031Y478952D01*
X222072Y478967D01*
X222122Y478981D01*
X222172Y478994D01*
X222227Y479007D01*
X222287Y479019D01*
X222349Y479028D01*
X222413Y479036D01*
X222478Y479041D01*
X222547Y479043D01*
X222549D01*
X222551D01*
X222556D01*
X222564D01*
X222573D01*
X222584Y479041D01*
D02*
G37*
G36*
X208879Y486329D02*
X208355Y485995D01*
X208353Y485994D01*
X208346Y485988D01*
X208333Y485981D01*
X208318Y485972D01*
X208298Y485959D01*
X208277Y485945D01*
X208253Y485928D01*
X208227Y485912D01*
X208171Y485874D01*
X208113Y485834D01*
X208058Y485793D01*
X208033Y485774D01*
X208009Y485755D01*
X208007Y485753D01*
X208003Y485752D01*
X207998Y485746D01*
X207989Y485739D01*
X207967Y485721D01*
X207942Y485699D01*
X207914Y485672D01*
X207885Y485644D01*
X207860Y485615D01*
X207840Y485586D01*
X207838Y485582D01*
X207832Y485573D01*
X207823Y485559D01*
X207814Y485539D01*
X207803Y485517D01*
X207790Y485491D01*
X207781Y485464D01*
X207772Y485435D01*
Y485433D01*
X207770Y485424D01*
X207769Y485409D01*
X207765Y485391D01*
X207763Y485366D01*
X207761Y485333D01*
X207760Y485295D01*
Y484864D01*
X208879D01*
Y484530D01*
X206360D01*
Y485679D01*
X206362Y485701D01*
Y485730D01*
X206364Y485763D01*
X206365Y485797D01*
X206369Y485837D01*
X206373Y485877D01*
X206376Y485919D01*
X206389Y486005D01*
X206396Y486045D01*
X206405Y486085D01*
X206416Y486123D01*
X206429Y486158D01*
Y486159D01*
X206433Y486165D01*
X206436Y486174D01*
X206442Y486187D01*
X206449Y486201D01*
X206460Y486218D01*
X206471Y486238D01*
X206484Y486258D01*
X206500Y486279D01*
X206517Y486303D01*
X206537Y486327D01*
X206558Y486350D01*
X206584Y486372D01*
X206609Y486396D01*
X206639Y486418D01*
X206669Y486438D01*
X206671Y486440D01*
X206677Y486443D01*
X206686Y486447D01*
X206698Y486454D01*
X206715Y486461D01*
X206735Y486471D01*
X206757Y486482D01*
X206780Y486491D01*
X206808Y486500D01*
X206837Y486511D01*
X206868Y486520D01*
X206901Y486527D01*
X206935Y486534D01*
X206972Y486540D01*
X207010Y486542D01*
X207048Y486543D01*
X207052D01*
X207059D01*
X207073Y486542D01*
X207094D01*
X207115Y486538D01*
X207143Y486534D01*
X207172Y486529D01*
X207205Y486521D01*
X207239Y486512D01*
X207276Y486502D01*
X207314Y486487D01*
X207352Y486471D01*
X207390Y486450D01*
X207427Y486427D01*
X207465Y486400D01*
X207499Y486369D01*
X207501Y486367D01*
X207507Y486361D01*
X207516Y486350D01*
X207528Y486336D01*
X207543Y486318D01*
X207559Y486294D01*
X207578Y486269D01*
X207598Y486238D01*
X207618Y486201D01*
X207638Y486163D01*
X207656Y486118D01*
X207676Y486070D01*
X207692Y486017D01*
X207709Y485961D01*
X207721Y485899D01*
X207732Y485834D01*
Y485835D01*
X207736Y485839D01*
X207738Y485846D01*
X207743Y485855D01*
X207749Y485866D01*
X207756Y485879D01*
X207772Y485908D01*
X207790Y485941D01*
X207812Y485974D01*
X207834Y486005D01*
X207858Y486034D01*
X207860Y486036D01*
X207863Y486041D01*
X207872Y486048D01*
X207881Y486059D01*
X207896Y486072D01*
X207911Y486087D01*
X207929Y486105D01*
X207951Y486123D01*
X207974Y486143D01*
X208000Y486165D01*
X208027Y486189D01*
X208056Y486212D01*
X208089Y486236D01*
X208122Y486261D01*
X208195Y486310D01*
X208879Y486745D01*
Y486329D01*
D02*
G37*
G36*
X207656Y484064D02*
X207680D01*
X207709Y484063D01*
X207741Y484061D01*
X207778Y484057D01*
X207816Y484054D01*
X207858Y484050D01*
X207943Y484037D01*
X208031Y484021D01*
X208116Y483999D01*
X208118D01*
X208125Y483995D01*
X208138Y483992D01*
X208153Y483986D01*
X208171Y483981D01*
X208193Y483972D01*
X208218Y483963D01*
X208244Y483952D01*
X208302Y483928D01*
X208364Y483897D01*
X208424Y483864D01*
X208482Y483826D01*
X208484Y483824D01*
X208488Y483821D01*
X208497Y483815D01*
X208506Y483808D01*
X208519Y483799D01*
X208533Y483786D01*
X208566Y483759D01*
X208602Y483724D01*
X208641Y483686D01*
X208677Y483642D01*
X208712Y483597D01*
Y483595D01*
X208715Y483591D01*
X208719Y483584D01*
X208724Y483575D01*
X208732Y483562D01*
X208739Y483548D01*
X208748Y483531D01*
X208757Y483513D01*
X208768Y483491D01*
X208779Y483469D01*
X208788Y483444D01*
X208799Y483418D01*
X208819Y483360D01*
X208837Y483296D01*
Y483295D01*
X208839Y483289D01*
X208841Y483278D01*
X208844Y483265D01*
X208846Y483249D01*
X208850Y483229D01*
X208853Y483206D01*
X208857Y483180D01*
X208862Y483151D01*
X208866Y483120D01*
X208870Y483087D01*
X208872Y483051D01*
X208875Y483014D01*
X208877Y482974D01*
X208879Y482892D01*
Y481984D01*
X206360D01*
Y482900D01*
X206362Y482923D01*
Y482952D01*
X206364Y482983D01*
Y483018D01*
X206369Y483091D01*
X206375Y483165D01*
X206380Y483202D01*
X206384Y483236D01*
X206389Y483269D01*
X206396Y483300D01*
Y483302D01*
X206398Y483309D01*
X206402Y483320D01*
X206405Y483336D01*
X206413Y483355D01*
X206420Y483377D01*
X206427Y483400D01*
X206438Y483427D01*
X206462Y483484D01*
X206495Y483546D01*
X206531Y483608D01*
X206553Y483639D01*
X206577Y483668D01*
X206578Y483670D01*
X206584Y483677D01*
X206595Y483688D01*
X206608Y483701D01*
X206624Y483717D01*
X206644Y483737D01*
X206668Y483757D01*
X206693Y483781D01*
X206724Y483804D01*
X206757Y483828D01*
X206791Y483853D01*
X206830Y483879D01*
X206871Y483903D01*
X206913Y483924D01*
X206961Y483946D01*
X207008Y483966D01*
X207012Y483968D01*
X207021Y483970D01*
X207033Y483975D01*
X207053Y483983D01*
X207079Y483990D01*
X207108Y483997D01*
X207143Y484006D01*
X207181Y484017D01*
X207223Y484026D01*
X207270Y484035D01*
X207319Y484043D01*
X207372Y484050D01*
X207427Y484057D01*
X207485Y484063D01*
X207545Y484064D01*
X207607Y484066D01*
X207610D01*
X207620D01*
X207634D01*
X207656Y484064D01*
D02*
G37*
%LPC*%
G36*
X128474Y416086D02*
X128465D01*
X128454Y416085D01*
X128440Y416083D01*
X128421Y416081D01*
X128401Y416077D01*
X128378Y416072D01*
X128352Y416065D01*
X128327Y416055D01*
X128298Y416045D01*
X128269Y416030D01*
X128240Y416014D01*
X128208Y415994D01*
X128179Y415970D01*
X128150Y415944D01*
X128123Y415913D01*
X128121Y415912D01*
X128116Y415904D01*
X128108Y415895D01*
X128099Y415881D01*
X128088Y415863D01*
X128076Y415839D01*
X128063Y415812D01*
X128048Y415781D01*
X128036Y415744D01*
X128023Y415704D01*
X128010Y415660D01*
X127999Y415611D01*
X127988Y415559D01*
X127981Y415500D01*
X127977Y415439D01*
X127976Y415373D01*
Y415371D01*
Y415369D01*
Y415364D01*
Y415358D01*
Y415340D01*
X127977Y415316D01*
X127979Y415287D01*
X127983Y415255D01*
X127988Y415216D01*
X127994Y415178D01*
X128001Y415136D01*
X128010Y415093D01*
X128023Y415049D01*
X128036Y415007D01*
X128052Y414965D01*
X128072Y414925D01*
X128094Y414887D01*
X128119Y414852D01*
X128121Y414851D01*
X128127Y414845D01*
X128134Y414836D01*
X128145Y414825D01*
X128159Y414812D01*
X128176Y414798D01*
X128194Y414782D01*
X128216Y414765D01*
X128240Y414749D01*
X128267Y414732D01*
X128294Y414718D01*
X128325Y414705D01*
X128356Y414694D01*
X128391Y414685D01*
X128425Y414679D01*
X128462Y414678D01*
X128471D01*
X128480Y414679D01*
X128494Y414681D01*
X128513Y414683D01*
X128533Y414687D01*
X128554Y414694D01*
X128578Y414701D01*
X128605Y414711D01*
X128633Y414723D01*
X128662Y414738D01*
X128691Y414756D01*
X128722Y414778D01*
X128751Y414802D01*
X128780Y414831D01*
X128809Y414863D01*
X128811Y414865D01*
X128816Y414873D01*
X128824Y414883D01*
X128833Y414898D01*
X128844Y414916D01*
X128856Y414940D01*
X128871Y414967D01*
X128884Y415000D01*
X128898Y415034D01*
X128913Y415074D01*
X128926Y415118D01*
X128937Y415167D01*
X128946Y415218D01*
X128953Y415275D01*
X128958Y415335D01*
X128960Y415398D01*
Y415400D01*
Y415402D01*
Y415408D01*
Y415413D01*
X128958Y415431D01*
Y415457D01*
X128956Y415486D01*
X128953Y415519D01*
X128947Y415557D01*
X128942Y415595D01*
X128935Y415637D01*
X128926Y415681D01*
X128915Y415724D01*
X128900Y415766D01*
X128884Y415808D01*
X128866Y415848D01*
X128844Y415886D01*
X128818Y415919D01*
X128816Y415921D01*
X128811Y415926D01*
X128804Y415934D01*
X128793Y415944D01*
X128778Y415957D01*
X128762Y415972D01*
X128744Y415986D01*
X128722Y416003D01*
X128698Y416019D01*
X128673Y416034D01*
X128644Y416048D01*
X128613Y416061D01*
X128582Y416070D01*
X128547Y416079D01*
X128511Y416085D01*
X128474Y416086D01*
D02*
G37*
G36*
X124736Y416099D02*
X124718D01*
X124705Y416097D01*
X124690D01*
X124672Y416095D01*
X124650Y416092D01*
X124629Y416090D01*
X124579Y416081D01*
X124525Y416066D01*
X124470Y416048D01*
X124417Y416023D01*
X124416Y416021D01*
X124412Y416019D01*
X124405Y416015D01*
X124396Y416008D01*
X124383Y416001D01*
X124370Y415990D01*
X124339Y415966D01*
X124306Y415935D01*
X124274Y415899D01*
X124241Y415857D01*
X124214Y415808D01*
Y415806D01*
X124212Y415802D01*
X124208Y415797D01*
X124206Y415788D01*
X124201Y415777D01*
X124197Y415764D01*
X124194Y415748D01*
X124188Y415730D01*
X124183Y415710D01*
X124179Y415688D01*
X124174Y415662D01*
X124170Y415635D01*
X124168Y415604D01*
X124164Y415571D01*
X124163Y415537D01*
Y415500D01*
Y415386D01*
X124164D01*
X124170Y415389D01*
X124181Y415393D01*
X124194Y415397D01*
X124212Y415404D01*
X124234Y415409D01*
X124259Y415418D01*
X124290Y415426D01*
X124323Y415435D01*
X124361Y415446D01*
X124403Y415455D01*
X124447Y415464D01*
X124498Y415475D01*
X124550Y415484D01*
X124607Y415495D01*
X124669Y415504D01*
X124671D01*
X124678Y415506D01*
X124687D01*
X124700Y415510D01*
X124716Y415511D01*
X124732Y415515D01*
X124774Y415522D01*
X124818Y415531D01*
X124863Y415542D01*
X124903Y415553D01*
X124922Y415559D01*
X124938Y415566D01*
X124942Y415568D01*
X124951Y415571D01*
X124965Y415580D01*
X124982Y415591D01*
X125002Y415604D01*
X125022Y415622D01*
X125042Y415642D01*
X125060Y415666D01*
X125062Y415670D01*
X125067Y415677D01*
X125073Y415691D01*
X125080Y415708D01*
X125089Y415730D01*
X125094Y415755D01*
X125100Y415782D01*
X125102Y415812D01*
Y415813D01*
Y415817D01*
Y415824D01*
X125100Y415832D01*
X125098Y415842D01*
X125096Y415855D01*
X125091Y415884D01*
X125080Y415915D01*
X125062Y415950D01*
X125053Y415968D01*
X125040Y415984D01*
X125025Y416001D01*
X125009Y416017D01*
X125007D01*
X125005Y416021D01*
X125000Y416024D01*
X124991Y416030D01*
X124982Y416035D01*
X124971Y416043D01*
X124956Y416050D01*
X124940Y416057D01*
X124922Y416066D01*
X124902Y416074D01*
X124880Y416081D01*
X124854Y416086D01*
X124829Y416092D01*
X124800Y416095D01*
X124769Y416097D01*
X124736Y416099D01*
D02*
G37*
G36*
X127051Y415213D02*
X126030D01*
Y415211D01*
X126032Y415202D01*
Y415191D01*
X126035Y415175D01*
X126037Y415156D01*
X126043Y415134D01*
X126046Y415109D01*
X126054Y415084D01*
X126068Y415027D01*
X126088Y414971D01*
X126116Y414916D01*
X126132Y414891D01*
X126148Y414869D01*
X126150Y414867D01*
X126156Y414861D01*
X126163Y414852D01*
X126176Y414842D01*
X126190Y414827D01*
X126207Y414812D01*
X126228Y414796D01*
X126252Y414780D01*
X126277Y414763D01*
X126307Y414747D01*
X126338Y414732D01*
X126372Y414718D01*
X126409Y414707D01*
X126449Y414698D01*
X126489Y414692D01*
X126532Y414690D01*
X126552D01*
X126567Y414692D01*
X126587Y414694D01*
X126607Y414698D01*
X126631Y414703D01*
X126656Y414709D01*
X126685Y414716D01*
X126713Y414725D01*
X126743Y414738D01*
X126773Y414750D01*
X126804Y414767D01*
X126834Y414787D01*
X126864Y414809D01*
X126891Y414834D01*
X126893Y414836D01*
X126896Y414842D01*
X126904Y414849D01*
X126915Y414860D01*
X126925Y414874D01*
X126938Y414892D01*
X126951Y414913D01*
X126965Y414934D01*
X126980Y414960D01*
X126995Y414989D01*
X127007Y415020D01*
X127020Y415054D01*
X127031Y415089D01*
X127040Y415129D01*
X127047Y415169D01*
X127051Y415213D01*
D02*
G37*
G36*
X121378D02*
X120357D01*
Y415211D01*
X120359Y415202D01*
Y415191D01*
X120362Y415175D01*
X120364Y415156D01*
X120370Y415134D01*
X120373Y415109D01*
X120381Y415084D01*
X120395Y415027D01*
X120415Y414971D01*
X120443Y414916D01*
X120459Y414891D01*
X120475Y414869D01*
X120477Y414867D01*
X120483Y414861D01*
X120490Y414852D01*
X120503Y414842D01*
X120517Y414827D01*
X120534Y414812D01*
X120555Y414796D01*
X120579Y414780D01*
X120605Y414763D01*
X120634Y414747D01*
X120665Y414732D01*
X120699Y414718D01*
X120736Y414707D01*
X120776Y414698D01*
X120816Y414692D01*
X120859Y414690D01*
X120879D01*
X120894Y414692D01*
X120914Y414694D01*
X120934Y414698D01*
X120958Y414703D01*
X120983Y414709D01*
X121012Y414716D01*
X121040Y414725D01*
X121071Y414738D01*
X121100Y414750D01*
X121131Y414767D01*
X121161Y414787D01*
X121191Y414809D01*
X121218Y414834D01*
X121220Y414836D01*
X121223Y414842D01*
X121231Y414849D01*
X121242Y414860D01*
X121253Y414874D01*
X121265Y414892D01*
X121278Y414913D01*
X121292Y414934D01*
X121307Y414960D01*
X121322Y414989D01*
X121334Y415020D01*
X121347Y415054D01*
X121358Y415089D01*
X121367Y415129D01*
X121374Y415169D01*
X121378Y415213D01*
D02*
G37*
G36*
X120764Y445423D02*
X119863D01*
Y444742D01*
X119865Y444720D01*
X119867Y444695D01*
X119870Y444664D01*
X119874Y444631D01*
X119878Y444595D01*
X119892Y444520D01*
X119901Y444482D01*
X119914Y444444D01*
X119927Y444407D01*
X119943Y444373D01*
X119961Y444342D01*
X119983Y444314D01*
X119985Y444313D01*
X119989Y444309D01*
X119996Y444302D01*
X120005Y444293D01*
X120018Y444284D01*
X120032Y444271D01*
X120051Y444258D01*
X120071Y444245D01*
X120094Y444233D01*
X120118Y444222D01*
X120147Y444209D01*
X120176Y444200D01*
X120209Y444191D01*
X120245Y444183D01*
X120282Y444180D01*
X120322Y444178D01*
X120324D01*
X120329D01*
X120336D01*
X120349Y444180D01*
X120362D01*
X120378Y444182D01*
X120396Y444185D01*
X120415Y444187D01*
X120456Y444198D01*
X120502Y444213D01*
X120547Y444231D01*
X120569Y444243D01*
X120591Y444258D01*
X120593D01*
X120597Y444262D01*
X120602Y444267D01*
X120609Y444273D01*
X120629Y444291D01*
X120653Y444314D01*
X120677Y444345D01*
X120702Y444380D01*
X120724Y444422D01*
X120740Y444469D01*
Y444471D01*
X120742Y444473D01*
Y444478D01*
X120744Y444486D01*
X120746Y444495D01*
X120748Y444507D01*
X120749Y444522D01*
X120753Y444540D01*
X120755Y444560D01*
X120757Y444582D01*
X120759Y444607D01*
X120760Y444637D01*
X120762Y444668D01*
Y444702D01*
X120764Y444739D01*
Y445423D01*
D02*
G37*
G36*
X306076Y444611D02*
X306074D01*
X306072D01*
X306066D01*
X306059D01*
X306039D01*
X306014Y444609D01*
X305983Y444607D01*
X305948Y444604D01*
X305910Y444598D01*
X305866Y444593D01*
X305822Y444586D01*
X305777Y444576D01*
X305732Y444564D01*
X305686Y444549D01*
X305642Y444533D01*
X305601Y444513D01*
X305562Y444491D01*
X305528Y444465D01*
X305526Y444464D01*
X305520Y444458D01*
X305511Y444451D01*
X305500Y444440D01*
X305486Y444425D01*
X305471Y444409D01*
X305457Y444389D01*
X305438Y444367D01*
X305422Y444344D01*
X305408Y444316D01*
X305391Y444287D01*
X305378Y444254D01*
X305367Y444221D01*
X305358Y444187D01*
X305353Y444149D01*
X305351Y444110D01*
Y444101D01*
X305353Y444091D01*
Y444076D01*
X305357Y444060D01*
X305360Y444038D01*
X305366Y444016D01*
X305373Y443990D01*
X305382Y443963D01*
X305393Y443936D01*
X305406Y443909D01*
X305422Y443879D01*
X305442Y443850D01*
X305464Y443821D01*
X305491Y443794D01*
X305520Y443766D01*
X305522Y443765D01*
X305528Y443761D01*
X305539Y443754D01*
X305551Y443745D01*
X305570Y443736D01*
X305593Y443723D01*
X305619Y443712D01*
X305650Y443699D01*
X305684Y443686D01*
X305722Y443674D01*
X305766Y443661D01*
X305815Y443652D01*
X305866Y443643D01*
X305923Y443636D01*
X305984Y443632D01*
X306050Y443630D01*
X306052D01*
X306054D01*
X306059D01*
X306065D01*
X306083Y443632D01*
X306106D01*
X306136Y443636D01*
X306170Y443637D01*
X306206Y443643D01*
X306246Y443648D01*
X306288Y443655D01*
X306330Y443666D01*
X306374Y443677D01*
X306418Y443692D01*
X306459Y443708D01*
X306500Y443728D01*
X306538Y443752D01*
X306572Y443778D01*
X306574Y443779D01*
X306580Y443785D01*
X306589Y443792D01*
X306600Y443803D01*
X306612Y443818D01*
X306627Y443834D01*
X306643Y443854D01*
X306658Y443876D01*
X306674Y443901D01*
X306691Y443927D01*
X306705Y443956D01*
X306718Y443987D01*
X306729Y444020D01*
X306738Y444052D01*
X306743Y444089D01*
X306745Y444125D01*
Y444134D01*
X306743Y444145D01*
Y444160D01*
X306740Y444176D01*
X306736Y444196D01*
X306731Y444220D01*
X306725Y444243D01*
X306716Y444271D01*
X306705Y444298D01*
X306693Y444327D01*
X306676Y444356D01*
X306658Y444385D01*
X306636Y444415D01*
X306611Y444442D01*
X306581Y444469D01*
X306580Y444471D01*
X306574Y444475D01*
X306563Y444482D01*
X306551Y444491D01*
X306532Y444502D01*
X306510Y444515D01*
X306485Y444527D01*
X306456Y444540D01*
X306423Y444553D01*
X306385Y444565D01*
X306343Y444578D01*
X306297Y444589D01*
X306248Y444598D01*
X306196Y444606D01*
X306137Y444609D01*
X306076Y444611D01*
D02*
G37*
G36*
X241660Y317481D02*
X241109D01*
Y316719D01*
X241688D01*
X241706Y316720D01*
X241750D01*
X241775Y316722D01*
X241826Y316726D01*
X241879Y316731D01*
X241904Y316735D01*
X241928Y316739D01*
X241950Y316742D01*
X241970Y316748D01*
X241972D01*
X241975Y316750D01*
X241983Y316751D01*
X241992Y316755D01*
X242001Y316759D01*
X242014Y316764D01*
X242041Y316777D01*
X242072Y316793D01*
X242105Y316815D01*
X242134Y316841D01*
X242161Y316871D01*
Y316873D01*
X242165Y316875D01*
X242166Y316880D01*
X242172Y316888D01*
X242176Y316897D01*
X242181Y316906D01*
X242194Y316933D01*
X242207Y316964D01*
X242216Y317002D01*
X242223Y317046D01*
X242227Y317093D01*
Y317095D01*
Y317099D01*
Y317106D01*
Y317115D01*
X242225Y317126D01*
X242223Y317139D01*
X242219Y317168D01*
X242212Y317203D01*
X242201Y317239D01*
X242185Y317277D01*
X242165Y317314D01*
Y317316D01*
X242161Y317317D01*
X242154Y317330D01*
X242139Y317346D01*
X242121Y317366D01*
X242097Y317388D01*
X242066Y317410D01*
X242034Y317428D01*
X241994Y317445D01*
X241992D01*
X241988Y317446D01*
X241981Y317448D01*
X241972Y317450D01*
X241959Y317454D01*
X241944Y317456D01*
X241926Y317459D01*
X241904Y317463D01*
X241879Y317466D01*
X241852Y317470D01*
X241821Y317472D01*
X241786Y317476D01*
X241748Y317477D01*
X241706Y317479D01*
X241660Y317481D01*
D02*
G37*
G36*
X241733Y316422D02*
X241109D01*
Y315556D01*
X241790D01*
X241824Y315557D01*
X241863D01*
X241899Y315561D01*
X241933Y315563D01*
X241950Y315565D01*
X241963Y315566D01*
X241964D01*
X241968Y315568D01*
X241973D01*
X241983Y315570D01*
X242003Y315576D01*
X242030Y315583D01*
X242059Y315592D01*
X242092Y315603D01*
X242123Y315617D01*
X242154Y315634D01*
X242156D01*
X242157Y315636D01*
X242166Y315643D01*
X242181Y315654D01*
X242199Y315670D01*
X242219Y315690D01*
X242241Y315714D01*
X242261Y315741D01*
X242281Y315774D01*
Y315776D01*
X242283Y315778D01*
X242287Y315783D01*
X242288Y315790D01*
X242298Y315810D01*
X242307Y315836D01*
X242316Y315867D01*
X242325Y315903D01*
X242330Y315945D01*
X242332Y315989D01*
Y315990D01*
Y315994D01*
Y316003D01*
X242330Y316012D01*
Y316025D01*
X242328Y316038D01*
X242323Y316072D01*
X242314Y316111D01*
X242301Y316151D01*
X242283Y316193D01*
X242259Y316233D01*
Y316234D01*
X242256Y316238D01*
X242252Y316242D01*
X242247Y316249D01*
X242230Y316267D01*
X242207Y316289D01*
X242177Y316315D01*
X242143Y316338D01*
X242103Y316360D01*
X242057Y316378D01*
X242055D01*
X242052Y316380D01*
X242044Y316382D01*
X242034Y316386D01*
X242021Y316389D01*
X242004Y316393D01*
X241986Y316396D01*
X241964Y316400D01*
X241939Y316404D01*
X241912Y316407D01*
X241881Y316411D01*
X241848Y316415D01*
X241813Y316418D01*
X241775Y316420D01*
X241733Y316422D01*
D02*
G37*
G36*
X239163Y317481D02*
X238581D01*
Y315556D01*
X239160D01*
X239180Y315557D01*
X239204D01*
X239231Y315559D01*
X239260Y315561D01*
X239322Y315566D01*
X239387Y315576D01*
X239451Y315586D01*
X239480Y315594D01*
X239507Y315601D01*
X239509D01*
X239513Y315603D01*
X239522Y315606D01*
X239531Y315610D01*
X239544Y315614D01*
X239557Y315621D01*
X239589Y315636D01*
X239626Y315654D01*
X239664Y315676D01*
X239700Y315703D01*
X239735Y315732D01*
X239737Y315734D01*
X239740Y315738D01*
X239746Y315745D01*
X239755Y315754D01*
X239764Y315765D01*
X239775Y315779D01*
X239788Y315798D01*
X239802Y315816D01*
X239817Y315838D01*
X239831Y315861D01*
X239848Y315889D01*
X239862Y315916D01*
X239877Y315947D01*
X239892Y315980D01*
X239906Y316014D01*
X239919Y316051D01*
Y316052D01*
X239922Y316060D01*
X239924Y316071D01*
X239930Y316087D01*
X239935Y316105D01*
X239941Y316129D01*
X239946Y316156D01*
X239953Y316187D01*
X239959Y316220D01*
X239964Y316258D01*
X239970Y316298D01*
X239975Y316340D01*
X239981Y316386D01*
X239983Y316433D01*
X239986Y316484D01*
Y316536D01*
Y316538D01*
Y316540D01*
Y316546D01*
Y316555D01*
Y316564D01*
Y316575D01*
X239984Y316602D01*
X239983Y316635D01*
X239979Y316673D01*
X239975Y316715D01*
X239970Y316760D01*
X239962Y316808D01*
X239953Y316859D01*
X239944Y316908D01*
X239932Y316959D01*
X239915Y317008D01*
X239899Y317055D01*
X239879Y317101D01*
X239855Y317143D01*
X239853Y317144D01*
X239850Y317152D01*
X239842Y317163D01*
X239831Y317177D01*
X239819Y317194D01*
X239804Y317214D01*
X239788Y317235D01*
X239768Y317259D01*
X239746Y317283D01*
X239722Y317306D01*
X239695Y317330D01*
X239668Y317354D01*
X239638Y317375D01*
X239608Y317396D01*
X239575Y317414D01*
X239540Y317428D01*
X239538D01*
X239535Y317430D01*
X239526Y317434D01*
X239515Y317437D01*
X239500Y317441D01*
X239482Y317445D01*
X239460Y317450D01*
X239437Y317456D01*
X239407Y317459D01*
X239376Y317465D01*
X239340Y317468D01*
X239302Y317474D01*
X239258Y317476D01*
X239213Y317479D01*
X239163Y317481D01*
D02*
G37*
G36*
X286669Y339336D02*
X286667D01*
X286662D01*
X286653D01*
X286640Y339334D01*
X286624Y339332D01*
X286607Y339328D01*
X286587Y339325D01*
X286565Y339319D01*
X286543Y339312D01*
X286520Y339303D01*
X286494Y339294D01*
X286471Y339281D01*
X286445Y339265D01*
X286422Y339248D01*
X286398Y339228D01*
X286376Y339205D01*
X286374Y339203D01*
X286371Y339199D01*
X286365Y339190D01*
X286358Y339181D01*
X286349Y339166D01*
X286340Y339148D01*
X286329Y339128D01*
X286318Y339104D01*
X286307Y339079D01*
X286296Y339048D01*
X286287Y339013D01*
X286278Y338977D01*
X286270Y338937D01*
X286265Y338893D01*
X286261Y338846D01*
X286260Y338795D01*
Y338000D01*
X287091D01*
Y338753D01*
X287089Y338771D01*
Y338795D01*
X287088Y338819D01*
X287086Y338846D01*
X287080Y338902D01*
X287071Y338962D01*
X287060Y339021D01*
X287053Y339046D01*
X287046Y339072D01*
Y339073D01*
X287044Y339077D01*
X287040Y339084D01*
X287037Y339093D01*
X287031Y339104D01*
X287026Y339115D01*
X287010Y339144D01*
X286988Y339177D01*
X286962Y339210D01*
X286931Y339241D01*
X286895Y339268D01*
X286893D01*
X286889Y339272D01*
X286884Y339274D01*
X286877Y339279D01*
X286867Y339285D01*
X286855Y339290D01*
X286827Y339303D01*
X286795Y339314D01*
X286756Y339325D01*
X286715Y339332D01*
X286669Y339336D01*
D02*
G37*
G36*
X287770Y332556D02*
X287768D01*
X287765D01*
X287756D01*
X287747Y332554D01*
X287734D01*
X287721Y332552D01*
X287686Y332547D01*
X287648Y332538D01*
X287608Y332525D01*
X287566Y332507D01*
X287526Y332483D01*
X287525D01*
X287521Y332480D01*
X287517Y332476D01*
X287510Y332470D01*
X287492Y332454D01*
X287470Y332431D01*
X287444Y332401D01*
X287421Y332367D01*
X287399Y332327D01*
X287381Y332281D01*
Y332279D01*
X287379Y332276D01*
X287377Y332269D01*
X287373Y332258D01*
X287370Y332245D01*
X287366Y332228D01*
X287363Y332210D01*
X287359Y332188D01*
X287355Y332163D01*
X287352Y332136D01*
X287348Y332105D01*
X287344Y332072D01*
X287341Y332037D01*
X287339Y331999D01*
X287337Y331957D01*
Y331333D01*
X288203D01*
Y332014D01*
X288201Y332048D01*
Y332086D01*
X288198Y332123D01*
X288196Y332157D01*
X288194Y332174D01*
X288193Y332187D01*
Y332188D01*
X288191Y332192D01*
Y332197D01*
X288189Y332207D01*
X288183Y332227D01*
X288176Y332254D01*
X288167Y332283D01*
X288156Y332316D01*
X288141Y332347D01*
X288125Y332378D01*
Y332380D01*
X288123Y332381D01*
X288116Y332390D01*
X288105Y332405D01*
X288089Y332423D01*
X288069Y332443D01*
X288045Y332465D01*
X288018Y332485D01*
X287985Y332505D01*
X287983D01*
X287981Y332507D01*
X287976Y332511D01*
X287969Y332512D01*
X287949Y332522D01*
X287923Y332531D01*
X287892Y332540D01*
X287856Y332549D01*
X287814Y332554D01*
X287770Y332556D01*
D02*
G37*
G36*
X286666Y332451D02*
X286664D01*
X286660D01*
X286653D01*
X286644D01*
X286633Y332449D01*
X286620Y332447D01*
X286591Y332443D01*
X286556Y332436D01*
X286520Y332425D01*
X286482Y332409D01*
X286445Y332389D01*
X286443D01*
X286442Y332385D01*
X286429Y332378D01*
X286413Y332363D01*
X286392Y332345D01*
X286371Y332321D01*
X286349Y332290D01*
X286331Y332258D01*
X286314Y332218D01*
Y332216D01*
X286312Y332212D01*
X286311Y332205D01*
X286309Y332196D01*
X286305Y332183D01*
X286303Y332168D01*
X286300Y332150D01*
X286296Y332128D01*
X286292Y332103D01*
X286289Y332076D01*
X286287Y332045D01*
X286283Y332010D01*
X286281Y331972D01*
X286280Y331930D01*
X286278Y331885D01*
Y331333D01*
X287040D01*
Y331912D01*
X287039Y331930D01*
Y331974D01*
X287037Y331999D01*
X287033Y332050D01*
X287028Y332103D01*
X287024Y332128D01*
X287020Y332152D01*
X287017Y332174D01*
X287011Y332194D01*
Y332196D01*
X287010Y332199D01*
X287008Y332207D01*
X287004Y332216D01*
X287000Y332225D01*
X286995Y332238D01*
X286982Y332265D01*
X286966Y332296D01*
X286944Y332329D01*
X286918Y332358D01*
X286888Y332385D01*
X286886D01*
X286884Y332389D01*
X286878Y332390D01*
X286871Y332396D01*
X286862Y332400D01*
X286853Y332405D01*
X286826Y332418D01*
X286795Y332431D01*
X286756Y332440D01*
X286713Y332447D01*
X286666Y332451D01*
D02*
G37*
G36*
X158127Y422977D02*
X158125D01*
X158120D01*
X158111D01*
X158098Y422975D01*
X158082Y422974D01*
X158065Y422970D01*
X158045Y422966D01*
X158024Y422961D01*
X158002Y422954D01*
X157978Y422945D01*
X157952Y422935D01*
X157929Y422923D01*
X157903Y422906D01*
X157880Y422890D01*
X157856Y422870D01*
X157834Y422846D01*
X157832Y422845D01*
X157829Y422841D01*
X157823Y422832D01*
X157816Y422823D01*
X157807Y422808D01*
X157798Y422790D01*
X157787Y422770D01*
X157776Y422746D01*
X157765Y422721D01*
X157754Y422690D01*
X157745Y422655D01*
X157736Y422619D01*
X157729Y422579D01*
X157723Y422535D01*
X157720Y422488D01*
X157718Y422437D01*
Y421641D01*
X158549D01*
Y422395D01*
X158548Y422413D01*
Y422437D01*
X158546Y422461D01*
X158544Y422488D01*
X158539Y422544D01*
X158529Y422604D01*
X158519Y422662D01*
X158511Y422688D01*
X158504Y422713D01*
Y422715D01*
X158502Y422719D01*
X158499Y422726D01*
X158495Y422735D01*
X158489Y422746D01*
X158484Y422757D01*
X158468Y422786D01*
X158446Y422819D01*
X158420Y422852D01*
X158389Y422883D01*
X158353Y422910D01*
X158351D01*
X158347Y422914D01*
X158342Y422915D01*
X158335Y422921D01*
X158326Y422926D01*
X158313Y422932D01*
X158286Y422945D01*
X158253Y422956D01*
X158215Y422966D01*
X158173Y422974D01*
X158127Y422977D01*
D02*
G37*
G36*
X158178Y420535D02*
X158176D01*
X158171D01*
X158164D01*
X158151Y420533D01*
X158138D01*
X158122Y420531D01*
X158104Y420528D01*
X158085Y420526D01*
X158044Y420515D01*
X157998Y420500D01*
X157952Y420482D01*
X157931Y420469D01*
X157909Y420455D01*
X157907D01*
X157903Y420451D01*
X157898Y420446D01*
X157891Y420440D01*
X157871Y420422D01*
X157847Y420398D01*
X157823Y420367D01*
X157798Y420333D01*
X157776Y420291D01*
X157760Y420244D01*
Y420242D01*
X157758Y420240D01*
Y420235D01*
X157756Y420227D01*
X157754Y420218D01*
X157752Y420205D01*
X157750Y420191D01*
X157747Y420173D01*
X157745Y420153D01*
X157743Y420131D01*
X157741Y420105D01*
X157740Y420076D01*
X157738Y420045D01*
Y420011D01*
X157736Y419974D01*
Y419290D01*
X158637D01*
Y419971D01*
X158635Y419992D01*
X158633Y420018D01*
X158630Y420049D01*
X158626Y420082D01*
X158622Y420118D01*
X158608Y420193D01*
X158599Y420231D01*
X158586Y420269D01*
X158573Y420306D01*
X158557Y420340D01*
X158539Y420371D01*
X158517Y420398D01*
X158515Y420400D01*
X158511Y420404D01*
X158504Y420411D01*
X158495Y420420D01*
X158482Y420429D01*
X158468Y420442D01*
X158449Y420455D01*
X158429Y420468D01*
X158406Y420480D01*
X158382Y420491D01*
X158353Y420504D01*
X158324Y420513D01*
X158291Y420522D01*
X158255Y420529D01*
X158218Y420533D01*
X158178Y420535D01*
D02*
G37*
G36*
X223523Y481167D02*
X221597D01*
Y480588D01*
X221599Y480568D01*
Y480545D01*
X221601Y480517D01*
X221603Y480488D01*
X221608Y480426D01*
X221617Y480361D01*
X221628Y480297D01*
X221636Y480268D01*
X221643Y480241D01*
Y480239D01*
X221645Y480235D01*
X221648Y480226D01*
X221652Y480217D01*
X221656Y480204D01*
X221663Y480191D01*
X221677Y480159D01*
X221696Y480122D01*
X221718Y480084D01*
X221745Y480048D01*
X221774Y480013D01*
X221776Y480011D01*
X221779Y480008D01*
X221787Y480002D01*
X221796Y479993D01*
X221807Y479984D01*
X221821Y479973D01*
X221839Y479960D01*
X221858Y479946D01*
X221880Y479931D01*
X221903Y479917D01*
X221931Y479900D01*
X221958Y479886D01*
X221989Y479871D01*
X222022Y479856D01*
X222056Y479842D01*
X222092Y479829D01*
X222094D01*
X222101Y479826D01*
X222112Y479824D01*
X222129Y479818D01*
X222147Y479813D01*
X222171Y479807D01*
X222198Y479802D01*
X222229Y479795D01*
X222262Y479789D01*
X222300Y479784D01*
X222340Y479778D01*
X222382Y479773D01*
X222427Y479767D01*
X222475Y479766D01*
X222526Y479762D01*
X222578D01*
X222580D01*
X222582D01*
X222587D01*
X222597D01*
X222606D01*
X222617D01*
X222644Y479764D01*
X222677Y479766D01*
X222715Y479769D01*
X222757Y479773D01*
X222802Y479778D01*
X222850Y479786D01*
X222901Y479795D01*
X222950Y479804D01*
X223001Y479816D01*
X223050Y479833D01*
X223097Y479849D01*
X223143Y479869D01*
X223184Y479893D01*
X223186Y479895D01*
X223194Y479898D01*
X223204Y479906D01*
X223219Y479917D01*
X223235Y479929D01*
X223255Y479944D01*
X223277Y479960D01*
X223301Y479980D01*
X223325Y480002D01*
X223348Y480026D01*
X223372Y480053D01*
X223396Y480080D01*
X223417Y480110D01*
X223437Y480140D01*
X223456Y480173D01*
X223470Y480208D01*
Y480210D01*
X223472Y480213D01*
X223476Y480222D01*
X223479Y480233D01*
X223483Y480248D01*
X223487Y480266D01*
X223492Y480288D01*
X223498Y480311D01*
X223501Y480341D01*
X223507Y480372D01*
X223510Y480408D01*
X223516Y480446D01*
X223517Y480490D01*
X223521Y480535D01*
X223523Y480584D01*
Y481167D01*
D02*
G37*
G36*
X207048Y486199D02*
X207046D01*
X207041D01*
X207032D01*
X207019Y486198D01*
X207002Y486196D01*
X206986Y486192D01*
X206966Y486189D01*
X206944Y486183D01*
X206922Y486176D01*
X206899Y486167D01*
X206873Y486158D01*
X206850Y486145D01*
X206824Y486128D01*
X206801Y486112D01*
X206777Y486092D01*
X206755Y486068D01*
X206753Y486066D01*
X206750Y486063D01*
X206744Y486054D01*
X206737Y486045D01*
X206728Y486030D01*
X206719Y486012D01*
X206708Y485992D01*
X206697Y485968D01*
X206686Y485943D01*
X206675Y485912D01*
X206666Y485877D01*
X206657Y485841D01*
X206649Y485801D01*
X206644Y485757D01*
X206640Y485710D01*
X206639Y485659D01*
Y484864D01*
X207470D01*
Y485617D01*
X207468Y485635D01*
Y485659D01*
X207467Y485682D01*
X207465Y485710D01*
X207459Y485766D01*
X207450Y485826D01*
X207439Y485885D01*
X207432Y485910D01*
X207425Y485935D01*
Y485937D01*
X207423Y485941D01*
X207419Y485948D01*
X207416Y485957D01*
X207410Y485968D01*
X207405Y485979D01*
X207388Y486008D01*
X207366Y486041D01*
X207341Y486074D01*
X207310Y486105D01*
X207274Y486132D01*
X207272D01*
X207268Y486136D01*
X207263Y486137D01*
X207256Y486143D01*
X207246Y486148D01*
X207234Y486154D01*
X207206Y486167D01*
X207173Y486177D01*
X207135Y486189D01*
X207094Y486196D01*
X207048Y486199D01*
D02*
G37*
G36*
X207654Y483722D02*
X207601D01*
X207599D01*
X207598D01*
X207592D01*
X207583D01*
X207574D01*
X207563D01*
X207536Y483720D01*
X207503Y483719D01*
X207465Y483715D01*
X207423Y483711D01*
X207377Y483706D01*
X207330Y483699D01*
X207279Y483690D01*
X207230Y483680D01*
X207179Y483668D01*
X207130Y483651D01*
X207083Y483635D01*
X207037Y483615D01*
X206995Y483591D01*
X206993Y483590D01*
X206986Y483586D01*
X206975Y483579D01*
X206961Y483568D01*
X206944Y483555D01*
X206924Y483540D01*
X206902Y483524D01*
X206879Y483504D01*
X206855Y483482D01*
X206831Y483458D01*
X206808Y483431D01*
X206784Y483404D01*
X206762Y483375D01*
X206742Y483344D01*
X206724Y483311D01*
X206710Y483277D01*
Y483275D01*
X206708Y483271D01*
X206704Y483262D01*
X206700Y483251D01*
X206697Y483236D01*
X206693Y483218D01*
X206688Y483196D01*
X206682Y483173D01*
X206679Y483144D01*
X206673Y483113D01*
X206669Y483076D01*
X206664Y483038D01*
X206662Y482994D01*
X206659Y482949D01*
X206657Y482900D01*
Y482317D01*
X208582D01*
Y482896D01*
X208580Y482916D01*
Y482940D01*
X208579Y482967D01*
X208577Y482996D01*
X208571Y483058D01*
X208562Y483124D01*
X208551Y483187D01*
X208544Y483216D01*
X208537Y483244D01*
Y483246D01*
X208535Y483249D01*
X208531Y483258D01*
X208528Y483267D01*
X208524Y483280D01*
X208517Y483293D01*
X208502Y483326D01*
X208484Y483362D01*
X208462Y483400D01*
X208435Y483437D01*
X208406Y483471D01*
X208404Y483473D01*
X208400Y483477D01*
X208393Y483482D01*
X208384Y483491D01*
X208373Y483500D01*
X208358Y483511D01*
X208340Y483524D01*
X208322Y483538D01*
X208300Y483553D01*
X208277Y483568D01*
X208249Y483584D01*
X208222Y483599D01*
X208191Y483613D01*
X208158Y483628D01*
X208124Y483642D01*
X208087Y483655D01*
X208085D01*
X208078Y483659D01*
X208067Y483661D01*
X208051Y483666D01*
X208033Y483671D01*
X208009Y483677D01*
X207982Y483682D01*
X207951Y483690D01*
X207918Y483695D01*
X207880Y483701D01*
X207840Y483706D01*
X207798Y483711D01*
X207752Y483717D01*
X207705Y483719D01*
X207654Y483722D01*
D02*
G37*
%LPD*%
D12*
X237713Y351713D02*
Y403287D01*
Y351713D02*
X289287D01*
Y403287D01*
X237713D02*
X289287D01*
X114539Y453260D02*
X122461D01*
X114539Y438252D02*
Y453260D01*
Y438252D02*
X122461D01*
Y453260D01*
X305524Y436101D02*
X308476D01*
Y441899D01*
X305524D02*
X308476D01*
X305524Y436101D02*
Y441899D01*
X233031Y313835D02*
Y318165D01*
Y313835D02*
X243465D01*
Y318165D01*
X233031D02*
X243465D01*
X286335Y326645D02*
X290665D01*
Y335355D01*
X286335D02*
X290665D01*
X286335Y326645D02*
Y335355D01*
X157736Y412071D02*
X162264D01*
Y420929D01*
X157736D02*
X162264D01*
X157736Y412071D02*
Y420929D01*
X219835Y486717D02*
X224165D01*
X219835Y476283D02*
Y486717D01*
Y476283D02*
X224165D01*
Y486717D01*
X203807Y474898D02*
X212469D01*
Y489071D01*
X203807D02*
X212469D01*
X203807Y474898D02*
Y489071D01*
M02*
