G04*
G04 #@! TF.GenerationSoftware,Altium Limited,Altium Designer,21.1.1 (26)*
G04*
G04 Layer_Color=8388736*
%FSLAX25Y25*%
%MOIN*%
G70*
G04*
G04 #@! TF.SameCoordinates,D9F95C0E-15A9-44F3-8ABD-4EC37FB7AC5F*
G04*
G04*
G04 #@! TF.FilePolarity,Negative*
G04*
G01*
G75*
%ADD17R,0.04473X0.01775*%
%ADD22R,0.01181X0.05906*%
%ADD23R,0.05906X0.01181*%
%ADD26R,0.03985X0.04560*%
%ADD29R,0.01860X0.02029*%
%ADD32R,0.03150X0.03150*%
%ADD33R,0.03197X0.02985*%
%ADD40R,0.03740X0.02756*%
%ADD41R,0.03150X0.03150*%
%ADD50R,0.03543X0.02362*%
%ADD51R,0.03150X0.01181*%
%ADD57O,0.09461X0.03162*%
%ADD58R,0.08477X0.04540*%
%ADD59R,0.04737X0.07887*%
%ADD60R,0.04540X0.04934*%
%ADD61R,0.06902X0.06312*%
%ADD62R,0.03713X0.03871*%
G04:AMPARAMS|DCode=63|XSize=74.93mil|YSize=74.93mil|CornerRadius=6.01mil|HoleSize=0mil|Usage=FLASHONLY|Rotation=90.000|XOffset=0mil|YOffset=0mil|HoleType=Round|Shape=RoundedRectangle|*
%AMROUNDEDRECTD63*
21,1,0.07493,0.06291,0,0,90.0*
21,1,0.06291,0.07493,0,0,90.0*
1,1,0.01202,0.03146,0.03146*
1,1,0.01202,0.03146,-0.03146*
1,1,0.01202,-0.03146,-0.03146*
1,1,0.01202,-0.03146,0.03146*
%
%ADD63ROUNDEDRECTD63*%
G04:AMPARAMS|DCode=64|XSize=17.84mil|YSize=31.62mil|CornerRadius=5.97mil|HoleSize=0mil|Usage=FLASHONLY|Rotation=90.000|XOffset=0mil|YOffset=0mil|HoleType=Round|Shape=RoundedRectangle|*
%AMROUNDEDRECTD64*
21,1,0.01784,0.01968,0,0,90.0*
21,1,0.00591,0.03162,0,0,90.0*
1,1,0.01194,0.00984,0.00295*
1,1,0.01194,0.00984,-0.00295*
1,1,0.01194,-0.00984,-0.00295*
1,1,0.01194,-0.00984,0.00295*
%
%ADD64ROUNDEDRECTD64*%
G04:AMPARAMS|DCode=65|XSize=17.84mil|YSize=31.62mil|CornerRadius=5.97mil|HoleSize=0mil|Usage=FLASHONLY|Rotation=180.000|XOffset=0mil|YOffset=0mil|HoleType=Round|Shape=RoundedRectangle|*
%AMROUNDEDRECTD65*
21,1,0.01784,0.01968,0,0,180.0*
21,1,0.00591,0.03162,0,0,180.0*
1,1,0.01194,-0.00295,0.00984*
1,1,0.01194,0.00295,0.00984*
1,1,0.01194,0.00295,-0.00984*
1,1,0.01194,-0.00295,-0.00984*
%
%ADD65ROUNDEDRECTD65*%
%ADD66R,0.14580X0.06115*%
%ADD67R,0.04147X0.04540*%
%ADD68R,0.02572X0.05918*%
%ADD69R,0.14186X0.06706*%
%ADD70R,0.14580X0.04737*%
%ADD71R,0.07887X0.04343*%
%ADD72R,0.25210X0.22257*%
%ADD73R,0.03162X0.03359*%
%ADD74R,0.06115X0.04737*%
%ADD75R,0.05721X0.04737*%
%ADD76R,0.04540X0.06115*%
%ADD77R,0.06312X0.06706*%
%ADD78R,0.05328X0.11430*%
%ADD79R,0.04737X0.05721*%
%ADD80R,0.04737X0.06115*%
%ADD81R,0.04934X0.04540*%
%ADD82R,0.05131X0.04737*%
%ADD83R,0.06509X0.05524*%
%ADD84R,0.11036X0.11430*%
%ADD85R,0.04147X0.02178*%
%ADD86R,0.02178X0.03950*%
%ADD87R,0.06693X0.06693*%
%ADD88C,0.06693*%
%ADD89C,0.06706*%
%ADD90R,0.06706X0.06706*%
%ADD91C,0.04000*%
%ADD92C,0.03950*%
%ADD93O,0.05328X0.07887*%
%ADD94O,0.06509X0.08674*%
%ADD95C,0.02800*%
%ADD96C,0.02769*%
D17*
X126988Y382441D02*
D03*
Y387559D02*
D03*
X120000Y385000D02*
D03*
D22*
X248736Y399941D02*
D03*
X250705D02*
D03*
X252673D02*
D03*
X254642D02*
D03*
X256610D02*
D03*
X258579D02*
D03*
X260547D02*
D03*
X262516D02*
D03*
X264484D02*
D03*
X266453D02*
D03*
X268421D02*
D03*
X270390D02*
D03*
X272358D02*
D03*
X274327D02*
D03*
X276295D02*
D03*
X278264D02*
D03*
Y355059D02*
D03*
X276295D02*
D03*
X274327D02*
D03*
X272358D02*
D03*
X270390D02*
D03*
X268421D02*
D03*
X266453D02*
D03*
X264484D02*
D03*
X262516D02*
D03*
X260547D02*
D03*
X258579D02*
D03*
X256610D02*
D03*
X254642D02*
D03*
X252673D02*
D03*
X250705D02*
D03*
X248736D02*
D03*
D23*
X285941Y392264D02*
D03*
Y390295D02*
D03*
Y388327D02*
D03*
Y386358D02*
D03*
Y384390D02*
D03*
Y382421D02*
D03*
Y380453D02*
D03*
Y378484D02*
D03*
Y376516D02*
D03*
Y374547D02*
D03*
Y372579D02*
D03*
Y370610D02*
D03*
Y368642D02*
D03*
Y366673D02*
D03*
Y364705D02*
D03*
Y362736D02*
D03*
X241059D02*
D03*
Y364705D02*
D03*
Y366673D02*
D03*
Y368642D02*
D03*
Y370610D02*
D03*
Y372579D02*
D03*
Y374547D02*
D03*
Y376516D02*
D03*
Y378484D02*
D03*
Y380453D02*
D03*
Y382421D02*
D03*
Y384390D02*
D03*
Y386358D02*
D03*
Y388327D02*
D03*
Y390295D02*
D03*
Y392264D02*
D03*
D26*
X118500Y442500D02*
D03*
Y449012D02*
D03*
D29*
X307000Y440490D02*
D03*
Y437510D02*
D03*
D32*
X241496Y316000D02*
D03*
X235000D02*
D03*
D33*
X288500Y333469D02*
D03*
Y328532D02*
D03*
D40*
X160000Y419157D02*
D03*
Y413843D02*
D03*
D41*
X222000Y478252D02*
D03*
Y484748D02*
D03*
D50*
X209516Y487496D02*
D03*
Y476472D02*
D03*
D51*
X210500Y484937D02*
D03*
Y482969D02*
D03*
Y481000D02*
D03*
Y479031D02*
D03*
D57*
X324051Y490500D02*
D03*
Y485500D02*
D03*
Y480500D02*
D03*
Y475500D02*
D03*
X342949Y490500D02*
D03*
Y485500D02*
D03*
Y480500D02*
D03*
Y475500D02*
D03*
D58*
X313500Y350642D02*
D03*
Y356547D02*
D03*
Y362453D02*
D03*
Y368358D02*
D03*
Y374264D02*
D03*
Y380169D02*
D03*
Y386075D02*
D03*
Y391980D02*
D03*
X363500D02*
D03*
Y386075D02*
D03*
Y380169D02*
D03*
Y374264D02*
D03*
Y368358D02*
D03*
Y362453D02*
D03*
Y356547D02*
D03*
Y350642D02*
D03*
D59*
X353421Y441500D02*
D03*
X343579D02*
D03*
D60*
X143291Y341000D02*
D03*
X149000D02*
D03*
X357854Y410000D02*
D03*
X352146D02*
D03*
X348791Y426500D02*
D03*
X354500D02*
D03*
D61*
X259000Y450760D02*
D03*
Y458240D02*
D03*
D62*
X139500Y445500D02*
D03*
Y449358D02*
D03*
D63*
X218000Y459000D02*
D03*
D64*
X212488Y456047D02*
D03*
Y458016D02*
D03*
Y459984D02*
D03*
Y461953D02*
D03*
X223512D02*
D03*
Y459984D02*
D03*
Y458016D02*
D03*
Y456047D02*
D03*
D65*
X215047Y464512D02*
D03*
X217016D02*
D03*
X218984D02*
D03*
X220953D02*
D03*
Y453488D02*
D03*
X218984D02*
D03*
X217016D02*
D03*
X215047D02*
D03*
D66*
X222000Y355500D02*
D03*
Y337784D02*
D03*
D67*
X173000Y357000D02*
D03*
X167685D02*
D03*
D68*
X178441Y478083D02*
D03*
X181000D02*
D03*
X183559D02*
D03*
X175882D02*
D03*
X186118D02*
D03*
D69*
X120445Y466311D02*
D03*
Y492689D02*
D03*
D70*
X143083Y475563D02*
D03*
Y483437D02*
D03*
D71*
X199035Y431024D02*
D03*
Y448976D02*
D03*
D72*
X174626Y440000D02*
D03*
D73*
X153000Y436827D02*
D03*
Y440173D02*
D03*
D74*
X240000Y479047D02*
D03*
Y484953D02*
D03*
D75*
X241500Y456406D02*
D03*
Y450500D02*
D03*
D76*
X254850Y432500D02*
D03*
X261150D02*
D03*
X297350Y426000D02*
D03*
X303650D02*
D03*
X275850Y417500D02*
D03*
X282150D02*
D03*
X300850Y412000D02*
D03*
X307150D02*
D03*
X326850Y425000D02*
D03*
X333150D02*
D03*
X324850Y437000D02*
D03*
X331150D02*
D03*
X323850Y460000D02*
D03*
X330150D02*
D03*
X341701Y457000D02*
D03*
X348000D02*
D03*
D77*
X283000Y432000D02*
D03*
X275520D02*
D03*
X147760Y359000D02*
D03*
X155240D02*
D03*
D78*
X331000Y411500D02*
D03*
X318205D02*
D03*
D79*
X184453Y416500D02*
D03*
X178547D02*
D03*
D80*
X198047Y412000D02*
D03*
X203953D02*
D03*
D81*
X279000Y451146D02*
D03*
Y456854D02*
D03*
D82*
X256500Y479244D02*
D03*
Y484756D02*
D03*
D83*
X277000Y478654D02*
D03*
Y485346D02*
D03*
D84*
X119500Y354500D02*
D03*
D85*
X111724Y349579D02*
D03*
Y351547D02*
D03*
Y353516D02*
D03*
Y355484D02*
D03*
Y357453D02*
D03*
Y359421D02*
D03*
X127276D02*
D03*
Y357453D02*
D03*
Y355484D02*
D03*
Y353516D02*
D03*
Y351547D02*
D03*
Y349579D02*
D03*
D86*
X114579Y362374D02*
D03*
X116547D02*
D03*
X118516D02*
D03*
X120484D02*
D03*
X122453D02*
D03*
X124421D02*
D03*
Y346626D02*
D03*
X122453D02*
D03*
X120484D02*
D03*
X118516D02*
D03*
X116547D02*
D03*
X114579D02*
D03*
D87*
X141500Y417000D02*
D03*
D88*
X121815D02*
D03*
D89*
X235358Y415205D02*
D03*
Y440795D02*
D03*
X217642D02*
D03*
X217500Y372910D02*
D03*
Y398500D02*
D03*
X199784D02*
D03*
X276000Y312410D02*
D03*
Y338000D02*
D03*
X258284D02*
D03*
X203858Y331705D02*
D03*
Y357295D02*
D03*
X186142D02*
D03*
X181858Y375205D02*
D03*
Y400795D02*
D03*
X164142D02*
D03*
D90*
X217642Y415205D02*
D03*
X199784Y372910D02*
D03*
X258284Y312410D02*
D03*
X186142Y331705D02*
D03*
X164142Y375205D02*
D03*
D91*
X307500Y460500D02*
D03*
X302500D02*
D03*
X307500Y465500D02*
D03*
X302500D02*
D03*
X307500Y470500D02*
D03*
X302539D02*
D03*
X307500Y475500D02*
D03*
X302500D02*
D03*
X307500Y480500D02*
D03*
X302500D02*
D03*
D92*
X171157Y482217D02*
D03*
X190843D02*
D03*
D93*
X165744Y493043D02*
D03*
X196256D02*
D03*
D94*
X166335Y478083D02*
D03*
X195665D02*
D03*
D95*
X346100Y493000D02*
D03*
X212900Y385384D02*
D03*
X330150Y447400D02*
D03*
X348000Y471300D02*
D03*
X212300Y453900D02*
D03*
X252400Y481516D02*
D03*
X221884Y471550D02*
D03*
X268900Y482000D02*
D03*
X258579Y348200D02*
D03*
X245000Y396100D02*
D03*
X264500Y404500D02*
D03*
X183100Y412700D02*
D03*
X270550Y394850D02*
D03*
X307564Y374264D02*
D03*
X296900Y384390D02*
D03*
X304600Y397650D02*
D03*
X253050Y420950D02*
D03*
X126300Y385000D02*
D03*
X245500Y345200D02*
D03*
X245900Y360900D02*
D03*
X250600Y350500D02*
D03*
X294250Y388327D02*
D03*
X181000Y468900D02*
D03*
X291250Y386400D02*
D03*
X183559Y461100D02*
D03*
X270800Y347400D02*
D03*
X223100Y406900D02*
D03*
X290533Y377440D02*
D03*
X261747Y347100D02*
D03*
X338300Y427600D02*
D03*
X337000Y438500D02*
D03*
X237400Y409450D02*
D03*
X241800Y443000D02*
D03*
X299300Y474900D02*
D03*
X316300Y488200D02*
D03*
X310700Y473000D02*
D03*
X285300Y409500D02*
D03*
X262516Y350300D02*
D03*
X266400Y412400D02*
D03*
X299800Y398300D02*
D03*
X259100Y439600D02*
D03*
X250877Y422850D02*
D03*
X206700Y483800D02*
D03*
X221900Y468600D02*
D03*
X242700Y474300D02*
D03*
X223600Y464600D02*
D03*
X213100Y449800D02*
D03*
X226300Y436900D02*
D03*
X215047Y467100D02*
D03*
X244300Y477300D02*
D03*
X179100Y421853D02*
D03*
X242700Y405300D02*
D03*
X343579Y431700D02*
D03*
X353334Y448287D02*
D03*
X244735Y412500D02*
D03*
X305000Y358800D02*
D03*
X255796Y330300D02*
D03*
X306900Y356100D02*
D03*
X369700Y406400D02*
D03*
X295250Y377421D02*
D03*
X299358Y375600D02*
D03*
X371600Y404200D02*
D03*
X292600Y366673D02*
D03*
Y354700D02*
D03*
X248736Y416672D02*
D03*
X229650Y410100D02*
D03*
X250705Y394900D02*
D03*
X173000Y380100D02*
D03*
X236600Y380453D02*
D03*
X267450Y436100D02*
D03*
X132188Y449012D02*
D03*
D96*
X219969Y457032D02*
D03*
X216032D02*
D03*
Y460969D02*
D03*
X219969D02*
D03*
X218000Y459000D02*
D03*
X123437Y358437D02*
D03*
Y354500D02*
D03*
Y350563D02*
D03*
X119500Y358437D02*
D03*
Y354500D02*
D03*
Y350563D02*
D03*
X115563Y358437D02*
D03*
Y354500D02*
D03*
Y350563D02*
D03*
M02*
