G04*
G04 #@! TF.GenerationSoftware,Altium Limited,Altium Designer,21.1.1 (26)*
G04*
G04 Layer_Color=255*
%FSLAX25Y25*%
%MOIN*%
G70*
G04*
G04 #@! TF.SameCoordinates,5102835C-3560-4A17-A812-28AB7356CC0A*
G04*
G04*
G04 #@! TF.FilePolarity,Positive*
G04*
G01*
G75*
%ADD82R,0.06693X0.06693*%
%ADD83C,0.06693*%
%ADD93C,0.05906*%
%ADD94R,0.05906X0.05906*%
%ADD95C,0.03200*%
%ADD96C,0.03150*%
%ADD97O,0.04528X0.07087*%
%ADD98O,0.05709X0.07874*%
D82*
X141500Y417000D02*
D03*
D83*
X121815D02*
D03*
D93*
X235358Y415205D02*
D03*
Y440795D02*
D03*
X217642D02*
D03*
X217500Y372910D02*
D03*
Y398500D02*
D03*
X199784D02*
D03*
X276000Y312410D02*
D03*
Y338000D02*
D03*
X258284D02*
D03*
X203858Y331705D02*
D03*
Y357295D02*
D03*
X186142D02*
D03*
X181858Y375205D02*
D03*
Y400795D02*
D03*
X164142D02*
D03*
D94*
X217642Y415205D02*
D03*
X199784Y372910D02*
D03*
X258284Y312410D02*
D03*
X186142Y331705D02*
D03*
X164142Y375205D02*
D03*
D95*
X307500Y460500D02*
D03*
X302500D02*
D03*
X307500Y465500D02*
D03*
X302500D02*
D03*
X307500Y470500D02*
D03*
X302539D02*
D03*
X307500Y475500D02*
D03*
X302500D02*
D03*
X307500Y480500D02*
D03*
X302500D02*
D03*
D96*
X171157Y482217D02*
D03*
X190843D02*
D03*
D97*
X165744Y493043D02*
D03*
X196256D02*
D03*
D98*
X166335Y478083D02*
D03*
X195665D02*
D03*
M02*
