M48
;Layer_Color=9474304
;FILE_FORMAT=2:4
INCH,TZ
;TYPE=PLATED
T1F00S00C0.0079
T2F00S00C0.0100
T3F00S00C0.0118
T5F00S00C0.0295
T7F00S00C0.0394
T8F00S00C0.0433
;TYPE=NON_PLATED
T9F00S00C0.0315
%
T01
X11556Y35056
X11950
X12344
Y35450
Y35844
X11950
Y35450
X11556
Y35844
T02
X10930Y34410
X15150Y36400
X11560Y42550
X18445Y42750
X18100Y46640
X20800Y46195
X21160Y46440
X20775Y45605
X20790Y45200
X21850Y44900
X24340Y46440
X27150Y46620
X27430Y45010
X27230Y44450
X28150Y45495
X28050Y42380
X28760Y42305
X29800Y42030
X30370Y40490
X30340Y39660
X29340Y38985
X29250Y38581
X29050Y38400
X29320Y37950
X29130Y37522
X29350Y36470
Y36080
X29290Y34920
X30490Y34430
X27170Y34240
X26440Y35068
X25860Y35080
X26055Y34728
X24370Y35740
X23536Y38045
X24123Y39513
X24570Y39320
X24435Y40310
X23940Y40240
X24323Y41373
X26050Y40490
X27450Y41180
X27095Y42145
X30360Y44470
X28160Y36900
X22120Y40320
X21140Y40870
X20310Y39420
X17355Y37465
X17165Y36220
X32210Y41530
X33790Y41855
X33730Y40960
X34225Y40778
X34102Y40520
X34860
Y41210
X34839Y42250
X33520Y46000
X34730Y47830
Y48330
X34790Y48770
X31270Y48860
X31000Y48550
X27860Y47210
X25023Y47517
X24830Y48590
X24186Y48354
X18170Y48440
X19310Y49750
T03
X21603Y45703
X21800Y45900
X21603Y46097
X21997
Y45703
T05
X30250Y46050
X30750
Y46550
X30250
X30254Y47050
X30750
Y47550
X30250
Y48050
X30750
T07
X25828Y31241
X27600
Y33800
X25828
X20386Y33170
X18614
Y35730
X20386
X19978Y37291
X21750
Y39850
X21764Y41520
X23536
Y44080
X21764
X19978Y39850
X18186Y40080
X16414
Y37520
X18186
T08
X12181Y41700
X14150
T09
X17116Y48222
X19084
M30
