G04*
G04 #@! TF.GenerationSoftware,Altium Limited,Altium Designer,21.1.1 (26)*
G04*
G04 Layer_Color=32768*
%FSLAX25Y25*%
%MOIN*%
G70*
G04*
G04 #@! TF.SameCoordinates,D9F95C0E-15A9-44F3-8ABD-4EC37FB7AC5F*
G04*
G04*
G04 #@! TF.FilePolarity,Positive*
G04*
G01*
G75*
%ADD13C,0.00600*%
%ADD106C,0.00394*%
%ADD109C,0.00197*%
G36*
X126955Y380063D02*
X120033D01*
Y383213D01*
X116763D01*
Y386787D01*
X120033D01*
Y389937D01*
X126955D01*
Y389347D01*
X130225D01*
Y380654D01*
X126955D01*
Y380063D01*
D02*
G37*
D13*
X120033Y380063D02*
X126955D01*
X120033D02*
Y383213D01*
X116763D02*
X120033D01*
X116763D02*
Y386787D01*
X120033D01*
Y389937D01*
X126955D01*
Y389346D02*
Y389937D01*
Y380063D02*
Y380654D01*
Y389346D02*
X130225D01*
X126955Y380654D02*
X130225D01*
Y389346D01*
D106*
X331531Y483000D02*
X335469D01*
X333500Y481032D02*
Y484969D01*
X346531Y441500D02*
X350468D01*
X348500Y439532D02*
Y443469D01*
X146146Y339228D02*
Y342772D01*
X144374Y341000D02*
X147917D01*
X259000Y452531D02*
Y456469D01*
X257032Y454500D02*
X260969D01*
X224532Y428000D02*
X228469D01*
X226500Y426032D02*
Y429969D01*
X138319Y447429D02*
X140681D01*
X139500Y446248D02*
Y448610D01*
X218000Y457031D02*
Y460969D01*
X216031Y459000D02*
X219969D01*
X206673Y385705D02*
X210610D01*
X208642Y383736D02*
Y387673D01*
X220032Y346642D02*
X223969D01*
X222000Y344673D02*
Y348610D01*
X170343Y355228D02*
Y358772D01*
X168571Y357000D02*
X172114D01*
X265173Y325205D02*
X269110D01*
X267142Y323236D02*
Y327173D01*
X193032Y344500D02*
X196969D01*
X195000Y342532D02*
Y346469D01*
X129500Y477532D02*
Y481469D01*
X127532Y479500D02*
X131469D01*
X180532Y440000D02*
X184469D01*
X182500Y438031D02*
Y441969D01*
X153000Y437319D02*
Y439681D01*
X151819Y438500D02*
X154181D01*
X240000Y480031D02*
Y483969D01*
X238032Y482000D02*
X241969D01*
X239532Y453453D02*
X243469D01*
X241500Y451484D02*
Y455421D01*
X256032Y432500D02*
X259969D01*
X258000Y430532D02*
Y434469D01*
X171032Y388000D02*
X174969D01*
X173000Y386032D02*
Y389969D01*
X298531Y426000D02*
X302469D01*
X300500Y424032D02*
Y427969D01*
X277032Y417500D02*
X280969D01*
X279000Y415532D02*
Y419469D01*
X279260Y430032D02*
Y433969D01*
X277291Y432000D02*
X281228D01*
X302032Y412000D02*
X305969D01*
X304000Y410032D02*
Y413969D01*
X328032Y425000D02*
X331969D01*
X330000Y423032D02*
Y426969D01*
X326032Y437000D02*
X329969D01*
X328000Y435032D02*
Y438969D01*
X325032Y460000D02*
X328969D01*
X327000Y458032D02*
Y461969D01*
X324602Y409532D02*
Y413469D01*
X322634Y411500D02*
X326571D01*
X181500Y414532D02*
Y418469D01*
X179531Y416500D02*
X183468D01*
X342882Y457000D02*
X346819D01*
X344850Y455032D02*
Y458969D01*
X199031Y412000D02*
X202969D01*
X201000Y410032D02*
Y413969D01*
X353228Y410000D02*
X356772D01*
X355000Y408228D02*
Y411772D01*
X349874Y426500D02*
X353417D01*
X351646Y424728D02*
Y428272D01*
X279000Y452228D02*
Y455772D01*
X277228Y454000D02*
X280772D01*
X256500Y480031D02*
Y483969D01*
X254532Y482000D02*
X258469D01*
X277000Y480031D02*
Y483969D01*
X275032Y482000D02*
X278969D01*
X117531Y354500D02*
X121469D01*
X119500Y352531D02*
Y356469D01*
X151500Y357031D02*
Y360969D01*
X149532Y359000D02*
X153469D01*
D109*
X318736Y472173D02*
Y493827D01*
X348264Y472173D02*
Y493827D01*
X318736D02*
X348264D01*
X318736Y472173D02*
X348264D01*
X368421Y322098D02*
Y396902D01*
X308579D02*
X368421D01*
X308579Y322098D02*
Y396902D01*
Y322098D02*
X368421D01*
X341216Y437563D02*
X355783D01*
X341216D02*
Y445437D01*
X355783Y437563D02*
Y445437D01*
X341216D02*
X355783D01*
X139453Y345134D02*
X152839D01*
X139453Y336866D02*
X152839D01*
X139453D02*
Y345134D01*
X152839Y336866D02*
Y345134D01*
X253882Y446035D02*
X264118D01*
X253882Y462965D02*
X264118D01*
X253882Y446035D02*
Y462965D01*
X264118Y446035D02*
Y462965D01*
X238705Y411858D02*
Y444142D01*
X214295D02*
X238705D01*
X214295Y411858D02*
X238705D01*
X214295D02*
Y444142D01*
X137138Y443098D02*
Y451760D01*
X141862Y443098D02*
Y451760D01*
X137138Y443098D02*
X141862D01*
X137138Y451760D02*
X141862D01*
X210126Y451126D02*
X225874D01*
X210126Y466874D02*
X225874D01*
X210126Y451126D02*
Y466874D01*
X225874Y451126D02*
Y466874D01*
X220847Y369563D02*
Y401847D01*
X196437D02*
X220847D01*
X196437Y369563D02*
X220847D01*
X196437D02*
Y401847D01*
X230858Y333059D02*
Y360224D01*
X213142Y333059D02*
Y360224D01*
X230858D01*
X213142Y333059D02*
X230858D01*
X165028Y354047D02*
X175658D01*
X165028Y359953D02*
X175658D01*
Y354047D02*
Y359953D01*
X165028Y354047D02*
Y359953D01*
X279347Y309063D02*
Y341347D01*
X254937D02*
X279347D01*
X254937Y309063D02*
X279347D01*
X254937D02*
Y341347D01*
X207205Y328358D02*
Y360642D01*
X182795D02*
X207205D01*
X182795Y328358D02*
X207205D01*
X182795D02*
Y360642D01*
X179032Y489500D02*
X182969D01*
X181000Y487532D02*
Y491469D01*
X113358Y496035D02*
X150366D01*
Y462965D02*
Y496035D01*
X113358Y462965D02*
X150366D01*
X113358D02*
Y496035D01*
X202972Y426614D02*
Y453386D01*
X162028Y426614D02*
Y453386D01*
Y426614D02*
X202972D01*
X162028Y453386D02*
X202972D01*
X151228Y434957D02*
X154772D01*
X151228Y442043D02*
X154772D01*
X151228Y434957D02*
Y442043D01*
X154772Y434957D02*
Y442043D01*
X236654Y476685D02*
X243346D01*
X236654Y487315D02*
X243346D01*
X236654Y476685D02*
Y487315D01*
X243346Y476685D02*
Y487315D01*
X244650Y448138D02*
Y458768D01*
X238350Y448138D02*
Y458768D01*
X244650D01*
X238350Y448138D02*
X244650D01*
X252488Y429350D02*
Y435650D01*
X263512Y429350D02*
Y435650D01*
X252488D02*
X263512D01*
X252488Y429350D02*
X263512D01*
X185205Y371858D02*
Y404142D01*
X160795D02*
X185205D01*
X160795Y371858D02*
X185205D01*
X160795D02*
Y404142D01*
X294988Y422850D02*
Y429150D01*
X306012Y422850D02*
Y429150D01*
X294988D02*
X306012D01*
X294988Y422850D02*
X306012D01*
X273488Y414350D02*
Y420650D01*
X284512Y414350D02*
Y420650D01*
X273488D02*
X284512D01*
X273488Y414350D02*
X284512D01*
X270795Y427079D02*
X287724D01*
X270795Y436921D02*
X287724D01*
Y427079D02*
Y436921D01*
X270795Y427079D02*
Y436921D01*
X298488Y408850D02*
Y415150D01*
X309512Y408850D02*
Y415150D01*
X298488D02*
X309512D01*
X298488Y408850D02*
X309512D01*
X324488Y421850D02*
Y428150D01*
X335512Y421850D02*
Y428150D01*
X324488D02*
X335512D01*
X324488Y421850D02*
X335512D01*
X322488Y433850D02*
Y440150D01*
X333512Y433850D02*
Y440150D01*
X322488D02*
X333512D01*
X322488Y433850D02*
X333512D01*
X321488Y456850D02*
Y463150D01*
X332512Y456850D02*
Y463150D01*
X321488D02*
X332512D01*
X321488Y456850D02*
X332512D01*
X315547Y405594D02*
X333657D01*
X315547Y417406D02*
X333657D01*
Y405594D02*
Y417406D01*
X315547Y405594D02*
Y417406D01*
X176185Y413350D02*
X186815D01*
X176185Y419650D02*
X186815D01*
Y413350D02*
Y419650D01*
X176185Y413350D02*
Y419650D01*
X339339Y453850D02*
Y460150D01*
X350362Y453850D02*
Y460150D01*
X339339D02*
X350362D01*
X339339Y453850D02*
X350362D01*
X195685Y408654D02*
Y415346D01*
X206315Y408654D02*
Y415346D01*
X195685D02*
X206315D01*
X195685Y408654D02*
X206315D01*
X361693Y405866D02*
Y414134D01*
X348307Y405866D02*
Y414134D01*
Y405866D02*
X361693D01*
X348307Y414134D02*
X361693D01*
X344953Y422366D02*
Y430634D01*
X358339Y422366D02*
Y430634D01*
X344953D02*
X358339D01*
X344953Y422366D02*
X358339D01*
X274866Y447307D02*
X283134D01*
X274866Y460693D02*
X283134D01*
X274866Y447307D02*
Y460693D01*
X283134Y447307D02*
Y460693D01*
X252366Y475307D02*
X260634D01*
X252366Y488693D02*
X260634D01*
X252366Y475307D02*
Y488693D01*
X260634Y475307D02*
Y488693D01*
X273063Y475307D02*
X280937D01*
X273063Y488693D02*
X280937D01*
X273063Y475307D02*
Y488693D01*
X280937Y475307D02*
Y488693D01*
X109657Y344657D02*
Y364343D01*
Y344657D02*
X129343D01*
X109657Y364343D02*
X129343D01*
Y344657D02*
Y364343D01*
X143035Y363921D02*
X159965D01*
X143035Y354079D02*
X159965D01*
X143035D02*
Y363921D01*
X159965Y354079D02*
Y363921D01*
M02*
