G04*
G04 #@! TF.GenerationSoftware,Altium Limited,Altium Designer,21.1.1 (26)*
G04*
G04 Layer_Physical_Order=2*
G04 Layer_Color=16711680*
%FSLAX25Y25*%
%MOIN*%
G70*
G04*
G04 #@! TF.SameCoordinates,D9F95C0E-15A9-44F3-8ABD-4EC37FB7AC5F*
G04*
G04*
G04 #@! TF.FilePolarity,Positive*
G04*
G01*
G75*
%ADD13C,0.00600*%
%ADD87R,0.06693X0.06693*%
%ADD88C,0.06693*%
%ADD98C,0.05906*%
%ADD99R,0.05906X0.05906*%
%ADD100C,0.03200*%
%ADD101C,0.03150*%
%ADD102O,0.04528X0.07087*%
%ADD103O,0.05709X0.07874*%
%ADD104C,0.02000*%
%ADD105C,0.01968*%
D13*
X307500Y460500D02*
X325000Y478000D01*
Y493300D01*
X326250Y494550D01*
X339950D01*
X341500Y493000D01*
X346100D01*
X199784Y398500D02*
X212900Y385384D01*
X317050Y460500D02*
X330150Y447400D01*
X307500Y460500D02*
X317050D01*
X348000Y471300D02*
Y494450D01*
X346250Y496200D02*
X348000Y494450D01*
X318200Y496200D02*
X346250D01*
X302500Y480500D02*
X318200Y496200D01*
X212300Y453900D02*
X226066D01*
X244625Y472459D01*
Y473741D01*
X252400Y481516D01*
X221884Y471550D02*
X238134Y487800D01*
X263100D01*
X268900Y482000D01*
X258284Y347905D02*
X258579Y348200D01*
X258284Y338000D02*
Y347905D01*
X230600Y396100D02*
X245000D01*
X204484Y403200D02*
X223500D01*
X199784Y398500D02*
X204484Y403200D01*
X257092Y397092D02*
X264500Y404500D01*
X183100Y412700D02*
X191000Y404800D01*
X224600D01*
X230850Y398550D01*
X255650D01*
X263500Y406400D01*
X266300D01*
X266400Y406300D01*
Y399000D02*
Y406300D01*
Y399000D02*
X270550Y394850D01*
X258284Y338000D02*
X269584Y349300D01*
X294663D01*
X300400Y355037D01*
Y367100D01*
X307564Y374264D01*
X296900Y384390D02*
X301744Y389233D01*
Y396250D01*
X303144Y397650D01*
X304600D01*
X253050Y420950D02*
Y428200D01*
X275800Y450950D01*
X303750D01*
X305000Y452200D01*
Y468039D01*
X302539Y470500D02*
X305000Y468039D01*
X126300Y385000D02*
X165900Y345400D01*
X245300D01*
X245500Y345200D01*
X245900Y360900D02*
X250600Y356200D01*
Y350500D02*
Y356200D01*
X272527Y410050D02*
X294250Y388327D01*
X251250Y410050D02*
X272527D01*
X244600Y403400D02*
X251250Y410050D01*
X232053Y403400D02*
X244600D01*
X227750Y407703D02*
X232053Y403400D01*
X227750Y407703D02*
Y422150D01*
X181000Y468900D02*
X227750Y422150D01*
X268850Y408800D02*
X291250Y386400D01*
X252400Y408800D02*
X268850D01*
X245800Y402200D02*
X252400Y408800D01*
X231300Y402200D02*
X245800D01*
X226550Y406950D02*
X231300Y402200D01*
X226550Y406950D02*
Y418109D01*
X183559Y461100D02*
X226550Y418109D01*
X270800Y342347D02*
Y347400D01*
X262600Y334147D02*
X270800Y342347D01*
X254453Y334147D02*
X262600D01*
X249700Y338900D02*
X254453Y334147D01*
X249700Y338900D02*
Y344085D01*
X231785Y362000D02*
X249700Y344085D01*
X195063Y362000D02*
X231785D01*
X181858Y375205D02*
X195063Y362000D01*
X223100Y406900D02*
X224431D01*
X230331Y401000D01*
X249399D01*
X255999Y407600D01*
X267600D01*
X289350Y385850D01*
Y378624D02*
Y385850D01*
Y378624D02*
X290533Y377440D01*
X261747Y347100D02*
X264030D01*
X267430Y350500D01*
X292150D01*
X297150Y355500D01*
Y377825D01*
X338300Y418975D01*
Y427600D01*
X265300Y438400D02*
X337000Y438500D01*
X265300Y429400D02*
Y438400D01*
X254650Y418750D02*
X265300Y429400D01*
X251850Y418750D02*
X254650D01*
X249000Y421600D02*
X251850Y418750D01*
X240811Y421600D02*
X249000D01*
X239211Y420000D02*
X240811Y421600D01*
X239211Y413111D02*
Y420000D01*
X237400Y411300D02*
X239211Y413111D01*
X237400Y409450D02*
Y411300D01*
X241800Y443000D02*
X273700Y474900D01*
X299300D01*
X316300Y478600D02*
Y488200D01*
X310700Y473000D02*
X316300Y478600D01*
X285300Y409500D02*
X296200Y398600D01*
Y387500D02*
Y398600D01*
X292800Y384100D02*
X296200Y387500D01*
X292800Y373300D02*
Y384100D01*
X276400Y356900D02*
X292800Y373300D01*
X269116Y356900D02*
X276400D01*
X262516Y350300D02*
X269116Y356900D01*
X266400Y412400D02*
X285700D01*
X299800Y398300D01*
X259100Y439600D02*
X285000Y465500D01*
X302500D01*
X283177Y460500D02*
X302500D01*
X250877Y428200D02*
X283177Y460500D01*
X250877Y422850D02*
Y428200D01*
X206700Y483800D02*
X221900Y468600D01*
X233000Y464600D02*
X242700Y474300D01*
X223600Y464600D02*
X233000D01*
X213100Y439450D02*
Y449800D01*
Y439450D02*
X215650Y436900D01*
X226300D01*
X215047Y467100D02*
X215447Y466700D01*
X231000D01*
X241600Y477300D01*
X244300D01*
X179100Y421853D02*
Y470700D01*
X179200Y470800D01*
X184250D01*
X203335Y451715D01*
X214902D01*
X215017Y451600D01*
Y440795D02*
X217642D01*
X300400Y478400D02*
X302500Y480500D01*
X255247Y478400D02*
X300400D01*
X217642Y440795D02*
X255247Y478400D01*
X242700Y405300D02*
X248667Y411267D01*
X253794D01*
X274227Y431700D01*
X343579D01*
X338747Y433700D02*
X353334Y448287D01*
X271561Y433700D02*
X338747D01*
X251611Y413750D02*
X271561Y433700D01*
X245985Y413750D02*
X251611D01*
X244735Y412500D02*
X245985Y413750D01*
X305000Y357137D02*
Y358800D01*
X280810Y332947D02*
X305000Y357137D01*
X237247Y332947D02*
X280810D01*
X236005Y331705D02*
X237247Y332947D01*
X203858Y331705D02*
X236005D01*
X255796Y330300D02*
X281100D01*
X306900Y356100D01*
X346550Y429550D02*
X369700Y406400D01*
X318250Y429550D02*
X346550D01*
X306500Y417800D02*
X318250Y429550D01*
X306500Y391171D02*
Y417800D01*
X295250Y379921D02*
X306500Y391171D01*
X295250Y377421D02*
Y379921D01*
X299358Y375600D02*
Y378100D01*
X325458Y404200D01*
X371600D01*
X292600Y354700D02*
Y366673D01*
X243750Y416672D02*
X248736D01*
X242083Y415005D02*
X243750Y416672D01*
X242083Y410433D02*
Y415005D01*
X239200Y407550D02*
X242083Y410433D01*
X235250Y407550D02*
X239200D01*
X232700Y410100D02*
X235250Y407550D01*
X229650Y410100D02*
X232700D01*
X247000Y394900D02*
X250705D01*
X232200Y380100D02*
X247000Y394900D01*
X173000Y380100D02*
X232200D01*
X236600Y359684D02*
Y380453D01*
Y359684D02*
X258284Y338000D01*
X235358Y415205D02*
Y420614D01*
X287744Y473000D01*
X305000D01*
X307500Y470500D01*
X338950Y436700D02*
Y440400D01*
X338350Y436100D02*
X338950Y436700D01*
X267450Y436100D02*
X338350D01*
X157705Y400795D02*
X164142D01*
X141500Y417000D02*
X157705Y400795D01*
X164142D02*
X168437Y396500D01*
X189800D01*
X191800Y398500D01*
X199784D01*
X132188Y426312D02*
Y449012D01*
Y426312D02*
X141500Y417000D01*
X215017Y440795D02*
Y451600D01*
X223500Y403200D02*
X229608Y397092D01*
X230600Y396100D01*
X229608Y397092D02*
X257092D01*
X317050Y460500D02*
X318850D01*
X338950Y440400D01*
D87*
X141500Y417000D02*
D03*
D88*
X121815D02*
D03*
D98*
X235358Y415205D02*
D03*
Y440795D02*
D03*
X217642D02*
D03*
X217500Y372910D02*
D03*
Y398500D02*
D03*
X199784D02*
D03*
X276000Y312410D02*
D03*
Y338000D02*
D03*
X258284D02*
D03*
X203858Y331705D02*
D03*
Y357295D02*
D03*
X186142D02*
D03*
X181858Y375205D02*
D03*
Y400795D02*
D03*
X164142D02*
D03*
D99*
X217642Y415205D02*
D03*
X199784Y372910D02*
D03*
X258284Y312410D02*
D03*
X186142Y331705D02*
D03*
X164142Y375205D02*
D03*
D100*
X307500Y460500D02*
D03*
X302500D02*
D03*
X307500Y465500D02*
D03*
X302500D02*
D03*
X307500Y470500D02*
D03*
X302539D02*
D03*
X307500Y475500D02*
D03*
X302500D02*
D03*
X307500Y480500D02*
D03*
X302500D02*
D03*
D101*
X171157Y482217D02*
D03*
X190843D02*
D03*
D102*
X165744Y493043D02*
D03*
X196256D02*
D03*
D103*
X166335Y478083D02*
D03*
X195665D02*
D03*
D104*
X346100Y493000D02*
D03*
X212900Y385384D02*
D03*
X330150Y447400D02*
D03*
X348000Y471300D02*
D03*
X212300Y453900D02*
D03*
X252400Y481516D02*
D03*
X221884Y471550D02*
D03*
X268900Y482000D02*
D03*
X258579Y348200D02*
D03*
X245000Y396100D02*
D03*
X264500Y404500D02*
D03*
X183100Y412700D02*
D03*
X270550Y394850D02*
D03*
X307564Y374264D02*
D03*
X296900Y384390D02*
D03*
X304600Y397650D02*
D03*
X253050Y420950D02*
D03*
X126300Y385000D02*
D03*
X245500Y345200D02*
D03*
X245900Y360900D02*
D03*
X250600Y350500D02*
D03*
X294250Y388327D02*
D03*
X181000Y468900D02*
D03*
X291250Y386400D02*
D03*
X183559Y461100D02*
D03*
X270800Y347400D02*
D03*
X223100Y406900D02*
D03*
X290533Y377440D02*
D03*
X261747Y347100D02*
D03*
X338300Y427600D02*
D03*
X337000Y438500D02*
D03*
X237400Y409450D02*
D03*
X241800Y443000D02*
D03*
X299300Y474900D02*
D03*
X316300Y488200D02*
D03*
X310700Y473000D02*
D03*
X285300Y409500D02*
D03*
X262516Y350300D02*
D03*
X266400Y412400D02*
D03*
X299800Y398300D02*
D03*
X259100Y439600D02*
D03*
X250877Y422850D02*
D03*
X206700Y483800D02*
D03*
X221900Y468600D02*
D03*
X242700Y474300D02*
D03*
X223600Y464600D02*
D03*
X213100Y449800D02*
D03*
X226300Y436900D02*
D03*
X215047Y467100D02*
D03*
X244300Y477300D02*
D03*
X179100Y421853D02*
D03*
X242700Y405300D02*
D03*
X343579Y431700D02*
D03*
X353334Y448287D02*
D03*
X244735Y412500D02*
D03*
X305000Y358800D02*
D03*
X255796Y330300D02*
D03*
X306900Y356100D02*
D03*
X369700Y406400D02*
D03*
X295250Y377421D02*
D03*
X299358Y375600D02*
D03*
X371600Y404200D02*
D03*
X292600Y366673D02*
D03*
Y354700D02*
D03*
X248736Y416672D02*
D03*
X229650Y410100D02*
D03*
X250705Y394900D02*
D03*
X173000Y380100D02*
D03*
X236600Y380453D02*
D03*
X267450Y436100D02*
D03*
X132188Y449012D02*
D03*
D105*
X219969Y457032D02*
D03*
X216032D02*
D03*
Y460969D02*
D03*
X219969D02*
D03*
X218000Y459000D02*
D03*
X123437Y358437D02*
D03*
Y354500D02*
D03*
Y350563D02*
D03*
X119500Y358437D02*
D03*
Y354500D02*
D03*
Y350563D02*
D03*
X115563Y358437D02*
D03*
Y354500D02*
D03*
Y350563D02*
D03*
M02*
