G04*
G04 #@! TF.GenerationSoftware,Altium Limited,Altium Designer,21.1.1 (26)*
G04*
G04 Layer_Physical_Order=2*
G04 Layer_Color=16711680*
%FSLAX25Y25*%
%MOIN*%
G70*
G04*
G04 #@! TF.SameCoordinates,FA571921-0CF2-429E-B5E0-1F6894B57ED5*
G04*
G04*
G04 #@! TF.FilePolarity,Positive*
G04*
G01*
G75*
%ADD13C,0.00600*%
%ADD15C,0.01000*%
%ADD82R,0.06693X0.06693*%
%ADD83C,0.06693*%
%ADD93C,0.05906*%
%ADD94R,0.05906X0.05906*%
%ADD95C,0.03200*%
%ADD96C,0.03150*%
%ADD97O,0.04528X0.07087*%
%ADD98O,0.05709X0.07874*%
%ADD99C,0.02000*%
%ADD100C,0.01968*%
D13*
X206584Y405300D02*
X213700Y412416D01*
X222747Y445900D02*
X228447Y451600D01*
X217642Y440795D02*
X222747Y445900D01*
X199784Y398500D02*
Y413466D01*
X210430Y424113D01*
X256549D01*
X257249Y423413D01*
X270413D01*
X307500Y460500D01*
X213700Y412416D02*
Y418963D01*
X213800Y419063D01*
X260537D01*
X211300Y355300D02*
X228600Y338000D01*
X258284D01*
X232872Y386900D02*
X241672Y395700D01*
X177600Y386900D02*
X232872D01*
X294800Y370800D02*
X303300Y362300D01*
Y361050D02*
Y362300D01*
X292900Y368642D02*
X293500Y368042D01*
Y352350D02*
Y368042D01*
X290450Y349300D02*
X293500Y352350D01*
X272900Y349300D02*
X290450D01*
X272800Y345000D02*
X272900Y349300D01*
X272800Y345000D02*
X274400Y343400D01*
X277750D01*
X279900Y341250D01*
Y336250D02*
Y341250D01*
X277750Y334100D02*
X279900Y336250D01*
X254400Y334100D02*
X277750D01*
X252900Y335600D02*
X254400Y334100D01*
X201855Y335600D02*
X252900D01*
X200005Y333750D02*
X201855Y335600D01*
X200005Y330000D02*
Y333750D01*
Y330000D02*
X202153Y327852D01*
X252752D01*
X255400Y330500D01*
X293100D01*
X302500Y321100D01*
X368900D01*
X369000Y356500D01*
X302000Y390500D02*
Y394800D01*
X203858Y331705D02*
X302705D01*
X305500Y334500D01*
X186142Y357295D02*
X193750Y349687D01*
Y327902D02*
Y349687D01*
Y327902D02*
X195000Y326652D01*
X281352D01*
X283232Y328532D01*
X335813Y422213D02*
X350300Y436700D01*
X255349Y422213D02*
X335813D01*
X222747Y445900D02*
X246500D01*
X265750Y426650D01*
X204347Y427500D02*
X217642Y440795D01*
X184453Y427500D02*
X204347D01*
X222900Y474500D02*
X241500D01*
X216484Y468084D02*
X222900Y474500D01*
X258400Y470500D02*
X285300D01*
X249800Y479100D02*
X258400Y470500D01*
X225350Y479100D02*
X249800D01*
X218000Y471750D02*
X225350Y479100D01*
X214550Y471750D02*
X218000D01*
X211897Y469097D02*
X214550Y471750D01*
X211897Y452300D02*
Y469097D01*
X231700Y456100D02*
X236984Y461384D01*
X228100Y456100D02*
X231700D01*
X218016Y466184D02*
X228100Y456100D01*
X215213Y466184D02*
X218016D01*
X213797Y467600D02*
X215213Y466184D01*
X260700Y426100D02*
X262100Y424700D01*
X266700D01*
X302500Y460500D01*
X262516Y414572D02*
X264244Y416300D01*
X304600D01*
X302500Y465500D02*
X305000Y463000D01*
X338900D01*
X352200Y449700D01*
Y433900D02*
Y449700D01*
X332872Y414572D02*
X352200Y433900D01*
X262516Y414572D02*
X332872D01*
X231000Y350500D02*
X264484D01*
X219500Y362000D02*
X231000Y350500D01*
X149000Y362000D02*
X219500D01*
X130500Y380500D02*
X149000Y362000D01*
X316300Y482200D02*
X330500Y468000D01*
X355000D01*
X357600Y465400D01*
Y405400D02*
Y465400D01*
X354300Y402100D02*
X357600Y405400D01*
X243800Y402100D02*
X354300D01*
X231800Y390100D02*
X243800Y402100D01*
X314400Y475500D02*
X323500Y466400D01*
X344100D01*
X356400Y454100D01*
Y418535D02*
Y454100D01*
X341965Y404100D02*
X356400Y418535D01*
X243115Y404100D02*
X341965D01*
X231408Y392393D02*
X243115Y404100D01*
X229532Y392393D02*
X231408D01*
X225939Y388800D02*
X229532Y392393D01*
X175800Y388800D02*
X225939D01*
X175700Y388700D02*
X175800Y388800D01*
X175700Y382500D02*
Y388700D01*
Y382500D02*
X177300Y380900D01*
X218850D01*
X241900Y357850D01*
X240100Y355950D02*
X243800D01*
X216950Y379100D02*
X240100Y355950D01*
X176250Y379100D02*
X216950D01*
X174500Y380850D02*
X176250Y379100D01*
X174500Y380850D02*
Y390150D01*
X176250Y391900D01*
X226639D01*
X228332Y393593D01*
X230893D01*
X242600Y405300D01*
X325500D01*
X325600Y405400D01*
Y407700D01*
X325700Y407800D01*
X343900D01*
X354600Y418500D01*
Y452300D01*
X342400Y464500D02*
X354600Y452300D01*
X344600Y470200D02*
X355200D01*
X358800Y466600D01*
Y402400D02*
Y466600D01*
X355250Y398850D02*
X358800Y402400D01*
X290550Y398850D02*
X355250D01*
X289200Y397500D02*
X290550Y398850D01*
X289200Y363700D02*
Y397500D01*
Y363700D02*
X292300Y360600D01*
Y355000D02*
Y360600D01*
X290700Y353400D02*
X292300Y355000D01*
X281600Y353400D02*
X290700D01*
X204300Y395100D02*
X207700Y398500D01*
X217500D01*
Y372910D02*
X236360Y354050D01*
X245100D01*
X249850Y358800D01*
X290370D01*
X261564Y412604D02*
X274300D01*
X259800Y414368D02*
X261564Y412604D01*
X259800Y414368D02*
Y414600D01*
X263600Y418400D01*
Y419613D01*
X262200Y421013D02*
X263600Y419613D01*
X258800Y421013D02*
X262200D01*
X258087Y420300D02*
X258800Y421013D01*
X209313Y420300D02*
X258087D01*
X209213Y420200D02*
X209313Y420300D01*
X209213Y415213D02*
Y420200D01*
X201700Y407700D02*
X209213Y415213D01*
X209900Y456047D02*
Y475400D01*
X222500Y488000D01*
X303900Y489900D02*
X313150Y480650D01*
X220700Y489900D02*
X303900D01*
X218300Y487500D02*
X220700Y489900D01*
X181000Y487500D02*
X218300D01*
X291100Y395800D02*
X305200Y381700D01*
Y358200D02*
Y381700D01*
X294100Y347100D02*
X305200Y358200D01*
X274750Y347100D02*
X294100D01*
X236916Y342300D02*
X271700D01*
X276000Y338000D01*
X233700Y405300D02*
X234400Y404600D01*
X206584Y405300D02*
X233700D01*
X199784Y398500D02*
X206584Y405300D01*
X265550Y352850D02*
X268750Y349650D01*
X232050Y352850D02*
X265550D01*
X218700Y366200D02*
X232050Y352850D01*
X190863Y366200D02*
X218700D01*
X181858Y375205D02*
X190863Y366200D01*
X106000Y372500D02*
X126700Y393200D01*
X225441D01*
X227132Y394891D01*
X229402D01*
X241711Y407200D01*
X248736D01*
X307500Y465500D02*
X321650D01*
X343650Y410350D02*
X351500Y418200D01*
X237500Y410350D02*
X343650D01*
X266500Y407200D02*
X323500D01*
X191800Y398500D02*
X199784D01*
X189800Y396500D02*
X191800Y398500D01*
X168437Y396500D02*
X189800D01*
X164142Y400795D02*
X168437Y396500D01*
X227471Y485600D02*
X255300D01*
X216036Y474164D02*
X227471Y485600D01*
X302500Y480500D02*
X305100Y483100D01*
X308750D01*
X310000Y481850D01*
Y469250D02*
Y481850D01*
X308750Y468000D02*
X310000Y469250D01*
X298800Y468000D02*
X308750D01*
X282400Y451600D02*
X298800Y468000D01*
X228447Y451600D02*
X282400D01*
X320400Y447600D02*
X330150D01*
X307500Y460500D02*
X320400Y447600D01*
X229900Y458016D02*
Y462900D01*
X241500Y474500D01*
X255300Y485600D02*
X267900Y473000D01*
X305000D01*
X307500Y470500D01*
X141500Y417000D02*
X147937D01*
X164142Y400795D01*
X113200Y445300D02*
X141500Y417000D01*
X139500Y442600D02*
X200800D01*
D15*
X219000Y447500D02*
X222400Y450900D01*
X188337Y447500D02*
X219000D01*
X152400Y483437D02*
X188337Y447500D01*
D82*
X141500Y417000D02*
D03*
D83*
X121815D02*
D03*
D93*
X235358Y415205D02*
D03*
Y440795D02*
D03*
X217642D02*
D03*
X217500Y372910D02*
D03*
Y398500D02*
D03*
X199784D02*
D03*
X276000Y312410D02*
D03*
Y338000D02*
D03*
X258284D02*
D03*
X203858Y331705D02*
D03*
Y357295D02*
D03*
X186142D02*
D03*
X181858Y375205D02*
D03*
Y400795D02*
D03*
X164142D02*
D03*
D94*
X217642Y415205D02*
D03*
X199784Y372910D02*
D03*
X258284Y312410D02*
D03*
X186142Y331705D02*
D03*
X164142Y375205D02*
D03*
D95*
X307500Y460500D02*
D03*
X302500D02*
D03*
X307500Y465500D02*
D03*
X302500D02*
D03*
X307500Y470500D02*
D03*
X302539D02*
D03*
X307500Y475500D02*
D03*
X302500D02*
D03*
X307500Y480500D02*
D03*
X302500D02*
D03*
D96*
X171157Y482217D02*
D03*
X190843D02*
D03*
D97*
X165744Y493043D02*
D03*
X196256D02*
D03*
D98*
X166335Y478083D02*
D03*
X195665D02*
D03*
D99*
X260537Y419063D02*
D03*
X211300Y355300D02*
D03*
X241672Y395700D02*
D03*
X177600Y386900D02*
D03*
X222400Y450900D02*
D03*
X152400Y483437D02*
D03*
X294800Y370800D02*
D03*
X303300Y361050D02*
D03*
X292900Y368642D02*
D03*
X369000Y356500D02*
D03*
X302000Y394800D02*
D03*
Y390500D02*
D03*
X305500Y334500D02*
D03*
X283232Y328532D02*
D03*
X350300Y436700D02*
D03*
X255349Y422213D02*
D03*
X265750Y426650D02*
D03*
X184453Y427500D02*
D03*
X216484Y468084D02*
D03*
X285300Y470500D02*
D03*
X211897Y452300D02*
D03*
X236984Y461384D02*
D03*
X213797Y467600D02*
D03*
X260700Y426100D02*
D03*
X262516Y414572D02*
D03*
X304600Y416300D02*
D03*
X264484Y350500D02*
D03*
X130500Y380500D02*
D03*
X316300Y482200D02*
D03*
X231800Y390100D02*
D03*
X314400Y475500D02*
D03*
X241900Y357850D02*
D03*
X243800Y355950D02*
D03*
X342400Y464500D02*
D03*
X344600Y470200D02*
D03*
X281600Y353400D02*
D03*
X204300Y395100D02*
D03*
X290370Y358800D02*
D03*
X274300Y412604D02*
D03*
X201700Y407700D02*
D03*
X209900Y456047D02*
D03*
X222500Y488000D02*
D03*
X313150Y480650D02*
D03*
X181000Y487500D02*
D03*
X291100Y395800D02*
D03*
X274750Y347100D02*
D03*
X236916Y342300D02*
D03*
X234400Y404600D02*
D03*
X268750Y349650D02*
D03*
X106000Y372500D02*
D03*
X248736Y407200D02*
D03*
X321650Y465500D02*
D03*
X351500Y418200D02*
D03*
X237500Y410350D02*
D03*
X266500Y407200D02*
D03*
X323500D02*
D03*
X255300Y485600D02*
D03*
X216036Y474164D02*
D03*
X330150Y447600D02*
D03*
X229900Y458016D02*
D03*
X241500Y474500D02*
D03*
X113200Y445300D02*
D03*
X139500Y442600D02*
D03*
X200800D02*
D03*
D100*
X218000Y459000D02*
D03*
X219969Y460969D02*
D03*
X216032D02*
D03*
Y457032D02*
D03*
X219969D02*
D03*
X123437Y358437D02*
D03*
Y354500D02*
D03*
Y350563D02*
D03*
X119500Y358437D02*
D03*
Y354500D02*
D03*
Y350563D02*
D03*
X115563Y358437D02*
D03*
Y354500D02*
D03*
Y350563D02*
D03*
M02*
