M48
;Layer_Color=9474304
;FILE_FORMAT=2:4
INCH,TZ
;TYPE=PLATED
T1F00S00C0.0079
T2F00S00C0.0100
T3F00S00C0.0118
T5F00S00C0.0295
T7F00S00C0.0394
T8F00S00C0.0433
;TYPE=NON_PLATED
T9F00S00C0.0315
%
T01
X11556Y35056
X11950
X12344
Y35450
Y35844
X11950
Y35450
X11556
Y35844
T02
X10600Y37250
X13050Y38050
X13950Y44260
X11320Y44530
X18445Y42750
X20080Y44260
X21190Y45230
X20990Y45605
X21380Y46760
X21648Y46808
X22240Y45090
X22990Y45802
X23698Y46138
X23750Y41035
X23440Y40460
X24167Y39570
X23180Y39010
X20430Y39510
X20170Y40770
X17760Y38690
X21130Y35530
X24190Y35785
X24380Y35595
X23692Y34230
X26448Y35050
X26875Y34965
X27475Y34710
X28160Y35340
X29037Y35880
X29290Y36864
X29480Y37080
X30330Y36105
X30550Y33450
X28323Y32853
X29110Y39580
X30200Y39480
Y39050
X30460Y41630
X27430Y41260
X26650Y40720
X26252Y41457
X26054Y41906
X26070Y42610
X26575Y42665
X25535Y42221
X24874Y40720
X32350
X35150Y41820
X35030Y43670
X33015Y44760
X32165Y46550
X34240Y46450
X36900Y35650
X34460Y47020
X31440Y47550
X31315Y48065
X31630Y48220
X28530Y47050
X25530Y48560
X24150Y47450
X21604Y47416
X22250Y48800
X18100Y48750
X15240Y48344
T03
X21603Y45703
X21800Y45900
X21603Y46097
X21997
Y45703
T05
X30250Y46050
X30750
Y46550
X30250
X30254Y47050
X30750
Y47550
X30250
Y48050
X30750
T07
X25828Y31241
X27600
Y33800
X25828
X20386Y33170
X18614
Y35730
X20386
X19978Y37291
X21750
Y39850
X21764Y41520
X23536
Y44080
X21764
X19978Y39850
X18186Y40080
X16414
Y37520
X18186
T08
X12181Y41700
X14150
T09
X17116Y48222
X19084
M30
