G04*
G04 #@! TF.GenerationSoftware,Altium Limited,Altium Designer,21.1.1 (26)*
G04*
G04 Layer_Physical_Order=1*
G04 Layer_Color=255*
%FSLAX25Y25*%
%MOIN*%
G70*
G04*
G04 #@! TF.SameCoordinates,D9F95C0E-15A9-44F3-8ABD-4EC37FB7AC5F*
G04*
G04*
G04 #@! TF.FilePolarity,Positive*
G04*
G01*
G75*
%ADD13C,0.00600*%
%ADD17R,0.04473X0.01775*%
%ADD18O,0.08661X0.02362*%
%ADD19R,0.07677X0.03740*%
%ADD20R,0.03937X0.07087*%
%ADD21R,0.03740X0.04134*%
%ADD22R,0.01181X0.05906*%
%ADD23R,0.05906X0.01181*%
%ADD24R,0.06102X0.05512*%
%ADD25R,0.02913X0.03071*%
%ADD26R,0.03985X0.04560*%
G04:AMPARAMS|DCode=27|XSize=9.84mil|YSize=23.62mil|CornerRadius=1.97mil|HoleSize=0mil|Usage=FLASHONLY|Rotation=90.000|XOffset=0mil|YOffset=0mil|HoleType=Round|Shape=RoundedRectangle|*
%AMROUNDEDRECTD27*
21,1,0.00984,0.01968,0,0,90.0*
21,1,0.00591,0.02362,0,0,90.0*
1,1,0.00394,0.00984,0.00295*
1,1,0.00394,0.00984,-0.00295*
1,1,0.00394,-0.00984,-0.00295*
1,1,0.00394,-0.00984,0.00295*
%
%ADD27ROUNDEDRECTD27*%
G04:AMPARAMS|DCode=28|XSize=9.84mil|YSize=23.62mil|CornerRadius=1.97mil|HoleSize=0mil|Usage=FLASHONLY|Rotation=180.000|XOffset=0mil|YOffset=0mil|HoleType=Round|Shape=RoundedRectangle|*
%AMROUNDEDRECTD28*
21,1,0.00984,0.01968,0,0,180.0*
21,1,0.00591,0.02362,0,0,180.0*
1,1,0.00394,-0.00295,0.00984*
1,1,0.00394,0.00295,0.00984*
1,1,0.00394,0.00295,-0.00984*
1,1,0.00394,-0.00295,-0.00984*
%
%ADD28ROUNDEDRECTD28*%
%ADD29R,0.01860X0.02029*%
%ADD30R,0.13780X0.05315*%
%ADD31R,0.03347X0.03740*%
%ADD32R,0.03150X0.03150*%
%ADD33R,0.03197X0.02985*%
%ADD34R,0.01772X0.05118*%
%ADD35R,0.13386X0.05906*%
%ADD36R,0.13780X0.03937*%
%ADD37R,0.07087X0.03543*%
%ADD38R,0.24410X0.21457*%
%ADD39R,0.02362X0.02559*%
%ADD40R,0.03740X0.02756*%
%ADD41R,0.03150X0.03150*%
%ADD42R,0.05315X0.03937*%
%ADD43R,0.04921X0.03937*%
%ADD44R,0.03740X0.05315*%
%ADD45R,0.05512X0.05906*%
%ADD46R,0.04528X0.10630*%
%ADD47R,0.03937X0.04921*%
%ADD48R,0.03937X0.05315*%
%ADD49R,0.04134X0.03740*%
%ADD50R,0.03543X0.02362*%
%ADD51R,0.03150X0.01181*%
%ADD52R,0.04331X0.03937*%
%ADD53R,0.05709X0.04724*%
%ADD54R,0.10236X0.10630*%
%ADD55R,0.03347X0.01378*%
%ADD56R,0.01378X0.03150*%
%ADD87R,0.06693X0.06693*%
%ADD88C,0.06693*%
G04:AMPARAMS|DCode=97|XSize=66.93mil|YSize=66.93mil|CornerRadius=2.01mil|HoleSize=0mil|Usage=FLASHONLY|Rotation=90.000|XOffset=0mil|YOffset=0mil|HoleType=Round|Shape=RoundedRectangle|*
%AMROUNDEDRECTD97*
21,1,0.06693,0.06291,0,0,90.0*
21,1,0.06291,0.06693,0,0,90.0*
1,1,0.00402,0.03146,0.03146*
1,1,0.00402,0.03146,-0.03146*
1,1,0.00402,-0.03146,-0.03146*
1,1,0.00402,-0.03146,0.03146*
%
%ADD97ROUNDEDRECTD97*%
%ADD98C,0.05906*%
%ADD99R,0.05906X0.05906*%
%ADD100C,0.03200*%
%ADD101C,0.03150*%
%ADD102O,0.04528X0.07087*%
%ADD103O,0.05709X0.07874*%
%ADD104C,0.02000*%
%ADD105C,0.01968*%
D13*
X217016Y464512D02*
X218984D01*
X217016Y453488D02*
X218984D01*
X275520Y432000D02*
X283000D01*
X275850Y417500D02*
Y424500D01*
X275520Y424831D02*
X275850Y424500D01*
X275520Y424831D02*
Y432000D01*
X275850Y417500D02*
X282150D01*
X297350Y426000D02*
X303650D01*
X326850Y425000D02*
Y430000D01*
X324850Y432000D02*
X326850Y430000D01*
X324850Y432000D02*
Y437000D01*
Y448000D01*
X323850Y449000D02*
X324850Y448000D01*
X323850Y449000D02*
Y460000D01*
X307500Y465500D02*
Y470500D01*
X323850Y460000D02*
Y467600D01*
X324051Y467801D01*
Y475500D01*
X139500Y449358D02*
Y460600D01*
X143083Y464183D01*
Y475563D01*
X307000Y440490D02*
Y450200D01*
X307500Y450700D01*
Y460500D01*
X333150Y425000D02*
Y430000D01*
X331150Y432000D02*
X333150Y430000D01*
X331150Y432000D02*
Y437000D01*
X326850Y421250D02*
Y425000D01*
Y421250D02*
X327209Y420891D01*
X347500D01*
X348791Y422183D01*
Y426500D01*
X285900Y362736D02*
X285941D01*
X285900Y333569D02*
X286000Y333469D01*
X208750Y458016D02*
X212488D01*
X206800Y459966D02*
X208750Y458016D01*
X206800Y459966D02*
Y478931D01*
X206900Y479031D01*
X210500D01*
X173000Y354300D02*
Y357000D01*
X172900Y354200D02*
X173000Y354300D01*
X155340Y354200D02*
X172900D01*
X155240Y354300D02*
X155340Y354200D01*
X138500Y359000D02*
X147760D01*
X136400Y361100D02*
X138500Y359000D01*
X124421Y361100D02*
Y362374D01*
X305100Y437510D02*
X307000D01*
X305000Y437610D02*
X305100Y437510D01*
X305000Y437610D02*
Y463000D01*
X302500Y465500D02*
X305000Y463000D01*
X323850Y460000D02*
X328850Y465000D01*
X340451D01*
X341701Y463750D01*
Y457000D02*
Y463750D01*
X265300Y485346D02*
X277000D01*
X259198Y479244D02*
X265300Y485346D01*
X256500Y479244D02*
X259198D01*
X130242Y442500D02*
X137100Y449358D01*
X118500Y442500D02*
X130242D01*
X149000Y343760D02*
X155240Y350000D01*
X147760Y359000D02*
Y384413D01*
X164142Y400795D01*
X153000Y421157D02*
Y436827D01*
Y421157D02*
X155000Y419157D01*
X160000D01*
X178547Y415546D02*
Y416500D01*
X172291D02*
X173245Y415546D01*
X141500Y416500D02*
Y417000D01*
X318205Y411500D02*
X326850Y420146D01*
X354500Y426500D02*
Y433300D01*
X347900Y439900D02*
X354500Y433300D01*
X343579Y439900D02*
Y441500D01*
X186142Y357295D02*
X227437Y316000D01*
X235000D01*
X118500Y429700D02*
Y442500D01*
X107951Y419151D02*
X118500Y429700D01*
X107951Y352796D02*
Y419151D01*
Y352796D02*
X109200Y351547D01*
X111724D01*
X127276Y353516D02*
X129800D01*
X129900Y353616D01*
Y357353D01*
X129800Y357453D02*
X129900Y357353D01*
X127276Y357453D02*
X129800D01*
X342949Y490500D02*
X346100D01*
X214900Y355500D02*
X222000D01*
X212900Y357500D02*
X214900Y355500D01*
X212900Y357500D02*
Y385384D01*
X158200Y440000D02*
X174626D01*
X155200Y443000D02*
X158200Y440000D01*
X137200Y443000D02*
X155200D01*
X137100Y443100D02*
X137200Y443000D01*
X137100Y443100D02*
Y449258D01*
X137200Y449358D01*
X353421Y436079D02*
Y441500D01*
Y436079D02*
X357700Y431800D01*
Y420954D02*
Y431800D01*
X352146Y415400D02*
X357700Y420954D01*
X352146Y410000D02*
Y415400D01*
X127276Y351547D02*
X137100D01*
X143291Y345356D01*
Y341000D02*
Y345356D01*
X147500Y353516D02*
X149000Y352016D01*
X285941Y390295D02*
X296250D01*
X297900Y391945D01*
X348000Y457000D02*
Y471300D01*
X223512Y456047D02*
X229000D01*
X240000Y467047D01*
Y479047D01*
X223512Y459984D02*
X225500D01*
X225600Y460084D01*
Y474652D01*
X222000Y478252D02*
X225600Y474652D01*
X212300Y456047D02*
X212488D01*
X252400Y481516D02*
X255640Y484756D01*
X256500D01*
X218984Y464512D02*
Y468650D01*
X221884Y471550D01*
X268900Y482000D02*
X280700D01*
X280800Y481900D01*
Y472900D02*
Y481900D01*
X279000Y471100D02*
X280800Y472900D01*
X279000Y456854D02*
Y471100D01*
X237653Y487300D02*
X240000Y484953D01*
X219600Y487300D02*
X237653D01*
X219500Y487200D02*
X219600Y487300D01*
X219500Y482200D02*
Y487200D01*
Y482200D02*
X220100Y481600D01*
X225200D01*
X226800Y480000D01*
Y458116D02*
Y480000D01*
X226700Y458016D02*
X226800Y458116D01*
X223512Y458016D02*
X226700D01*
X130000Y440173D02*
X153000D01*
X128700Y438873D02*
X130000Y440173D01*
X126988Y387559D02*
X128700D01*
X160000Y413843D02*
X162901D01*
X182994Y393750D01*
X202703D01*
X203953Y395000D01*
X271700Y342300D02*
X276000Y338000D01*
X250947Y342300D02*
X271700D01*
X246430Y337784D02*
X250947Y342300D01*
X222000Y337784D02*
X246430D01*
X258579Y348200D02*
Y355059D01*
X195500Y419100D02*
X231463D01*
X195100Y418700D02*
X195500Y419100D01*
X195100Y408500D02*
Y418700D01*
Y408500D02*
X195200Y408400D01*
X203853D01*
X203953Y408500D01*
X186118Y474382D02*
X187500Y473000D01*
X202500D01*
X204300Y474800D01*
Y487650D01*
X206250Y489600D01*
X212500D01*
X214000Y488100D01*
Y473200D02*
Y488100D01*
X212400Y471600D02*
X214000Y473200D01*
X212400Y461953D02*
X212488D01*
X139500Y445500D02*
X155200D01*
X157200Y447500D01*
Y450150D01*
X158750Y451700D01*
X203400D01*
X203500Y451600D01*
Y440900D02*
Y451600D01*
X199000Y436400D02*
X203500Y440900D01*
X199000Y431024D02*
X199035D01*
X303513Y391980D02*
X313500D01*
X301744Y393750D02*
X303513Y391980D01*
X301744Y393750D02*
Y398750D01*
X303544Y400550D01*
X330550D01*
X351600Y421600D01*
Y430200D01*
X350000Y431800D02*
X351600Y430200D01*
X347500Y431800D02*
X350000D01*
X342450Y426750D02*
X347500Y431800D01*
X342450Y424600D02*
Y426750D01*
X342350Y424500D02*
X342450Y424600D01*
X331150Y425750D02*
X332400Y424500D01*
X240000Y484953D02*
X251053D01*
X255700Y489600D01*
X280000D01*
X282000Y487600D01*
Y451246D02*
Y487600D01*
X281900Y451146D02*
X282000Y451246D01*
X279000Y451146D02*
X281900D01*
X198047Y412000D02*
Y415500D01*
X198147Y415600D01*
X210150D01*
X212000Y413750D01*
Y404000D02*
Y413750D01*
Y404000D02*
X217500Y398500D01*
X205350Y457300D02*
X206800Y458750D01*
X177100Y457300D02*
X205350D01*
X154900Y479500D02*
X177100Y457300D01*
X154900Y479500D02*
Y488750D01*
X153150Y490500D02*
X154900Y488750D01*
X136950Y490500D02*
X153150D01*
X135200Y488750D02*
X136950Y490500D01*
X135200Y475663D02*
Y488750D01*
Y475663D02*
X135300Y475563D01*
X143083D01*
X184868Y458750D02*
X186118Y460000D01*
X182850Y458750D02*
X184868D01*
X174000Y467600D02*
X182850Y458750D01*
X174000Y467600D02*
Y488750D01*
X182750Y497500D01*
X227453D01*
X218984Y448500D02*
Y453488D01*
X218384Y447900D02*
X218984Y448500D01*
X210828Y447900D02*
X218384D01*
X204428Y454300D02*
X210828Y447900D01*
X178300Y454300D02*
X204428D01*
X153700Y478900D02*
X178300Y454300D01*
X153700Y478900D02*
Y481250D01*
X151513Y483437D02*
X153700Y481250D01*
X143083Y483437D02*
X151513D01*
X241059Y378484D02*
X244900D01*
X245000Y378584D01*
Y396100D01*
X264484Y399941D02*
Y404484D01*
X264500Y404500D01*
X184453Y415800D02*
Y416500D01*
X183100Y414447D02*
X184453Y415800D01*
X183100Y412700D02*
Y414447D01*
X270550Y394850D02*
X272358Y396658D01*
Y399941D01*
X307000Y440490D02*
X308800D01*
X308900Y422100D02*
Y440390D01*
X293900Y420700D02*
X307500D01*
X288300Y415100D02*
X293900Y420700D01*
X285941Y392264D02*
X288300D01*
X307564Y374264D02*
X313500D01*
X269300Y432000D02*
X275520D01*
X265042Y427742D02*
X269300Y432000D01*
X256108Y427742D02*
X265042D01*
X254850Y429000D02*
X256108Y427742D01*
X254850Y429000D02*
Y432500D01*
X307500Y470500D02*
X312000D01*
X317000Y475500D01*
X324051D01*
X285941Y384390D02*
X296900D01*
X304600Y397650D02*
X368150D01*
X368300Y397500D01*
Y371400D02*
Y397500D01*
X365258Y368358D02*
X368300Y371400D01*
X363500Y368358D02*
X365258D01*
X258579Y399941D02*
Y412921D01*
X253050Y418450D02*
X258579Y412921D01*
X253050Y418450D02*
Y420950D01*
X126300Y382441D02*
X126988D01*
X245500Y345200D02*
X264384D01*
X264484Y345300D01*
Y355059D01*
X296950Y485500D02*
X324051D01*
X295200Y483750D02*
X296950Y485500D01*
X295200Y453500D02*
Y483750D01*
X283200Y441500D02*
X295200Y453500D01*
X250300Y441500D02*
X283200D01*
X241611Y432811D02*
X250300Y441500D01*
X241611Y408111D02*
Y432811D01*
X234700Y401200D02*
X241611Y408111D01*
X234700Y363400D02*
Y401200D01*
Y363400D02*
X237200Y360900D01*
X245900D01*
X250600Y350500D02*
X250705Y350605D01*
Y355059D01*
X285941Y388327D02*
X294250D01*
X181000Y468900D02*
Y478083D01*
X285941Y386358D02*
X291208D01*
X291250Y386400D01*
X183559Y461100D02*
Y478083D01*
X270390Y347810D02*
Y355059D01*
Y347810D02*
X270800Y347400D01*
X217500Y372910D02*
X223100Y378510D01*
Y406900D01*
X289609Y376516D02*
X290533Y377440D01*
X285941Y376516D02*
X289609D01*
X254642Y351492D02*
Y355059D01*
X251750Y348600D02*
X254642Y351492D01*
X248700Y348600D02*
X251750D01*
X240900Y356400D02*
X248700Y348600D01*
X232290Y356400D02*
X240900D01*
X228600Y360090D02*
X232290Y356400D01*
X228600Y360090D02*
Y405000D01*
X234952Y411352D01*
X237500D01*
X239211Y413063D01*
Y443750D01*
X240961Y445500D01*
X281700D01*
X283200Y447000D01*
Y493750D01*
X284750Y495300D01*
X346650D01*
X348200Y493750D01*
Y485600D02*
Y493750D01*
X348100Y485500D02*
X348200Y485600D01*
X342949Y485500D02*
X348100D01*
X260547Y348300D02*
Y355059D01*
Y348300D02*
X261747Y347100D01*
X338300Y427600D02*
X339500Y428800D01*
Y446900D01*
X345600Y453000D01*
X350800Y453100D01*
Y477900D01*
X348200Y480500D02*
X350800Y477900D01*
X342949Y480500D02*
X348200D01*
X342949Y475500D02*
X344500D01*
X337000Y446200D02*
X344500Y453700D01*
X337000Y438500D02*
Y446200D01*
X229800Y401850D02*
X237400Y409450D01*
X229800Y361447D02*
Y401850D01*
Y361447D02*
X233647Y357600D01*
X248736Y355059D02*
Y357600D01*
X252573Y359000D02*
X252673Y355059D01*
X236050Y359000D02*
X252573D01*
X232700Y362350D02*
X236050Y359000D01*
X232700Y362350D02*
Y402050D01*
X240411Y409761D01*
Y441611D01*
X241800Y443000D01*
X299300Y474900D02*
Y481250D01*
X301050Y483000D01*
X313000D01*
X315500Y480500D01*
X324051D01*
X318600Y490500D02*
X324051D01*
X316300Y488200D02*
X318600Y490500D01*
X301250Y473000D02*
X310700D01*
X300000Y471750D02*
X301250Y473000D01*
X300000Y440700D02*
Y471750D01*
Y440700D02*
X306500Y434200D01*
Y422500D02*
Y434200D01*
X306400Y422400D02*
X306500Y422500D01*
X288750Y422400D02*
X306400D01*
X287000Y420650D02*
X288750Y422400D01*
X287000Y411200D02*
Y420650D01*
X285300Y409500D02*
X287000Y411200D01*
X262516Y350300D02*
Y355059D01*
X120000Y385000D02*
X121815Y386815D01*
Y417000D01*
X266453Y399941D02*
Y412347D01*
X266400Y412400D02*
X266453Y412347D01*
X299800Y398300D02*
Y401250D01*
X301250Y402700D01*
X328750D01*
X331000Y404950D01*
Y411500D01*
X262516Y399941D02*
Y416900D01*
X255117Y424299D02*
X262516Y416900D01*
X253801Y424299D02*
X255117D01*
X250800Y427300D02*
X253801Y424299D01*
X250800Y427300D02*
Y437700D01*
X250900Y437800D01*
X257300D01*
X259100Y439600D01*
X250877Y422850D02*
X254800D01*
X260547Y417103D01*
Y399941D02*
Y417103D01*
X207837Y484937D02*
X210500D01*
X206700Y483800D02*
X207837Y484937D01*
X220953Y467653D02*
X221900Y468600D01*
X220953Y464512D02*
Y467653D01*
X241500Y456406D02*
X242700D01*
X223600Y464600D02*
X223800D01*
X223512Y461953D02*
X223800D01*
X222500Y474400D02*
X223800Y473100D01*
X218750Y474400D02*
X222500D01*
X217050Y476100D02*
X218750Y474400D01*
X217050Y476100D02*
Y488150D01*
X213900Y491300D02*
X217050Y488150D01*
X200300Y491300D02*
X213900D01*
X195700Y486700D02*
X200300Y491300D01*
X177500Y486700D02*
X195700D01*
X175882Y485082D02*
X177500Y486700D01*
X175882Y478083D02*
Y485082D01*
X215047Y451747D02*
Y453488D01*
X213100Y449800D02*
X215047Y451747D01*
X226300Y436900D02*
Y448750D01*
X228050Y450500D01*
X241500D01*
X215047Y464512D02*
Y467100D01*
X244300Y477300D02*
X250700Y470900D01*
Y452500D02*
Y470900D01*
Y452500D02*
X252440Y450760D01*
X259000D01*
Y458240D02*
Y467654D01*
X270000Y478654D01*
X277000D01*
X179100Y421853D02*
X184453Y416500D01*
X237206Y390400D02*
X241059Y390295D01*
X237206Y390400D02*
Y399806D01*
X242700Y405300D01*
X353421Y441500D02*
Y448200D01*
X353334Y448287D02*
X353421Y448200D01*
X244735Y402500D02*
Y412500D01*
X243000Y400765D02*
X244735Y402500D01*
X241059Y392264D02*
X243000D01*
X235000Y316000D02*
X242900Y308100D01*
X261193D01*
X281625Y328532D01*
X288500D01*
X306250Y350642D02*
X313500D01*
X305000Y351892D02*
X306250Y350642D01*
X305000Y351892D02*
Y358800D01*
X241496Y316000D02*
X255796Y330300D01*
X306900Y356100D02*
X307347Y356547D01*
X313500D01*
X305700Y380169D02*
X313500D01*
X302458Y376927D02*
X305700Y380169D01*
X302458Y333258D02*
Y376927D01*
X281610Y312410D02*
X302458Y333258D01*
X276000Y312410D02*
X281610D01*
X363500Y362453D02*
X368403D01*
X369700Y363750D01*
Y406400D01*
X290250Y382421D02*
X295250Y377421D01*
X285941Y382421D02*
X290250D01*
X285941Y368642D02*
X289900D01*
X296858Y375600D01*
X299358D01*
X371600Y358147D02*
Y404200D01*
X370000Y356547D02*
X371600Y358147D01*
X363500Y356547D02*
X370000D01*
X285941Y366673D02*
X292600D01*
Y327050D02*
Y354700D01*
X291250Y325700D02*
X292600Y327050D01*
X282200Y325700D02*
X291250D01*
X271100Y314600D02*
X282200Y325700D01*
X271100Y309900D02*
Y314600D01*
Y309900D02*
X272500Y308500D01*
X356000D01*
X368900Y321400D01*
Y349242D01*
X367500Y350642D02*
X368900Y349242D01*
X363500Y350642D02*
X367500D01*
X248736Y399941D02*
Y416672D01*
X222500Y410100D02*
X229650D01*
X221200Y408800D02*
X222500Y410100D01*
X221200Y402000D02*
Y408800D01*
Y402000D02*
X221400Y401800D01*
Y393600D02*
Y401800D01*
X220000Y392200D02*
X221400Y393600D01*
X192900Y392200D02*
X220000D01*
X176300Y375600D02*
X192900Y392200D01*
X176300Y337600D02*
Y375600D01*
X175000Y336300D02*
X176300Y337600D01*
X113750Y336300D02*
X175000D01*
X111700Y338350D02*
X113750Y336300D01*
X111700Y349579D02*
X111724D01*
X148900Y338000D02*
X149000Y341000D01*
X121500Y338000D02*
X148900D01*
X114579Y344921D02*
X121500Y338000D01*
X114579Y344921D02*
Y346626D01*
X250705Y394900D02*
Y399941D01*
X173000Y357000D02*
Y380100D01*
X167685Y357000D02*
X168000D01*
X165500Y405000D02*
X168000Y402500D01*
X155400Y405000D02*
X165500D01*
X118200Y367800D02*
X155400Y405000D01*
X116100Y367800D02*
X118200D01*
X109151Y360851D02*
X116100Y367800D01*
X109151Y357981D02*
Y360851D01*
Y357981D02*
X109679Y357453D01*
X111724D01*
X283000Y432000D02*
X295350D01*
X297350Y430000D01*
Y426000D02*
Y430000D01*
X285941Y362736D02*
X298700D01*
X301258Y365294D01*
Y391442D01*
X297900Y394800D02*
X301258Y391442D01*
X297900Y407700D02*
X300850Y410650D01*
Y412000D01*
X258284Y338000D02*
X262815Y333469D01*
X282150Y410000D02*
Y417500D01*
X280900Y408750D02*
X282150Y410000D01*
X273471Y408750D02*
X280900D01*
X268421Y399941D02*
Y403700D01*
Y399941D02*
X268521Y403800D01*
X279800D01*
X281250Y402350D01*
Y391545D02*
Y402350D01*
Y391545D02*
X282500Y390295D01*
X285941D01*
X318205Y404900D02*
Y411500D01*
X300850Y404900D02*
X318205D01*
X341701Y453000D02*
Y457000D01*
X334400Y445699D02*
X341701Y453000D01*
X334400Y433300D02*
Y445699D01*
Y433300D02*
X336000Y431700D01*
Y427100D02*
Y431700D01*
Y427100D02*
X337400Y425700D01*
X340600D01*
X340700Y425800D01*
Y446000D01*
X345700Y451000D01*
X357500D01*
X358900Y449600D01*
Y417900D02*
Y449600D01*
X357854Y416854D02*
X358900Y417900D01*
X357854Y410000D02*
Y416854D01*
X236600Y380453D02*
X241059D01*
X253644Y479244D02*
X256500D01*
X251900Y477500D02*
X253644Y479244D01*
X251900Y456250D02*
Y477500D01*
Y456250D02*
X253650Y454500D01*
X262851D01*
X262951Y454400D01*
Y447255D02*
Y454400D01*
X262800Y447104D02*
X262951Y447255D01*
X252546Y447104D02*
X262800D01*
X246250Y453400D02*
X252546Y447104D01*
X231500Y419063D02*
X235358Y415205D01*
X231500Y419063D02*
Y446250D01*
X232850Y447600D01*
X245000D01*
X245100Y447700D01*
Y453300D01*
X245000Y453400D02*
X245100Y453300D01*
X220953Y453400D02*
Y453488D01*
X222000Y484748D02*
X226352D01*
X229100Y482000D01*
X248600D01*
X251356Y479244D01*
X174626Y440000D02*
X187400Y439900D01*
Y413200D02*
Y439900D01*
X185000Y410800D02*
X187400Y413200D01*
X168400Y410800D02*
X185000D01*
X165357Y413843D02*
X168400Y410800D01*
X307150Y412000D02*
X307500Y420700D01*
X308900Y422100D01*
X308800Y440490D02*
X308900Y440390D01*
X244650Y342250D02*
X248579D01*
X250329Y344000D01*
X272400D01*
X281500Y353100D01*
X281600Y364705D01*
X285941D01*
X222000Y355500D02*
X231400D01*
X239500Y347400D01*
X253076D01*
X256610Y350934D01*
Y355059D01*
X256721Y425862D02*
X264484Y418099D01*
X254638Y425862D02*
X256721D01*
X252000Y428500D02*
X254638Y425862D01*
X252000Y428500D02*
Y436500D01*
X252100Y436600D01*
X261050D01*
X261150Y436500D01*
Y432500D02*
Y436000D01*
Y436100D02*
X267450D01*
X118500Y449012D02*
X132188D01*
X192376Y448976D02*
X199035D01*
X190900Y447500D02*
X192376Y448976D01*
X190900Y407384D02*
Y447500D01*
Y407384D02*
X199784Y398500D01*
X233647Y357600D02*
X248736D01*
X344500Y453700D02*
Y475500D01*
X128700Y387559D02*
Y438873D01*
X126300Y382441D02*
Y385000D01*
X223800Y461953D02*
Y464600D01*
Y473100D01*
X242700Y456406D02*
Y474300D01*
X212300Y453900D02*
Y456047D01*
X186118Y460000D02*
Y474382D01*
Y478083D01*
X212400Y461953D02*
Y471600D01*
X227453Y497500D02*
X237653Y487300D01*
X343579Y431700D02*
Y439900D01*
X347900D01*
X243000Y392264D02*
Y400765D01*
X111700Y338350D02*
Y349579D01*
X129800Y353516D02*
X147500D01*
X149000Y341000D02*
Y343760D01*
Y352016D01*
X155240Y350000D02*
Y354300D01*
Y359000D01*
X168000Y357000D02*
Y402500D01*
X162901Y413843D02*
X165357D01*
X262815Y333469D02*
X286000D01*
X288500D01*
X203953Y395000D02*
Y408500D01*
Y412000D01*
X231463Y419100D02*
X231500Y419063D01*
X137100Y449358D02*
X137200D01*
X139500D01*
X206800Y458750D02*
Y459966D01*
X245000Y453400D02*
X246250D01*
X220953D02*
X245000D01*
X251356Y479244D02*
X253644D01*
X285900Y333569D02*
Y362736D01*
X268421Y403700D02*
X268521Y403800D01*
X273471Y408750D01*
X297900Y391945D02*
Y394800D01*
Y407700D01*
X300850Y404900D02*
Y410650D01*
X326850Y420146D02*
Y421250D01*
X124421Y361100D02*
X136400D01*
X239500Y347400D02*
X244650Y342250D01*
X141500Y416500D02*
X172291D01*
X173245Y415546D02*
X178547D01*
X264484Y404484D02*
Y418099D01*
X288300Y392264D02*
Y415100D01*
X332400Y424500D02*
X342350D01*
X331150Y425750D02*
Y432000D01*
X261150Y436000D02*
Y436100D01*
Y436500D01*
X330150Y449000D02*
X331150Y448000D01*
Y437000D02*
Y448000D01*
X330150Y447400D02*
Y449000D01*
Y460000D01*
X346100Y490500D02*
Y493000D01*
X199000Y431024D02*
Y436400D01*
D17*
X126988Y382441D02*
D03*
Y387559D02*
D03*
X120000Y385000D02*
D03*
D18*
X324051Y490500D02*
D03*
Y485500D02*
D03*
Y480500D02*
D03*
Y475500D02*
D03*
X342949Y490500D02*
D03*
Y485500D02*
D03*
Y480500D02*
D03*
Y475500D02*
D03*
D19*
X313500Y350642D02*
D03*
Y356547D02*
D03*
Y362453D02*
D03*
Y368358D02*
D03*
Y374264D02*
D03*
Y380169D02*
D03*
Y386075D02*
D03*
Y391980D02*
D03*
X363500D02*
D03*
Y386075D02*
D03*
Y380169D02*
D03*
Y374264D02*
D03*
Y368358D02*
D03*
Y362453D02*
D03*
Y356547D02*
D03*
Y350642D02*
D03*
D20*
X353421Y441500D02*
D03*
X343579D02*
D03*
D21*
X143291Y341000D02*
D03*
X149000D02*
D03*
X357854Y410000D02*
D03*
X352146D02*
D03*
X348791Y426500D02*
D03*
X354500D02*
D03*
D22*
X248736Y399941D02*
D03*
X250705D02*
D03*
X252673D02*
D03*
X254642D02*
D03*
X256610D02*
D03*
X258579D02*
D03*
X260547D02*
D03*
X262516D02*
D03*
X264484D02*
D03*
X266453D02*
D03*
X268421D02*
D03*
X270390D02*
D03*
X272358D02*
D03*
X274327D02*
D03*
X276295D02*
D03*
X278264D02*
D03*
Y355059D02*
D03*
X276295D02*
D03*
X274327D02*
D03*
X272358D02*
D03*
X270390D02*
D03*
X268421D02*
D03*
X266453D02*
D03*
X264484D02*
D03*
X262516D02*
D03*
X260547D02*
D03*
X258579D02*
D03*
X256610D02*
D03*
X254642D02*
D03*
X252673D02*
D03*
X250705D02*
D03*
X248736D02*
D03*
D23*
X285941Y392264D02*
D03*
Y390295D02*
D03*
Y388327D02*
D03*
Y386358D02*
D03*
Y384390D02*
D03*
Y382421D02*
D03*
Y380453D02*
D03*
Y378484D02*
D03*
Y376516D02*
D03*
Y374547D02*
D03*
Y372579D02*
D03*
Y370610D02*
D03*
Y368642D02*
D03*
Y366673D02*
D03*
Y364705D02*
D03*
Y362736D02*
D03*
X241059D02*
D03*
Y364705D02*
D03*
Y366673D02*
D03*
Y368642D02*
D03*
Y370610D02*
D03*
Y372579D02*
D03*
Y374547D02*
D03*
Y376516D02*
D03*
Y378484D02*
D03*
Y380453D02*
D03*
Y382421D02*
D03*
Y384390D02*
D03*
Y386358D02*
D03*
Y388327D02*
D03*
Y390295D02*
D03*
Y392264D02*
D03*
D24*
X259000Y450760D02*
D03*
Y458240D02*
D03*
D25*
X139500Y445500D02*
D03*
Y449358D02*
D03*
D26*
X118500Y442500D02*
D03*
Y449012D02*
D03*
D27*
X212488Y456047D02*
D03*
Y458016D02*
D03*
Y459984D02*
D03*
Y461953D02*
D03*
X223512D02*
D03*
Y459984D02*
D03*
Y458016D02*
D03*
Y456047D02*
D03*
D28*
X215047Y464512D02*
D03*
X217016D02*
D03*
X218984D02*
D03*
X220953D02*
D03*
Y453488D02*
D03*
X218984D02*
D03*
X217016D02*
D03*
X215047D02*
D03*
D29*
X307000Y440490D02*
D03*
Y437510D02*
D03*
D30*
X222000Y355500D02*
D03*
Y337784D02*
D03*
D31*
X173000Y357000D02*
D03*
X167685D02*
D03*
D32*
X241496Y316000D02*
D03*
X235000D02*
D03*
D33*
X288500Y333469D02*
D03*
Y328532D02*
D03*
D34*
X178441Y478083D02*
D03*
X181000D02*
D03*
X183559D02*
D03*
X175882D02*
D03*
X186118D02*
D03*
D35*
X120445Y466311D02*
D03*
Y492689D02*
D03*
D36*
X143083Y475563D02*
D03*
Y483437D02*
D03*
D37*
X199035Y431024D02*
D03*
Y448976D02*
D03*
D38*
X174626Y440000D02*
D03*
D39*
X153000Y436827D02*
D03*
Y440173D02*
D03*
D40*
X160000Y419157D02*
D03*
Y413843D02*
D03*
D41*
X222000Y478252D02*
D03*
Y484748D02*
D03*
D42*
X240000Y479047D02*
D03*
Y484953D02*
D03*
D43*
X241500Y456406D02*
D03*
Y450500D02*
D03*
D44*
X254850Y432500D02*
D03*
X261150D02*
D03*
X297350Y426000D02*
D03*
X303650D02*
D03*
X275850Y417500D02*
D03*
X282150D02*
D03*
X300850Y412000D02*
D03*
X307150D02*
D03*
X326850Y425000D02*
D03*
X333150D02*
D03*
X324850Y437000D02*
D03*
X331150D02*
D03*
X323850Y460000D02*
D03*
X330150D02*
D03*
X341701Y457000D02*
D03*
X348000D02*
D03*
D45*
X283000Y432000D02*
D03*
X275520D02*
D03*
X147760Y359000D02*
D03*
X155240D02*
D03*
D46*
X331000Y411500D02*
D03*
X318205D02*
D03*
D47*
X184453Y416500D02*
D03*
X178547D02*
D03*
D48*
X198047Y412000D02*
D03*
X203953D02*
D03*
D49*
X279000Y451146D02*
D03*
Y456854D02*
D03*
D50*
X209516Y487496D02*
D03*
Y476472D02*
D03*
D51*
X210500Y484937D02*
D03*
Y482969D02*
D03*
Y481000D02*
D03*
Y479031D02*
D03*
D52*
X256500Y479244D02*
D03*
Y484756D02*
D03*
D53*
X277000Y478654D02*
D03*
Y485346D02*
D03*
D54*
X119500Y354500D02*
D03*
D55*
X111724Y349579D02*
D03*
Y351547D02*
D03*
Y353516D02*
D03*
Y355484D02*
D03*
Y357453D02*
D03*
Y359421D02*
D03*
X127276D02*
D03*
Y357453D02*
D03*
Y355484D02*
D03*
Y353516D02*
D03*
Y351547D02*
D03*
Y349579D02*
D03*
D56*
X114579Y362374D02*
D03*
X116547D02*
D03*
X118516D02*
D03*
X120484D02*
D03*
X122453D02*
D03*
X124421D02*
D03*
Y346626D02*
D03*
X122453D02*
D03*
X120484D02*
D03*
X118516D02*
D03*
X116547D02*
D03*
X114579D02*
D03*
D87*
X141500Y417000D02*
D03*
D88*
X121815D02*
D03*
D97*
X218000Y459000D02*
D03*
D98*
X235358Y415205D02*
D03*
Y440795D02*
D03*
X217642D02*
D03*
X217500Y372910D02*
D03*
Y398500D02*
D03*
X199784D02*
D03*
X276000Y312410D02*
D03*
Y338000D02*
D03*
X258284D02*
D03*
X203858Y331705D02*
D03*
Y357295D02*
D03*
X186142D02*
D03*
X181858Y375205D02*
D03*
Y400795D02*
D03*
X164142D02*
D03*
D99*
X217642Y415205D02*
D03*
X199784Y372910D02*
D03*
X258284Y312410D02*
D03*
X186142Y331705D02*
D03*
X164142Y375205D02*
D03*
D100*
X307500Y460500D02*
D03*
X302500D02*
D03*
X307500Y465500D02*
D03*
X302500D02*
D03*
X307500Y470500D02*
D03*
X302539D02*
D03*
X307500Y475500D02*
D03*
X302500D02*
D03*
X307500Y480500D02*
D03*
X302500D02*
D03*
D101*
X171157Y482217D02*
D03*
X190843D02*
D03*
D102*
X165744Y493043D02*
D03*
X196256D02*
D03*
D103*
X166335Y478083D02*
D03*
X195665D02*
D03*
D104*
X346100Y493000D02*
D03*
X212900Y385384D02*
D03*
X330150Y447400D02*
D03*
X348000Y471300D02*
D03*
X212300Y453900D02*
D03*
X252400Y481516D02*
D03*
X221884Y471550D02*
D03*
X268900Y482000D02*
D03*
X258579Y348200D02*
D03*
X245000Y396100D02*
D03*
X264500Y404500D02*
D03*
X183100Y412700D02*
D03*
X270550Y394850D02*
D03*
X307564Y374264D02*
D03*
X296900Y384390D02*
D03*
X304600Y397650D02*
D03*
X253050Y420950D02*
D03*
X126300Y385000D02*
D03*
X245500Y345200D02*
D03*
X245900Y360900D02*
D03*
X250600Y350500D02*
D03*
X294250Y388327D02*
D03*
X181000Y468900D02*
D03*
X291250Y386400D02*
D03*
X183559Y461100D02*
D03*
X270800Y347400D02*
D03*
X223100Y406900D02*
D03*
X290533Y377440D02*
D03*
X261747Y347100D02*
D03*
X338300Y427600D02*
D03*
X337000Y438500D02*
D03*
X237400Y409450D02*
D03*
X241800Y443000D02*
D03*
X299300Y474900D02*
D03*
X316300Y488200D02*
D03*
X310700Y473000D02*
D03*
X285300Y409500D02*
D03*
X262516Y350300D02*
D03*
X266400Y412400D02*
D03*
X299800Y398300D02*
D03*
X259100Y439600D02*
D03*
X250877Y422850D02*
D03*
X206700Y483800D02*
D03*
X221900Y468600D02*
D03*
X242700Y474300D02*
D03*
X223600Y464600D02*
D03*
X213100Y449800D02*
D03*
X226300Y436900D02*
D03*
X215047Y467100D02*
D03*
X244300Y477300D02*
D03*
X179100Y421853D02*
D03*
X242700Y405300D02*
D03*
X343579Y431700D02*
D03*
X353334Y448287D02*
D03*
X244735Y412500D02*
D03*
X305000Y358800D02*
D03*
X255796Y330300D02*
D03*
X306900Y356100D02*
D03*
X369700Y406400D02*
D03*
X295250Y377421D02*
D03*
X299358Y375600D02*
D03*
X371600Y404200D02*
D03*
X292600Y366673D02*
D03*
Y354700D02*
D03*
X248736Y416672D02*
D03*
X229650Y410100D02*
D03*
X250705Y394900D02*
D03*
X173000Y380100D02*
D03*
X236600Y380453D02*
D03*
X267450Y436100D02*
D03*
X132188Y449012D02*
D03*
D105*
X219969Y457032D02*
D03*
X216032D02*
D03*
Y460969D02*
D03*
X219969D02*
D03*
X218000Y459000D02*
D03*
X123437Y358437D02*
D03*
Y354500D02*
D03*
Y350563D02*
D03*
X119500Y358437D02*
D03*
Y354500D02*
D03*
Y350563D02*
D03*
X115563Y358437D02*
D03*
Y354500D02*
D03*
Y350563D02*
D03*
M02*
