M48
;Layer_Color=9474304
;FILE_FORMAT=2:4
INCH,TZ
;TYPE=PLATED
T1F00S00C0.0079
T2F00S00C0.0100
T3F00S00C0.0118
T5F00S00C0.0295
T7F00S00C0.0394
T8F00S00C0.0433
;TYPE=NON_PLATED
T9F00S00C0.0315
%
T01
X11556Y35056
X11950
X12344
Y35450
Y35844
X11950
Y35450
X11556
Y35844
T02
X12630Y38500
X13219Y44901
X18356Y46110
X21230Y45390
X21310Y44980
X21505Y46710
X22190Y46860
X22360Y46460
X22630Y43690
X24180Y44300
X25910Y43960
X26745Y43610
X26640Y41240
X26450Y40450
X27055Y39485
X25070Y39490
X24500Y39610
X24270Y40530
X24474Y41250
X24874Y41667
X25088Y42285
X25305Y42095
X23740Y40945
X22965Y41010
X22310Y40690
X21290Y38538
X23660Y38045
X24590Y36090
X25060Y35050
X25858Y34820
X26175Y34710
X26252Y35030
X27080Y34740
X24550Y34520
X25580Y33030
X29260Y35470
Y36667
X29053Y37744
X29525Y37742
X29936Y37560
X30756Y37426
X30500Y35880
X30690Y35610
X29690Y38439
X29425Y38833
X29125Y38640
X29980Y39830
X30460Y39765
X28530Y40950
X18310Y41270
X17910Y42185
X17300Y38010
X33830Y42760
X34358Y43170
X33700Y43850
X33015Y44740
X35333Y44829
X36970Y40640
X37160Y40420
X34800Y47130
X34610Y49300
X31630Y48820
X31070Y47300
X29930Y47490
X26890Y48200
X25240Y48152
X24430Y47730
X24270Y47430
X22188Y47155
X20670Y48380
X18100Y46890
T03
X21603Y45703
X21800Y45900
X21997Y45703
Y46097
X21603
T05
X30250Y46050
X30750
Y46550
X30250
X30254Y47050
X30750
Y47550
X30250
Y48050
X30750
T07
X25828Y31241
X27600
Y33800
X25828
X20386Y33170
X18614
Y35730
X20386
X19978Y37291
X21750
Y39850
X21764Y41520
X23536
Y44080
X21764
X19978Y39850
X18186Y40080
X16414
Y37520
X18186
T08
X12181Y41700
X14150
T09
X17116Y48222
X19084
M30
