G04*
G04 #@! TF.GenerationSoftware,Altium Limited,Altium Designer,21.1.1 (26)*
G04*
G04 Layer_Color=8421504*
%FSLAX25Y25*%
%MOIN*%
G70*
G04*
G04 #@! TF.SameCoordinates,D9F95C0E-15A9-44F3-8ABD-4EC37FB7AC5F*
G04*
G04*
G04 #@! TF.FilePolarity,Positive*
G04*
G01*
G75*
G04:AMPARAMS|DCode=16|XSize=61.02mil|YSize=61.02mil|CornerRadius=1.83mil|HoleSize=0mil|Usage=FLASHONLY|Rotation=90.000|XOffset=0mil|YOffset=0mil|HoleType=Round|Shape=RoundedRectangle|*
%AMROUNDEDRECTD16*
21,1,0.06102,0.05736,0,0,90.0*
21,1,0.05736,0.06102,0,0,90.0*
1,1,0.00366,0.02868,0.02868*
1,1,0.00366,0.02868,-0.02868*
1,1,0.00366,-0.02868,-0.02868*
1,1,0.00366,-0.02868,0.02868*
%
%ADD16ROUNDEDRECTD16*%
%ADD17R,0.04473X0.01775*%
%ADD18O,0.08661X0.02362*%
%ADD19R,0.07677X0.03740*%
%ADD20R,0.03937X0.07087*%
%ADD21R,0.03740X0.04134*%
%ADD22R,0.01181X0.05906*%
%ADD23R,0.05906X0.01181*%
%ADD24R,0.06102X0.05512*%
%ADD25R,0.02913X0.03071*%
%ADD26R,0.03985X0.04560*%
G04:AMPARAMS|DCode=27|XSize=9.84mil|YSize=23.62mil|CornerRadius=1.97mil|HoleSize=0mil|Usage=FLASHONLY|Rotation=90.000|XOffset=0mil|YOffset=0mil|HoleType=Round|Shape=RoundedRectangle|*
%AMROUNDEDRECTD27*
21,1,0.00984,0.01968,0,0,90.0*
21,1,0.00591,0.02362,0,0,90.0*
1,1,0.00394,0.00984,0.00295*
1,1,0.00394,0.00984,-0.00295*
1,1,0.00394,-0.00984,-0.00295*
1,1,0.00394,-0.00984,0.00295*
%
%ADD27ROUNDEDRECTD27*%
G04:AMPARAMS|DCode=28|XSize=9.84mil|YSize=23.62mil|CornerRadius=1.97mil|HoleSize=0mil|Usage=FLASHONLY|Rotation=180.000|XOffset=0mil|YOffset=0mil|HoleType=Round|Shape=RoundedRectangle|*
%AMROUNDEDRECTD28*
21,1,0.00984,0.01968,0,0,180.0*
21,1,0.00591,0.02362,0,0,180.0*
1,1,0.00394,-0.00295,0.00984*
1,1,0.00394,0.00295,0.00984*
1,1,0.00394,0.00295,-0.00984*
1,1,0.00394,-0.00295,-0.00984*
%
%ADD28ROUNDEDRECTD28*%
%ADD29R,0.01860X0.02029*%
%ADD30R,0.13780X0.05315*%
%ADD31R,0.03347X0.03740*%
%ADD32R,0.03150X0.03150*%
%ADD33R,0.03197X0.02985*%
%ADD34R,0.01772X0.05118*%
%ADD35R,0.13386X0.05906*%
%ADD36R,0.13780X0.03937*%
%ADD37R,0.07087X0.03543*%
%ADD38R,0.24410X0.21457*%
%ADD39R,0.02362X0.02559*%
%ADD40R,0.03740X0.02756*%
%ADD41R,0.03150X0.03150*%
%ADD42R,0.05315X0.03937*%
%ADD43R,0.04921X0.03937*%
%ADD44R,0.03740X0.05315*%
%ADD45R,0.05512X0.05906*%
%ADD46R,0.04528X0.10630*%
%ADD47R,0.03937X0.04921*%
%ADD48R,0.03937X0.05315*%
%ADD49R,0.04134X0.03740*%
%ADD50R,0.03543X0.02362*%
%ADD51R,0.03150X0.01181*%
%ADD52R,0.04331X0.03937*%
%ADD53R,0.05709X0.04724*%
%ADD54R,0.10236X0.10630*%
%ADD55R,0.03347X0.01378*%
%ADD56R,0.01378X0.03150*%
D16*
X218000Y459000D02*
D03*
D17*
X126988Y382441D02*
D03*
Y387559D02*
D03*
X120000Y385000D02*
D03*
D18*
X324051Y490500D02*
D03*
Y485500D02*
D03*
Y480500D02*
D03*
Y475500D02*
D03*
X342949Y490500D02*
D03*
Y485500D02*
D03*
Y480500D02*
D03*
Y475500D02*
D03*
D19*
X313500Y350642D02*
D03*
Y356547D02*
D03*
Y362453D02*
D03*
Y368358D02*
D03*
Y374264D02*
D03*
Y380169D02*
D03*
Y386075D02*
D03*
Y391980D02*
D03*
X363500D02*
D03*
Y386075D02*
D03*
Y380169D02*
D03*
Y374264D02*
D03*
Y368358D02*
D03*
Y362453D02*
D03*
Y356547D02*
D03*
Y350642D02*
D03*
D20*
X353421Y441500D02*
D03*
X343579D02*
D03*
D21*
X143291Y341000D02*
D03*
X149000D02*
D03*
X357854Y410000D02*
D03*
X352146D02*
D03*
X348791Y426500D02*
D03*
X354500D02*
D03*
D22*
X248736Y399941D02*
D03*
X250705D02*
D03*
X252673D02*
D03*
X254642D02*
D03*
X256610D02*
D03*
X258579D02*
D03*
X260547D02*
D03*
X262516D02*
D03*
X264484D02*
D03*
X266453D02*
D03*
X268421D02*
D03*
X270390D02*
D03*
X272358D02*
D03*
X274327D02*
D03*
X276295D02*
D03*
X278264D02*
D03*
Y355059D02*
D03*
X276295D02*
D03*
X274327D02*
D03*
X272358D02*
D03*
X270390D02*
D03*
X268421D02*
D03*
X266453D02*
D03*
X264484D02*
D03*
X262516D02*
D03*
X260547D02*
D03*
X258579D02*
D03*
X256610D02*
D03*
X254642D02*
D03*
X252673D02*
D03*
X250705D02*
D03*
X248736D02*
D03*
D23*
X285941Y392264D02*
D03*
Y390295D02*
D03*
Y388327D02*
D03*
Y386358D02*
D03*
Y384390D02*
D03*
Y382421D02*
D03*
Y380453D02*
D03*
Y378484D02*
D03*
Y376516D02*
D03*
Y374547D02*
D03*
Y372579D02*
D03*
Y370610D02*
D03*
Y368642D02*
D03*
Y366673D02*
D03*
Y364705D02*
D03*
Y362736D02*
D03*
X241059D02*
D03*
Y364705D02*
D03*
Y366673D02*
D03*
Y368642D02*
D03*
Y370610D02*
D03*
Y372579D02*
D03*
Y374547D02*
D03*
Y376516D02*
D03*
Y378484D02*
D03*
Y380453D02*
D03*
Y382421D02*
D03*
Y384390D02*
D03*
Y386358D02*
D03*
Y388327D02*
D03*
Y390295D02*
D03*
Y392264D02*
D03*
D24*
X259000Y450760D02*
D03*
Y458240D02*
D03*
D25*
X139500Y445500D02*
D03*
Y449358D02*
D03*
D26*
X118500Y442500D02*
D03*
Y449012D02*
D03*
D27*
X212488Y456047D02*
D03*
Y458016D02*
D03*
Y459984D02*
D03*
Y461953D02*
D03*
X223512D02*
D03*
Y459984D02*
D03*
Y458016D02*
D03*
Y456047D02*
D03*
D28*
X215047Y464512D02*
D03*
X217016D02*
D03*
X218984D02*
D03*
X220953D02*
D03*
Y453488D02*
D03*
X218984D02*
D03*
X217016D02*
D03*
X215047D02*
D03*
D29*
X307000Y440490D02*
D03*
Y437510D02*
D03*
D30*
X222000Y355500D02*
D03*
Y337784D02*
D03*
D31*
X173000Y357000D02*
D03*
X167685D02*
D03*
D32*
X241496Y316000D02*
D03*
X235000D02*
D03*
D33*
X288500Y333469D02*
D03*
Y328532D02*
D03*
D34*
X178441Y478083D02*
D03*
X181000D02*
D03*
X183559D02*
D03*
X175882D02*
D03*
X186118D02*
D03*
D35*
X120445Y466311D02*
D03*
Y492689D02*
D03*
D36*
X143083Y475563D02*
D03*
Y483437D02*
D03*
D37*
X199035Y431024D02*
D03*
Y448976D02*
D03*
D38*
X174626Y440000D02*
D03*
D39*
X153000Y436827D02*
D03*
Y440173D02*
D03*
D40*
X160000Y419157D02*
D03*
Y413843D02*
D03*
D41*
X222000Y478252D02*
D03*
Y484748D02*
D03*
D42*
X240000Y479047D02*
D03*
Y484953D02*
D03*
D43*
X241500Y456406D02*
D03*
Y450500D02*
D03*
D44*
X254850Y432500D02*
D03*
X261150D02*
D03*
X297350Y426000D02*
D03*
X303650D02*
D03*
X275850Y417500D02*
D03*
X282150D02*
D03*
X300850Y412000D02*
D03*
X307150D02*
D03*
X326850Y425000D02*
D03*
X333150D02*
D03*
X324850Y437000D02*
D03*
X331150D02*
D03*
X323850Y460000D02*
D03*
X330150D02*
D03*
X341701Y457000D02*
D03*
X348000D02*
D03*
D45*
X283000Y432000D02*
D03*
X275520D02*
D03*
X147760Y359000D02*
D03*
X155240D02*
D03*
D46*
X331000Y411500D02*
D03*
X318205D02*
D03*
D47*
X184453Y416500D02*
D03*
X178547D02*
D03*
D48*
X198047Y412000D02*
D03*
X203953D02*
D03*
D49*
X279000Y451146D02*
D03*
Y456854D02*
D03*
D50*
X209516Y487496D02*
D03*
Y476472D02*
D03*
D51*
X210500Y484937D02*
D03*
Y482969D02*
D03*
Y481000D02*
D03*
Y479031D02*
D03*
D52*
X256500Y479244D02*
D03*
Y484756D02*
D03*
D53*
X277000Y478654D02*
D03*
Y485346D02*
D03*
D54*
X119500Y354500D02*
D03*
D55*
X111724Y349579D02*
D03*
Y351547D02*
D03*
Y353516D02*
D03*
Y355484D02*
D03*
Y357453D02*
D03*
Y359421D02*
D03*
X127276D02*
D03*
Y357453D02*
D03*
Y355484D02*
D03*
Y353516D02*
D03*
Y351547D02*
D03*
Y349579D02*
D03*
D56*
X114579Y362374D02*
D03*
X116547D02*
D03*
X118516D02*
D03*
X120484D02*
D03*
X122453D02*
D03*
X124421D02*
D03*
Y346626D02*
D03*
X122453D02*
D03*
X120484D02*
D03*
X118516D02*
D03*
X116547D02*
D03*
X114579D02*
D03*
M02*
