G04*
G04 #@! TF.GenerationSoftware,Altium Limited,Altium Designer,21.1.1 (26)*
G04*
G04 Layer_Physical_Order=1*
G04 Layer_Color=255*
%FSLAX25Y25*%
%MOIN*%
G70*
G04*
G04 #@! TF.SameCoordinates,5102835C-3560-4A17-A812-28AB7356CC0A*
G04*
G04*
G04 #@! TF.FilePolarity,Positive*
G04*
G01*
G75*
%ADD13C,0.00600*%
%ADD17R,0.03197X0.02985*%
%ADD18R,0.06102X0.05906*%
%ADD19R,0.03150X0.01181*%
%ADD20R,0.03543X0.02362*%
%ADD21R,0.03150X0.03150*%
G04:AMPARAMS|DCode=22|XSize=9.84mil|YSize=23.62mil|CornerRadius=1.97mil|HoleSize=0mil|Usage=FLASHONLY|Rotation=180.000|XOffset=0mil|YOffset=0mil|HoleType=Round|Shape=RoundedRectangle|*
%AMROUNDEDRECTD22*
21,1,0.00984,0.01968,0,0,180.0*
21,1,0.00591,0.02362,0,0,180.0*
1,1,0.00394,-0.00295,0.00984*
1,1,0.00394,0.00295,0.00984*
1,1,0.00394,0.00295,-0.00984*
1,1,0.00394,-0.00295,-0.00984*
%
%ADD22ROUNDEDRECTD22*%
G04:AMPARAMS|DCode=23|XSize=9.84mil|YSize=23.62mil|CornerRadius=1.97mil|HoleSize=0mil|Usage=FLASHONLY|Rotation=90.000|XOffset=0mil|YOffset=0mil|HoleType=Round|Shape=RoundedRectangle|*
%AMROUNDEDRECTD23*
21,1,0.00984,0.01968,0,0,90.0*
21,1,0.00591,0.02362,0,0,90.0*
1,1,0.00394,0.00984,0.00295*
1,1,0.00394,0.00984,-0.00295*
1,1,0.00394,-0.00984,-0.00295*
1,1,0.00394,-0.00984,0.00295*
%
%ADD23ROUNDEDRECTD23*%
%ADD24R,0.03788X0.03681*%
%ADD25R,0.02165X0.02362*%
%ADD26R,0.02648X0.02816*%
%ADD27R,0.02362X0.01968*%
%ADD28R,0.04473X0.01775*%
%ADD29O,0.08661X0.02362*%
%ADD30R,0.07677X0.03740*%
%ADD31R,0.03937X0.07087*%
%ADD32R,0.03740X0.04134*%
%ADD33R,0.01181X0.05906*%
%ADD34R,0.05906X0.01181*%
%ADD35R,0.02913X0.03071*%
%ADD36R,0.03985X0.04560*%
%ADD37R,0.01860X0.02029*%
%ADD38R,0.13780X0.05315*%
%ADD39R,0.03347X0.03740*%
%ADD40R,0.03150X0.03150*%
%ADD41R,0.01772X0.05118*%
%ADD42R,0.13386X0.05906*%
%ADD43R,0.13780X0.03937*%
%ADD44R,0.07087X0.03543*%
%ADD45R,0.24410X0.21457*%
%ADD46R,0.02362X0.02559*%
%ADD47R,0.03740X0.02756*%
%ADD48R,0.03740X0.05315*%
%ADD49R,0.05512X0.05906*%
%ADD50R,0.04528X0.10630*%
%ADD51R,0.03937X0.04921*%
%ADD52R,0.03937X0.05315*%
%ADD53R,0.10236X0.10630*%
%ADD54R,0.03347X0.01378*%
%ADD55R,0.01378X0.03150*%
%ADD82R,0.06693X0.06693*%
%ADD83C,0.06693*%
G04:AMPARAMS|DCode=92|XSize=66.93mil|YSize=66.93mil|CornerRadius=2.01mil|HoleSize=0mil|Usage=FLASHONLY|Rotation=90.000|XOffset=0mil|YOffset=0mil|HoleType=Round|Shape=RoundedRectangle|*
%AMROUNDEDRECTD92*
21,1,0.06693,0.06291,0,0,90.0*
21,1,0.06291,0.06693,0,0,90.0*
1,1,0.00402,0.03146,0.03146*
1,1,0.00402,0.03146,-0.03146*
1,1,0.00402,-0.03146,-0.03146*
1,1,0.00402,-0.03146,0.03146*
%
%ADD92ROUNDEDRECTD92*%
%ADD93C,0.05906*%
%ADD94R,0.05906X0.05906*%
%ADD95C,0.03200*%
%ADD96C,0.03150*%
%ADD97O,0.04528X0.07087*%
%ADD98O,0.05709X0.07874*%
%ADD99C,0.02000*%
%ADD100C,0.01968*%
D13*
X199000Y431024D02*
Y441921D01*
X300083Y391980D02*
X308750D01*
X296414Y392950D02*
X299114D01*
X290986D02*
X296414D01*
X172488Y415546D02*
X178547D01*
X148437Y416500D02*
X164142Y400795D01*
X147937Y417000D02*
X148437Y416500D01*
X171534D01*
X141500D02*
X148437D01*
X225900Y355500D02*
Y410000D01*
X224500Y355500D02*
Y399900D01*
X225900Y355500D02*
X234651D01*
X222000D02*
X224500D01*
X124421Y361100D02*
X136400D01*
X339600Y456200D02*
X341701D01*
X285468Y463000D02*
X305000D01*
X281500D02*
X285468D01*
X286250Y462218D01*
X285000Y463468D02*
X285468Y463000D01*
X286150Y432000D02*
X295350D01*
X283000D02*
X286150D01*
X339500Y456100D02*
Y456900D01*
Y432900D02*
Y456100D01*
Y422947D02*
Y432900D01*
X285900Y333569D02*
Y362736D01*
X286000Y333469D02*
X288500D01*
X262815D02*
X286000D01*
X256750Y480700D02*
X261200Y476250D01*
X253918Y483532D02*
X256750Y480700D01*
X222800Y454300D02*
Y456047D01*
X222400Y461953D02*
Y467500D01*
X220953Y454200D02*
X222700D01*
X176266Y458016D02*
X206250D01*
X160500Y413843D02*
X161900D01*
X160500Y410100D02*
Y413843D01*
X161900D02*
X165357D01*
X160000D02*
X160500D01*
X155240Y350000D02*
Y354100D01*
X129800Y357453D02*
X140700D01*
X127276D02*
X129800D01*
X116150Y338000D02*
X117250Y336900D01*
X111700Y346500D02*
Y349579D01*
X220334Y449900D02*
X242013D01*
X219400D02*
X220334D01*
X238400Y392264D02*
Y401400D01*
X343579Y439900D02*
X347900D01*
X236073Y489673D02*
X262173D01*
X322100Y415300D02*
X331000D01*
X344500Y451200D02*
Y475500D01*
X243700Y357400D02*
X248736D01*
X347300Y478300D02*
Y480500D01*
Y483300D02*
Y485500D01*
X187500Y461953D02*
X208000D01*
X199000Y431024D02*
X199035D01*
X199000Y441921D02*
X203479Y446400D01*
Y451600D01*
X203379Y451700D02*
X203479Y451600D01*
X158750Y451700D02*
X203379D01*
X157200Y450150D02*
X158750Y451700D01*
X157200Y447500D02*
Y450150D01*
X155200Y445500D02*
X157200Y447500D01*
X139500Y445500D02*
X155200D01*
X151500Y359100D02*
Y364000D01*
X147760Y359000D02*
X151500Y359100D01*
X313500Y391980D02*
Y398750D01*
X316650Y401900D01*
X332500D01*
X334200Y403600D01*
Y417350D01*
X333150Y418400D02*
X334200Y417350D01*
X333150Y418400D02*
Y425000D01*
X224500Y355500D02*
X225900D01*
Y410000D02*
X227252Y411352D01*
X237007D01*
X251905Y426250D01*
X259900D01*
X261150Y427500D01*
Y432500D01*
X221200Y403200D02*
X224500Y399900D01*
X262500Y453000D02*
X266500D01*
X266600Y479100D01*
X265000Y480700D02*
X266600Y479100D01*
X256750Y480700D02*
X265000D01*
X251000Y483532D02*
X253918D01*
X243500Y457616D02*
X247500D01*
X257384Y467500D01*
X259950D01*
X261200Y468750D01*
Y476250D01*
X314900Y475500D02*
X324051D01*
X309900Y470500D02*
X314900Y475500D01*
X307500Y470500D02*
X309900D01*
X165357Y413843D02*
X166100Y413100D01*
X187300D01*
X187400Y413200D01*
Y439900D01*
X187300Y440000D02*
X187400Y439900D01*
X174626Y440000D02*
X187300D01*
X235358Y380453D02*
X241059D01*
X203953Y412000D02*
X207000D01*
X214500Y419500D01*
X231063D01*
X235358Y415205D01*
X258579Y350821D02*
Y355059D01*
Y350821D02*
X258600Y350800D01*
X339600Y457000D02*
X341701D01*
X339500Y456900D02*
X339600Y457000D01*
X335000Y418447D02*
X339500Y422947D01*
X335000Y418247D02*
Y418447D01*
Y418247D02*
X344447Y408800D01*
X348076D01*
X349843Y407033D01*
X354800D01*
X354916Y407149D01*
Y409900D01*
X355016Y410000D01*
X357854D01*
X326850Y420146D02*
Y425000D01*
X324105Y417400D02*
X326850Y420146D01*
X318305Y417400D02*
X324105D01*
X318205Y411500D02*
X318305Y417400D01*
X258284Y338000D02*
X262815Y333469D01*
X258284Y322516D02*
Y338000D01*
Y322516D02*
X272300Y308500D01*
X281600D01*
X296000Y322900D01*
Y344178D01*
X308700Y356878D01*
Y374164D01*
X313500Y374264D01*
X268421Y399941D02*
Y403700D01*
X276401Y410483D01*
Y413181D01*
X275850Y417500D02*
X276401Y413181D01*
X235358Y415205D02*
X247653Y427500D01*
X253600D01*
X254850Y428750D01*
Y432500D01*
X297350Y426000D02*
Y430000D01*
X295350Y432000D02*
X297350Y430000D01*
X173000Y357000D02*
Y359750D01*
X173550Y360300D01*
Y374650D01*
X241232Y395132D02*
X249586D01*
X250705Y396250D01*
Y399941D01*
X149000Y338400D02*
Y341000D01*
X147500Y336900D02*
X149000Y338400D01*
X117250Y336900D02*
X147500D01*
X114579Y339571D02*
Y346626D01*
Y339571D02*
X116150Y338000D01*
X146000D01*
X146100Y338100D01*
Y352053D01*
X140700Y357453D02*
X146100Y352053D01*
X143083Y483437D02*
X146937D01*
X149100Y485600D01*
X180500D01*
X181700Y484400D01*
X218500Y449000D02*
X219400Y449900D01*
X242013D02*
X252200Y460087D01*
X262500D01*
X363500Y350642D02*
X370242D01*
X372100Y352500D01*
Y406933D01*
X372000Y407033D02*
X372100Y406933D01*
X357200Y407033D02*
X372000D01*
X355367Y405200D02*
X357200Y407033D01*
X348600Y405200D02*
X355367D01*
X293200Y368623D02*
Y379500D01*
X291250Y366673D02*
X293200Y368623D01*
X285941Y366673D02*
X291250D01*
X363500Y356547D02*
X368750D01*
X370900Y358697D01*
Y405000D01*
X370067Y405833D02*
X370900Y405000D01*
X358822Y405833D02*
X370067D01*
X356222Y403233D02*
X358822Y405833D01*
X346800Y403233D02*
X356222D01*
X342250Y407783D02*
X346800Y403233D01*
X292500Y382300D02*
Y385812D01*
X292300Y382100D02*
X292500Y382300D01*
X288921Y382100D02*
X292300D01*
X288600Y382421D02*
X288921Y382100D01*
X285941Y382421D02*
X288600D01*
X363500Y362453D02*
X368403D01*
X369700Y363750D01*
Y401700D01*
X369367Y402033D02*
X369700Y401700D01*
X344184Y402033D02*
X369367D01*
X341017Y405200D02*
X344184Y402033D01*
X281600Y369000D02*
X285583D01*
X285941Y368642D01*
Y384390D02*
X290110D01*
X290500Y384000D01*
X337300Y404150D02*
Y409600D01*
Y404150D02*
X340617Y400833D01*
X362267D01*
X368300Y394800D01*
Y368458D02*
Y394800D01*
X363500Y368358D02*
X368300Y368458D01*
X312069Y380169D02*
X313500D01*
X303687Y371787D02*
X312069Y380169D01*
X303687Y366437D02*
Y371787D01*
X291000Y353750D02*
X303687Y366437D01*
X291000Y331100D02*
Y353750D01*
X290900Y331000D02*
X291000Y331100D01*
X286100Y331000D02*
X290900D01*
X276000Y320900D02*
X286100Y331000D01*
X276000Y312410D02*
Y320900D01*
X241496Y310000D02*
Y316000D01*
Y310000D02*
X244296Y307200D01*
X288700D01*
X298500Y317000D01*
Y343547D01*
X311500Y356547D01*
X313500D01*
X308200Y350642D02*
X313500D01*
X304900Y347342D02*
X308200Y350642D01*
X304900Y344300D02*
Y347342D01*
X227437Y316000D02*
X235000D01*
X186142Y357295D02*
X227437Y316000D01*
X292900Y330000D02*
Y349200D01*
X291432Y328532D02*
X292900Y330000D01*
X288500Y328532D02*
X291432D01*
X241059Y390295D02*
X244900D01*
X245700Y391095D01*
Y393200D01*
X348600Y412100D02*
Y413600D01*
X354500Y419500D01*
Y426500D01*
X272358Y399941D02*
Y403308D01*
X281900Y412850D01*
X283750D01*
X285000Y414100D01*
Y422550D01*
X283750Y423800D02*
X285000Y422550D01*
X280500Y423800D02*
X283750D01*
X258000Y475173D02*
X259900D01*
X260000Y475073D01*
Y469500D02*
Y475073D01*
X259900Y469400D02*
X260000Y469500D01*
X238084Y469400D02*
X259900D01*
X226700Y458016D02*
X238084Y469400D01*
X223512Y458016D02*
X226700D01*
X264000Y486327D02*
X265900D01*
X266000Y486427D01*
Y491250D01*
X264750Y492500D02*
X266000Y491250D01*
X220584Y492500D02*
X264750D01*
X213021Y484937D02*
X220584Y492500D01*
X210500Y484937D02*
X213021D01*
X228425Y471827D02*
X258000D01*
X222000Y478252D02*
X228425Y471827D01*
X211600Y464400D02*
X215047Y464512D01*
X243400Y464400D02*
X243500Y464300D01*
Y461384D02*
Y464300D01*
X223512Y459984D02*
X225256D01*
X226181Y460910D01*
Y466144D01*
X218325Y474000D02*
X226181Y466144D01*
X218325Y474000D02*
Y481073D01*
X222000Y484748D01*
X210500Y479031D02*
X213200D01*
X213300Y473903D01*
X220953Y466250D01*
Y464512D02*
Y466250D01*
X274300Y438500D02*
Y450100D01*
X269050Y433250D02*
X274300Y438500D01*
X269050Y413425D02*
Y433250D01*
X262516Y406891D02*
X269050Y413425D01*
X262516Y399941D02*
Y406891D01*
X305200Y437510D02*
X307000D01*
X303600Y439110D02*
X305200Y437510D01*
X303600Y439110D02*
Y444700D01*
X331000Y411500D02*
Y415300D01*
X266453Y403753D02*
X274500Y411800D01*
X266453Y399941D02*
Y403753D01*
X126988Y382441D02*
X168750D01*
X171650Y379541D01*
Y362200D02*
Y379541D01*
X264400Y350684D02*
X264484Y350768D01*
Y355059D01*
X121815Y386815D02*
Y417000D01*
X120000Y385000D02*
X121815Y386815D01*
X310000Y485500D02*
X324051D01*
X278600Y457700D02*
Y472100D01*
X266025Y445125D02*
X278600Y457700D01*
X266025Y415751D02*
Y445125D01*
X255974Y405700D02*
X266025Y415751D01*
X235000Y405700D02*
X255974D01*
X233400Y404100D02*
X235000Y405700D01*
X233400Y362350D02*
Y404100D01*
Y362350D02*
X236250Y359500D01*
X245100D01*
X245500Y359100D01*
X249905D01*
X250705Y358300D01*
Y355059D02*
Y358300D01*
X318000Y480500D02*
X324051D01*
X310500Y473000D02*
X318000Y480500D01*
X295800Y473000D02*
X310500D01*
X282300Y486500D02*
X295800Y473000D01*
X275000Y486500D02*
X282300D01*
X273600Y485100D02*
X275000Y486500D01*
X273600Y456800D02*
Y485100D01*
X264000Y447200D02*
X273600Y456800D01*
X264000Y418700D02*
Y447200D01*
X253000Y407700D02*
X264000Y418700D01*
X232600Y407700D02*
X253000D01*
X231000Y406100D02*
X232600Y407700D01*
X231000Y362546D02*
Y406100D01*
Y362546D02*
X242546Y351000D01*
X252573D01*
X252673Y355059D01*
X248736D02*
Y357400D01*
X348392Y422500D02*
X350350D01*
X351600Y423750D01*
Y431400D01*
X350000Y433000D02*
X351600Y431400D01*
X343100Y433000D02*
X350000D01*
X340700Y435400D02*
X343100Y433000D01*
X340700Y435400D02*
Y447400D01*
X344500Y451200D01*
X342949Y475500D02*
X344500D01*
X342949Y480500D02*
X347300D01*
X260547Y347284D02*
Y355059D01*
X342949Y485500D02*
X347300D01*
X238662Y409162D02*
X243232Y413732D01*
X230262Y409162D02*
X238662D01*
X229343Y408243D02*
X230262Y409162D01*
X229343Y362506D02*
Y408243D01*
Y362506D02*
X242448Y349400D01*
X253816D01*
X254642Y355059D01*
X270390Y343710D02*
X271700Y342400D01*
X270390Y343710D02*
Y355059D01*
X183559Y478083D02*
Y482262D01*
X183600Y482303D01*
Y488000D01*
X193100Y497500D01*
X298000Y402000D02*
Y420300D01*
Y402000D02*
X303400Y396600D01*
X289908Y386358D02*
X293400Y389850D01*
X285941Y386358D02*
X289908D01*
X186118Y463335D02*
X187500Y461953D01*
X186118Y463335D02*
Y478083D01*
X236000Y476457D02*
X239925D01*
X247000Y483532D01*
X251000D01*
X236000Y483543D02*
X241857D01*
X250227Y475173D02*
X258000D01*
X217016Y464512D02*
Y468300D01*
X216683Y468633D02*
X217016Y468300D01*
X211917Y468633D02*
X216683D01*
X206800Y473750D02*
X211917Y468633D01*
X206800Y473750D02*
Y492500D01*
X208400Y494100D01*
X266180D01*
X267200Y493080D01*
Y484300D02*
Y493080D01*
X267100Y484200D02*
X267200Y484300D01*
X262100Y484200D02*
X267100D01*
X262000Y484300D02*
X262100Y484200D01*
X262000Y484300D02*
Y489500D01*
X262173Y489673D01*
X264000D01*
X231250Y476457D02*
X236000D01*
X230000Y477707D02*
X231250Y476457D01*
X230000Y477707D02*
Y486050D01*
X228750Y487300D02*
X230000Y486050D01*
X218750Y487300D02*
X228750D01*
X217100Y485650D02*
X218750Y487300D01*
X217100Y472800D02*
Y485650D01*
Y472800D02*
X222400Y467500D01*
Y461953D02*
X223512D01*
X218984Y451250D02*
X220334Y449900D01*
X218984Y451250D02*
Y453488D01*
X206250Y458016D02*
X212488D01*
X204679Y456445D02*
X206250Y458016D01*
X204679Y445831D02*
Y456445D01*
X203953Y445105D02*
X204679Y445831D01*
X203953Y412000D02*
Y445105D01*
X175882Y458400D02*
X176266Y458016D01*
X175882Y458400D02*
Y478083D01*
X207753Y456047D02*
X212488D01*
X248300Y485900D02*
X250900D01*
X251000Y486000D01*
Y487469D01*
X111700Y349579D02*
X111724D01*
X109300Y344100D02*
X111700Y346500D01*
X244350Y403100D02*
X248636D01*
X248736Y403000D01*
Y399941D02*
Y403000D01*
X222000Y337784D02*
X237800D01*
X242316Y342300D01*
X267910D01*
X272210Y338000D01*
X276000D01*
X203953Y404644D02*
Y412000D01*
Y404644D02*
X205044Y403553D01*
Y392400D02*
Y403553D01*
X204938Y392293D02*
X205044Y392400D01*
X183449Y392293D02*
X204938D01*
X161900Y413843D02*
X183449Y392293D01*
X198047Y407942D02*
Y412000D01*
Y407942D02*
X203636Y402353D01*
Y394736D02*
Y402353D01*
X203100Y394200D02*
X203636Y394736D01*
X314600Y490500D02*
X324051D01*
X312700Y488600D02*
X314600Y490500D01*
X211400Y346250D02*
Y408700D01*
Y346250D02*
X213150Y344500D01*
X261250D01*
X262500Y345750D01*
Y352484D01*
X262516Y352500D01*
Y355059D01*
X290000Y376516D02*
X291300Y375216D01*
X285941Y376516D02*
X290000D01*
X267300Y439500D02*
X272300Y444500D01*
X267300Y414397D02*
Y439500D01*
X258579Y405676D02*
X267300Y414397D01*
X258579Y399941D02*
Y405676D01*
X302500Y447320D02*
Y460500D01*
X301700Y446520D02*
X302500Y447320D01*
X301700Y436400D02*
Y446520D01*
Y436400D02*
X306500Y431600D01*
Y421900D02*
Y431600D01*
X305300Y420700D02*
X306500Y421900D01*
X305300Y417400D02*
Y420700D01*
X303700Y415800D02*
X305300Y417400D01*
X303700Y404900D02*
Y415800D01*
X260500Y404900D02*
X260547Y404853D01*
Y399941D02*
Y404853D01*
X208000Y461953D02*
X212488D01*
X281500Y454950D02*
Y458532D01*
X273317Y489317D02*
X279500D01*
X271500Y487500D02*
X273317Y489317D01*
X271500Y466200D02*
Y487500D01*
X207900Y452000D02*
X214947D01*
X215047Y452100D01*
Y453488D01*
X236000Y483543D02*
Y489600D01*
X236073Y489673D01*
X285941Y390295D02*
X290045D01*
X291500Y391750D01*
X294245D01*
X295550Y390445D01*
Y362886D02*
Y390445D01*
X295400Y362736D02*
X295550Y362886D01*
X285941Y362736D02*
X295400D01*
X285941Y364705D02*
X293500D01*
Y360800D02*
X295400D01*
X297100Y362500D01*
Y392264D01*
X296414Y392950D02*
X297100Y392264D01*
X290300D02*
X290986Y392950D01*
X299114D02*
X300083Y391980D01*
X285941Y392264D02*
X290300D01*
X140447Y341000D02*
X143291D01*
X129900Y351547D02*
X140447Y341000D01*
X127276Y351547D02*
X129900D01*
X346450Y410000D02*
X352146D01*
X337900Y418550D02*
X346450Y410000D01*
X238400Y401400D02*
X239400Y402400D01*
X238400Y392264D02*
X241059D01*
X222800Y456047D02*
X223512D01*
X222700Y454200D02*
X222800Y454300D01*
X220953Y453488D02*
Y454200D01*
X302500Y480500D02*
Y482900D01*
X315000Y495400D01*
X346550D01*
X350400Y491550D01*
Y477000D02*
Y491550D01*
X348000Y474600D02*
X350400Y477000D01*
X348000Y457000D02*
Y474600D01*
X342949Y490500D02*
X347800D01*
X347900Y490400D01*
Y487700D02*
Y490400D01*
X330150Y460000D02*
X335200D01*
X110000Y351547D02*
X111724D01*
X107951Y353596D02*
X110000Y351547D01*
X107951Y353596D02*
Y413064D01*
X118500Y423613D01*
Y442500D01*
X115600Y425500D02*
Y448912D01*
X115700Y449012D01*
X118500D01*
X256610Y349611D02*
Y355059D01*
X254899Y347900D02*
X256610Y349611D01*
X242251Y347900D02*
X254899D01*
X234651Y355500D02*
X242251Y347900D01*
X264484Y399941D02*
Y406331D01*
X270950Y412796D01*
Y421450D01*
X181000Y466400D02*
Y478083D01*
X287600Y407400D02*
Y423050D01*
X280888Y400688D02*
X287600Y407400D01*
X280888Y389539D02*
Y400688D01*
Y389539D02*
X282100Y388327D01*
X285941D01*
X141500Y417000D02*
X147937D01*
X281500Y463468D02*
X285000D01*
X286250Y432100D02*
Y462218D01*
X286150Y432000D02*
X286250Y432100D01*
X237300Y378484D02*
X241059D01*
X237200Y378384D02*
X237300Y378484D01*
X237200Y360924D02*
Y378384D01*
Y360924D02*
X237300Y360824D01*
X247251D01*
X247525Y360550D01*
X254950D01*
X256610Y358890D01*
Y355059D02*
Y358890D01*
X307150Y393581D02*
Y412000D01*
Y393581D02*
X308750Y391980D01*
X313500D01*
X282193Y390295D02*
X285941D01*
X282088Y390400D02*
X282193Y390295D01*
X282088Y390400D02*
Y394288D01*
X292500Y404700D01*
Y419450D01*
X297350Y424300D01*
Y426000D01*
X184453Y416500D02*
Y427500D01*
X353421Y436079D02*
Y441500D01*
Y436079D02*
X357700Y431800D01*
Y420954D02*
Y431800D01*
X352146Y415400D02*
X357700Y420954D01*
X352146Y410000D02*
Y415400D01*
X129800Y357453D02*
X129900Y357353D01*
Y353616D02*
Y357353D01*
X129800Y353516D02*
X129900Y353616D01*
X127276Y353516D02*
X129800D01*
X109298Y357453D02*
X111724D01*
X109151Y357600D02*
X109298Y357453D01*
X109151Y357600D02*
Y366601D01*
X111250Y368700D01*
X166250D01*
X167685Y367265D01*
Y357000D02*
Y367265D01*
X149000Y341000D02*
Y343760D01*
X155240Y350000D01*
Y354100D02*
Y359000D01*
Y354100D02*
X155393Y353947D01*
X172647D01*
X173000Y354300D01*
Y357000D01*
X341701Y456200D02*
Y457000D01*
X339500Y456100D02*
X339600Y456200D01*
X339500Y432900D02*
X345900Y426500D01*
X348791D01*
X281500Y463000D02*
Y463468D01*
X305000Y463000D02*
X307500Y465500D01*
X160500Y410100D02*
X181800Y388800D01*
X206600D01*
X207900Y387500D01*
Y340500D02*
Y387500D01*
Y340500D02*
X214200Y334200D01*
X254484D01*
X258284Y338000D01*
X343579Y439900D02*
Y441500D01*
X347900Y439900D02*
X354500Y433300D01*
Y426500D02*
Y433300D01*
X141500Y416500D02*
Y417000D01*
X171534Y416500D02*
X172488Y415546D01*
X178547D02*
Y416500D01*
X149973Y440173D02*
X153000D01*
X131700Y421900D02*
X149973Y440173D01*
X131700Y389259D02*
Y421900D01*
X130000Y387559D02*
X131700Y389259D01*
X126988Y387559D02*
X130000D01*
X155000Y419157D02*
X160000D01*
X153000Y421157D02*
X155000Y419157D01*
X153000Y421157D02*
Y436827D01*
X262500Y440150D02*
Y453000D01*
X254850Y432500D02*
X262500Y440150D01*
X128100Y449358D02*
X139500D01*
X121242Y442500D02*
X128100Y449358D01*
X118500Y442500D02*
X121242D01*
X341701Y457000D02*
Y463750D01*
X340451Y465000D02*
X341701Y463750D01*
X328850Y465000D02*
X340451D01*
X323850Y460000D02*
X328850Y465000D01*
X240556Y457616D02*
X243500D01*
X238988Y456047D02*
X240556Y457616D01*
X223512Y456047D02*
X238988D01*
X124421Y361100D02*
Y362374D01*
X136400Y361100D02*
X138500Y359000D01*
X147760D01*
X285900Y333569D02*
X286000Y333469D01*
X285900Y362736D02*
X285941D01*
X192376Y448976D02*
X199035D01*
X190900Y447500D02*
X192376Y448976D01*
X190900Y407384D02*
Y447500D01*
Y407384D02*
X199784Y398500D01*
X307000Y440490D02*
X308800D01*
X308900Y440390D01*
Y421600D02*
Y440390D01*
X307150Y419850D02*
X308900Y421600D01*
X307150Y412000D02*
Y419850D01*
X331150Y432000D02*
Y437000D01*
Y432000D02*
X333150Y430000D01*
Y425000D02*
Y430000D01*
X330150Y449000D02*
Y460000D01*
Y449000D02*
X331150Y448000D01*
Y437000D02*
Y448000D01*
X307500Y450700D02*
Y460500D01*
X307000Y450200D02*
X307500Y450700D01*
X307000Y440490D02*
Y450200D01*
X212488Y458016D02*
Y459984D01*
X279500Y474500D02*
Y483683D01*
Y474500D02*
X281500Y472500D01*
Y463468D02*
Y472500D01*
X324051Y467801D02*
Y475500D01*
X323850Y467600D02*
X324051Y467801D01*
X323850Y460000D02*
Y467600D01*
X307500Y465500D02*
Y470500D01*
X173683Y478083D02*
X175882D01*
X168400Y472800D02*
X173683Y478083D01*
X156063Y472800D02*
X168400D01*
X153300Y475563D02*
X156063Y472800D01*
X143083Y475563D02*
X153300D01*
X143083Y464183D02*
Y475563D01*
X139500Y460600D02*
X143083Y464183D01*
X139500Y449358D02*
Y460600D01*
X323850Y449000D02*
Y460000D01*
Y449000D02*
X324850Y448000D01*
Y437000D02*
Y448000D01*
Y432000D02*
Y437000D01*
Y432000D02*
X326850Y430000D01*
Y425000D02*
Y430000D01*
X303650Y420399D02*
Y426000D01*
X300850Y417600D02*
X303650Y420399D01*
X300850Y412000D02*
Y417600D01*
X297350Y426000D02*
X303650D01*
X275850Y417500D02*
X282150D01*
X275520Y424831D02*
Y432000D01*
Y424831D02*
X275850Y424500D01*
Y417500D02*
Y424500D01*
X275520Y432000D02*
X283000D01*
X217016Y453488D02*
X218984D01*
X217016Y464512D02*
X218984D01*
D17*
X281500Y463468D02*
D03*
Y458532D02*
D03*
X288500Y333469D02*
D03*
Y328532D02*
D03*
D18*
X262500Y460087D02*
D03*
Y453000D02*
D03*
X236000Y483543D02*
D03*
Y476457D02*
D03*
D19*
X210500Y479031D02*
D03*
Y481000D02*
D03*
Y482969D02*
D03*
Y484937D02*
D03*
D20*
X209516Y476472D02*
D03*
Y487496D02*
D03*
D21*
X222000Y484748D02*
D03*
Y478252D02*
D03*
D22*
X215047Y453488D02*
D03*
X217016D02*
D03*
X218984D02*
D03*
X220953D02*
D03*
Y464512D02*
D03*
X218984D02*
D03*
X217016D02*
D03*
X215047D02*
D03*
D23*
X223512Y456047D02*
D03*
Y458016D02*
D03*
Y459984D02*
D03*
Y461953D02*
D03*
X212488D02*
D03*
Y459984D02*
D03*
Y458016D02*
D03*
Y456047D02*
D03*
D24*
X279500Y489317D02*
D03*
Y483683D02*
D03*
D25*
X264000Y486327D02*
D03*
Y489673D02*
D03*
X258000Y471827D02*
D03*
Y475173D02*
D03*
D26*
X243500Y461384D02*
D03*
Y457616D02*
D03*
D27*
X251000Y487469D02*
D03*
Y483532D02*
D03*
D28*
X126988Y382441D02*
D03*
Y387559D02*
D03*
X120000Y385000D02*
D03*
D29*
X324051Y490500D02*
D03*
Y485500D02*
D03*
Y480500D02*
D03*
Y475500D02*
D03*
X342949Y490500D02*
D03*
Y485500D02*
D03*
Y480500D02*
D03*
Y475500D02*
D03*
D30*
X313500Y350642D02*
D03*
Y356547D02*
D03*
Y362453D02*
D03*
Y368358D02*
D03*
Y374264D02*
D03*
Y380169D02*
D03*
Y386075D02*
D03*
Y391980D02*
D03*
X363500D02*
D03*
Y386075D02*
D03*
Y380169D02*
D03*
Y374264D02*
D03*
Y368358D02*
D03*
Y362453D02*
D03*
Y356547D02*
D03*
Y350642D02*
D03*
D31*
X353421Y441500D02*
D03*
X343579D02*
D03*
D32*
X143291Y341000D02*
D03*
X149000D02*
D03*
X357854Y410000D02*
D03*
X352146D02*
D03*
X348791Y426500D02*
D03*
X354500D02*
D03*
D33*
X248736Y399941D02*
D03*
X250705D02*
D03*
X252673D02*
D03*
X254642D02*
D03*
X256610D02*
D03*
X258579D02*
D03*
X260547D02*
D03*
X262516D02*
D03*
X264484D02*
D03*
X266453D02*
D03*
X268421D02*
D03*
X270390D02*
D03*
X272358D02*
D03*
X274327D02*
D03*
X276295D02*
D03*
X278264D02*
D03*
Y355059D02*
D03*
X276295D02*
D03*
X274327D02*
D03*
X272358D02*
D03*
X270390D02*
D03*
X268421D02*
D03*
X266453D02*
D03*
X264484D02*
D03*
X262516D02*
D03*
X260547D02*
D03*
X258579D02*
D03*
X256610D02*
D03*
X254642D02*
D03*
X252673D02*
D03*
X250705D02*
D03*
X248736D02*
D03*
D34*
X285941Y392264D02*
D03*
Y390295D02*
D03*
Y388327D02*
D03*
Y386358D02*
D03*
Y384390D02*
D03*
Y382421D02*
D03*
Y380453D02*
D03*
Y378484D02*
D03*
Y376516D02*
D03*
Y374547D02*
D03*
Y372579D02*
D03*
Y370610D02*
D03*
Y368642D02*
D03*
Y366673D02*
D03*
Y364705D02*
D03*
Y362736D02*
D03*
X241059D02*
D03*
Y364705D02*
D03*
Y366673D02*
D03*
Y368642D02*
D03*
Y370610D02*
D03*
Y372579D02*
D03*
Y374547D02*
D03*
Y376516D02*
D03*
Y378484D02*
D03*
Y380453D02*
D03*
Y382421D02*
D03*
Y384390D02*
D03*
Y386358D02*
D03*
Y388327D02*
D03*
Y390295D02*
D03*
Y392264D02*
D03*
D35*
X139500Y445500D02*
D03*
Y449358D02*
D03*
D36*
X118500Y442500D02*
D03*
Y449012D02*
D03*
D37*
X307000Y440490D02*
D03*
Y437510D02*
D03*
D38*
X222000Y355500D02*
D03*
Y337784D02*
D03*
D39*
X173000Y357000D02*
D03*
X167685D02*
D03*
D40*
X241496Y316000D02*
D03*
X235000D02*
D03*
D41*
X178441Y478083D02*
D03*
X181000D02*
D03*
X183559D02*
D03*
X175882D02*
D03*
X186118D02*
D03*
D42*
X120445Y466311D02*
D03*
Y492689D02*
D03*
D43*
X143083Y475563D02*
D03*
Y483437D02*
D03*
D44*
X199035Y431024D02*
D03*
Y448976D02*
D03*
D45*
X174626Y440000D02*
D03*
D46*
X153000Y436827D02*
D03*
Y440173D02*
D03*
D47*
X160000Y419157D02*
D03*
Y413843D02*
D03*
D48*
X254850Y432500D02*
D03*
X261150D02*
D03*
X297350Y426000D02*
D03*
X303650D02*
D03*
X275850Y417500D02*
D03*
X282150D02*
D03*
X300850Y412000D02*
D03*
X307150D02*
D03*
X326850Y425000D02*
D03*
X333150D02*
D03*
X324850Y437000D02*
D03*
X331150D02*
D03*
X323850Y460000D02*
D03*
X330150D02*
D03*
X341701Y457000D02*
D03*
X348000D02*
D03*
D49*
X283000Y432000D02*
D03*
X275520D02*
D03*
X147760Y359000D02*
D03*
X155240D02*
D03*
D50*
X331000Y411500D02*
D03*
X318205D02*
D03*
D51*
X184453Y416500D02*
D03*
X178547D02*
D03*
D52*
X198047Y412000D02*
D03*
X203953D02*
D03*
D53*
X119500Y354500D02*
D03*
D54*
X111724Y349579D02*
D03*
Y351547D02*
D03*
Y353516D02*
D03*
Y355484D02*
D03*
Y357453D02*
D03*
Y359421D02*
D03*
X127276D02*
D03*
Y357453D02*
D03*
Y355484D02*
D03*
Y353516D02*
D03*
Y351547D02*
D03*
Y349579D02*
D03*
D55*
X114579Y362374D02*
D03*
X116547D02*
D03*
X118516D02*
D03*
X120484D02*
D03*
X122453D02*
D03*
X124421D02*
D03*
Y346626D02*
D03*
X122453D02*
D03*
X120484D02*
D03*
X118516D02*
D03*
X116547D02*
D03*
X114579D02*
D03*
D82*
X141500Y417000D02*
D03*
D83*
X121815D02*
D03*
D92*
X218000Y459000D02*
D03*
D93*
X235358Y415205D02*
D03*
Y440795D02*
D03*
X217642D02*
D03*
X217500Y372910D02*
D03*
Y398500D02*
D03*
X199784D02*
D03*
X276000Y312410D02*
D03*
Y338000D02*
D03*
X258284D02*
D03*
X203858Y331705D02*
D03*
Y357295D02*
D03*
X186142D02*
D03*
X181858Y375205D02*
D03*
Y400795D02*
D03*
X164142D02*
D03*
D94*
X217642Y415205D02*
D03*
X199784Y372910D02*
D03*
X258284Y312410D02*
D03*
X186142Y331705D02*
D03*
X164142Y375205D02*
D03*
D95*
X307500Y460500D02*
D03*
X302500D02*
D03*
X307500Y465500D02*
D03*
X302500D02*
D03*
X307500Y470500D02*
D03*
X302539D02*
D03*
X307500Y475500D02*
D03*
X302500D02*
D03*
X307500Y480500D02*
D03*
X302500D02*
D03*
D96*
X171157Y482217D02*
D03*
X190843D02*
D03*
D97*
X165744Y493043D02*
D03*
X196256D02*
D03*
D98*
X166335Y478083D02*
D03*
X195665D02*
D03*
D99*
X151500Y364000D02*
D03*
X221200Y403200D02*
D03*
X235358Y380453D02*
D03*
X258600Y350800D02*
D03*
X173550Y374650D02*
D03*
X241232Y395132D02*
D03*
X181700Y484400D02*
D03*
X218500Y449000D02*
D03*
X348600Y405200D02*
D03*
X293200Y379500D02*
D03*
X342250Y407783D02*
D03*
X292500Y385812D02*
D03*
X341017Y405200D02*
D03*
X281600Y369000D02*
D03*
X290500Y384000D02*
D03*
X337300Y409600D02*
D03*
X304900Y344300D02*
D03*
X292900Y349200D02*
D03*
X245700Y393200D02*
D03*
X348600Y412100D02*
D03*
X280500Y423800D02*
D03*
X211600Y464400D02*
D03*
X243400D02*
D03*
X274300Y450100D02*
D03*
X303600Y444700D02*
D03*
X322100Y415300D02*
D03*
X274500Y411800D02*
D03*
X171650Y362200D02*
D03*
X264400Y350684D02*
D03*
X310000Y485500D02*
D03*
X278600Y472100D02*
D03*
X243700Y357400D02*
D03*
X348392Y422500D02*
D03*
X347300Y478300D02*
D03*
X260547Y347284D02*
D03*
X347300Y483300D02*
D03*
X243232Y413732D02*
D03*
X271700Y342400D02*
D03*
X193100Y497500D02*
D03*
X298000Y420300D02*
D03*
X303400Y396600D02*
D03*
X293400Y389850D02*
D03*
X241857Y483543D02*
D03*
X250227Y475173D02*
D03*
X207753Y456047D02*
D03*
X248300Y485900D02*
D03*
X109300Y344100D02*
D03*
X244350Y403100D02*
D03*
X203100Y394200D02*
D03*
X312700Y488600D02*
D03*
X211400Y408700D02*
D03*
X291300Y375216D02*
D03*
X272300Y444500D02*
D03*
X303700Y404900D02*
D03*
X260500D02*
D03*
X208000Y461953D02*
D03*
X281500Y454950D02*
D03*
X271500Y466200D02*
D03*
X207900Y452000D02*
D03*
X293500Y364705D02*
D03*
Y360800D02*
D03*
X337900Y418550D02*
D03*
X239400Y402400D02*
D03*
X347900Y487700D02*
D03*
X335200Y460000D02*
D03*
X115600Y425500D02*
D03*
X270950Y421450D02*
D03*
X181000Y466400D02*
D03*
X287600Y423050D02*
D03*
X184453Y427500D02*
D03*
D100*
X218000Y459000D02*
D03*
X219969Y460969D02*
D03*
X216032D02*
D03*
Y457032D02*
D03*
X219969D02*
D03*
X123437Y358437D02*
D03*
Y354500D02*
D03*
Y350563D02*
D03*
X119500Y358437D02*
D03*
Y354500D02*
D03*
Y350563D02*
D03*
X115563Y358437D02*
D03*
Y354500D02*
D03*
Y350563D02*
D03*
M02*
