G04*
G04 #@! TF.GenerationSoftware,Altium Limited,Altium Designer,21.1.1 (26)*
G04*
G04 Layer_Color=16711935*
%FSLAX25Y25*%
%MOIN*%
G70*
G04*
G04 #@! TF.SameCoordinates,5102835C-3560-4A17-A812-28AB7356CC0A*
G04*
G04*
G04 #@! TF.FilePolarity,Negative*
G04*
G01*
G75*
%ADD82R,0.06693X0.06693*%
%ADD83C,0.06693*%
%ADD84C,0.06706*%
%ADD85R,0.06706X0.06706*%
%ADD86C,0.04000*%
%ADD87C,0.03950*%
%ADD88O,0.05328X0.07887*%
%ADD89O,0.06509X0.08674*%
%ADD90C,0.02800*%
%ADD91C,0.02769*%
D82*
X141500Y417000D02*
D03*
D83*
X121815D02*
D03*
D84*
X235358Y415205D02*
D03*
Y440795D02*
D03*
X217642D02*
D03*
X217500Y372910D02*
D03*
Y398500D02*
D03*
X199784D02*
D03*
X276000Y312410D02*
D03*
Y338000D02*
D03*
X258284D02*
D03*
X203858Y331705D02*
D03*
Y357295D02*
D03*
X186142D02*
D03*
X181858Y375205D02*
D03*
Y400795D02*
D03*
X164142D02*
D03*
D85*
X217642Y415205D02*
D03*
X199784Y372910D02*
D03*
X258284Y312410D02*
D03*
X186142Y331705D02*
D03*
X164142Y375205D02*
D03*
D86*
X307500Y460500D02*
D03*
X302500D02*
D03*
X307500Y465500D02*
D03*
X302500D02*
D03*
X307500Y470500D02*
D03*
X302539D02*
D03*
X307500Y475500D02*
D03*
X302500D02*
D03*
X307500Y480500D02*
D03*
X302500D02*
D03*
D87*
X171157Y482217D02*
D03*
X190843D02*
D03*
D88*
X165744Y493043D02*
D03*
X196256D02*
D03*
D89*
X166335Y478083D02*
D03*
X195665D02*
D03*
D90*
X151500Y364000D02*
D03*
X221200Y403200D02*
D03*
X235358Y380453D02*
D03*
X258600Y350800D02*
D03*
X173550Y374650D02*
D03*
X241232Y395132D02*
D03*
X181700Y484400D02*
D03*
X218500Y449000D02*
D03*
X348600Y405200D02*
D03*
X293200Y379500D02*
D03*
X342250Y407783D02*
D03*
X292500Y385812D02*
D03*
X341017Y405200D02*
D03*
X281600Y369000D02*
D03*
X290500Y384000D02*
D03*
X337300Y409600D02*
D03*
X304900Y344300D02*
D03*
X292900Y349200D02*
D03*
X245700Y393200D02*
D03*
X348600Y412100D02*
D03*
X280500Y423800D02*
D03*
X211600Y464400D02*
D03*
X243400D02*
D03*
X274300Y450100D02*
D03*
X303600Y444700D02*
D03*
X322100Y415300D02*
D03*
X274500Y411800D02*
D03*
X171650Y362200D02*
D03*
X264400Y350684D02*
D03*
X310000Y485500D02*
D03*
X278600Y472100D02*
D03*
X243700Y357400D02*
D03*
X348392Y422500D02*
D03*
X347300Y478300D02*
D03*
X260547Y347284D02*
D03*
X347300Y483300D02*
D03*
X243232Y413732D02*
D03*
X271700Y342400D02*
D03*
X193100Y497500D02*
D03*
X298000Y420300D02*
D03*
X303400Y396600D02*
D03*
X293400Y389850D02*
D03*
X241857Y483543D02*
D03*
X250227Y475173D02*
D03*
X207753Y456047D02*
D03*
X248300Y485900D02*
D03*
X109300Y344100D02*
D03*
X244350Y403100D02*
D03*
X203100Y394200D02*
D03*
X312700Y488600D02*
D03*
X211400Y408700D02*
D03*
X291300Y375216D02*
D03*
X272300Y444500D02*
D03*
X303700Y404900D02*
D03*
X260500D02*
D03*
X208000Y461953D02*
D03*
X281500Y454950D02*
D03*
X271500Y466200D02*
D03*
X207900Y452000D02*
D03*
X293500Y364705D02*
D03*
Y360800D02*
D03*
X337900Y418550D02*
D03*
X239400Y402400D02*
D03*
X347900Y487700D02*
D03*
X335200Y460000D02*
D03*
X115600Y425500D02*
D03*
X270950Y421450D02*
D03*
X181000Y466400D02*
D03*
X287600Y423050D02*
D03*
X184453Y427500D02*
D03*
D91*
X218000Y459000D02*
D03*
X219969Y460969D02*
D03*
X216032D02*
D03*
Y457032D02*
D03*
X219969D02*
D03*
X123437Y358437D02*
D03*
Y354500D02*
D03*
Y350563D02*
D03*
X119500Y358437D02*
D03*
Y354500D02*
D03*
Y350563D02*
D03*
X115563Y358437D02*
D03*
Y354500D02*
D03*
Y350563D02*
D03*
M02*
