G04*
G04 #@! TF.GenerationSoftware,Altium Limited,Altium Designer,21.1.1 (26)*
G04*
G04 Layer_Color=255*
%FSLAX25Y25*%
%MOIN*%
G70*
G04*
G04 #@! TF.SameCoordinates,D9F95C0E-15A9-44F3-8ABD-4EC37FB7AC5F*
G04*
G04*
G04 #@! TF.FilePolarity,Positive*
G04*
G01*
G75*
%ADD87R,0.06693X0.06693*%
%ADD88C,0.06693*%
%ADD98C,0.05906*%
%ADD99R,0.05906X0.05906*%
%ADD100C,0.03200*%
%ADD101C,0.03150*%
%ADD102O,0.04528X0.07087*%
%ADD103O,0.05709X0.07874*%
D87*
X141500Y417000D02*
D03*
D88*
X121815D02*
D03*
D98*
X235358Y415205D02*
D03*
Y440795D02*
D03*
X217642D02*
D03*
X217500Y372910D02*
D03*
Y398500D02*
D03*
X199784D02*
D03*
X276000Y312410D02*
D03*
Y338000D02*
D03*
X258284D02*
D03*
X203858Y331705D02*
D03*
Y357295D02*
D03*
X186142D02*
D03*
X181858Y375205D02*
D03*
Y400795D02*
D03*
X164142D02*
D03*
D99*
X217642Y415205D02*
D03*
X199784Y372910D02*
D03*
X258284Y312410D02*
D03*
X186142Y331705D02*
D03*
X164142Y375205D02*
D03*
D100*
X307500Y460500D02*
D03*
X302500D02*
D03*
X307500Y465500D02*
D03*
X302500D02*
D03*
X307500Y470500D02*
D03*
X302539D02*
D03*
X307500Y475500D02*
D03*
X302500D02*
D03*
X307500Y480500D02*
D03*
X302500D02*
D03*
D101*
X171157Y482217D02*
D03*
X190843D02*
D03*
D102*
X165744Y493043D02*
D03*
X196256D02*
D03*
D103*
X166335Y478083D02*
D03*
X195665D02*
D03*
M02*
