G04*
G04 #@! TF.GenerationSoftware,Altium Limited,Altium Designer,21.1.1 (26)*
G04*
G04 Layer_Color=32768*
%FSLAX25Y25*%
%MOIN*%
G70*
G04*
G04 #@! TF.SameCoordinates,5102835C-3560-4A17-A812-28AB7356CC0A*
G04*
G04*
G04 #@! TF.FilePolarity,Positive*
G04*
G01*
G75*
%ADD103C,0.00100*%
D103*
X119163Y385000D02*
Y405437D01*
X127825Y385000D02*
Y405437D01*
X114163Y403937D02*
X119163D01*
X127825D02*
X132825D01*
X118163Y403437D02*
X119163Y403937D01*
X118163Y404437D02*
X119163Y403937D01*
X118163Y403437D02*
Y404437D01*
X127825Y403937D02*
X128825Y403437D01*
X127825Y403937D02*
X128825Y404437D01*
Y403437D02*
Y404437D01*
X119163Y385000D02*
Y397937D01*
X120837Y385000D02*
Y397937D01*
X114163Y396437D02*
X119163D01*
X120837D02*
X125837D01*
X118163Y395937D02*
X119163Y396437D01*
X118163Y396937D02*
X119163Y396437D01*
X118163Y395937D02*
Y396937D01*
X120837Y396437D02*
X121837Y395937D01*
X120837Y396437D02*
X121837Y396937D01*
Y395937D02*
Y396937D01*
X127825Y382441D02*
X139325D01*
X127825Y387559D02*
X139325D01*
X137825Y377441D02*
Y382441D01*
Y387559D02*
Y392559D01*
X137325Y381441D02*
X137825Y382441D01*
X138325Y381441D01*
X137325D02*
X138325D01*
X137325Y388559D02*
X137825Y387559D01*
X138325Y388559D01*
X137325D02*
X138325D01*
X107663Y384213D02*
X119163D01*
X107663Y385787D02*
X119163D01*
X109163Y379213D02*
Y384213D01*
Y385787D02*
Y390787D01*
X108663Y383213D02*
X109163Y384213D01*
X109663Y383213D01*
X108663D02*
X109663D01*
X108663Y386787D02*
X109163Y385787D01*
X109663Y386787D01*
X108663D02*
X109663D01*
X97663Y381063D02*
X121033D01*
X97663Y388937D02*
X121033D01*
X99163Y376063D02*
Y381063D01*
Y388937D02*
Y393937D01*
X98663Y380063D02*
X99163Y381063D01*
X99663Y380063D01*
X98663D02*
X99663D01*
X98663Y389937D02*
X99163Y388937D01*
X99663Y389937D01*
X98663D02*
X99663D01*
X121033Y369563D02*
Y385000D01*
X125955Y369563D02*
Y385000D01*
X116033Y371063D02*
X121033D01*
X125955D02*
X130955D01*
X120033Y370563D02*
X121033Y371063D01*
X120033Y371563D02*
X121033Y371063D01*
X120033Y370563D02*
Y371563D01*
X125955Y371063D02*
X126955Y370563D01*
X125955Y371063D02*
X126955Y371563D01*
Y370563D02*
Y371563D01*
M02*
