G04*
G04 #@! TF.GenerationSoftware,Altium Limited,Altium Designer,21.1.1 (26)*
G04*
G04 Layer_Color=0*
%FSLAX25Y25*%
%MOIN*%
G70*
G04*
G04 #@! TF.SameCoordinates,FA571921-0CF2-429E-B5E0-1F6894B57ED5*
G04*
G04*
G04 #@! TF.FilePolarity,Positive*
G04*
G01*
G75*
%ADD101C,0.00394*%
D101*
X279532Y461000D02*
X283469D01*
X281500Y459032D02*
Y462969D01*
X207547Y480016D02*
Y483953D01*
X205579Y481984D02*
X209516D01*
X222000Y479532D02*
Y483469D01*
X220032Y481500D02*
X223969D01*
X277532Y486500D02*
X281469D01*
X279500Y484532D02*
Y488469D01*
X241532Y459500D02*
X245469D01*
X243500Y457532D02*
Y461469D01*
X249032Y485500D02*
X252969D01*
X251000Y483532D02*
Y487469D01*
X129689Y417000D02*
X133626D01*
X131657Y415032D02*
Y418969D01*
X263500Y375532D02*
Y379469D01*
X261532Y377500D02*
X265469D01*
X116532Y445756D02*
X120469D01*
X118500Y443787D02*
Y447724D01*
X305032Y439000D02*
X308969D01*
X307000Y437032D02*
Y440969D01*
X238248Y314032D02*
Y317969D01*
X236280Y316000D02*
X240217D01*
X286532Y331000D02*
X290469D01*
X288500Y329032D02*
Y332969D01*
X158032Y416500D02*
X161969D01*
X160000Y414532D02*
Y418469D01*
M02*
