G04*
G04 #@! TF.GenerationSoftware,Altium Limited,Altium Designer,21.1.1 (26)*
G04*
G04 Layer_Color=32768*
%FSLAX25Y25*%
%MOIN*%
G70*
G04*
G04 #@! TF.SameCoordinates,5102835C-3560-4A17-A812-28AB7356CC0A*
G04*
G04*
G04 #@! TF.FilePolarity,Positive*
G04*
G01*
G75*
%ADD12C,0.00787*%
D12*
X111185Y417000D02*
X111210Y415996D01*
X111284Y414993D01*
X111407Y413996D01*
X111578Y413006D01*
X111799Y412026D01*
X112066Y411057D01*
X112382Y410103D01*
X112743Y409165D01*
X113151Y408247D01*
X113602Y407349D01*
X114098Y406475D01*
X114635Y405626D01*
X115214Y404805D01*
X115832Y404012D01*
X116488Y403252D01*
X117181Y402524D01*
X117909Y401831D01*
X118670Y401175D01*
X119462Y400556D01*
X120283Y399978D01*
X121133Y399440D01*
X122007Y398945D01*
X122904Y398493D01*
X123823Y398086D01*
X124760Y397724D01*
X125715Y397409D01*
X126683Y397141D01*
X127663Y396921D01*
X128654Y396749D01*
X129651Y396626D01*
X130653Y396552D01*
X131657Y396528D01*
X132662Y396552D01*
X133664Y396626D01*
X134661Y396749D01*
X135651Y396921D01*
X136632Y397141D01*
X137600Y397409D01*
X138554Y397724D01*
X139492Y398086D01*
X140410Y398493D01*
X141308Y398945D01*
X142182Y399440D01*
X143031Y399978D01*
X143853Y400556D01*
X144645Y401175D01*
X145406Y401831D01*
X146134Y402524D01*
X146827Y403252D01*
X147483Y404012D01*
X148101Y404805D01*
X148680Y405626D01*
X149217Y406475D01*
X149713Y407349D01*
X150164Y408247D01*
X150572Y409165D01*
X150933Y410103D01*
X151248Y411057D01*
X151516Y412026D01*
X151736Y413006D01*
X151908Y413996D01*
X152031Y414993D01*
X152105Y415996D01*
X152130Y417000D01*
X152105Y418005D01*
X152031Y419007D01*
X151908Y420004D01*
X151736Y420994D01*
X151516Y421974D01*
X151248Y422943D01*
X150933Y423897D01*
X150572Y424834D01*
X150164Y425753D01*
X149713Y426651D01*
X149217Y427525D01*
X148680Y428374D01*
X148101Y429195D01*
X147483Y429988D01*
X146827Y430748D01*
X146134Y431476D01*
X145406Y432169D01*
X144645Y432825D01*
X143853Y433444D01*
X143031Y434022D01*
X142182Y434560D01*
X141308Y435055D01*
X140410Y435507D01*
X139492Y435914D01*
X138554Y436276D01*
X137600Y436591D01*
X136632Y436859D01*
X135651Y437079D01*
X134661Y437251D01*
X133664Y437374D01*
X132662Y437448D01*
X131657Y437472D01*
X130653Y437448D01*
X129651Y437374D01*
X128654Y437251D01*
X127663Y437079D01*
X126683Y436859D01*
X125715Y436591D01*
X124760Y436276D01*
X123823Y435914D01*
X122904Y435507D01*
X122007Y435055D01*
X121133Y434560D01*
X120283Y434022D01*
X119462Y433444D01*
X118670Y432825D01*
X117909Y432169D01*
X117181Y431476D01*
X116488Y430748D01*
X115832Y429988D01*
X115214Y429195D01*
X114635Y428374D01*
X114098Y427525D01*
X113602Y426651D01*
X113151Y425753D01*
X112743Y424834D01*
X112382Y423897D01*
X112066Y422943D01*
X111799Y421974D01*
X111578Y420994D01*
X111407Y420004D01*
X111284Y419007D01*
X111210Y418005D01*
X111185Y417000D01*
X279335Y456645D02*
X283665D01*
Y465355D01*
X279335D02*
X283665D01*
X279335Y456645D02*
Y465355D01*
X203807Y474898D02*
Y489071D01*
X212469D01*
Y474898D02*
Y489071D01*
X203807Y474898D02*
X212469D01*
X224165Y476283D02*
Y486717D01*
X219835Y476283D02*
X224165D01*
X219835D02*
Y486717D01*
X224165D01*
X276622Y480859D02*
X282378D01*
Y492141D01*
X276622D02*
X282378D01*
X276622Y480859D02*
Y492141D01*
X241389Y455420D02*
X245611D01*
Y463580D01*
X241389D02*
X245611D01*
X241389Y455420D02*
Y463580D01*
X249425Y482154D02*
X252575D01*
Y488846D01*
X249425D02*
X252575D01*
X249425Y482154D02*
Y488846D01*
X237713Y351713D02*
Y403287D01*
Y351713D02*
X289287D01*
Y403287D01*
X237713D02*
X289287D01*
X114539Y453260D02*
X122461D01*
X114539Y438252D02*
Y453260D01*
Y438252D02*
X122461D01*
Y453260D01*
X305524Y436101D02*
X308476D01*
Y441899D01*
X305524D02*
X308476D01*
X305524Y436101D02*
Y441899D01*
X233031Y313835D02*
Y318165D01*
Y313835D02*
X243465D01*
Y318165D01*
X233031D02*
X243465D01*
X286335Y326645D02*
X290665D01*
Y335355D01*
X286335D02*
X290665D01*
X286335Y326645D02*
Y335355D01*
X157736Y412071D02*
X162264D01*
Y420929D01*
X157736D02*
X162264D01*
X157736Y412071D02*
Y420929D01*
M02*
