G04*
G04 #@! TF.GenerationSoftware,Altium Limited,Altium Designer,21.1.1 (26)*
G04*
G04 Layer_Physical_Order=1*
G04 Layer_Color=255*
%FSLAX25Y25*%
%MOIN*%
G70*
G04*
G04 #@! TF.SameCoordinates,FA571921-0CF2-429E-B5E0-1F6894B57ED5*
G04*
G04*
G04 #@! TF.FilePolarity,Positive*
G04*
G01*
G75*
%ADD13C,0.00600*%
%ADD15C,0.01000*%
%ADD17R,0.03197X0.02985*%
%ADD18R,0.06102X0.05906*%
%ADD19R,0.03150X0.01181*%
%ADD20R,0.03543X0.02362*%
%ADD21R,0.03150X0.03150*%
G04:AMPARAMS|DCode=22|XSize=9.84mil|YSize=23.62mil|CornerRadius=1.97mil|HoleSize=0mil|Usage=FLASHONLY|Rotation=180.000|XOffset=0mil|YOffset=0mil|HoleType=Round|Shape=RoundedRectangle|*
%AMROUNDEDRECTD22*
21,1,0.00984,0.01968,0,0,180.0*
21,1,0.00591,0.02362,0,0,180.0*
1,1,0.00394,-0.00295,0.00984*
1,1,0.00394,0.00295,0.00984*
1,1,0.00394,0.00295,-0.00984*
1,1,0.00394,-0.00295,-0.00984*
%
%ADD22ROUNDEDRECTD22*%
G04:AMPARAMS|DCode=23|XSize=9.84mil|YSize=23.62mil|CornerRadius=1.97mil|HoleSize=0mil|Usage=FLASHONLY|Rotation=90.000|XOffset=0mil|YOffset=0mil|HoleType=Round|Shape=RoundedRectangle|*
%AMROUNDEDRECTD23*
21,1,0.00984,0.01968,0,0,90.0*
21,1,0.00591,0.02362,0,0,90.0*
1,1,0.00394,0.00984,0.00295*
1,1,0.00394,0.00984,-0.00295*
1,1,0.00394,-0.00984,-0.00295*
1,1,0.00394,-0.00984,0.00295*
%
%ADD23ROUNDEDRECTD23*%
%ADD24R,0.03788X0.03681*%
%ADD25R,0.02165X0.02362*%
%ADD26R,0.02648X0.02816*%
%ADD27R,0.02362X0.01968*%
%ADD28R,0.04473X0.01775*%
%ADD29O,0.08661X0.02362*%
%ADD30R,0.07677X0.03740*%
%ADD31R,0.03937X0.07087*%
%ADD32R,0.03740X0.04134*%
%ADD33R,0.01181X0.05906*%
%ADD34R,0.05906X0.01181*%
%ADD35R,0.02913X0.03071*%
%ADD36R,0.03985X0.04560*%
%ADD37R,0.01860X0.02029*%
%ADD38R,0.13780X0.05315*%
%ADD39R,0.03347X0.03740*%
%ADD40R,0.03150X0.03150*%
%ADD41R,0.01772X0.05118*%
%ADD42R,0.13386X0.05906*%
%ADD43R,0.13780X0.03937*%
%ADD44R,0.07087X0.03543*%
%ADD45R,0.24410X0.21457*%
%ADD46R,0.02362X0.02559*%
%ADD47R,0.03740X0.02756*%
%ADD48R,0.03740X0.05315*%
%ADD49R,0.05512X0.05906*%
%ADD50R,0.04528X0.10630*%
%ADD51R,0.03937X0.04921*%
%ADD52R,0.03937X0.05315*%
%ADD53R,0.10236X0.10630*%
%ADD54R,0.03347X0.01378*%
%ADD55R,0.01378X0.03150*%
%ADD82R,0.06693X0.06693*%
%ADD83C,0.06693*%
G04:AMPARAMS|DCode=92|XSize=66.93mil|YSize=66.93mil|CornerRadius=2.01mil|HoleSize=0mil|Usage=FLASHONLY|Rotation=90.000|XOffset=0mil|YOffset=0mil|HoleType=Round|Shape=RoundedRectangle|*
%AMROUNDEDRECTD92*
21,1,0.06693,0.06291,0,0,90.0*
21,1,0.06291,0.06693,0,0,90.0*
1,1,0.00402,0.03146,0.03146*
1,1,0.00402,0.03146,-0.03146*
1,1,0.00402,-0.03146,-0.03146*
1,1,0.00402,-0.03146,0.03146*
%
%ADD92ROUNDEDRECTD92*%
%ADD93C,0.05906*%
%ADD94R,0.05906X0.05906*%
%ADD95C,0.03200*%
%ADD96C,0.03150*%
%ADD97O,0.04528X0.07087*%
%ADD98O,0.05709X0.07874*%
%ADD99C,0.02000*%
%ADD100C,0.01968*%
D13*
X200800Y431024D02*
Y442600D01*
X338900Y490500D02*
Y493800D01*
X330150Y447600D02*
Y449000D01*
X331150Y437000D02*
Y448000D01*
X330150Y449000D02*
X331150Y448000D01*
X261150Y431700D02*
X262600D01*
X264484Y416366D02*
Y417700D01*
X172488Y415546D02*
X178547D01*
X141500Y416500D02*
X171534D01*
X237200Y361200D02*
X244600D01*
X235300D02*
X237200D01*
Y378000D01*
Y357500D02*
Y361200D01*
X234400Y360300D02*
X235300Y361200D01*
X229600Y355500D02*
X234400Y360300D01*
X256610Y358750D02*
Y358890D01*
Y355059D02*
Y358750D01*
X232500Y355500D02*
X235200D01*
X229600D02*
X232500D01*
X234400Y360300D02*
Y404600D01*
Y357400D02*
Y360300D01*
X124421Y361100D02*
X136400D01*
X323850Y463300D02*
Y467600D01*
X306000Y464000D02*
Y465500D01*
X283900Y463468D02*
X290400D01*
X284000Y455800D02*
Y463368D01*
Y453700D02*
Y455800D01*
X348791Y407100D02*
Y422183D01*
X326850Y421250D02*
Y425000D01*
Y420146D02*
Y421250D01*
X285600Y355700D02*
Y362736D01*
X285978Y333491D02*
X286000Y333469D01*
X285900Y333569D02*
X285978Y333491D01*
X288500Y333469D01*
X262584Y333700D02*
X285978Y333491D01*
X222400Y461953D02*
Y467800D01*
X222800Y454300D02*
Y456047D01*
X220953Y454200D02*
X222700D01*
X161900Y413843D02*
X165357D01*
X155240Y354300D02*
Y359000D01*
Y350000D02*
Y354300D01*
X130700Y357453D02*
X137100D01*
X127276D02*
X130700D01*
X149000Y343760D02*
Y345553D01*
Y341000D02*
Y343760D01*
X222440Y449993D02*
X243013Y450900D01*
X220334Y449900D02*
X222440Y449993D01*
X353421Y436079D02*
Y437200D01*
X238100Y392264D02*
Y400160D01*
X240000Y483543D02*
X241730D01*
X211897Y452300D02*
X215047D01*
X323500Y407200D02*
X331000D01*
X133150Y440200D02*
X153000D01*
X126900Y387559D02*
Y433950D01*
X340600Y466250D02*
Y475500D01*
X245250Y357400D02*
X248736D01*
X346100Y478981D02*
Y480500D01*
X187500Y461953D02*
X208597D01*
X260537Y419063D02*
X261787D01*
X264484Y416366D01*
Y399941D02*
Y416366D01*
X285941Y392264D02*
X289100D01*
X289200Y397606D01*
X298812Y407218D01*
X305617D01*
X307150Y408750D01*
Y412000D01*
X308000Y391980D02*
X313500D01*
X301388Y385369D02*
X308000Y391980D01*
X301388Y371194D02*
Y385369D01*
X297200Y367006D02*
X301388Y371194D01*
X297200Y359850D02*
Y367006D01*
X294050Y356700D02*
X297200Y359850D01*
X288500Y356700D02*
X294050D01*
X287220Y357980D02*
X288500Y356700D01*
X287220Y357980D02*
Y358420D01*
X289800Y361000D01*
Y364005D01*
X289100Y364705D02*
X289800Y364005D01*
X285941Y364705D02*
X289100D01*
X243500Y457616D02*
X247200D01*
X253523Y463939D01*
X266451D01*
X274591Y455800D01*
X284000D01*
X165357Y413843D02*
X166100Y413100D01*
X187300D01*
X187400Y413200D01*
Y439900D01*
X187300Y440000D02*
X187400Y439900D01*
X174626Y440000D02*
X187300D01*
X207000Y412000D02*
X214500Y419500D01*
X231063D01*
X235358Y415205D01*
X203953Y412000D02*
X207000D01*
X211300Y406900D01*
Y355300D02*
Y406900D01*
X348791Y407100D02*
X348891Y407000D01*
X357754D01*
X357854Y407100D01*
Y410000D01*
X258284Y338000D02*
X262584Y333700D01*
X258284Y323816D02*
Y338000D01*
Y323816D02*
X273600Y308500D01*
X279900D01*
X294500Y323100D01*
Y336181D01*
X299600Y341281D01*
Y365600D01*
X308264Y374264D01*
X313500D01*
X267100Y432000D02*
X275520D01*
X263800Y428700D02*
X267100Y432000D01*
X263800Y420100D02*
Y428700D01*
Y420100D02*
X268421Y415479D01*
Y399941D02*
Y415479D01*
X235358Y415205D02*
X247653Y427500D01*
X253600D01*
X254850Y428750D01*
Y432500D01*
X297350Y426000D02*
Y430000D01*
X295350Y432000D02*
X297350Y430000D01*
X283000Y432000D02*
X295350D01*
X250705Y395800D02*
Y399941D01*
X241672Y395700D02*
X250705Y395800D01*
X177600Y358350D02*
Y386900D01*
X176250Y357000D02*
X177600Y358350D01*
X173000Y357000D02*
X176250D01*
X127276Y351547D02*
X135353D01*
X143291Y343609D01*
Y341000D02*
Y343609D01*
X252200Y460087D02*
X262500D01*
X243013Y450900D02*
X252200Y460087D01*
X222400Y450900D02*
X243013D01*
X143083Y483437D02*
X152400D01*
X218984Y451250D02*
X220334Y449900D01*
X218984Y451250D02*
Y453488D01*
X285941Y366673D02*
X294700D01*
X294800Y366773D01*
Y370800D01*
X303300Y322500D02*
Y361050D01*
Y322500D02*
X304700Y321100D01*
X369600D01*
X369700Y321200D01*
Y348750D01*
X367808Y350642D02*
X369700Y348750D01*
X363500Y350642D02*
X367808D01*
X285941Y368642D02*
X292900D01*
X368953Y356547D02*
X369000Y356500D01*
X363500Y356547D02*
X368953D01*
X363500Y362453D02*
X367500D01*
X369500Y364453D01*
Y398750D01*
X368050Y400200D02*
X369500Y398750D01*
X307400Y400200D02*
X368050D01*
X302000Y394800D02*
X307400Y400200D01*
X293921Y382421D02*
X302000Y390500D01*
X285941Y382421D02*
X293921D01*
X312069Y380169D02*
X313500D01*
X298400Y366500D02*
X312069Y380169D01*
X298400Y346778D02*
Y366500D01*
X292887Y341266D02*
X298400Y346778D01*
X292887Y332987D02*
Y341266D01*
X290900Y331000D02*
X292887Y332987D01*
X277500Y331000D02*
X290900D01*
X276000Y329500D02*
X277500Y331000D01*
X276000Y312410D02*
Y329500D01*
X241496Y316000D02*
X251146Y306350D01*
X293750D01*
X296000Y308600D01*
Y335830D01*
X301400Y341230D01*
Y363200D01*
X306250Y363300D01*
X308500Y361050D01*
Y356647D02*
Y361050D01*
Y356647D02*
X313500Y356547D01*
X305500Y334500D02*
Y348750D01*
X307392Y350642D01*
X313500D01*
X227437Y316000D02*
X235000D01*
X186142Y357295D02*
X227437Y316000D01*
X283232Y328532D02*
X288500D01*
X353421Y437200D02*
Y441500D01*
X350300Y436700D02*
X353421Y437200D01*
X255349Y417408D02*
Y422213D01*
X238100Y400160D02*
X255349Y417408D01*
X238100Y392264D02*
X241059D01*
X265750Y426650D02*
X272358Y420042D01*
Y399941D02*
Y420042D01*
X184453Y416500D02*
Y427500D01*
X241730Y483543D02*
X250100Y475173D01*
X258000D01*
X216484Y468084D02*
X217500D01*
X218984Y466600D01*
Y464512D02*
Y466600D01*
X264000Y485100D02*
Y486327D01*
Y485100D02*
X266150Y485000D01*
X267400Y486250D01*
Y491250D01*
X265950Y492700D02*
X267400Y491250D01*
X223503Y492700D02*
X265950D01*
X215740Y484937D02*
X223503Y492700D01*
X210500Y484937D02*
X215740D01*
X279500Y489317D02*
X283750D01*
X285300Y487767D01*
Y470500D02*
Y487767D01*
X215047Y452300D02*
Y453488D01*
X236984Y461384D02*
X243500D01*
X213797Y467600D02*
X215047Y466350D01*
Y464512D02*
Y466350D01*
X260547Y399941D02*
Y406300D01*
X258637Y408210D02*
X260547Y406300D01*
X258637Y408210D02*
Y419870D01*
X260700Y421933D01*
Y426100D01*
X262516Y399941D02*
Y414572D01*
X304600Y416300D02*
Y418900D01*
X307000Y422400D01*
Y437510D01*
X264484Y350500D02*
Y355059D01*
X129141Y380500D02*
X130500D01*
X127200Y382441D02*
X129141Y380500D01*
X126988Y382441D02*
X127200D01*
X121815Y386815D02*
Y417000D01*
X120000Y385000D02*
X121815Y386815D01*
X319600Y485500D02*
X324051D01*
X316300Y482200D02*
X319600Y485500D01*
X214950Y390100D02*
X231800D01*
X213600Y388750D02*
X214950Y390100D01*
X213600Y352200D02*
Y388750D01*
Y352200D02*
X215000Y350800D01*
X236700D01*
X238400Y352500D01*
Y358750D01*
X239650Y360000D01*
X242800D01*
X243800Y359000D01*
X250605D01*
X250705Y355059D01*
X319400Y480500D02*
X324051D01*
X314400Y475500D02*
X319400Y480500D01*
X241900Y352500D02*
Y357850D01*
Y352500D02*
X243200Y351200D01*
X252573D01*
X252673Y351300D01*
Y355059D01*
X248736D02*
Y357400D01*
X243800Y355950D02*
X245250Y357400D01*
X342350Y464500D02*
X342400D01*
X340600Y466250D02*
X342350Y464500D01*
X340600Y475500D02*
X342949D01*
Y480500D02*
X346100D01*
Y478981D02*
X348180Y476902D01*
Y473780D02*
Y476902D01*
X344600Y470200D02*
X348180Y473780D01*
X281600Y353400D02*
Y357500D01*
X280100Y359000D02*
X281600Y357500D01*
X260647Y359000D02*
X280100D01*
X260547Y355059D02*
X260647Y359000D01*
X254642Y351000D02*
Y355059D01*
X239000Y335358D02*
X254642Y351000D01*
X239000Y303800D02*
Y335358D01*
Y303800D02*
X241000Y301800D01*
X356450D01*
X370900Y316250D01*
Y451250D01*
X369250Y452900D02*
X370900Y451250D01*
X345300Y452900D02*
X369250D01*
X345200Y453000D02*
X345300Y452900D01*
X345200Y453000D02*
Y466100D01*
X349400Y470300D01*
Y483750D01*
X347650Y485500D02*
X349400Y483750D01*
X342949Y485500D02*
X347650D01*
X198047Y406500D02*
Y412000D01*
Y406500D02*
X204300Y400247D01*
Y395100D02*
Y400247D01*
X290370Y358800D02*
X294900Y363330D01*
Y365242D01*
X295000Y365342D01*
X295700D01*
X296000Y365642D01*
Y368864D01*
X296794Y369658D01*
Y372664D01*
X292942Y376516D02*
X296794Y372664D01*
X285941Y376516D02*
X292942D01*
X282742Y386358D02*
X285941D01*
X280000Y389100D02*
X282742Y386358D01*
X280000Y389100D02*
Y406904D01*
X274300Y412604D02*
X280000Y406904D01*
X201000Y408400D02*
X201700Y407700D01*
X201000Y408400D02*
Y417300D01*
X193700Y424600D02*
X201000Y417300D01*
X193700Y424600D02*
Y443750D01*
X194950Y445000D01*
X202079D01*
X203479Y446400D01*
Y451600D01*
X203379Y451700D02*
X203479Y451600D01*
X186250Y451700D02*
X203379D01*
X183559Y454391D02*
X186250Y451700D01*
X183559Y454391D02*
Y478083D01*
X186118Y463335D02*
X187500Y461953D01*
X186118Y463335D02*
Y478083D01*
X209900Y456047D02*
X212488D01*
X222500Y488000D02*
X224300Y489800D01*
X250900D01*
X251000Y487469D01*
X363500Y368358D02*
X365258D01*
X368300Y371400D01*
Y397500D01*
X366800Y399000D02*
X368300Y397500D01*
X312958Y399000D02*
X366800D01*
X306707Y392749D02*
X312958Y399000D01*
X300060Y392749D02*
X306707D01*
X291700Y384390D02*
X300060Y392749D01*
X285941Y384390D02*
X291700D01*
X285941Y388327D02*
X293027D01*
X298584Y393884D01*
Y400000D01*
X299984Y401400D01*
X306100D01*
X312400Y407700D01*
Y479900D01*
X313150Y480650D01*
X181000Y478083D02*
Y487500D01*
X317100Y490500D02*
X324051D01*
X311200Y484600D02*
X317100Y490500D01*
X311200Y408500D02*
Y484600D01*
X307554Y404854D02*
X311200Y408500D01*
X300154Y404854D02*
X307554D01*
X291100Y395800D02*
X300154Y404854D01*
X262900Y347100D02*
X274750D01*
X262516Y347484D02*
X262900Y347100D01*
X262516Y347484D02*
Y355059D01*
X348000Y457000D02*
Y467200D01*
X350600Y469800D01*
Y496250D01*
X349050Y497800D02*
X350600Y496250D01*
X319800Y497800D02*
X349050D01*
X302500Y480500D02*
X319800Y497800D01*
X222000Y337784D02*
X232400D01*
X236916Y342300D01*
X114579Y342500D02*
Y346626D01*
Y342500D02*
X119679Y337400D01*
X147650D01*
X149000Y338750D01*
Y341000D01*
X338900Y490500D02*
X342949D01*
X338800Y493900D02*
X338900Y493800D01*
X318100Y493900D02*
X338800D01*
X310000Y485800D02*
X318100Y493900D01*
X310000Y463000D02*
Y485800D01*
X307500Y460500D02*
X310000Y463000D01*
X237684Y378484D02*
X241059D01*
X237200Y378000D02*
X237684Y378484D01*
X235200Y355500D02*
X237200Y357500D01*
X232500Y355500D02*
X234400Y357400D01*
X270390Y351290D02*
Y355059D01*
X268750Y349650D02*
X270390Y351290D01*
X222000Y355500D02*
X229600D01*
X244600Y361200D02*
X245300Y360500D01*
X255000D01*
X256610Y358890D01*
X107500Y349579D02*
X111724D01*
X106000Y351079D02*
X107500Y349579D01*
X106000Y351079D02*
Y372500D01*
X248736Y399941D02*
Y407200D01*
X321650Y465500D02*
X323850Y463300D01*
Y460000D02*
Y463300D01*
X237547Y380453D02*
X241059D01*
X235700Y382300D02*
X237547Y380453D01*
X235700Y382300D02*
Y402500D01*
X236300Y403100D01*
Y405400D01*
X235358Y406342D02*
X236300Y405400D01*
X235358Y406342D02*
Y415205D01*
X258579Y347080D02*
Y355059D01*
Y347080D02*
X262159Y343500D01*
X277650D01*
X279900Y341250D01*
Y335000D02*
Y341250D01*
X278600Y333700D02*
X279900Y335000D01*
X262584Y333700D02*
X278600D01*
X318205Y411500D02*
X326850Y420146D01*
X354500Y421200D02*
Y426500D01*
X351500Y418200D02*
X354500Y421200D01*
X237500Y402184D02*
Y410350D01*
X236900Y401584D02*
X237500Y402184D01*
X236900Y390895D02*
Y401584D01*
Y390895D02*
X237500Y390295D01*
X241059D01*
X266453Y399941D02*
Y407153D01*
X266500Y407200D01*
X331000D02*
Y411500D01*
X220953Y464512D02*
Y467447D01*
X217500Y470900D02*
X220953Y467447D01*
X215600Y470900D02*
X217500D01*
X214000Y472500D02*
X215600Y470900D01*
X214000Y472500D02*
Y477531D01*
X212500Y479031D02*
X214000Y477531D01*
X210500Y479031D02*
X212500D01*
X223512Y459984D02*
X225500D01*
X225600Y460084D01*
Y467000D01*
X218300Y474300D02*
X225600Y467000D01*
X218300Y474300D02*
Y481048D01*
X222000Y484748D01*
X281500Y463468D02*
X283900D01*
X284000Y463368D01*
X283300Y453000D02*
X284000Y453700D01*
X262500Y453000D02*
X283300D01*
X216036Y474164D02*
X222400Y467800D01*
Y461953D02*
X223512D01*
X206250Y458016D02*
X212488D01*
X204679Y456445D02*
X206250Y458016D01*
X204679Y445831D02*
Y456445D01*
X203953Y445105D02*
X204679Y445831D01*
X203953Y412000D02*
Y445105D01*
X268139Y436100D02*
X302539Y470500D01*
X258400Y436100D02*
X268139D01*
X258300Y436000D02*
X258400Y436100D01*
X258300Y423026D02*
Y436000D01*
X257437Y422163D02*
X258300Y423026D01*
X257437Y405263D02*
Y422163D01*
Y405263D02*
X258579Y404121D01*
Y399941D02*
Y404121D01*
X282500Y390295D02*
X285941D01*
X281200Y391595D02*
X282500Y390295D01*
X281200Y391595D02*
Y397550D01*
X282150Y398500D01*
Y417500D01*
X160000Y413843D02*
X161900D01*
X184493Y391250D01*
X204273D01*
X206236Y393213D01*
Y402764D01*
X203953Y405048D02*
X206236Y402764D01*
X203953Y405048D02*
Y412000D01*
X352146Y410000D02*
Y413209D01*
X357700Y418764D01*
Y431800D01*
X353421Y436079D02*
X357700Y431800D01*
X109200Y351547D02*
X111724D01*
X107951Y352796D02*
X109200Y351547D01*
X107951Y352796D02*
Y419151D01*
X118500Y429700D01*
Y442500D01*
X341701Y457000D02*
Y461163D01*
X337864Y465000D02*
X341701Y461163D01*
X328850Y465000D02*
X337864D01*
X323850Y460000D02*
X328850Y465000D01*
X167685Y357000D02*
Y367785D01*
X175100Y375200D01*
Y397500D01*
X167600Y405000D02*
X175100Y397500D01*
X143850Y405000D02*
X167600D01*
X142600Y403750D02*
X143850Y405000D01*
X142600Y381000D02*
Y403750D01*
X140179Y378579D02*
X142600Y381000D01*
X126830Y378579D02*
X140179D01*
X109151Y360900D02*
X126830Y378579D01*
X109151Y357981D02*
Y360900D01*
Y357981D02*
X109679Y357453D01*
X111724D01*
X306000Y465500D02*
X307500D01*
X305000Y463000D02*
X306000Y464000D01*
X305000Y428150D02*
Y463000D01*
X303650Y426800D02*
X305000Y428150D01*
X303650Y426000D02*
Y426800D01*
X254850Y432500D02*
Y451600D01*
X256250Y453000D01*
X262500D01*
X261150Y431700D02*
Y432500D01*
X262600Y419584D02*
Y431700D01*
Y419584D02*
X264484Y417700D01*
X305000Y473000D02*
X307500Y470500D01*
X299932Y473000D02*
X305000D01*
X290400Y463468D02*
X299932Y473000D01*
X300850Y412000D02*
Y418525D01*
X303650Y421324D01*
Y426000D01*
X276737Y458532D02*
X281500D01*
X275268Y460000D02*
X276737Y458532D01*
X271600Y494000D02*
X275268Y490332D01*
X208300Y494000D02*
X271600D01*
X206800Y492500D02*
X208300Y494000D01*
X206800Y463750D02*
Y492500D01*
Y463750D02*
X208597Y461953D01*
X212488D01*
X222000Y478252D02*
X228425Y471827D01*
X258000D01*
X223512Y458016D02*
X229900D01*
X241500Y474500D02*
Y482043D01*
X240000Y483543D02*
X241500Y482043D01*
X236000Y483543D02*
X240000D01*
X232100Y476457D02*
X236000D01*
X232000Y476557D02*
X232100Y476457D01*
X232000Y476557D02*
Y487300D01*
X232100Y487400D01*
X246100D01*
X248000Y485500D01*
X250900D01*
X251000Y485400D01*
Y483532D02*
Y485400D01*
X343579Y434721D02*
Y441500D01*
Y434721D02*
X345000Y433300D01*
X352500D01*
X354500Y431300D01*
Y426500D02*
Y431300D01*
X222800Y456047D02*
X223512D01*
X222700Y454200D02*
X222800Y454300D01*
X220953Y453488D02*
Y454200D01*
X251000Y483532D02*
X253232D01*
X255300Y485600D01*
X282100Y364705D02*
X285941D01*
X282000Y364605D02*
X282100Y364705D01*
X282000Y362500D02*
Y364605D01*
X280100Y360600D02*
X282000Y362500D01*
X258460Y360600D02*
X280100D01*
X256610Y358750D02*
X258460Y360600D01*
X114712Y449012D02*
X118500D01*
X113200Y447500D02*
X114712Y449012D01*
X113200Y445300D02*
Y447500D01*
X139500Y442600D02*
Y445500D01*
X199035Y431024D02*
X200800D01*
X286000Y333469D02*
X288500D01*
X285900Y333569D02*
Y355400D01*
X285600Y355700D02*
X285900Y355400D01*
X285600Y362736D02*
X285941D01*
X127276Y353516D02*
X129316D01*
X130800Y355000D01*
Y357353D01*
X130700Y357453D02*
X130800Y357353D01*
X137100Y357453D02*
X149000Y345553D01*
X141500Y416500D02*
Y417000D01*
X171534Y416500D02*
X172488Y415546D01*
X178547D02*
Y416500D01*
X153000Y440173D02*
Y440200D01*
X126900Y433950D02*
X133150Y440200D01*
X126900Y387559D02*
X126988D01*
X260000Y489673D02*
X264000D01*
X258000Y487673D02*
X260000Y489673D01*
X258000Y475173D02*
Y487673D01*
X155000Y419157D02*
X160000D01*
X153000Y421157D02*
X155000Y419157D01*
X153000Y421157D02*
Y436827D01*
X147760Y384413D02*
X164142Y400795D01*
X147760Y359000D02*
Y384413D01*
X149000Y343760D02*
X155240Y350000D01*
X128100Y449358D02*
X139500D01*
X121242Y442500D02*
X128100Y449358D01*
X118500Y442500D02*
X121242D01*
X240556Y457616D02*
X243500D01*
X238988Y456047D02*
X240556Y457616D01*
X223512Y456047D02*
X238988D01*
X124421Y361100D02*
Y362374D01*
X136400Y361100D02*
X138500Y359000D01*
X147760D01*
X155240Y354300D02*
X155340Y354200D01*
X172900D01*
X173000Y354300D01*
Y357000D01*
X348791Y422183D02*
Y426500D01*
X347500Y420891D02*
X348791Y422183D01*
X327209Y420891D02*
X347500D01*
X326850Y421250D02*
X327209Y420891D01*
X192376Y448976D02*
X199035D01*
X190900Y447500D02*
X192376Y448976D01*
X190900Y407384D02*
Y447500D01*
Y407384D02*
X199784Y398500D01*
X307000Y440490D02*
X308800D01*
X308900Y440390D01*
Y421600D02*
Y440390D01*
X307150Y419850D02*
X308900Y421600D01*
X307150Y412000D02*
Y419850D01*
X331150Y432000D02*
Y437000D01*
Y432000D02*
X333150Y430000D01*
Y425000D02*
Y430000D01*
X330150Y449000D02*
Y460000D01*
X307500Y450700D02*
Y460500D01*
X307000Y450200D02*
X307500Y450700D01*
X307000Y440490D02*
Y450200D01*
X212488Y458016D02*
Y459984D01*
X279500Y474500D02*
Y483683D01*
Y474500D02*
X281500Y472500D01*
Y463468D02*
Y472500D01*
X324051Y467801D02*
Y475500D01*
X323850Y467600D02*
X324051Y467801D01*
X307500Y465500D02*
Y470500D01*
X173683Y478083D02*
X175882D01*
X168400Y472800D02*
X173683Y478083D01*
X156063Y472800D02*
X168400D01*
X153300Y475563D02*
X156063Y472800D01*
X143083Y475563D02*
X153300D01*
X143083Y464183D02*
Y475563D01*
X139500Y460600D02*
X143083Y464183D01*
X139500Y449358D02*
Y460600D01*
X323850Y449000D02*
Y460000D01*
Y449000D02*
X324850Y448000D01*
Y437000D02*
Y448000D01*
Y432000D02*
Y437000D01*
Y432000D02*
X326850Y430000D01*
Y425000D02*
Y430000D01*
X297350Y426000D02*
X303650D01*
X275850Y417500D02*
X282150D01*
X275520Y424831D02*
Y432000D01*
Y424831D02*
X275850Y424500D01*
Y417500D02*
Y424500D01*
X275520Y432000D02*
X283000D01*
X217016Y453488D02*
X218984D01*
X217016Y464512D02*
X218984D01*
D15*
X275268Y460000D02*
Y490332D01*
X175882Y459656D02*
Y478083D01*
X174626Y458400D02*
X175882Y459656D01*
X174626Y440000D02*
Y458400D01*
D17*
X281500Y463468D02*
D03*
Y458532D02*
D03*
X288500Y333469D02*
D03*
Y328532D02*
D03*
D18*
X262500Y460087D02*
D03*
Y453000D02*
D03*
X236000Y483543D02*
D03*
Y476457D02*
D03*
D19*
X210500Y479031D02*
D03*
Y481000D02*
D03*
Y482969D02*
D03*
Y484937D02*
D03*
D20*
X209516Y476472D02*
D03*
Y487496D02*
D03*
D21*
X222000Y484748D02*
D03*
Y478252D02*
D03*
D22*
X215047Y453488D02*
D03*
X217016D02*
D03*
X218984D02*
D03*
X220953D02*
D03*
Y464512D02*
D03*
X218984D02*
D03*
X217016D02*
D03*
X215047D02*
D03*
D23*
X223512Y456047D02*
D03*
Y458016D02*
D03*
Y459984D02*
D03*
Y461953D02*
D03*
X212488D02*
D03*
Y459984D02*
D03*
Y458016D02*
D03*
Y456047D02*
D03*
D24*
X279500Y489317D02*
D03*
Y483683D02*
D03*
D25*
X264000Y486327D02*
D03*
Y489673D02*
D03*
X258000Y471827D02*
D03*
Y475173D02*
D03*
D26*
X243500Y461384D02*
D03*
Y457616D02*
D03*
D27*
X251000Y487469D02*
D03*
Y483532D02*
D03*
D28*
X126988Y382441D02*
D03*
Y387559D02*
D03*
X120000Y385000D02*
D03*
D29*
X324051Y490500D02*
D03*
Y485500D02*
D03*
Y480500D02*
D03*
Y475500D02*
D03*
X342949Y490500D02*
D03*
Y485500D02*
D03*
Y480500D02*
D03*
Y475500D02*
D03*
D30*
X313500Y350642D02*
D03*
Y356547D02*
D03*
Y362453D02*
D03*
Y368358D02*
D03*
Y374264D02*
D03*
Y380169D02*
D03*
Y386075D02*
D03*
Y391980D02*
D03*
X363500D02*
D03*
Y386075D02*
D03*
Y380169D02*
D03*
Y374264D02*
D03*
Y368358D02*
D03*
Y362453D02*
D03*
Y356547D02*
D03*
Y350642D02*
D03*
D31*
X353421Y441500D02*
D03*
X343579D02*
D03*
D32*
X143291Y341000D02*
D03*
X149000D02*
D03*
X357854Y410000D02*
D03*
X352146D02*
D03*
X348791Y426500D02*
D03*
X354500D02*
D03*
D33*
X248736Y399941D02*
D03*
X250705D02*
D03*
X252673D02*
D03*
X254642D02*
D03*
X256610D02*
D03*
X258579D02*
D03*
X260547D02*
D03*
X262516D02*
D03*
X264484D02*
D03*
X266453D02*
D03*
X268421D02*
D03*
X270390D02*
D03*
X272358D02*
D03*
X274327D02*
D03*
X276295D02*
D03*
X278264D02*
D03*
Y355059D02*
D03*
X276295D02*
D03*
X274327D02*
D03*
X272358D02*
D03*
X270390D02*
D03*
X268421D02*
D03*
X266453D02*
D03*
X264484D02*
D03*
X262516D02*
D03*
X260547D02*
D03*
X258579D02*
D03*
X256610D02*
D03*
X254642D02*
D03*
X252673D02*
D03*
X250705D02*
D03*
X248736D02*
D03*
D34*
X285941Y392264D02*
D03*
Y390295D02*
D03*
Y388327D02*
D03*
Y386358D02*
D03*
Y384390D02*
D03*
Y382421D02*
D03*
Y380453D02*
D03*
Y378484D02*
D03*
Y376516D02*
D03*
Y374547D02*
D03*
Y372579D02*
D03*
Y370610D02*
D03*
Y368642D02*
D03*
Y366673D02*
D03*
Y364705D02*
D03*
Y362736D02*
D03*
X241059D02*
D03*
Y364705D02*
D03*
Y366673D02*
D03*
Y368642D02*
D03*
Y370610D02*
D03*
Y372579D02*
D03*
Y374547D02*
D03*
Y376516D02*
D03*
Y378484D02*
D03*
Y380453D02*
D03*
Y382421D02*
D03*
Y384390D02*
D03*
Y386358D02*
D03*
Y388327D02*
D03*
Y390295D02*
D03*
Y392264D02*
D03*
D35*
X139500Y445500D02*
D03*
Y449358D02*
D03*
D36*
X118500Y442500D02*
D03*
Y449012D02*
D03*
D37*
X307000Y440490D02*
D03*
Y437510D02*
D03*
D38*
X222000Y355500D02*
D03*
Y337784D02*
D03*
D39*
X173000Y357000D02*
D03*
X167685D02*
D03*
D40*
X241496Y316000D02*
D03*
X235000D02*
D03*
D41*
X178441Y478083D02*
D03*
X181000D02*
D03*
X183559D02*
D03*
X175882D02*
D03*
X186118D02*
D03*
D42*
X120445Y466311D02*
D03*
Y492689D02*
D03*
D43*
X143083Y475563D02*
D03*
Y483437D02*
D03*
D44*
X199035Y431024D02*
D03*
Y448976D02*
D03*
D45*
X174626Y440000D02*
D03*
D46*
X153000Y436827D02*
D03*
Y440173D02*
D03*
D47*
X160000Y419157D02*
D03*
Y413843D02*
D03*
D48*
X254850Y432500D02*
D03*
X261150D02*
D03*
X297350Y426000D02*
D03*
X303650D02*
D03*
X275850Y417500D02*
D03*
X282150D02*
D03*
X300850Y412000D02*
D03*
X307150D02*
D03*
X326850Y425000D02*
D03*
X333150D02*
D03*
X324850Y437000D02*
D03*
X331150D02*
D03*
X323850Y460000D02*
D03*
X330150D02*
D03*
X341701Y457000D02*
D03*
X348000D02*
D03*
D49*
X283000Y432000D02*
D03*
X275520D02*
D03*
X147760Y359000D02*
D03*
X155240D02*
D03*
D50*
X331000Y411500D02*
D03*
X318205D02*
D03*
D51*
X184453Y416500D02*
D03*
X178547D02*
D03*
D52*
X198047Y412000D02*
D03*
X203953D02*
D03*
D53*
X119500Y354500D02*
D03*
D54*
X111724Y349579D02*
D03*
Y351547D02*
D03*
Y353516D02*
D03*
Y355484D02*
D03*
Y357453D02*
D03*
Y359421D02*
D03*
X127276D02*
D03*
Y357453D02*
D03*
Y355484D02*
D03*
Y353516D02*
D03*
Y351547D02*
D03*
Y349579D02*
D03*
D55*
X114579Y362374D02*
D03*
X116547D02*
D03*
X118516D02*
D03*
X120484D02*
D03*
X122453D02*
D03*
X124421D02*
D03*
Y346626D02*
D03*
X122453D02*
D03*
X120484D02*
D03*
X118516D02*
D03*
X116547D02*
D03*
X114579D02*
D03*
D82*
X141500Y417000D02*
D03*
D83*
X121815D02*
D03*
D92*
X218000Y459000D02*
D03*
D93*
X235358Y415205D02*
D03*
Y440795D02*
D03*
X217642D02*
D03*
X217500Y372910D02*
D03*
Y398500D02*
D03*
X199784D02*
D03*
X276000Y312410D02*
D03*
Y338000D02*
D03*
X258284D02*
D03*
X203858Y331705D02*
D03*
Y357295D02*
D03*
X186142D02*
D03*
X181858Y375205D02*
D03*
Y400795D02*
D03*
X164142D02*
D03*
D94*
X217642Y415205D02*
D03*
X199784Y372910D02*
D03*
X258284Y312410D02*
D03*
X186142Y331705D02*
D03*
X164142Y375205D02*
D03*
D95*
X307500Y460500D02*
D03*
X302500D02*
D03*
X307500Y465500D02*
D03*
X302500D02*
D03*
X307500Y470500D02*
D03*
X302539D02*
D03*
X307500Y475500D02*
D03*
X302500D02*
D03*
X307500Y480500D02*
D03*
X302500D02*
D03*
D96*
X171157Y482217D02*
D03*
X190843D02*
D03*
D97*
X165744Y493043D02*
D03*
X196256D02*
D03*
D98*
X166335Y478083D02*
D03*
X195665D02*
D03*
D99*
X260537Y419063D02*
D03*
X211300Y355300D02*
D03*
X241672Y395700D02*
D03*
X177600Y386900D02*
D03*
X222400Y450900D02*
D03*
X152400Y483437D02*
D03*
X294800Y370800D02*
D03*
X303300Y361050D02*
D03*
X292900Y368642D02*
D03*
X369000Y356500D02*
D03*
X302000Y394800D02*
D03*
Y390500D02*
D03*
X305500Y334500D02*
D03*
X283232Y328532D02*
D03*
X350300Y436700D02*
D03*
X255349Y422213D02*
D03*
X265750Y426650D02*
D03*
X184453Y427500D02*
D03*
X216484Y468084D02*
D03*
X285300Y470500D02*
D03*
X211897Y452300D02*
D03*
X236984Y461384D02*
D03*
X213797Y467600D02*
D03*
X260700Y426100D02*
D03*
X262516Y414572D02*
D03*
X304600Y416300D02*
D03*
X264484Y350500D02*
D03*
X130500Y380500D02*
D03*
X316300Y482200D02*
D03*
X231800Y390100D02*
D03*
X314400Y475500D02*
D03*
X241900Y357850D02*
D03*
X243800Y355950D02*
D03*
X342400Y464500D02*
D03*
X344600Y470200D02*
D03*
X281600Y353400D02*
D03*
X204300Y395100D02*
D03*
X290370Y358800D02*
D03*
X274300Y412604D02*
D03*
X201700Y407700D02*
D03*
X209900Y456047D02*
D03*
X222500Y488000D02*
D03*
X313150Y480650D02*
D03*
X181000Y487500D02*
D03*
X291100Y395800D02*
D03*
X274750Y347100D02*
D03*
X236916Y342300D02*
D03*
X234400Y404600D02*
D03*
X268750Y349650D02*
D03*
X106000Y372500D02*
D03*
X248736Y407200D02*
D03*
X321650Y465500D02*
D03*
X351500Y418200D02*
D03*
X237500Y410350D02*
D03*
X266500Y407200D02*
D03*
X323500D02*
D03*
X255300Y485600D02*
D03*
X216036Y474164D02*
D03*
X330150Y447600D02*
D03*
X229900Y458016D02*
D03*
X241500Y474500D02*
D03*
X113200Y445300D02*
D03*
X139500Y442600D02*
D03*
X200800D02*
D03*
D100*
X218000Y459000D02*
D03*
X219969Y460969D02*
D03*
X216032D02*
D03*
Y457032D02*
D03*
X219969D02*
D03*
X123437Y358437D02*
D03*
Y354500D02*
D03*
Y350563D02*
D03*
X119500Y358437D02*
D03*
Y354500D02*
D03*
Y350563D02*
D03*
X115563Y358437D02*
D03*
Y354500D02*
D03*
Y350563D02*
D03*
M02*
