G04*
G04 #@! TF.GenerationSoftware,Altium Limited,Altium Designer,21.1.1 (26)*
G04*
G04 Layer_Physical_Order=2*
G04 Layer_Color=16711680*
%FSLAX25Y25*%
%MOIN*%
G70*
G04*
G04 #@! TF.SameCoordinates,5102835C-3560-4A17-A812-28AB7356CC0A*
G04*
G04*
G04 #@! TF.FilePolarity,Positive*
G04*
G01*
G75*
%ADD13C,0.00600*%
%ADD82R,0.06693X0.06693*%
%ADD83C,0.06693*%
%ADD93C,0.05906*%
%ADD94R,0.05906X0.05906*%
%ADD95C,0.03200*%
%ADD96C,0.03150*%
%ADD97O,0.04528X0.07087*%
%ADD98O,0.05709X0.07874*%
%ADD99C,0.02000*%
%ADD100C,0.01968*%
D13*
X270100Y420600D02*
X289400D01*
X204484Y403200D02*
X209500Y408216D01*
X197748Y440795D02*
X217642D01*
X192900D02*
X197748D01*
X151500Y388153D02*
X164142Y400795D01*
X151500Y364000D02*
Y388153D01*
X191800Y398500D02*
X199784D01*
X189800Y396500D02*
X191800Y398500D01*
X168437Y396500D02*
X189800D01*
X164142Y400795D02*
X168437Y396500D01*
X289400Y420600D02*
X307500Y438700D01*
Y460500D01*
X204484Y403200D02*
X221200D01*
X199784Y398500D02*
X204484Y403200D01*
X235358Y380453D02*
Y415205D01*
X258284Y350484D02*
X258600Y350800D01*
X258284Y338000D02*
Y350484D01*
X173550Y374650D02*
X178000Y379100D01*
X220800D01*
X223700Y376200D01*
X238300D01*
X241232Y379132D01*
Y395132D01*
X181700Y484400D02*
X202500Y463600D01*
Y450250D02*
Y463600D01*
Y450250D02*
X203750Y449000D01*
X218500D01*
X346700Y403300D02*
X348600Y405200D01*
X317000Y403300D02*
X346700D01*
X293200Y379500D02*
X317000Y403300D01*
X339050Y407783D02*
X342250D01*
X337685Y406418D02*
X339050Y407783D01*
X316203Y406418D02*
X337685D01*
X299994Y390209D02*
X316203Y406418D01*
X296897Y390209D02*
X299994D01*
X292500Y385812D02*
X296897Y390209D01*
X316710Y405200D02*
X341017D01*
X300403Y388893D02*
X316710Y405200D01*
X298943Y388893D02*
X300403D01*
X281600Y371550D02*
X298943Y388893D01*
X281600Y369000D02*
Y371550D01*
X290500Y384000D02*
Y390450D01*
X296510Y396460D01*
X300460D01*
X311618Y407618D01*
X335318D01*
X337300Y409600D01*
X265000Y344300D02*
X304900D01*
X263300Y342600D02*
X265000Y344300D01*
X263300Y334850D02*
Y342600D01*
X260155Y331705D02*
X263300Y334850D01*
X203858Y331705D02*
X260155D01*
X186142Y357295D02*
X190437Y353000D01*
X253783D01*
X254683Y353900D01*
X288200D01*
X292900Y349200D01*
X245700Y393200D02*
X261000Y408500D01*
X309500D01*
X310225Y409225D01*
X332623D01*
X335325Y411927D01*
X348427D01*
X348600Y412100D01*
X234637Y423800D02*
X280500D01*
X217642Y440795D02*
X234637Y423800D01*
X211600Y464400D02*
X243400D01*
X287100Y450100D02*
X300000Y463000D01*
X274300Y450100D02*
X287100D01*
X300000Y448300D02*
X303600Y444700D01*
X300000Y448300D02*
Y463000D01*
X302500Y465500D01*
X319100Y412300D02*
X322100Y415300D01*
X275000Y412300D02*
X319100D01*
X274500Y411800D02*
X275000Y412300D01*
X171650Y362200D02*
X182250Y351600D01*
X255900D01*
X257000Y352700D01*
X262384D01*
X264400Y350684D01*
X310000Y474250D02*
Y485500D01*
X308750Y473000D02*
X310000Y474250D01*
X279500Y473000D02*
X308750D01*
X278600Y472100D02*
X279500Y473000D01*
X243700Y357400D02*
Y398324D01*
X255276Y409900D01*
X308444D01*
X309444Y410900D01*
X331898D01*
X334125Y413127D01*
X339019D01*
X348392Y422500D01*
X347300Y478300D02*
X350500Y475100D01*
Y403750D02*
Y475100D01*
X344701Y397951D02*
X350500Y403750D01*
X317500Y397951D02*
X344701D01*
X316200Y396651D02*
X317500Y397951D01*
X316200Y357000D02*
Y396651D01*
X306484Y347284D02*
X316200Y357000D01*
X260547Y347284D02*
X306484D01*
X342900Y478900D02*
X347300Y483300D01*
X342900Y419850D02*
Y478900D01*
X339700Y416650D02*
X342900Y419850D01*
X336000Y416650D02*
X339700D01*
X334750Y417900D02*
X336000Y416650D01*
X310500Y417900D02*
X334750D01*
X306332Y413732D02*
X310500Y417900D01*
X243232Y413732D02*
X306332D01*
X168500Y361847D02*
X181858Y375205D01*
X168500Y359900D02*
Y361847D01*
Y359900D02*
X201100Y327300D01*
X266450D01*
X271700Y332550D01*
Y342400D01*
X193100Y497500D02*
X313350D01*
X314600Y496250D01*
Y436900D02*
Y496250D01*
X298000Y420300D02*
X314600Y436900D01*
X301900Y395100D02*
X303400Y396600D01*
X298650Y395100D02*
X301900D01*
X293400Y389850D02*
X298650Y395100D01*
X241857Y483543D02*
X250227Y475173D01*
X295188Y487812D02*
X302500Y480500D01*
X181232Y487812D02*
X295188D01*
X179100Y485681D02*
X181232Y487812D01*
X179100Y454595D02*
Y485681D01*
Y454595D02*
X192900Y440795D01*
X206100Y457700D02*
X207753Y456047D01*
X206100Y457700D02*
Y484500D01*
X207500Y485900D01*
X248300D01*
X109300Y344100D02*
Y358750D01*
X111150Y360600D01*
X163300D01*
X168000Y365300D01*
Y378750D01*
X169650Y380400D01*
X225100D01*
X228000Y377500D01*
X236250D01*
X237500Y378750D01*
Y396250D01*
X244350Y403100D01*
X203100Y394200D02*
X213200D01*
X217500Y398500D01*
X312700Y441500D02*
Y488600D01*
X290600Y419400D02*
X312700Y441500D01*
X213300Y419400D02*
X290600D01*
X211400Y417500D02*
X213300Y419400D01*
X211400Y408700D02*
Y417500D01*
X217500Y372910D02*
X235160Y355250D01*
X284650D01*
X291300Y361900D01*
Y375216D01*
X302539Y470500D02*
X305000Y468039D01*
Y447064D02*
Y468039D01*
Y447064D02*
X305544Y446520D01*
Y442864D02*
Y446520D01*
X305400Y442720D02*
X305544Y442864D01*
X274080Y442720D02*
X305400D01*
X272300Y444500D02*
X274080Y442720D01*
X260500Y404900D02*
X303700D01*
X208000Y461953D02*
X215003Y454950D01*
X281500D01*
X271500Y466200D02*
X282500D01*
X284800Y463900D01*
Y453750D02*
Y463900D01*
X283050Y452000D02*
X284800Y453750D01*
X207900Y452000D02*
X283050D01*
X293500Y360800D02*
Y364705D01*
X336650Y419800D02*
X337900Y418550D01*
X302550Y419800D02*
X336650D01*
X299950Y417200D02*
X302550Y419800D01*
X241300Y417200D02*
X299950D01*
X239400Y415300D02*
X241300Y417200D01*
X239400Y402400D02*
Y415300D01*
X343600Y487700D02*
X347900D01*
X340900Y485000D02*
X343600Y487700D01*
X340900Y465700D02*
Y485000D01*
X335200Y460000D02*
X340900Y465700D01*
X133000Y425500D02*
X141500Y417000D01*
X115600Y425500D02*
X133000D01*
X270100Y420600D02*
X270950Y421450D01*
X211250Y420600D02*
X270100D01*
X209500Y418850D02*
X211250Y420600D01*
X209500Y408216D02*
Y418850D01*
X181000Y466400D02*
X201200Y446200D01*
X264450D01*
X287600Y423050D01*
X184453Y427500D02*
X197748Y440795D01*
D82*
X141500Y417000D02*
D03*
D83*
X121815D02*
D03*
D93*
X235358Y415205D02*
D03*
Y440795D02*
D03*
X217642D02*
D03*
X217500Y372910D02*
D03*
Y398500D02*
D03*
X199784D02*
D03*
X276000Y312410D02*
D03*
Y338000D02*
D03*
X258284D02*
D03*
X203858Y331705D02*
D03*
Y357295D02*
D03*
X186142D02*
D03*
X181858Y375205D02*
D03*
Y400795D02*
D03*
X164142D02*
D03*
D94*
X217642Y415205D02*
D03*
X199784Y372910D02*
D03*
X258284Y312410D02*
D03*
X186142Y331705D02*
D03*
X164142Y375205D02*
D03*
D95*
X307500Y460500D02*
D03*
X302500D02*
D03*
X307500Y465500D02*
D03*
X302500D02*
D03*
X307500Y470500D02*
D03*
X302539D02*
D03*
X307500Y475500D02*
D03*
X302500D02*
D03*
X307500Y480500D02*
D03*
X302500D02*
D03*
D96*
X171157Y482217D02*
D03*
X190843D02*
D03*
D97*
X165744Y493043D02*
D03*
X196256D02*
D03*
D98*
X166335Y478083D02*
D03*
X195665D02*
D03*
D99*
X151500Y364000D02*
D03*
X221200Y403200D02*
D03*
X235358Y380453D02*
D03*
X258600Y350800D02*
D03*
X173550Y374650D02*
D03*
X241232Y395132D02*
D03*
X181700Y484400D02*
D03*
X218500Y449000D02*
D03*
X348600Y405200D02*
D03*
X293200Y379500D02*
D03*
X342250Y407783D02*
D03*
X292500Y385812D02*
D03*
X341017Y405200D02*
D03*
X281600Y369000D02*
D03*
X290500Y384000D02*
D03*
X337300Y409600D02*
D03*
X304900Y344300D02*
D03*
X292900Y349200D02*
D03*
X245700Y393200D02*
D03*
X348600Y412100D02*
D03*
X280500Y423800D02*
D03*
X211600Y464400D02*
D03*
X243400D02*
D03*
X274300Y450100D02*
D03*
X303600Y444700D02*
D03*
X322100Y415300D02*
D03*
X274500Y411800D02*
D03*
X171650Y362200D02*
D03*
X264400Y350684D02*
D03*
X310000Y485500D02*
D03*
X278600Y472100D02*
D03*
X243700Y357400D02*
D03*
X348392Y422500D02*
D03*
X347300Y478300D02*
D03*
X260547Y347284D02*
D03*
X347300Y483300D02*
D03*
X243232Y413732D02*
D03*
X271700Y342400D02*
D03*
X193100Y497500D02*
D03*
X298000Y420300D02*
D03*
X303400Y396600D02*
D03*
X293400Y389850D02*
D03*
X241857Y483543D02*
D03*
X250227Y475173D02*
D03*
X207753Y456047D02*
D03*
X248300Y485900D02*
D03*
X109300Y344100D02*
D03*
X244350Y403100D02*
D03*
X203100Y394200D02*
D03*
X312700Y488600D02*
D03*
X211400Y408700D02*
D03*
X291300Y375216D02*
D03*
X272300Y444500D02*
D03*
X303700Y404900D02*
D03*
X260500D02*
D03*
X208000Y461953D02*
D03*
X281500Y454950D02*
D03*
X271500Y466200D02*
D03*
X207900Y452000D02*
D03*
X293500Y364705D02*
D03*
Y360800D02*
D03*
X337900Y418550D02*
D03*
X239400Y402400D02*
D03*
X347900Y487700D02*
D03*
X335200Y460000D02*
D03*
X115600Y425500D02*
D03*
X270950Y421450D02*
D03*
X181000Y466400D02*
D03*
X287600Y423050D02*
D03*
X184453Y427500D02*
D03*
D100*
X218000Y459000D02*
D03*
X219969Y460969D02*
D03*
X216032D02*
D03*
Y457032D02*
D03*
X219969D02*
D03*
X123437Y358437D02*
D03*
Y354500D02*
D03*
Y350563D02*
D03*
X119500Y358437D02*
D03*
Y354500D02*
D03*
Y350563D02*
D03*
X115563Y358437D02*
D03*
Y354500D02*
D03*
Y350563D02*
D03*
M02*
