G04*
G04 #@! TF.GenerationSoftware,Altium Limited,Altium Designer,21.1.1 (26)*
G04*
G04 Layer_Color=8388736*
%FSLAX25Y25*%
%MOIN*%
G70*
G04*
G04 #@! TF.SameCoordinates,5102835C-3560-4A17-A812-28AB7356CC0A*
G04*
G04*
G04 #@! TF.FilePolarity,Positive*
G04*
G01*
G75*
%ADD11C,0.00591*%
%ADD12C,0.00787*%
%ADD101C,0.00394*%
%ADD102C,0.00200*%
D11*
X151736Y417000D02*
X151711Y418001D01*
X151636Y418999D01*
X151512Y419993D01*
X151338Y420978D01*
X151115Y421955D01*
X150844Y422918D01*
X150525Y423867D01*
X150160Y424799D01*
X149748Y425712D01*
X149291Y426603D01*
X148790Y427470D01*
X148247Y428311D01*
X147663Y429124D01*
X147039Y429906D01*
X146376Y430657D01*
X145677Y431374D01*
X144943Y432055D01*
X144176Y432698D01*
X143378Y433303D01*
X142551Y433867D01*
X141697Y434389D01*
X140817Y434867D01*
X139916Y435302D01*
X138993Y435691D01*
X138052Y436033D01*
X137095Y436328D01*
X136125Y436575D01*
X135144Y436774D01*
X134154Y436923D01*
X133158Y437023D01*
X132158Y437073D01*
X131157D01*
X130157Y437023D01*
X129161Y436923D01*
X128171Y436774D01*
X127190Y436575D01*
X126219Y436328D01*
X125263Y436033D01*
X124322Y435691D01*
X123399Y435302D01*
X122497Y434867D01*
X121618Y434389D01*
X120764Y433867D01*
X119937Y433303D01*
X119139Y432698D01*
X118372Y432055D01*
X117638Y431374D01*
X116939Y430657D01*
X116276Y429906D01*
X115652Y429124D01*
X115068Y428311D01*
X114524Y427470D01*
X114024Y426603D01*
X113567Y425712D01*
X113155Y424799D01*
X112790Y423867D01*
X112471Y422918D01*
X112199Y421955D01*
X111977Y420978D01*
X111803Y419993D01*
X111678Y418999D01*
X111604Y418001D01*
X111579Y417000D01*
X111604Y415999D01*
X111678Y415001D01*
X111803Y414007D01*
X111977Y413022D01*
X112199Y412045D01*
X112471Y411082D01*
X112790Y410133D01*
X113155Y409201D01*
X113567Y408288D01*
X114024Y407397D01*
X114524Y406530D01*
X115068Y405689D01*
X115652Y404876D01*
X116276Y404094D01*
X116939Y403343D01*
X117638Y402626D01*
X118372Y401945D01*
X119139Y401302D01*
X119937Y400697D01*
X120764Y400133D01*
X121618Y399611D01*
X122497Y399132D01*
X123399Y398698D01*
X124322Y398309D01*
X125263Y397967D01*
X126219Y397672D01*
X127190Y397425D01*
X128171Y397226D01*
X129161Y397077D01*
X130157Y396977D01*
X131157Y396927D01*
X132158D01*
X133158Y396977D01*
X134154Y397077D01*
X135144Y397226D01*
X136125Y397425D01*
X137096Y397672D01*
X138052Y397967D01*
X138993Y398309D01*
X139916Y398698D01*
X140818Y399132D01*
X141697Y399611D01*
X142551Y400133D01*
X143378Y400697D01*
X144176Y401302D01*
X144943Y401945D01*
X145677Y402626D01*
X146376Y403343D01*
X147039Y404094D01*
X147663Y404876D01*
X148247Y405689D01*
X148791Y406530D01*
X149291Y407397D01*
X149748Y408288D01*
X150160Y409201D01*
X150525Y410133D01*
X150844Y411082D01*
X151115Y412045D01*
X151338Y413022D01*
X151512Y414008D01*
X151636Y415001D01*
X151711Y415999D01*
X151736Y417000D01*
D12*
X279925Y457850D02*
X283075D01*
Y464150D01*
X279925D02*
X283075D01*
X279925Y457850D02*
Y464150D01*
X204201Y475685D02*
Y488283D01*
X210894D01*
Y475685D02*
Y488283D01*
X204201Y475685D02*
X210894D01*
X223772Y478154D02*
Y484846D01*
X220228Y478154D02*
X223772D01*
X220228D02*
Y484846D01*
X223772D01*
X277827Y483449D02*
X281173D01*
Y489551D01*
X277827D02*
X281173D01*
X277827Y483449D02*
Y489551D01*
X242516Y457532D02*
X244484D01*
Y461469D01*
X242516D02*
X244484D01*
X242516Y457532D02*
Y461469D01*
X249917Y483433D02*
X252083D01*
Y487567D01*
X249917D02*
X252083D01*
X249917Y483433D02*
Y487567D01*
X243421Y357421D02*
Y397579D01*
Y357421D02*
X283579D01*
Y397579D01*
X243421D02*
X283579D01*
X116925Y448906D02*
X120075D01*
X116925Y442606D02*
Y448906D01*
Y442606D02*
X120075D01*
Y448906D01*
X306016Y437032D02*
X307984D01*
Y440969D01*
X306016D02*
X307984D01*
X306016Y437032D02*
Y440969D01*
X234902Y314228D02*
Y317772D01*
Y314228D02*
X241594D01*
Y317772D01*
X234902D02*
X241594D01*
X286925Y327850D02*
X290075D01*
Y334150D01*
X286925D02*
X290075D01*
X286925Y327850D02*
Y334150D01*
X158130Y413350D02*
X161870D01*
Y419650D01*
X158130D02*
X161870D01*
X158130Y413350D02*
Y419650D01*
D101*
X166433Y500130D02*
X195567D01*
D102*
X186118Y501730D02*
X185433D01*
X185204Y501654D01*
X185128Y501578D01*
X185052Y501426D01*
Y501197D01*
X185128Y501045D01*
X185204Y500969D01*
X185433Y500892D01*
X186118D01*
Y502492D01*
X183551Y501273D02*
X183627Y501121D01*
X183780Y500969D01*
X183932Y500892D01*
X184237D01*
X184389Y500969D01*
X184541Y501121D01*
X184617Y501273D01*
X184694Y501502D01*
Y501883D01*
X184617Y502111D01*
X184541Y502264D01*
X184389Y502416D01*
X184237Y502492D01*
X183932D01*
X183780Y502416D01*
X183627Y502264D01*
X183551Y502111D01*
X183102Y500892D02*
Y502492D01*
Y500892D02*
X182416D01*
X182187Y500969D01*
X182111Y501045D01*
X182035Y501197D01*
Y501349D01*
X182111Y501502D01*
X182187Y501578D01*
X182416Y501654D01*
X183102D02*
X182416D01*
X182187Y501730D01*
X182111Y501807D01*
X182035Y501959D01*
Y502187D01*
X182111Y502340D01*
X182187Y502416D01*
X182416Y502492D01*
X183102D01*
X179430Y500892D02*
X180420D01*
Y502492D01*
X179430D01*
X180420Y501654D02*
X179811D01*
X178249Y500892D02*
Y502492D01*
Y501654D02*
X178402Y501502D01*
X178554Y501426D01*
X178782D01*
X178935Y501502D01*
X179087Y501654D01*
X179163Y501883D01*
Y502035D01*
X179087Y502264D01*
X178935Y502416D01*
X178782Y502492D01*
X178554D01*
X178402Y502416D01*
X178249Y502264D01*
X176909Y501426D02*
Y502644D01*
X176985Y502873D01*
X177061Y502949D01*
X177213Y503025D01*
X177442D01*
X177594Y502949D01*
X176909Y501654D02*
X177061Y501502D01*
X177213Y501426D01*
X177442D01*
X177594Y501502D01*
X177747Y501654D01*
X177823Y501883D01*
Y502035D01*
X177747Y502264D01*
X177594Y502416D01*
X177442Y502492D01*
X177213D01*
X177061Y502416D01*
X176909Y502264D01*
X176482Y501883D02*
X175568D01*
Y501730D01*
X175644Y501578D01*
X175720Y501502D01*
X175873Y501426D01*
X176101D01*
X176253Y501502D01*
X176406Y501654D01*
X176482Y501883D01*
Y502035D01*
X176406Y502264D01*
X176253Y502416D01*
X176101Y502492D01*
X175873D01*
X175720Y502416D01*
X175568Y502264D01*
M02*
