G04*
G04 #@! TF.GenerationSoftware,Altium Limited,Altium Designer,21.1.1 (26)*
G04*
G04 Layer_Color=65535*
%FSLAX25Y25*%
%MOIN*%
G70*
G04*
G04 #@! TF.SameCoordinates,D9F95C0E-15A9-44F3-8ABD-4EC37FB7AC5F*
G04*
G04*
G04 #@! TF.FilePolarity,Positive*
G04*
G01*
G75*
%ADD10C,0.00591*%
%ADD11C,0.00984*%
%ADD12C,0.00787*%
%ADD13C,0.00600*%
%ADD14C,0.00500*%
%ADD15C,0.01000*%
D10*
X151736Y417000D02*
X151711Y418001D01*
X151636Y418999D01*
X151512Y419993D01*
X151338Y420978D01*
X151115Y421955D01*
X150844Y422918D01*
X150525Y423867D01*
X150160Y424799D01*
X149748Y425712D01*
X149291Y426603D01*
X148790Y427470D01*
X148247Y428311D01*
X147663Y429124D01*
X147039Y429906D01*
X146376Y430657D01*
X145677Y431374D01*
X144943Y432055D01*
X144176Y432698D01*
X143378Y433303D01*
X142551Y433867D01*
X141697Y434389D01*
X140817Y434867D01*
X139916Y435302D01*
X138993Y435691D01*
X138052Y436033D01*
X137095Y436328D01*
X136125Y436575D01*
X135144Y436774D01*
X134154Y436923D01*
X133158Y437023D01*
X132158Y437073D01*
X131157D01*
X130157Y437023D01*
X129161Y436923D01*
X128171Y436774D01*
X127190Y436575D01*
X126219Y436328D01*
X125263Y436033D01*
X124322Y435691D01*
X123399Y435302D01*
X122497Y434867D01*
X121618Y434389D01*
X120764Y433867D01*
X119937Y433303D01*
X119139Y432698D01*
X118372Y432055D01*
X117638Y431374D01*
X116939Y430657D01*
X116276Y429906D01*
X115652Y429124D01*
X115068Y428311D01*
X114524Y427470D01*
X114024Y426603D01*
X113567Y425712D01*
X113155Y424799D01*
X112790Y423867D01*
X112471Y422918D01*
X112199Y421955D01*
X111977Y420978D01*
X111803Y419993D01*
X111678Y418999D01*
X111604Y418001D01*
X111579Y417000D01*
X111604Y415999D01*
X111678Y415001D01*
X111803Y414007D01*
X111977Y413022D01*
X112199Y412045D01*
X112471Y411082D01*
X112790Y410133D01*
X113155Y409201D01*
X113567Y408288D01*
X114024Y407397D01*
X114524Y406530D01*
X115068Y405689D01*
X115652Y404876D01*
X116276Y404094D01*
X116939Y403343D01*
X117638Y402626D01*
X118372Y401945D01*
X119139Y401302D01*
X119937Y400697D01*
X120764Y400133D01*
X121618Y399611D01*
X122497Y399132D01*
X123399Y398698D01*
X124322Y398309D01*
X125263Y397967D01*
X126219Y397672D01*
X127190Y397425D01*
X128171Y397226D01*
X129161Y397077D01*
X130157Y396977D01*
X131157Y396927D01*
X132158D01*
X133158Y396977D01*
X134154Y397077D01*
X135144Y397226D01*
X136125Y397425D01*
X137096Y397672D01*
X138052Y397967D01*
X138993Y398309D01*
X139916Y398698D01*
X140818Y399132D01*
X141697Y399611D01*
X142551Y400133D01*
X143378Y400697D01*
X144176Y401302D01*
X144943Y401945D01*
X145677Y402626D01*
X146376Y403343D01*
X147039Y404094D01*
X147663Y404876D01*
X148247Y405689D01*
X148791Y406530D01*
X149291Y407397D01*
X149748Y408288D01*
X150160Y409201D01*
X150525Y410133D01*
X150844Y411082D01*
X151115Y412045D01*
X151338Y413022D01*
X151512Y414008D01*
X151636Y415001D01*
X151711Y415999D01*
X151736Y417000D01*
D11*
X324543Y493847D02*
X323805Y494273D01*
Y493420D01*
X324543Y493847D01*
X236335Y392362D02*
X235596Y392788D01*
Y391936D01*
X236335Y392362D01*
X218134Y410087D02*
X217396Y410513D01*
Y409660D01*
X218134Y410087D01*
X212882Y450240D02*
X212144Y450666D01*
Y449814D01*
X212882Y450240D01*
X200276Y367791D02*
X199538Y368218D01*
Y367365D01*
X200276Y367791D01*
X231653Y316000D02*
X230915Y316426D01*
Y315574D01*
X231653Y316000D01*
X258776Y307291D02*
X258037Y307718D01*
Y306865D01*
X258776Y307291D01*
X186634Y326587D02*
X185896Y327013D01*
Y326160D01*
X186634Y326587D01*
X152630Y483437D02*
X151892Y483863D01*
Y483011D01*
X152630Y483437D01*
X199528Y427087D02*
X198789Y427513D01*
Y426660D01*
X199528Y427087D01*
X222492Y488587D02*
X221754Y489013D01*
Y488160D01*
X222492Y488587D01*
X164634Y370087D02*
X163896Y370513D01*
Y369660D01*
X164634Y370087D01*
X214339Y487496D02*
X213600Y487922D01*
Y487070D01*
X214339Y487496D01*
X111921Y343280D02*
X111183Y343706D01*
Y342853D01*
X111921Y343280D01*
D12*
X372203Y350839D02*
X371871Y351751D01*
X371030Y352237D01*
X370074Y352068D01*
X369450Y351324D01*
Y350353D01*
X370074Y349609D01*
X371030Y349441D01*
X371871Y349926D01*
X372203Y350839D01*
X153705Y416409D02*
Y417591D01*
X153114Y417000D02*
X154295D01*
X329957Y473157D02*
Y492843D01*
X337043Y473157D02*
Y492843D01*
X329957D02*
X337043D01*
X329957Y473157D02*
X337043D01*
X365075Y323083D02*
Y347295D01*
X311925Y395917D02*
X365075D01*
X311925Y323083D02*
Y347295D01*
Y323083D02*
X365075D01*
X347122Y438547D02*
X349878D01*
X347122Y444453D02*
X349878D01*
X243421Y394331D02*
Y397579D01*
Y357421D02*
Y360669D01*
X280331Y357421D02*
X283579D01*
X243421D02*
X246669D01*
X283579Y394331D02*
Y397579D01*
Y357421D02*
Y360669D01*
X280331Y397579D02*
X283579D01*
X243421D02*
X246669D01*
X222169Y416189D02*
X230941D01*
X222059Y439811D02*
X230941D01*
X238311Y418638D02*
Y437362D01*
X214689Y419732D02*
Y437362D01*
X122067Y440220D02*
Y451292D01*
X114933Y440220D02*
Y451292D01*
X211799Y452799D02*
X212921D01*
X211799D02*
Y453921D01*
Y464079D02*
Y465201D01*
X212921D01*
X223079D02*
X224201D01*
Y464079D02*
Y465201D01*
X223079Y452799D02*
X224201D01*
Y453921D01*
X204311Y373894D02*
X213083D01*
X204201Y397516D02*
X213083D01*
X220453Y376343D02*
Y395067D01*
X196831Y377437D02*
Y395067D01*
X304343Y436495D02*
Y441505D01*
X309657Y436495D02*
Y441505D01*
X228496Y341917D02*
Y351366D01*
X215504Y341917D02*
Y351366D01*
X238051Y314228D02*
X238445D01*
X238051Y317772D02*
X238445D01*
X262811Y313394D02*
X271583D01*
X262701Y337016D02*
X271583D01*
X278953Y315843D02*
Y334567D01*
X255331Y316937D02*
Y334567D01*
X190669Y332689D02*
X199441D01*
X190559Y356311D02*
X199441D01*
X206811Y335138D02*
Y353862D01*
X183189Y336232D02*
Y353862D01*
X285154Y327039D02*
Y334961D01*
X291846Y327039D02*
Y334961D01*
X170370Y476508D02*
X173717D01*
X165252Y483004D02*
Y488319D01*
X196748Y483004D02*
Y488319D01*
X188283Y476508D02*
X191630D01*
X114539Y470839D02*
Y488161D01*
X128713Y463949D02*
X144461D01*
Y467098D01*
X138161D02*
X144461D01*
X138161D02*
Y472020D01*
Y486980D02*
Y491902D01*
X144461D01*
Y495051D01*
X128713D02*
X144461D01*
X188406Y427008D02*
X190571D01*
X188406Y452992D02*
X190571D01*
Y427008D02*
Y452992D01*
X163346Y413350D02*
Y419650D01*
X156654Y413350D02*
Y419650D01*
X220228Y481303D02*
Y481697D01*
X223772Y481303D02*
Y481697D01*
X257803Y434764D02*
X258197D01*
X257803Y430236D02*
X258197D01*
X168669Y376189D02*
X177441D01*
X168559Y399811D02*
X177441D01*
X184811Y378638D02*
Y397362D01*
X161189Y379732D02*
Y397362D01*
X300303Y428264D02*
X300697D01*
X300303Y423736D02*
X300697D01*
X278803Y419764D02*
X279197D01*
X278803Y415236D02*
X279197D01*
X303803Y414264D02*
X304197D01*
X303803Y409736D02*
X304197D01*
X329803Y427264D02*
X330197D01*
X329803Y422736D02*
X330197D01*
X327803Y439264D02*
X328197D01*
X327803Y434736D02*
X328197D01*
X326803Y462264D02*
X327197D01*
X326803Y457736D02*
X327197D01*
X322043Y405988D02*
X327161D01*
X322043Y417012D02*
X327161D01*
X344654Y459264D02*
X345047D01*
X344654Y454736D02*
X345047D01*
X204201Y475685D02*
X206268D01*
X204201Y488283D02*
X206268D01*
X204201Y475685D02*
Y488283D01*
X127768Y346232D02*
Y347315D01*
X126685Y346232D02*
X127768D01*
Y361685D02*
Y362768D01*
X126685D02*
X127768D01*
X111232D02*
X112315D01*
X111232Y361685D02*
Y362768D01*
Y346232D02*
Y347315D01*
Y346232D02*
X112315D01*
D13*
X120533Y380563D02*
Y382803D01*
X126455Y384638D02*
Y385362D01*
X120533Y389437D02*
X123894D01*
X120533Y387197D02*
Y389437D01*
Y380563D02*
X123894D01*
D14*
X297717Y448354D02*
Y492646D01*
Y448354D02*
X312283D01*
X297717Y492646D02*
X312283D01*
Y448354D02*
Y465874D01*
Y475126D02*
Y492646D01*
X96497Y384501D02*
Y387499D01*
X97496Y386500D01*
X98496Y387499D01*
Y384501D01*
X100995Y387499D02*
X99996D01*
X99496Y387000D01*
Y385000D01*
X99996Y384501D01*
X100995D01*
X101495Y385000D01*
Y387000D01*
X100995Y387499D01*
X104494Y387000D02*
X103994Y387499D01*
X102995D01*
X102495Y387000D01*
Y386500D01*
X102995Y386000D01*
X103994D01*
X104494Y385500D01*
Y385000D01*
X103994Y384501D01*
X102995D01*
X102495Y385000D01*
X107493Y387499D02*
X105494D01*
Y386000D01*
X106493D01*
X105494D01*
Y384501D01*
X110492Y387499D02*
X108493D01*
Y384501D01*
X110492D01*
X108493Y386000D02*
X109493D01*
X111492Y387499D02*
X113491D01*
X112492D01*
Y384501D01*
X113299Y443899D02*
X112800Y444399D01*
X111800D01*
X111300Y443899D01*
Y443399D01*
X111800Y442900D01*
X112800D01*
X113299Y442400D01*
Y441900D01*
X112800Y441400D01*
X111800D01*
X111300Y441900D01*
X114299Y440400D02*
Y443399D01*
X115799D01*
X116298Y442900D01*
Y441900D01*
X115799Y441400D01*
X114299D01*
X118798D02*
X117798D01*
X117298Y441900D01*
Y442900D01*
X117798Y443399D01*
X118798D01*
X119297Y442900D01*
Y442400D01*
X117298D01*
X120797Y443399D02*
X121797D01*
X122296Y442900D01*
Y441400D01*
X120797D01*
X120297Y441900D01*
X120797Y442400D01*
X122296D01*
X123296Y441400D02*
Y444399D01*
Y442400D02*
X124796Y443399D01*
X123296Y442400D02*
X124796Y441400D01*
X127795D02*
X126795D01*
X126295Y441900D01*
Y442900D01*
X126795Y443399D01*
X127795D01*
X128295Y442900D01*
Y442400D01*
X126295D01*
X129294Y443399D02*
Y441400D01*
Y442400D01*
X129794Y442900D01*
X130294Y443399D01*
X130794D01*
X354001Y490500D02*
Y492500D01*
X353501Y493000D01*
X352502D01*
X352002Y492500D01*
Y490500D01*
X352502Y490000D01*
X353501D01*
X353001Y491000D02*
X354001Y490000D01*
X353501D02*
X354001Y490500D01*
X357000Y492500D02*
X356500Y493000D01*
X355501D01*
X355001Y492500D01*
Y492000D01*
X355501Y491500D01*
X356500D01*
X357000Y491000D01*
Y490500D01*
X356500Y490000D01*
X355501D01*
X355001Y490500D01*
X358000Y490000D02*
Y493000D01*
X359499D01*
X359999Y492500D01*
Y491500D01*
X359499Y491000D01*
X358000D01*
X360999Y493000D02*
X361998D01*
X361498D01*
Y490000D01*
X360999D01*
X361998D01*
X309000Y402499D02*
Y399500D01*
X310500D01*
X310999Y400000D01*
Y400500D01*
X310500Y400999D01*
X309000D01*
X310500D01*
X310999Y401499D01*
Y401999D01*
X310500Y402499D01*
X309000D01*
X311999D02*
Y399500D01*
X313998D01*
X316997Y402499D02*
X314998D01*
Y399500D01*
X316997D01*
X314998Y400999D02*
X315998D01*
X341600Y450999D02*
Y450499D01*
X342600Y449500D01*
X343599Y450499D01*
Y450999D01*
X342600Y449500D02*
Y448000D01*
X344599D02*
X345599D01*
X345099D01*
Y450999D01*
X344599Y450499D01*
X139900Y347700D02*
Y349699D01*
X140900Y350699D01*
X141899Y349699D01*
Y347700D01*
Y349200D01*
X139900D01*
X144898Y350199D02*
X144399Y350699D01*
X143399D01*
X142899Y350199D01*
Y348200D01*
X143399Y347700D01*
X144399D01*
X144898Y348200D01*
X145898Y350199D02*
X146398Y350699D01*
X147398D01*
X147897Y350199D01*
Y349699D01*
X147398Y349200D01*
X146898D01*
X147398D01*
X147897Y348700D01*
Y348200D01*
X147398Y347700D01*
X146398D01*
X145898Y348200D01*
X148001Y495500D02*
Y493000D01*
X148501Y492500D01*
X149501D01*
X150001Y493000D01*
Y495500D01*
X153000Y495000D02*
X152500Y495500D01*
X151500D01*
X151000Y495000D01*
Y494500D01*
X151500Y494000D01*
X152500D01*
X153000Y493500D01*
Y493000D01*
X152500Y492500D01*
X151500D01*
X151000Y493000D01*
X153999Y495500D02*
Y492500D01*
X155499D01*
X155999Y493000D01*
Y493500D01*
X155499Y494000D01*
X153999D01*
X155499D01*
X155999Y494500D01*
Y495000D01*
X155499Y495500D01*
X153999D01*
X239001Y408499D02*
Y406000D01*
X239501Y405501D01*
X240500D01*
X241000Y406000D01*
Y408499D01*
X242000Y408000D02*
X242500Y408499D01*
X243499D01*
X243999Y408000D01*
Y407500D01*
X243000Y406500D01*
Y406000D02*
Y405501D01*
X304400Y444800D02*
X305900D01*
X306399Y445300D01*
X305900Y445800D01*
X304900D01*
X304400Y446300D01*
X304900Y446799D01*
X306399D01*
X307399D02*
Y445300D01*
X307899Y444800D01*
X308399Y445300D01*
X308898Y444800D01*
X309398Y445300D01*
Y446799D01*
X312397Y447799D02*
Y444800D01*
X310898D01*
X310398Y445300D01*
Y446300D01*
X310898Y446799D01*
X312397D01*
X313397D02*
Y444800D01*
Y445800D01*
X313897Y446300D01*
X314397Y446799D01*
X314897D01*
X163199Y409199D02*
X162699Y409699D01*
X161700D01*
X161200Y409199D01*
Y408699D01*
X161700Y408200D01*
X162699D01*
X163199Y407700D01*
Y407200D01*
X162699Y406700D01*
X161700D01*
X161200Y407200D01*
X164199Y409699D02*
Y406700D01*
X165199Y407700D01*
X166198Y406700D01*
Y409699D01*
X167198Y409199D02*
X167698Y409699D01*
X168698D01*
X169197Y409199D01*
Y408699D01*
X168698Y408200D01*
X168198D01*
X168698D01*
X169197Y407700D01*
Y407200D01*
X168698Y406700D01*
X167698D01*
X167198Y407200D01*
X223501Y447000D02*
X223001Y447500D01*
X222001D01*
X221501Y447000D01*
Y446500D01*
X222001Y446000D01*
X223001D01*
X223501Y445500D01*
Y445000D01*
X223001Y444500D01*
X222001D01*
X221501Y445000D01*
X224500Y447500D02*
Y444500D01*
X225500Y445500D01*
X226500Y444500D01*
Y447500D01*
X229499Y444500D02*
X227499D01*
X229499Y446500D01*
Y447000D01*
X228999Y447500D01*
X227999D01*
X227499Y447000D01*
X198799Y406899D02*
X198300Y407399D01*
X197300D01*
X196800Y406899D01*
Y406399D01*
X197300Y405899D01*
X198300D01*
X198799Y405400D01*
Y404900D01*
X198300Y404400D01*
X197300D01*
X196800Y404900D01*
X199799Y407399D02*
Y404400D01*
X200799Y405400D01*
X201798Y404400D01*
Y407399D01*
X202798Y404400D02*
X203798D01*
X203298D01*
Y407399D01*
X202798Y406899D01*
X153599Y447099D02*
X153100Y447599D01*
X152100D01*
X151600Y447099D01*
Y446599D01*
X152100Y446100D01*
X153100D01*
X153599Y445600D01*
Y445100D01*
X153100Y444600D01*
X152100D01*
X151600Y445100D01*
X154599Y444600D02*
Y447599D01*
X156099D01*
X156598Y447099D01*
Y446100D01*
X156099Y445600D01*
X154599D01*
X157598Y444600D02*
Y447599D01*
X159098D01*
X159597Y447099D01*
Y446100D01*
X159098Y445600D01*
X157598D01*
X158598D02*
X159597Y444600D01*
X162596D02*
X160597D01*
X162596Y446599D01*
Y447099D01*
X162097Y447599D01*
X161097D01*
X160597Y447099D01*
X158799Y426299D02*
X158300Y426799D01*
X157300D01*
X156800Y426299D01*
Y425799D01*
X157300Y425300D01*
X158300D01*
X158799Y424800D01*
Y424300D01*
X158300Y423800D01*
X157300D01*
X156800Y424300D01*
X159799Y423800D02*
Y426799D01*
X161299D01*
X161798Y426299D01*
Y425300D01*
X161299Y424800D01*
X159799D01*
X162798Y423800D02*
Y426799D01*
X164298D01*
X164797Y426299D01*
Y425300D01*
X164298Y424800D01*
X162798D01*
X163798D02*
X164797Y423800D01*
X165797D02*
X166797D01*
X166297D01*
Y426799D01*
X165797Y426299D01*
X196100Y417900D02*
Y420899D01*
X197599D01*
X198099Y420399D01*
Y419399D01*
X197599Y418900D01*
X196100D01*
X197100D02*
X198099Y417900D01*
X201098D02*
X199099D01*
X201098Y419899D01*
Y420399D01*
X200599Y420899D01*
X199599D01*
X199099Y420399D01*
X176600Y422200D02*
Y425199D01*
X178100D01*
X178599Y424699D01*
Y423700D01*
X178100Y423200D01*
X176600D01*
X177600D02*
X178599Y422200D01*
X179599D02*
X180599D01*
X180099D01*
Y425199D01*
X179599Y424699D01*
X315900Y422999D02*
Y420000D01*
X317899D01*
X318899D02*
X319899D01*
X319399D01*
Y422999D01*
X318899Y422499D01*
X299999Y498399D02*
X299000D01*
X299500D01*
Y495900D01*
X299000Y495400D01*
X298500D01*
X298000Y495900D01*
X300999Y495400D02*
X301999D01*
X301499D01*
Y498399D01*
X300999Y497899D01*
X203900Y494999D02*
Y492000D01*
X205399D01*
X205899Y492500D01*
Y494499D01*
X205399Y494999D01*
X203900D01*
X206899Y492000D02*
Y494999D01*
X208399D01*
X208898Y494499D01*
Y493500D01*
X208399Y493000D01*
X206899D01*
X207899D02*
X208898Y492000D01*
X221001Y496499D02*
Y493501D01*
X222500D01*
X223000Y494000D01*
Y496000D01*
X222500Y496499D01*
X221001D01*
X225999Y496000D02*
X225499Y496499D01*
X224500D01*
X224000Y496000D01*
Y494000D01*
X224500Y493501D01*
X225499D01*
X225999Y494000D01*
Y495000D01*
X224999D01*
X230700Y324099D02*
Y321100D01*
X232200D01*
X232699Y321600D01*
Y323599D01*
X232200Y324099D01*
X230700D01*
X233699D02*
Y321100D01*
X235198D01*
X235698Y321600D01*
Y322100D01*
X235198Y322600D01*
X233699D01*
X235198D01*
X235698Y323099D01*
Y323599D01*
X235198Y324099D01*
X233699D01*
X184339Y469000D02*
X184006Y469333D01*
X183339D01*
X183006Y469000D01*
Y467667D01*
X183339Y467334D01*
X184006D01*
X184339Y467667D01*
X185005Y469333D02*
Y467334D01*
Y468333D01*
X185339Y468666D01*
X186005D01*
X186338Y468333D01*
Y467334D01*
X187338Y468666D02*
X188005D01*
X188338Y468333D01*
Y467334D01*
X187338D01*
X187005Y467667D01*
X187338Y468000D01*
X188338D01*
X189004Y468666D02*
Y467334D01*
Y468000D01*
X189337Y468333D01*
X189671Y468666D01*
X190004D01*
X191670Y466667D02*
X192003D01*
X192336Y467000D01*
Y468666D01*
X191337D01*
X191004Y468333D01*
Y467667D01*
X191337Y467334D01*
X192336D01*
X193003D02*
X193669D01*
X193336D01*
Y468666D01*
X193003D01*
X194669Y467334D02*
Y468666D01*
X195669D01*
X196002Y468333D01*
Y467334D01*
X197335Y466667D02*
X197668D01*
X198001Y467000D01*
Y468666D01*
X197002D01*
X196668Y468333D01*
Y467667D01*
X197002Y467334D01*
X198001D01*
X202000Y469000D02*
X201667Y469333D01*
X201000D01*
X200667Y469000D01*
Y467667D01*
X201000Y467334D01*
X201667D01*
X202000Y467667D01*
X203000Y467334D02*
X203666D01*
X203999Y467667D01*
Y468333D01*
X203666Y468666D01*
X203000D01*
X202666Y468333D01*
Y467667D01*
X203000Y467334D01*
X204666D02*
Y468666D01*
X205665D01*
X205999Y468333D01*
Y467334D01*
X206998Y469000D02*
Y468666D01*
X206665D01*
X207332D01*
X206998D01*
Y467667D01*
X207332Y467334D01*
X208331Y468666D02*
Y467334D01*
Y468000D01*
X208664Y468333D01*
X208998Y468666D01*
X209331D01*
X210664Y467334D02*
X211330D01*
X211664Y467667D01*
Y468333D01*
X211330Y468666D01*
X210664D01*
X210331Y468333D01*
Y467667D01*
X210664Y467334D01*
X212330D02*
X212996D01*
X212663D01*
Y469333D01*
X212330D01*
X213996Y467334D02*
X214663D01*
X214329D01*
Y469333D01*
X213996D01*
X216662Y467334D02*
X215996D01*
X215662Y467667D01*
Y468333D01*
X215996Y468666D01*
X216662D01*
X216995Y468333D01*
Y468000D01*
X215662D01*
X217662Y468666D02*
Y467334D01*
Y468000D01*
X217995Y468333D01*
X218328Y468666D01*
X218661D01*
X219661Y469000D02*
X219994Y469333D01*
X220661D01*
X220994Y469000D01*
Y468666D01*
X220327Y468000D01*
Y467667D02*
Y467334D01*
X238001Y465000D02*
X237501Y465499D01*
X236502D01*
X236002Y465000D01*
Y463000D01*
X236502Y462500D01*
X237501D01*
X238001Y463000D01*
X241000Y465000D02*
X240500Y465499D01*
X239501D01*
X239001Y465000D01*
Y463000D01*
X239501Y462500D01*
X240500D01*
X241000Y463000D01*
X242000Y462500D02*
Y465499D01*
X243499D01*
X243999Y465000D01*
Y464000D01*
X243499Y463500D01*
X242000D01*
X243000D02*
X243999Y462500D01*
X246998Y465499D02*
X244999D01*
Y464000D01*
X245999Y464500D01*
X246498D01*
X246998Y464000D01*
Y463000D01*
X246498Y462500D01*
X245499D01*
X244999Y463000D01*
X254799Y493799D02*
X254299Y494299D01*
X253300D01*
X252800Y493799D01*
Y491800D01*
X253300Y491300D01*
X254299D01*
X254799Y491800D01*
X257798Y493799D02*
X257298Y494299D01*
X256299D01*
X255799Y493799D01*
Y491800D01*
X256299Y491300D01*
X257298D01*
X257798Y491800D01*
X258798Y491300D02*
Y494299D01*
X260298D01*
X260797Y493799D01*
Y492800D01*
X260298Y492300D01*
X258798D01*
X259798D02*
X260797Y491300D01*
X263297D02*
Y494299D01*
X261797Y492800D01*
X263796D01*
X261001Y467500D02*
X260501Y468000D01*
X259502D01*
X259002Y467500D01*
Y465500D01*
X259502Y465000D01*
X260501D01*
X261001Y465500D01*
X264000Y467500D02*
X263500Y468000D01*
X262501D01*
X262001Y467500D01*
Y465500D01*
X262501Y465000D01*
X263500D01*
X264000Y465500D01*
X265000Y465000D02*
Y468000D01*
X266499D01*
X266999Y467500D01*
Y466500D01*
X266499Y466000D01*
X265000D01*
X266000D02*
X266999Y465000D01*
X267999Y467500D02*
X268499Y468000D01*
X269498D01*
X269998Y467500D01*
Y467000D01*
X269498Y466500D01*
X268999D01*
X269498D01*
X269998Y466000D01*
Y465500D01*
X269498Y465000D01*
X268499D01*
X267999Y465500D01*
X275499Y493799D02*
X274999Y494299D01*
X274000D01*
X273500Y493799D01*
Y491800D01*
X274000Y491300D01*
X274999D01*
X275499Y491800D01*
X278498Y493799D02*
X277998Y494299D01*
X276999D01*
X276499Y493799D01*
Y491800D01*
X276999Y491300D01*
X277998D01*
X278498Y491800D01*
X279498Y491300D02*
Y494299D01*
X280998D01*
X281497Y493799D01*
Y492800D01*
X280998Y492300D01*
X279498D01*
X280498D02*
X281497Y491300D01*
X284496D02*
X282497D01*
X284496Y493299D01*
Y493799D01*
X283997Y494299D01*
X282997D01*
X282497Y493799D01*
X238501Y496000D02*
X238001Y496499D01*
X237001D01*
X236502Y496000D01*
Y494000D01*
X237001Y493501D01*
X238001D01*
X238501Y494000D01*
X241500Y496000D02*
X241000Y496499D01*
X240001D01*
X239501Y496000D01*
Y494000D01*
X240001Y493501D01*
X241000D01*
X241500Y494000D01*
X242500Y493501D02*
Y496499D01*
X243999D01*
X244499Y496000D01*
Y495000D01*
X243999Y494500D01*
X242500D01*
X243499D02*
X244499Y493501D01*
X245499D02*
X246498D01*
X245999D01*
Y496499D01*
X245499Y496000D01*
X277299Y465799D02*
X276800Y466299D01*
X275800D01*
X275300Y465799D01*
Y463800D01*
X275800Y463300D01*
X276800D01*
X277299Y463800D01*
X280298Y465799D02*
X279799Y466299D01*
X278799D01*
X278299Y465799D01*
Y463800D01*
X278799Y463300D01*
X279799D01*
X280298Y463800D01*
X283297Y465799D02*
X282798Y466299D01*
X281798D01*
X281298Y465799D01*
Y463800D01*
X281798Y463300D01*
X282798D01*
X283297Y463800D01*
X284297Y463300D02*
X285297D01*
X284797D01*
Y466299D01*
X284297Y465799D01*
X341699Y465199D02*
X341199Y465699D01*
X340200D01*
X339700Y465199D01*
Y463200D01*
X340200Y462700D01*
X341199D01*
X341699Y463200D01*
X342699Y462700D02*
X343699D01*
X343199D01*
Y465699D01*
X342699Y465199D01*
X345198Y462700D02*
X346198D01*
X345698D01*
Y465699D01*
X345198Y465199D01*
X347399Y435699D02*
X346900Y436199D01*
X345900D01*
X345400Y435699D01*
Y433700D01*
X345900Y433200D01*
X346900D01*
X347399Y433700D01*
X348399Y433200D02*
X349399D01*
X348899D01*
Y436199D01*
X348399Y435699D01*
X350898D02*
X351398Y436199D01*
X352398D01*
X352898Y435699D01*
Y433700D01*
X352398Y433200D01*
X351398D01*
X350898Y433700D01*
Y435699D01*
X350699Y419199D02*
X350200Y419699D01*
X349200D01*
X348700Y419199D01*
Y417200D01*
X349200Y416700D01*
X350200D01*
X350699Y417200D01*
X351699D02*
X352199Y416700D01*
X353199D01*
X353698Y417200D01*
Y419199D01*
X353199Y419699D01*
X352199D01*
X351699Y419199D01*
Y418699D01*
X352199Y418199D01*
X353698D01*
X300899Y420199D02*
X300399Y420699D01*
X299400D01*
X298900Y420199D01*
Y418200D01*
X299400Y417700D01*
X300399D01*
X300899Y418200D01*
X301899Y420199D02*
X302399Y420699D01*
X303398D01*
X303898Y420199D01*
Y419699D01*
X303398Y419200D01*
X303898Y418700D01*
Y418200D01*
X303398Y417700D01*
X302399D01*
X301899Y418200D01*
Y418700D01*
X302399Y419200D01*
X301899Y419699D01*
Y420199D01*
X302399Y419200D02*
X303398D01*
X326899Y433199D02*
X326399Y433699D01*
X325400D01*
X324900Y433199D01*
Y431200D01*
X325400Y430700D01*
X326399D01*
X326899Y431200D01*
X327899Y433699D02*
X329898D01*
Y433199D01*
X327899Y431200D01*
Y430700D01*
X324899Y445199D02*
X324399Y445699D01*
X323400D01*
X322900Y445199D01*
Y443200D01*
X323400Y442700D01*
X324399D01*
X324899Y443200D01*
X327898Y445699D02*
X326899Y445199D01*
X325899Y444200D01*
Y443200D01*
X326399Y442700D01*
X327398D01*
X327898Y443200D01*
Y443700D01*
X327398Y444200D01*
X325899D01*
X323899Y468199D02*
X323399Y468699D01*
X322400D01*
X321900Y468199D01*
Y466200D01*
X322400Y465700D01*
X323399D01*
X323899Y466200D01*
X326898Y468699D02*
X324899D01*
Y467200D01*
X325899Y467699D01*
X326398D01*
X326898Y467200D01*
Y466200D01*
X326398Y465700D01*
X325399D01*
X324899Y466200D01*
X297399Y434199D02*
X296900Y434699D01*
X295900D01*
X295400Y434199D01*
Y432200D01*
X295900Y431700D01*
X296900D01*
X297399Y432200D01*
X299899Y431700D02*
Y434699D01*
X298399Y433200D01*
X300398D01*
X275899Y425699D02*
X275399Y426199D01*
X274400D01*
X273900Y425699D01*
Y423700D01*
X274400Y423200D01*
X275399D01*
X275899Y423700D01*
X276899Y425699D02*
X277399Y426199D01*
X278398D01*
X278898Y425699D01*
Y425199D01*
X278398Y424699D01*
X277899D01*
X278398D01*
X278898Y424200D01*
Y423700D01*
X278398Y423200D01*
X277399D01*
X276899Y423700D01*
X273199Y441999D02*
X272699Y442499D01*
X271700D01*
X271200Y441999D01*
Y440000D01*
X271700Y439500D01*
X272699D01*
X273199Y440000D01*
X276198Y439500D02*
X274199D01*
X276198Y441499D01*
Y441999D01*
X275698Y442499D01*
X274699D01*
X274199Y441999D01*
X254899Y440699D02*
X254399Y441199D01*
X253400D01*
X252900Y440699D01*
Y438700D01*
X253400Y438200D01*
X254399D01*
X254899Y438700D01*
X255899Y438200D02*
X256899D01*
X256399D01*
Y441199D01*
X255899Y440699D01*
X255300Y346899D02*
Y343900D01*
X256800D01*
X257299Y344400D01*
Y344900D01*
X256800Y345399D01*
X255300D01*
X256800D01*
X257299Y345899D01*
Y346399D01*
X256800Y346899D01*
X255300D01*
X258299D02*
Y343900D01*
X260298D01*
X263297Y346899D02*
X261298D01*
Y343900D01*
X263297D01*
X261298Y345399D02*
X262298D01*
X264297Y343900D02*
Y346899D01*
X265797D01*
X266296Y346399D01*
Y345399D01*
X265797Y344900D01*
X264297D01*
X265297D02*
X266296Y343900D01*
X269296Y346899D02*
X267296D01*
Y343900D01*
X269296D01*
X267296Y345399D02*
X268296D01*
X272294Y346399D02*
X271795Y346899D01*
X270795D01*
X270295Y346399D01*
Y345899D01*
X270795Y345399D01*
X271795D01*
X272294Y344900D01*
Y344400D01*
X271795Y343900D01*
X270795D01*
X270295Y344400D01*
X275293Y346899D02*
X273294D01*
Y343900D01*
X275293D01*
X273294Y345399D02*
X274294D01*
X276293Y346899D02*
X278293D01*
X277293D01*
Y343900D01*
X183200Y366199D02*
Y363200D01*
X184699D01*
X185199Y363700D01*
Y364200D01*
X184699Y364700D01*
X183200D01*
X184699D01*
X185199Y365199D01*
Y365699D01*
X184699Y366199D01*
X183200D01*
X186199D02*
Y363200D01*
X188198D01*
X191197Y366199D02*
X189198D01*
Y363200D01*
X191197D01*
X189198Y364700D02*
X190198D01*
X194196Y365699D02*
X193697Y366199D01*
X192697D01*
X192197Y365699D01*
Y365199D01*
X192697Y364700D01*
X193697D01*
X194196Y364200D01*
Y363700D01*
X193697Y363200D01*
X192697D01*
X192197Y363700D01*
X195196Y366199D02*
Y363200D01*
X196196Y364200D01*
X197195Y363200D01*
Y366199D01*
X198195Y363200D02*
X199195D01*
X198695D01*
Y366199D01*
X198195Y365699D01*
X285300Y341199D02*
Y338200D01*
X286800D01*
X287299Y338700D01*
Y339200D01*
X286800Y339700D01*
X285300D01*
X286800D01*
X287299Y340199D01*
Y340699D01*
X286800Y341199D01*
X285300D01*
X288299D02*
Y338200D01*
X290298D01*
X293297Y341199D02*
X291298D01*
Y338200D01*
X293297D01*
X291298Y339700D02*
X292298D01*
X294297Y338200D02*
Y341199D01*
X295797D01*
X296296Y340699D01*
Y339700D01*
X295797Y339200D01*
X294297D01*
X295297D02*
X296296Y338200D01*
X213500Y365799D02*
Y362800D01*
X215000D01*
X215499Y363300D01*
Y363800D01*
X215000Y364300D01*
X213500D01*
X215000D01*
X215499Y364799D01*
Y365299D01*
X215000Y365799D01*
X213500D01*
X216499D02*
Y362800D01*
X218498D01*
X221497Y365799D02*
X219498D01*
Y362800D01*
X221497D01*
X219498Y364300D02*
X220498D01*
X222497Y362800D02*
Y365799D01*
X223997D01*
X224496Y365299D01*
Y364300D01*
X223997Y363800D01*
X222497D01*
X223497D02*
X224496Y362800D01*
X227496D02*
X225496D01*
X227496Y364799D01*
Y365299D01*
X226996Y365799D01*
X225996D01*
X225496Y365299D01*
X110100Y366900D02*
Y368899D01*
X111100Y369899D01*
X112099Y368899D01*
Y366900D01*
Y368400D01*
X110100D01*
X115098Y368899D02*
X113599D01*
X113099Y368400D01*
Y367400D01*
X113599Y366900D01*
X115098D01*
X118097Y368899D02*
X116598D01*
X116098Y368400D01*
Y367400D01*
X116598Y366900D01*
X118097D01*
X120597D02*
X119597D01*
X119097Y367400D01*
Y368400D01*
X119597Y368899D01*
X120597D01*
X121096Y368400D01*
Y367900D01*
X119097D01*
X122096Y366900D02*
X123096D01*
X122596D01*
Y369899D01*
X122096D01*
X126095Y366900D02*
X125095D01*
X124595Y367400D01*
Y368400D01*
X125095Y368899D01*
X126095D01*
X126595Y368400D01*
Y367900D01*
X124595D01*
X127594Y368899D02*
Y366900D01*
Y367900D01*
X128094Y368400D01*
X128594Y368899D01*
X129094D01*
X131093Y366900D02*
X132093D01*
X132593Y367400D01*
Y368400D01*
X132093Y368899D01*
X131093D01*
X130593Y368400D01*
Y367400D01*
X131093Y366900D01*
X133592D02*
Y368899D01*
X134092D01*
X134592Y368400D01*
Y366900D01*
Y368400D01*
X135092Y368899D01*
X135592Y368400D01*
Y366900D01*
X138091D02*
X137091D01*
X136591Y367400D01*
Y368400D01*
X137091Y368899D01*
X138091D01*
X138591Y368400D01*
Y367900D01*
X136591D01*
X140090Y369399D02*
Y368899D01*
X139591D01*
X140590D01*
X140090D01*
Y367400D01*
X140590Y366900D01*
X143589D02*
X142589D01*
X142090Y367400D01*
Y368400D01*
X142589Y368899D01*
X143589D01*
X144089Y368400D01*
Y367900D01*
X142090D01*
X145089Y368899D02*
Y366900D01*
Y367900D01*
X145589Y368400D01*
X146088Y368899D01*
X146588D01*
X148088Y369399D02*
X148588Y369899D01*
X149587D01*
X150087Y369399D01*
Y368899D01*
X149087Y367900D01*
Y367400D02*
Y366900D01*
X143400Y366500D02*
Y368499D01*
X144400Y369499D01*
X145399Y368499D01*
Y366500D01*
Y368000D01*
X143400D01*
X148398Y368999D02*
X147899Y369499D01*
X146899D01*
X146399Y368999D01*
Y367000D01*
X146899Y366500D01*
X147899D01*
X148398Y367000D01*
X151397Y366500D02*
X149398D01*
X151397Y368499D01*
Y368999D01*
X150898Y369499D01*
X149898D01*
X149398Y368999D01*
X165400Y362600D02*
Y364599D01*
X166400Y365599D01*
X167399Y364599D01*
Y362600D01*
Y364100D01*
X165400D01*
X170398Y365099D02*
X169899Y365599D01*
X168899D01*
X168399Y365099D01*
Y363100D01*
X168899Y362600D01*
X169899D01*
X170398Y363100D01*
X171398Y362600D02*
X172398D01*
X171898D01*
Y365599D01*
X171398Y365099D01*
X162400Y458499D02*
X162900Y458999D01*
X163900D01*
X164399Y458499D01*
Y457999D01*
X163900Y457500D01*
X163400D01*
X163900D01*
X164399Y457000D01*
Y456500D01*
X163900Y456000D01*
X162900D01*
X162400Y456500D01*
X165399Y456000D02*
Y456500D01*
X165899D01*
Y456000D01*
X165399D01*
X167898Y458499D02*
X168398Y458999D01*
X169398D01*
X169898Y458499D01*
Y457999D01*
X169398Y457500D01*
X168898D01*
X169398D01*
X169898Y457000D01*
Y456500D01*
X169398Y456000D01*
X168398D01*
X167898Y456500D01*
X170897Y457999D02*
X171897Y456000D01*
X172897Y457999D01*
D15*
X318002Y457498D02*
Y459165D01*
Y458332D01*
X313000D01*
X313834Y457498D01*
X106504Y455563D02*
Y462461D01*
X109953D01*
X111102Y461311D01*
Y459012D01*
X109953Y457862D01*
X106504D01*
X113401Y455563D02*
Y462461D01*
X115701Y460161D01*
X118000Y462461D01*
Y455563D01*
X124898Y461311D02*
X123748Y462461D01*
X121449D01*
X120299Y461311D01*
Y456713D01*
X121449Y455563D01*
X123748D01*
X124898Y456713D01*
X127197Y455563D02*
X129496D01*
X128347D01*
Y462461D01*
X127197Y461311D01*
X132854Y455480D02*
Y462378D01*
X136303D01*
X137453Y461229D01*
Y458929D01*
X136303Y457780D01*
X132854D01*
X139752Y455480D02*
Y462378D01*
X142051Y460079D01*
X144350Y462378D01*
Y455480D01*
X151248Y461229D02*
X150099Y462378D01*
X147799D01*
X146650Y461229D01*
Y456630D01*
X147799Y455480D01*
X150099D01*
X151248Y456630D01*
X158146Y455480D02*
X153547D01*
X158146Y460079D01*
Y461229D01*
X156996Y462378D01*
X154697D01*
X153547Y461229D01*
X98001Y448257D02*
X101000D01*
Y449757D01*
X100500Y450256D01*
X100000D01*
X99500Y449757D01*
Y448257D01*
Y449757D01*
X99000Y450256D01*
X98501D01*
X98001Y449757D01*
Y448257D01*
X99000Y451756D02*
Y452756D01*
X99500Y453256D01*
X101000D01*
Y451756D01*
X100500Y451256D01*
X100000Y451756D01*
Y453256D01*
X98501Y454755D02*
X99000D01*
Y454255D01*
Y455255D01*
Y454755D01*
X100500D01*
X101000Y455255D01*
X98501Y457254D02*
X99000D01*
Y456754D01*
Y457754D01*
Y457254D01*
X100500D01*
X101000Y457754D01*
Y460753D02*
Y459754D01*
X100500Y459254D01*
X99500D01*
X99000Y459754D01*
Y460753D01*
X99500Y461253D01*
X100000D01*
Y459254D01*
X99000Y462253D02*
X101000D01*
X100000D01*
X99500Y462752D01*
X99000Y463252D01*
Y463752D01*
Y465252D02*
X100500D01*
X101000Y465752D01*
Y467251D01*
X101499D01*
X101999Y466751D01*
Y466251D01*
X101000Y467251D02*
X99000D01*
X98001Y471250D02*
Y473249D01*
Y472249D01*
X101000D01*
Y475748D02*
Y474749D01*
X100500Y474249D01*
X99500D01*
X99000Y474749D01*
Y475748D01*
X99500Y476248D01*
X100000D01*
Y474249D01*
X99000Y477248D02*
X101000D01*
X100000D01*
X99500Y477748D01*
X99000Y478247D01*
Y478747D01*
X101000Y480247D02*
X99000D01*
Y480747D01*
X99500Y481247D01*
X101000D01*
X99500D01*
X99000Y481746D01*
X99500Y482246D01*
X101000D01*
Y483246D02*
Y484246D01*
Y483746D01*
X99000D01*
Y483246D01*
X101000Y485745D02*
X99000D01*
Y487245D01*
X99500Y487744D01*
X101000D01*
X99000Y489244D02*
Y490244D01*
X99500Y490743D01*
X101000D01*
Y489244D01*
X100500Y488744D01*
X100000Y489244D01*
Y490743D01*
X101000Y491743D02*
Y492743D01*
Y492243D01*
X98001D01*
Y491743D01*
M02*
