G04*
G04 #@! TF.GenerationSoftware,Altium Limited,Altium Designer,21.1.1 (26)*
G04*
G04 Layer_Color=65535*
%FSLAX25Y25*%
%MOIN*%
G70*
G04*
G04 #@! TF.SameCoordinates,BDA2E955-75C2-487D-9455-DF565B8534AD*
G04*
G04*
G04 #@! TF.FilePolarity,Positive*
G04*
G01*
G75*
%ADD10C,0.00984*%
%ADD11C,0.00591*%
%ADD12C,0.00787*%
%ADD13C,0.00600*%
%ADD14C,0.00500*%
%ADD15C,0.01000*%
D10*
X111921Y343280D02*
X111183Y343706D01*
Y342853D01*
X111921Y343280D01*
X324543Y493847D02*
X323805Y494273D01*
Y493420D01*
X324543Y493847D01*
X298992Y326913D02*
X298254Y327340D01*
Y326487D01*
X298992Y326913D01*
X236335Y392362D02*
X235596Y392788D01*
Y391936D01*
X236335Y392362D01*
X214339Y487496D02*
X213600Y487922D01*
Y487070D01*
X214339Y487496D01*
X222492Y474413D02*
X221754Y474840D01*
Y473987D01*
X222492Y474413D01*
X212882Y450240D02*
X212144Y450666D01*
Y449814D01*
X212882Y450240D01*
X218134Y410087D02*
X217396Y410513D01*
Y409660D01*
X218134Y410087D01*
X152630Y483437D02*
X151892Y483863D01*
Y483011D01*
X152630Y483437D01*
X199528Y427087D02*
X198789Y427513D01*
Y426660D01*
X199528Y427087D01*
X164634Y370087D02*
X163896Y370513D01*
Y369660D01*
X164634Y370087D01*
D11*
X151736Y417000D02*
X151711Y418001D01*
X151636Y418999D01*
X151512Y419993D01*
X151338Y420978D01*
X151115Y421955D01*
X150844Y422918D01*
X150525Y423867D01*
X150160Y424799D01*
X149748Y425712D01*
X149291Y426603D01*
X148790Y427470D01*
X148247Y428311D01*
X147663Y429124D01*
X147039Y429906D01*
X146376Y430657D01*
X145677Y431374D01*
X144943Y432055D01*
X144176Y432698D01*
X143378Y433303D01*
X142551Y433867D01*
X141697Y434389D01*
X140817Y434867D01*
X139916Y435302D01*
X138993Y435691D01*
X138052Y436033D01*
X137095Y436328D01*
X136125Y436575D01*
X135144Y436774D01*
X134154Y436923D01*
X133158Y437023D01*
X132158Y437073D01*
X131157D01*
X130157Y437023D01*
X129161Y436923D01*
X128171Y436774D01*
X127190Y436575D01*
X126219Y436328D01*
X125263Y436033D01*
X124322Y435691D01*
X123399Y435302D01*
X122497Y434867D01*
X121618Y434389D01*
X120764Y433867D01*
X119937Y433303D01*
X119139Y432698D01*
X118372Y432055D01*
X117638Y431374D01*
X116939Y430657D01*
X116276Y429906D01*
X115652Y429124D01*
X115068Y428311D01*
X114524Y427470D01*
X114024Y426603D01*
X113567Y425712D01*
X113155Y424799D01*
X112790Y423867D01*
X112471Y422918D01*
X112199Y421955D01*
X111977Y420978D01*
X111803Y419993D01*
X111678Y418999D01*
X111604Y418001D01*
X111579Y417000D01*
X111604Y415999D01*
X111678Y415001D01*
X111803Y414007D01*
X111977Y413022D01*
X112199Y412045D01*
X112471Y411082D01*
X112790Y410133D01*
X113155Y409201D01*
X113567Y408288D01*
X114024Y407397D01*
X114524Y406530D01*
X115068Y405689D01*
X115652Y404876D01*
X116276Y404094D01*
X116939Y403343D01*
X117638Y402626D01*
X118372Y401945D01*
X119139Y401302D01*
X119937Y400697D01*
X120764Y400133D01*
X121618Y399611D01*
X122497Y399132D01*
X123399Y398698D01*
X124322Y398309D01*
X125263Y397967D01*
X126219Y397672D01*
X127190Y397425D01*
X128171Y397226D01*
X129161Y397077D01*
X130157Y396977D01*
X131157Y396927D01*
X132158D01*
X133158Y396977D01*
X134154Y397077D01*
X135144Y397226D01*
X136125Y397425D01*
X137096Y397672D01*
X138052Y397967D01*
X138993Y398309D01*
X139916Y398698D01*
X140818Y399132D01*
X141697Y399611D01*
X142551Y400133D01*
X143378Y400697D01*
X144176Y401302D01*
X144943Y401945D01*
X145677Y402626D01*
X146376Y403343D01*
X147039Y404094D01*
X147663Y404876D01*
X148247Y405689D01*
X148791Y406530D01*
X149291Y407397D01*
X149748Y408288D01*
X150160Y409201D01*
X150525Y410133D01*
X150844Y411082D01*
X151115Y412045D01*
X151338Y413022D01*
X151512Y414008D01*
X151636Y415001D01*
X151711Y415999D01*
X151736Y417000D01*
D12*
X372203Y350839D02*
X371871Y351751D01*
X371030Y352237D01*
X370074Y352068D01*
X369450Y351324D01*
Y350353D01*
X370074Y349609D01*
X371030Y349441D01*
X371871Y349926D01*
X372203Y350839D01*
X161543Y359236D02*
X161937D01*
X161543Y363764D02*
X161937D01*
X111232Y346232D02*
X112315D01*
X111232D02*
Y347315D01*
Y361685D02*
Y362768D01*
X112315D01*
X126685D02*
X127768D01*
Y361685D02*
Y362768D01*
X126685Y346232D02*
X127768D01*
Y347315D01*
X181157Y458433D02*
Y462567D01*
X175843Y458433D02*
Y462567D01*
X349047Y431122D02*
Y433878D01*
X354953Y431122D02*
Y433878D01*
X131736Y324303D02*
Y324697D01*
X136264Y324303D02*
Y324697D01*
X329957Y473157D02*
X337043D01*
X329957Y492843D02*
X337043D01*
Y473157D02*
Y492843D01*
X329957Y473157D02*
Y492843D01*
X145154Y370508D02*
Y376807D01*
X151846Y370508D02*
Y376807D01*
X296728Y333803D02*
Y334197D01*
X300272Y333803D02*
Y334197D01*
X293346Y329539D02*
Y337461D01*
X286654Y329539D02*
Y337461D01*
X319803Y416264D02*
X320197D01*
X319803Y411736D02*
X320197D01*
X319803Y441764D02*
X320197D01*
X319803Y437236D02*
X320197D01*
X319803Y433764D02*
X320197D01*
X319803Y429236D02*
X320197D01*
X319803Y424764D02*
X320197D01*
X319803Y420236D02*
X320197D01*
X280154Y416764D02*
X280547D01*
X280154Y412236D02*
X280547D01*
X243421Y397579D02*
X246669D01*
X280331D02*
X283579D01*
Y357421D02*
Y360669D01*
Y394331D02*
Y397579D01*
X243421Y357421D02*
X246669D01*
X280331D02*
X283579D01*
X243421D02*
Y360669D01*
Y394331D02*
Y397579D01*
X153114Y417000D02*
X154295D01*
X153705Y416409D02*
Y417591D01*
X240601Y456208D02*
Y462792D01*
X246399Y456208D02*
Y462792D01*
X188283Y476508D02*
X191630D01*
X196748Y483004D02*
Y488319D01*
X165252Y483004D02*
Y488319D01*
X170370Y476508D02*
X173717D01*
X284846Y457039D02*
Y464961D01*
X278154Y457039D02*
Y464961D01*
X204201Y475685D02*
Y488283D01*
X206268D01*
X204201Y475685D02*
X206268D01*
X220228Y481303D02*
Y481697D01*
X223772Y481303D02*
Y481697D01*
X224201Y452799D02*
Y453921D01*
X223079Y452799D02*
X224201D01*
Y464079D02*
Y465201D01*
X223079D02*
X224201D01*
X211799D02*
X212921D01*
X211799Y464079D02*
Y465201D01*
Y452799D02*
Y453921D01*
Y452799D02*
X212921D01*
X283240Y483547D02*
Y489453D01*
X275957Y483547D02*
Y489453D01*
X365075Y323083D02*
Y347295D01*
X311925Y395917D02*
X365075D01*
X311925Y323083D02*
Y347295D01*
Y323083D02*
X365075D01*
X222169Y416189D02*
X230941D01*
X222059Y439811D02*
X230941D01*
X238311Y418638D02*
Y437362D01*
X214689Y419732D02*
Y437362D01*
X114933Y440220D02*
Y451292D01*
X122067Y440220D02*
Y451292D01*
X337657Y459986D02*
Y464995D01*
X332343Y459986D02*
Y464995D01*
X114539Y470839D02*
Y488161D01*
X128713Y463949D02*
X144461D01*
Y467098D01*
X138161D02*
X144461D01*
X138161D02*
Y472020D01*
Y486980D02*
Y491902D01*
X144461D01*
Y495051D01*
X128713D02*
X144461D01*
X188406Y427008D02*
X190571D01*
X188406Y452992D02*
X190571D01*
Y427008D02*
Y452992D01*
X255736Y432303D02*
Y432697D01*
X260264Y432303D02*
Y432697D01*
X168669Y376189D02*
X177441D01*
X168559Y399811D02*
X177441D01*
X184811Y378638D02*
Y397362D01*
X161189Y379732D02*
Y397362D01*
X280303Y429736D02*
X280697D01*
X280303Y434264D02*
X280697D01*
X210441Y380488D02*
X215559D01*
X210441Y391512D02*
X215559D01*
X170303Y415764D02*
X170697D01*
X170303Y411236D02*
X170697D01*
D13*
X120533Y380563D02*
X123894D01*
X120533Y387197D02*
Y389437D01*
X123894D01*
X126455Y384638D02*
Y385362D01*
X120533Y380563D02*
Y382803D01*
D14*
X312283Y475126D02*
Y492646D01*
Y448354D02*
Y465874D01*
X297717Y492646D02*
X312283D01*
X297717Y448354D02*
X312283D01*
X297717D02*
Y492646D01*
X151001Y340500D02*
Y342500D01*
X152001Y343499D01*
X153000Y342500D01*
Y340500D01*
Y342000D01*
X151001D01*
X156000Y343000D02*
X155500Y343499D01*
X154500D01*
X154000Y343000D01*
Y341000D01*
X154500Y340500D01*
X155500D01*
X156000Y341000D01*
X156999Y340500D02*
X157999D01*
X157499D01*
Y343499D01*
X156999Y343000D01*
X145501Y359501D02*
Y361500D01*
X146501Y362499D01*
X147501Y361500D01*
Y359501D01*
Y361000D01*
X145501D01*
X150500Y362000D02*
X150000Y362499D01*
X149000D01*
X148500Y362000D01*
Y360000D01*
X149000Y359501D01*
X150000D01*
X150500Y360000D01*
X153499Y359501D02*
X151499D01*
X153499Y361500D01*
Y362000D01*
X152999Y362499D01*
X151999D01*
X151499Y362000D01*
X142501Y348500D02*
Y350500D01*
X143501Y351500D01*
X144501Y350500D01*
Y348500D01*
Y350000D01*
X142501D01*
X147500Y351000D02*
X147000Y351500D01*
X146000D01*
X145500Y351000D01*
Y349000D01*
X146000Y348500D01*
X147000D01*
X147500Y349000D01*
X148499Y351000D02*
X148999Y351500D01*
X149999D01*
X150499Y351000D01*
Y350500D01*
X149999Y350000D01*
X149499D01*
X149999D01*
X150499Y349500D01*
Y349000D01*
X149999Y348500D01*
X148999D01*
X148499Y349000D01*
X104007Y368001D02*
Y370000D01*
X105006Y371000D01*
X106006Y370000D01*
Y368001D01*
Y369500D01*
X104007D01*
X109005Y370000D02*
X107505D01*
X107006Y369500D01*
Y368500D01*
X107505Y368001D01*
X109005D01*
X112004Y370000D02*
X110504D01*
X110004Y369500D01*
Y368500D01*
X110504Y368001D01*
X112004D01*
X114503D02*
X113503D01*
X113004Y368500D01*
Y369500D01*
X113503Y370000D01*
X114503D01*
X115003Y369500D01*
Y369000D01*
X113004D01*
X116003Y368001D02*
X117002D01*
X116502D01*
Y371000D01*
X116003D01*
X120001Y368001D02*
X119002D01*
X118502Y368500D01*
Y369500D01*
X119002Y370000D01*
X120001D01*
X120501Y369500D01*
Y369000D01*
X118502D01*
X121501Y370000D02*
Y368001D01*
Y369000D01*
X122001Y369500D01*
X122501Y370000D01*
X123000D01*
X125000Y368001D02*
X125999D01*
X126499Y368500D01*
Y369500D01*
X125999Y370000D01*
X125000D01*
X124500Y369500D01*
Y368500D01*
X125000Y368001D01*
X127499D02*
Y370000D01*
X127999D01*
X128499Y369500D01*
Y368001D01*
Y369500D01*
X128998Y370000D01*
X129498Y369500D01*
Y368001D01*
X131997D02*
X130998D01*
X130498Y368500D01*
Y369500D01*
X130998Y370000D01*
X131997D01*
X132497Y369500D01*
Y369000D01*
X130498D01*
X133997Y370500D02*
Y370000D01*
X133497D01*
X134497D01*
X133997D01*
Y368500D01*
X134497Y368001D01*
X137496D02*
X136496D01*
X135996Y368500D01*
Y369500D01*
X136496Y370000D01*
X137496D01*
X137996Y369500D01*
Y369000D01*
X135996D01*
X138995Y370000D02*
Y368001D01*
Y369000D01*
X139495Y369500D01*
X139995Y370000D01*
X140495D01*
X141994Y370500D02*
X142494Y371000D01*
X143494D01*
X143993Y370500D01*
Y370000D01*
X142994Y369000D01*
Y368500D02*
Y368001D01*
X184501Y461500D02*
X184001Y462000D01*
X183002D01*
X182502Y461500D01*
Y459500D01*
X183002Y459000D01*
X184001D01*
X184501Y459500D01*
X187500Y461500D02*
X187000Y462000D01*
X186001D01*
X185501Y461500D01*
Y459500D01*
X186001Y459000D01*
X187000D01*
X187500Y459500D01*
X188500Y459000D02*
Y462000D01*
X189999D01*
X190499Y461500D01*
Y460500D01*
X189999Y460000D01*
X188500D01*
X189499D02*
X190499Y459000D01*
X191499Y461500D02*
X191999Y462000D01*
X192998D01*
X193498Y461500D01*
Y461000D01*
X192998Y460500D01*
X192499D01*
X192998D01*
X193498Y460000D01*
Y459500D01*
X192998Y459000D01*
X191999D01*
X191499Y459500D01*
X340751Y426500D02*
X340251Y427000D01*
X339251D01*
X338751Y426500D01*
Y424500D01*
X339251Y424001D01*
X340251D01*
X340751Y424500D01*
X341750Y424001D02*
X342750D01*
X342250D01*
Y427000D01*
X341750Y426500D01*
X344249D02*
X344749Y427000D01*
X345749D01*
X346249Y426500D01*
Y424500D01*
X345749Y424001D01*
X344749D01*
X344249Y424500D01*
Y426500D01*
X342792Y436208D02*
Y435708D01*
X343792Y434709D01*
X344791Y435708D01*
Y436208D01*
X343792Y434709D02*
Y433209D01*
X345791D02*
X346791D01*
X346291D01*
Y436208D01*
X345791Y435708D01*
X343199Y454699D02*
X342700Y455199D01*
X341700D01*
X341200Y454699D01*
Y452700D01*
X341700Y452200D01*
X342700D01*
X343199Y452700D01*
X344199D02*
X344699Y452200D01*
X345698D01*
X346198Y452700D01*
Y454699D01*
X345698Y455199D01*
X344699D01*
X344199Y454699D01*
Y454199D01*
X344699Y453699D01*
X346198D01*
X242699Y468999D02*
X242199Y469499D01*
X241200D01*
X240700Y468999D01*
Y467000D01*
X241200Y466500D01*
X242199D01*
X242699Y467000D01*
X245698Y468999D02*
X245198Y469499D01*
X244199D01*
X243699Y468999D01*
Y467000D01*
X244199Y466500D01*
X245198D01*
X245698Y467000D01*
X246698Y466500D02*
Y469499D01*
X248198D01*
X248697Y468999D01*
Y468000D01*
X248198Y467500D01*
X246698D01*
X247698D02*
X248697Y466500D01*
X251696Y469499D02*
X249697D01*
Y468000D01*
X250697Y468499D01*
X251197D01*
X251696Y468000D01*
Y467000D01*
X251197Y466500D01*
X250197D01*
X249697Y467000D01*
X278099Y497499D02*
X277600Y497999D01*
X276600D01*
X276100Y497499D01*
Y495500D01*
X276600Y495000D01*
X277600D01*
X278099Y495500D01*
X281098Y497499D02*
X280598Y497999D01*
X279599D01*
X279099Y497499D01*
Y495500D01*
X279599Y495000D01*
X280598D01*
X281098Y495500D01*
X282098Y495000D02*
Y497999D01*
X283598D01*
X284097Y497499D01*
Y496499D01*
X283598Y496000D01*
X282098D01*
X283098D02*
X284097Y495000D01*
X286597D02*
Y497999D01*
X285097Y496499D01*
X287096D01*
X258599Y482099D02*
X258100Y482599D01*
X257100D01*
X256600Y482099D01*
Y480100D01*
X257100Y479600D01*
X258100D01*
X258599Y480100D01*
X261598Y482099D02*
X261099Y482599D01*
X260099D01*
X259599Y482099D01*
Y480100D01*
X260099Y479600D01*
X261099D01*
X261598Y480100D01*
X262598Y479600D02*
Y482599D01*
X264098D01*
X264597Y482099D01*
Y481100D01*
X264098Y480600D01*
X262598D01*
X263598D02*
X264597Y479600D01*
X267596D02*
X265597D01*
X267596Y481599D01*
Y482099D01*
X267097Y482599D01*
X266097D01*
X265597Y482099D01*
X264599Y496599D02*
X264100Y497099D01*
X263100D01*
X262600Y496599D01*
Y494600D01*
X263100Y494100D01*
X264100D01*
X264599Y494600D01*
X267598Y496599D02*
X267098Y497099D01*
X266099D01*
X265599Y496599D01*
Y494600D01*
X266099Y494100D01*
X267098D01*
X267598Y494600D01*
X268598Y494100D02*
Y497099D01*
X270098D01*
X270597Y496599D01*
Y495600D01*
X270098Y495100D01*
X268598D01*
X269598D02*
X270597Y494100D01*
X271597D02*
X272597D01*
X272097D01*
Y497099D01*
X271597Y496599D01*
X280299Y470699D02*
X279800Y471199D01*
X278800D01*
X278300Y470699D01*
Y468700D01*
X278800Y468200D01*
X279800D01*
X280299Y468700D01*
X283298Y470699D02*
X282799Y471199D01*
X281799D01*
X281299Y470699D01*
Y468700D01*
X281799Y468200D01*
X282799D01*
X283298Y468700D01*
X286297Y470699D02*
X285798Y471199D01*
X284798D01*
X284298Y470699D01*
Y468700D01*
X284798Y468200D01*
X285798D01*
X286297Y468700D01*
X287297Y470699D02*
X287797Y471199D01*
X288797D01*
X289296Y470699D01*
Y470199D01*
X288797Y469699D01*
X288297D01*
X288797D01*
X289296Y469200D01*
Y468700D01*
X288797Y468200D01*
X287797D01*
X287297Y468700D01*
X259799Y470099D02*
X259299Y470599D01*
X258300D01*
X257800Y470099D01*
Y468100D01*
X258300Y467600D01*
X259299D01*
X259799Y468100D01*
X262798Y470099D02*
X262298Y470599D01*
X261299D01*
X260799Y470099D01*
Y468100D01*
X261299Y467600D01*
X262298D01*
X262798Y468100D01*
X265797Y470099D02*
X265298Y470599D01*
X264298D01*
X263798Y470099D01*
Y468100D01*
X264298Y467600D01*
X265298D01*
X265797Y468100D01*
X268796Y467600D02*
X266797D01*
X268796Y469599D01*
Y470099D01*
X268297Y470599D01*
X267297D01*
X266797Y470099D01*
X233299Y493599D02*
X232800Y494099D01*
X231800D01*
X231300Y493599D01*
Y491600D01*
X231800Y491100D01*
X232800D01*
X233299Y491600D01*
X236298Y493599D02*
X235799Y494099D01*
X234799D01*
X234299Y493599D01*
Y491600D01*
X234799Y491100D01*
X235799D01*
X236298Y491600D01*
X239297Y493599D02*
X238798Y494099D01*
X237798D01*
X237298Y493599D01*
Y491600D01*
X237798Y491100D01*
X238798D01*
X239297Y491600D01*
X240297Y491100D02*
X241297D01*
X240797D01*
Y494099D01*
X240297Y493599D01*
X152001Y495500D02*
Y493000D01*
X152501Y492500D01*
X153501D01*
X154001Y493000D01*
Y495500D01*
X157000Y495000D02*
X156500Y495500D01*
X155500D01*
X155000Y495000D01*
Y494500D01*
X155500Y494000D01*
X156500D01*
X157000Y493500D01*
Y493000D01*
X156500Y492500D01*
X155500D01*
X155000Y493000D01*
X157999Y495500D02*
Y492500D01*
X159499D01*
X159999Y493000D01*
Y493500D01*
X159499Y494000D01*
X157999D01*
X159499D01*
X159999Y494500D01*
Y495000D01*
X159499Y495500D01*
X157999D01*
X239001Y405501D02*
Y408499D01*
X240001Y407500D01*
X241000Y408499D01*
Y405501D01*
X243499D02*
Y408499D01*
X242000Y407000D01*
X243999D01*
X332400Y468300D02*
X333899D01*
X334399Y468800D01*
X333899Y469300D01*
X332900D01*
X332400Y469800D01*
X332900Y470299D01*
X334399D01*
X335399D02*
Y468800D01*
X335899Y468300D01*
X336399Y468800D01*
X336898Y468300D01*
X337398Y468800D01*
Y470299D01*
X340397Y471299D02*
Y468300D01*
X338898D01*
X338398Y468800D01*
Y469800D01*
X338898Y470299D01*
X340397D01*
X341397D02*
Y468300D01*
Y469300D01*
X341897Y469800D01*
X342397Y470299D01*
X342897D01*
X163199Y409199D02*
X162699Y409699D01*
X161700D01*
X161200Y409199D01*
Y408699D01*
X161700Y408200D01*
X162699D01*
X163199Y407700D01*
Y407200D01*
X162699Y406700D01*
X161700D01*
X161200Y407200D01*
X164199Y409699D02*
Y406700D01*
X165199Y407700D01*
X166198Y406700D01*
Y409699D01*
X167198Y409199D02*
X167698Y409699D01*
X168698D01*
X169197Y409199D01*
Y408699D01*
X168698Y408200D01*
X168198D01*
X168698D01*
X169197Y407700D01*
Y407200D01*
X168698Y406700D01*
X167698D01*
X167198Y407200D01*
X223501Y447000D02*
X223001Y447500D01*
X222001D01*
X221501Y447000D01*
Y446500D01*
X222001Y446000D01*
X223001D01*
X223501Y445500D01*
Y445000D01*
X223001Y444500D01*
X222001D01*
X221501Y445000D01*
X224500Y447500D02*
Y444500D01*
X225500Y445500D01*
X226500Y444500D01*
Y447500D01*
X229499Y444500D02*
X227499D01*
X229499Y446500D01*
Y447000D01*
X228999Y447500D01*
X227999D01*
X227499Y447000D01*
X149501Y399500D02*
X149001Y399999D01*
X148002D01*
X147502Y399500D01*
Y399000D01*
X148002Y398500D01*
X149001D01*
X149501Y398000D01*
Y397500D01*
X149001Y397001D01*
X148002D01*
X147502Y397500D01*
X150501Y397001D02*
Y399999D01*
X152000D01*
X152500Y399500D01*
Y398500D01*
X152000Y398000D01*
X150501D01*
X153500Y397001D02*
Y399999D01*
X154999D01*
X155499Y399500D01*
Y398500D01*
X154999Y398000D01*
X153500D01*
X154499D02*
X155499Y397001D01*
X158498D02*
X156499D01*
X158498Y399000D01*
Y399500D01*
X157998Y399999D01*
X156999D01*
X156499Y399500D01*
X147299Y383499D02*
X146800Y383999D01*
X145800D01*
X145300Y383499D01*
Y382999D01*
X145800Y382500D01*
X146800D01*
X147299Y382000D01*
Y381500D01*
X146800Y381000D01*
X145800D01*
X145300Y381500D01*
X148299Y381000D02*
Y383999D01*
X149799D01*
X150298Y383499D01*
Y382500D01*
X149799Y382000D01*
X148299D01*
X151298Y381000D02*
Y383999D01*
X152798D01*
X153297Y383499D01*
Y382500D01*
X152798Y382000D01*
X151298D01*
X152298D02*
X153297Y381000D01*
X154297D02*
X155297D01*
X154797D01*
Y383999D01*
X154297Y383499D01*
X98252Y436500D02*
X97753Y436999D01*
X96753D01*
X96253Y436500D01*
Y436000D01*
X96753Y435500D01*
X97753D01*
X98252Y435000D01*
Y434500D01*
X97753Y434000D01*
X96753D01*
X96253Y434500D01*
X99252Y433001D02*
Y436000D01*
X100752D01*
X101251Y435500D01*
Y434500D01*
X100752Y434000D01*
X99252D01*
X103751D02*
X102751D01*
X102251Y434500D01*
Y435500D01*
X102751Y436000D01*
X103751D01*
X104251Y435500D01*
Y435000D01*
X102251D01*
X105750Y436000D02*
X106750D01*
X107250Y435500D01*
Y434000D01*
X105750D01*
X105250Y434500D01*
X105750Y435000D01*
X107250D01*
X108249Y434000D02*
Y436999D01*
Y435000D02*
X109749Y436000D01*
X108249Y435000D02*
X109749Y434000D01*
X112748D02*
X111748D01*
X111248Y434500D01*
Y435500D01*
X111748Y436000D01*
X112748D01*
X113248Y435500D01*
Y435000D01*
X111248D01*
X114247Y436000D02*
Y434000D01*
Y435000D01*
X114747Y435500D01*
X115247Y436000D01*
X115747D01*
X182600Y419200D02*
Y422199D01*
X184099D01*
X184599Y421699D01*
Y420700D01*
X184099Y420200D01*
X182600D01*
X183600D02*
X184599Y419200D01*
X185599D02*
X186599D01*
X186099D01*
Y422199D01*
X185599Y421699D01*
X354001Y490500D02*
Y492500D01*
X353501Y493000D01*
X352502D01*
X352002Y492500D01*
Y490500D01*
X352502Y490000D01*
X353501D01*
X353001Y491000D02*
X354001Y490000D01*
X353501D02*
X354001Y490500D01*
X357000Y492500D02*
X356500Y493000D01*
X355501D01*
X355001Y492500D01*
Y492000D01*
X355501Y491500D01*
X356500D01*
X357000Y491000D01*
Y490500D01*
X356500Y490000D01*
X355501D01*
X355001Y490500D01*
X358000Y490000D02*
Y493000D01*
X359499D01*
X359999Y492500D01*
Y491500D01*
X359499Y491000D01*
X358000D01*
X360999Y493000D02*
X361998D01*
X361498D01*
Y490000D01*
X360999D01*
X361998D01*
X96497Y384501D02*
Y387499D01*
X97496Y386500D01*
X98496Y387499D01*
Y384501D01*
X100995Y387499D02*
X99996D01*
X99496Y387000D01*
Y385000D01*
X99996Y384501D01*
X100995D01*
X101495Y385000D01*
Y387000D01*
X100995Y387499D01*
X104494Y387000D02*
X103994Y387499D01*
X102995D01*
X102495Y387000D01*
Y386500D01*
X102995Y386000D01*
X103994D01*
X104494Y385500D01*
Y385000D01*
X103994Y384501D01*
X102995D01*
X102495Y385000D01*
X107493Y387499D02*
X105494D01*
Y386000D01*
X106493D01*
X105494D01*
Y384501D01*
X110492Y387499D02*
X108493D01*
Y384501D01*
X110492D01*
X108493Y386000D02*
X109493D01*
X111492Y387499D02*
X113491D01*
X112492D01*
Y384501D01*
X204300Y397499D02*
Y394500D01*
X206299D01*
X207299D02*
X208299D01*
X207799D01*
Y397499D01*
X207299Y396999D01*
X299999Y498399D02*
X299000D01*
X299500D01*
Y495900D01*
X299000Y495400D01*
X298500D01*
X298000Y495900D01*
X300999Y495400D02*
X301999D01*
X301499D01*
Y498399D01*
X300999Y497899D01*
X203900Y494999D02*
Y492000D01*
X205399D01*
X205899Y492500D01*
Y494499D01*
X205399Y494999D01*
X203900D01*
X206899Y492000D02*
Y494999D01*
X208399D01*
X208898Y494499D01*
Y493500D01*
X208399Y493000D01*
X206899D01*
X207899D02*
X208898Y492000D01*
X230999Y481001D02*
Y483999D01*
X229500D01*
X229000Y483500D01*
Y481500D01*
X229500Y481001D01*
X230999D01*
X226001Y481500D02*
X226501Y481001D01*
X227500D01*
X228000Y481500D01*
Y483500D01*
X227500Y483999D01*
X226501D01*
X226001Y483500D01*
Y482500D01*
X227000D01*
X301001Y328500D02*
Y325500D01*
X302500D01*
X303000Y326000D01*
Y328000D01*
X302500Y328500D01*
X301001D01*
X304000D02*
Y325500D01*
X305499D01*
X305999Y326000D01*
Y326500D01*
X305499Y327000D01*
X304000D01*
X305499D01*
X305999Y327500D01*
Y328000D01*
X305499Y328500D01*
X304000D01*
X185339Y472500D02*
X185006Y472833D01*
X184339D01*
X184006Y472500D01*
Y471167D01*
X184339Y470834D01*
X185006D01*
X185339Y471167D01*
X186005Y472833D02*
Y470834D01*
Y471833D01*
X186339Y472166D01*
X187005D01*
X187338Y471833D01*
Y470834D01*
X188338Y472166D02*
X189005D01*
X189338Y471833D01*
Y470834D01*
X188338D01*
X188005Y471167D01*
X188338Y471500D01*
X189338D01*
X190004Y472166D02*
Y470834D01*
Y471500D01*
X190337Y471833D01*
X190671Y472166D01*
X191004D01*
X192670Y470167D02*
X193003D01*
X193336Y470500D01*
Y472166D01*
X192337D01*
X192004Y471833D01*
Y471167D01*
X192337Y470834D01*
X193336D01*
X194003D02*
X194669D01*
X194336D01*
Y472166D01*
X194003D01*
X195669Y470834D02*
Y472166D01*
X196669D01*
X197002Y471833D01*
Y470834D01*
X198335Y470167D02*
X198668D01*
X199001Y470500D01*
Y472166D01*
X198002D01*
X197668Y471833D01*
Y471167D01*
X198002Y470834D01*
X199001D01*
X203000Y472500D02*
X202667Y472833D01*
X202000D01*
X201667Y472500D01*
Y471167D01*
X202000Y470834D01*
X202667D01*
X203000Y471167D01*
X204000Y470834D02*
X204666D01*
X204999Y471167D01*
Y471833D01*
X204666Y472166D01*
X204000D01*
X203666Y471833D01*
Y471167D01*
X204000Y470834D01*
X205666D02*
Y472166D01*
X206665D01*
X206999Y471833D01*
Y470834D01*
X207998Y472500D02*
Y472166D01*
X207665D01*
X208332D01*
X207998D01*
Y471167D01*
X208332Y470834D01*
X209331Y472166D02*
Y470834D01*
Y471500D01*
X209665Y471833D01*
X209998Y472166D01*
X210331D01*
X211664Y470834D02*
X212330D01*
X212664Y471167D01*
Y471833D01*
X212330Y472166D01*
X211664D01*
X211331Y471833D01*
Y471167D01*
X211664Y470834D01*
X213330D02*
X213996D01*
X213663D01*
Y472833D01*
X213330D01*
X214996Y470834D02*
X215663D01*
X215329D01*
Y472833D01*
X214996D01*
X217662Y470834D02*
X216996D01*
X216662Y471167D01*
Y471833D01*
X216996Y472166D01*
X217662D01*
X217995Y471833D01*
Y471500D01*
X216662D01*
X218662Y472166D02*
Y470834D01*
Y471500D01*
X218995Y471833D01*
X219328Y472166D01*
X219661D01*
X220661Y472500D02*
X220994Y472833D01*
X221661D01*
X221994Y472500D01*
Y472166D01*
X221327Y471500D01*
Y471167D02*
Y470834D01*
X167399Y421699D02*
X166900Y422199D01*
X165900D01*
X165400Y421699D01*
Y419700D01*
X165900Y419200D01*
X166900D01*
X167399Y419700D01*
X168399Y419200D02*
X169399D01*
X168899D01*
Y422199D01*
X168399Y421699D01*
X170898Y419200D02*
X171898D01*
X171398D01*
Y422199D01*
X170898Y421699D01*
X329851Y414000D02*
X329351Y414500D01*
X328351D01*
X327851Y414000D01*
Y412000D01*
X328351Y411501D01*
X329351D01*
X329851Y412000D01*
X330850Y414000D02*
X331350Y414500D01*
X332350D01*
X332850Y414000D01*
Y413500D01*
X332350Y413000D01*
X332850Y412500D01*
Y412000D01*
X332350Y411501D01*
X331350D01*
X330850Y412000D01*
Y412500D01*
X331350Y413000D01*
X330850Y413500D01*
Y414000D01*
X331350Y413000D02*
X332350D01*
X329851Y423500D02*
X329351Y424000D01*
X328351D01*
X327851Y423500D01*
Y421500D01*
X328351Y421000D01*
X329351D01*
X329851Y421500D01*
X330850Y424000D02*
X332850D01*
Y423500D01*
X330850Y421500D01*
Y421000D01*
X329650Y432000D02*
X329150Y432500D01*
X328150D01*
X327650Y432000D01*
Y430000D01*
X328150Y429500D01*
X329150D01*
X329650Y430000D01*
X332649Y432500D02*
X331649Y432000D01*
X330649Y431000D01*
Y430000D01*
X331149Y429500D01*
X332149D01*
X332649Y430000D01*
Y430500D01*
X332149Y431000D01*
X330649D01*
X330150Y440500D02*
X329650Y441000D01*
X328650D01*
X328150Y440500D01*
Y438500D01*
X328650Y438000D01*
X329650D01*
X330150Y438500D01*
X333149Y441000D02*
X331149D01*
Y439500D01*
X332149Y440000D01*
X332649D01*
X333149Y439500D01*
Y438500D01*
X332649Y438000D01*
X331649D01*
X331149Y438500D01*
X277399Y440199D02*
X276900Y440699D01*
X275900D01*
X275400Y440199D01*
Y438200D01*
X275900Y437700D01*
X276900D01*
X277399Y438200D01*
X279899Y437700D02*
Y440699D01*
X278399Y439199D01*
X280398D01*
X271000Y415500D02*
X270500Y416000D01*
X269501D01*
X269001Y415500D01*
Y413500D01*
X269501Y413000D01*
X270500D01*
X271000Y413500D01*
X272000Y415500D02*
X272500Y416000D01*
X273499D01*
X273999Y415500D01*
Y415000D01*
X273499Y414500D01*
X273000D01*
X273499D01*
X273999Y414000D01*
Y413500D01*
X273499Y413000D01*
X272500D01*
X272000Y413500D01*
X267500Y424000D02*
X267000Y424500D01*
X266001D01*
X265501Y424000D01*
Y422000D01*
X266001Y421500D01*
X267000D01*
X267500Y422000D01*
X270499Y421500D02*
X268500D01*
X270499Y423500D01*
Y424000D01*
X269999Y424500D01*
X269000D01*
X268500Y424000D01*
X257299Y443099D02*
X256800Y443599D01*
X255800D01*
X255300Y443099D01*
Y441100D01*
X255800Y440600D01*
X256800D01*
X257299Y441100D01*
X258299Y440600D02*
X259299D01*
X258799D01*
Y443599D01*
X258299Y443099D01*
X309000Y402499D02*
Y399500D01*
X310500D01*
X310999Y400000D01*
Y400500D01*
X310500Y400999D01*
X309000D01*
X310500D01*
X310999Y401499D01*
Y401999D01*
X310500Y402499D01*
X309000D01*
X311999D02*
Y399500D01*
X313998D01*
X316997Y402499D02*
X314998D01*
Y399500D01*
X316997D01*
X314998Y400999D02*
X315998D01*
X274002Y333999D02*
Y331000D01*
X275501D01*
X276001Y331500D01*
Y332000D01*
X275501Y332500D01*
X274002D01*
X275501D01*
X276001Y333000D01*
Y333500D01*
X275501Y333999D01*
X274002D01*
X277001D02*
Y331000D01*
X279000D01*
X281999Y333999D02*
X280000D01*
Y331000D01*
X281999D01*
X280000Y332500D02*
X280999D01*
X282999Y331000D02*
Y333999D01*
X284498D01*
X284998Y333500D01*
Y332500D01*
X284498Y332000D01*
X282999D01*
X283998D02*
X284998Y331000D01*
X162400Y458499D02*
X162900Y458999D01*
X163900D01*
X164399Y458499D01*
Y457999D01*
X163900Y457500D01*
X163400D01*
X163900D01*
X164399Y457000D01*
Y456500D01*
X163900Y456000D01*
X162900D01*
X162400Y456500D01*
X165399Y456000D02*
Y456500D01*
X165899D01*
Y456000D01*
X165399D01*
X167898Y458499D02*
X168398Y458999D01*
X169398D01*
X169898Y458499D01*
Y457999D01*
X169398Y457500D01*
X168898D01*
X169398D01*
X169898Y457000D01*
Y456500D01*
X169398Y456000D01*
X168398D01*
X167898Y456500D01*
X170897Y457999D02*
X171897Y456000D01*
X172897Y457999D01*
D15*
X219799Y338900D02*
Y342898D01*
X218799Y343898D01*
X216800D01*
X215800Y342898D01*
Y338900D01*
X216800Y337900D01*
X218799D01*
X217799Y339899D02*
X219799Y337900D01*
X218799D02*
X219799Y338900D01*
X225797Y342898D02*
X224797Y343898D01*
X222798D01*
X221798Y342898D01*
Y341899D01*
X222798Y340899D01*
X224797D01*
X225797Y339899D01*
Y338900D01*
X224797Y337900D01*
X222798D01*
X221798Y338900D01*
X227796Y337900D02*
Y343898D01*
X230795D01*
X231795Y342898D01*
Y340899D01*
X230795Y339899D01*
X227796D01*
X233794Y343898D02*
X235793D01*
X234794D01*
Y337900D01*
X233794D01*
X235793D01*
X318002Y457498D02*
Y459165D01*
Y458332D01*
X313000D01*
X313834Y457498D01*
X131800Y333100D02*
Y337099D01*
X133799Y339098D01*
X135799Y337099D01*
Y333100D01*
Y336099D01*
X131800D01*
X141797Y338098D02*
X140797Y339098D01*
X138798D01*
X137798Y338098D01*
Y334100D01*
X138798Y333100D01*
X140797D01*
X141797Y334100D01*
X146795Y333100D02*
Y339098D01*
X143796Y336099D01*
X147795D01*
X136000Y454000D02*
Y459998D01*
X138999D01*
X139999Y458998D01*
Y456999D01*
X138999Y455999D01*
X136000D01*
X141998Y454000D02*
Y459998D01*
X143997Y457999D01*
X145997Y459998D01*
Y454000D01*
X151995Y458998D02*
X150995Y459998D01*
X148996D01*
X147996Y458998D01*
Y455000D01*
X148996Y454000D01*
X150995D01*
X151995Y455000D01*
X157993Y454000D02*
X153994D01*
X157993Y457999D01*
Y458998D01*
X156993Y459998D01*
X154994D01*
X153994Y458998D01*
X107004Y454551D02*
Y461449D01*
X110453D01*
X111602Y460299D01*
Y458000D01*
X110453Y456850D01*
X107004D01*
X113901Y454551D02*
Y461449D01*
X116201Y459150D01*
X118500Y461449D01*
Y454551D01*
X125398Y460299D02*
X124248Y461449D01*
X121949D01*
X120799Y460299D01*
Y455701D01*
X121949Y454551D01*
X124248D01*
X125398Y455701D01*
X127697Y454551D02*
X129996D01*
X128847D01*
Y461449D01*
X127697Y460299D01*
X98001Y448257D02*
X101000D01*
Y449757D01*
X100500Y450256D01*
X100000D01*
X99500Y449757D01*
Y448257D01*
Y449757D01*
X99000Y450256D01*
X98501D01*
X98001Y449757D01*
Y448257D01*
X99000Y451756D02*
Y452756D01*
X99500Y453256D01*
X101000D01*
Y451756D01*
X100500Y451256D01*
X100000Y451756D01*
Y453256D01*
X98501Y454755D02*
X99000D01*
Y454255D01*
Y455255D01*
Y454755D01*
X100500D01*
X101000Y455255D01*
X98501Y457254D02*
X99000D01*
Y456754D01*
Y457754D01*
Y457254D01*
X100500D01*
X101000Y457754D01*
Y460753D02*
Y459754D01*
X100500Y459254D01*
X99500D01*
X99000Y459754D01*
Y460753D01*
X99500Y461253D01*
X100000D01*
Y459254D01*
X99000Y462253D02*
X101000D01*
X100000D01*
X99500Y462752D01*
X99000Y463252D01*
Y463752D01*
Y465252D02*
X100500D01*
X101000Y465752D01*
Y467251D01*
X101499D01*
X101999Y466751D01*
Y466251D01*
X101000Y467251D02*
X99000D01*
X98001Y471250D02*
Y473249D01*
Y472249D01*
X101000D01*
Y475748D02*
Y474749D01*
X100500Y474249D01*
X99500D01*
X99000Y474749D01*
Y475748D01*
X99500Y476248D01*
X100000D01*
Y474249D01*
X99000Y477248D02*
X101000D01*
X100000D01*
X99500Y477748D01*
X99000Y478247D01*
Y478747D01*
X101000Y480247D02*
X99000D01*
Y480747D01*
X99500Y481247D01*
X101000D01*
X99500D01*
X99000Y481746D01*
X99500Y482246D01*
X101000D01*
Y483246D02*
Y484246D01*
Y483746D01*
X99000D01*
Y483246D01*
X101000Y485745D02*
X99000D01*
Y487245D01*
X99500Y487744D01*
X101000D01*
X99000Y489244D02*
Y490244D01*
X99500Y490743D01*
X101000D01*
Y489244D01*
X100500Y488744D01*
X100000Y489244D01*
Y490743D01*
X101000Y491743D02*
Y492743D01*
Y492243D01*
X98001D01*
Y491743D01*
M02*
