G04*
G04 #@! TF.GenerationSoftware,Altium Limited,Altium Designer,21.1.1 (26)*
G04*
G04 Layer_Color=32768*
%FSLAX25Y25*%
%MOIN*%
G70*
G04*
G04 #@! TF.SameCoordinates,BDA2E955-75C2-487D-9455-DF565B8534AD*
G04*
G04*
G04 #@! TF.FilePolarity,Positive*
G04*
G01*
G75*
%ADD13C,0.00600*%
%ADD98C,0.00394*%
%ADD101C,0.00197*%
G36*
X126955Y380063D02*
X120033D01*
Y383213D01*
X116763D01*
Y386787D01*
X120033D01*
Y389937D01*
X126955D01*
Y389347D01*
X130225D01*
Y380654D01*
X126955D01*
Y380063D01*
D02*
G37*
D13*
X130225Y380654D02*
Y389346D01*
X126955Y380654D02*
X130225D01*
X126955Y389346D02*
X130225D01*
X126955Y380063D02*
Y380654D01*
Y389346D02*
Y389937D01*
X120033D02*
X126955D01*
X120033Y386787D02*
Y389937D01*
X116763Y386787D02*
X120033D01*
X116763Y383213D02*
Y386787D01*
Y383213D02*
X120033D01*
Y380063D02*
Y383213D01*
Y380063D02*
X126955D01*
D98*
X157571Y336000D02*
X161114D01*
X159343Y334228D02*
Y337772D01*
X159772Y361500D02*
X163709D01*
X161740Y359531D02*
Y363469D01*
X157874Y350000D02*
X161417D01*
X159646Y348228D02*
Y351772D01*
X119500Y352531D02*
Y356469D01*
X117531Y354500D02*
X121469D01*
X347646Y417228D02*
Y420772D01*
X345874Y419000D02*
X349417D01*
X350031Y432500D02*
X353968D01*
X352000Y430531D02*
Y434468D01*
X347500Y443728D02*
Y447272D01*
X345728Y445500D02*
X349272D01*
X134000Y322532D02*
Y326468D01*
X132032Y324500D02*
X135968D01*
X216032Y329453D02*
X219969D01*
X218000Y327484D02*
Y331421D01*
X333500Y481032D02*
Y484969D01*
X331531Y483000D02*
X335469D01*
X147319Y391000D02*
X149681D01*
X148500Y389819D02*
Y392181D01*
X320000Y412031D02*
Y415968D01*
X318031Y414000D02*
X321968D01*
X320000Y437531D02*
Y441468D01*
X318031Y439500D02*
X321968D01*
X320000Y429531D02*
Y433468D01*
X318031Y431500D02*
X321968D01*
X320000Y420531D02*
Y424468D01*
X318031Y422500D02*
X321968D01*
X278531Y423500D02*
X282468D01*
X280500Y421531D02*
Y425468D01*
X280350Y412531D02*
Y416468D01*
X278382Y414500D02*
X282319D01*
X136319Y446571D02*
X138681D01*
X137500Y445390D02*
Y447752D01*
X260532Y456543D02*
X264469D01*
X262500Y454575D02*
Y458512D01*
X216031Y459000D02*
X219969D01*
X218000Y457031D02*
Y460969D01*
X264000Y486917D02*
Y489083D01*
X262917Y488000D02*
X265083D01*
X258000Y472417D02*
Y474583D01*
X256917Y473500D02*
X259083D01*
X234032Y480000D02*
X237969D01*
X236000Y478031D02*
Y481969D01*
X224532Y428000D02*
X228469D01*
X226500Y426032D02*
Y429969D01*
X129500Y477532D02*
Y481469D01*
X127532Y479500D02*
X131469D01*
X180532Y440000D02*
X184469D01*
X182500Y438031D02*
Y441969D01*
X258000Y430532D02*
Y434469D01*
X256031Y432500D02*
X259968D01*
X171032Y388000D02*
X174969D01*
X173000Y386032D02*
Y389969D01*
X278531Y432000D02*
X282469D01*
X280500Y430031D02*
Y433968D01*
X213000Y384032D02*
Y387969D01*
X211031Y386000D02*
X214968D01*
X187547Y411531D02*
Y415468D01*
X185579Y413500D02*
X189516D01*
X168532D02*
X172469D01*
X170500Y411532D02*
Y415469D01*
D101*
X154028Y333047D02*
Y338953D01*
X164658Y333047D02*
Y338953D01*
X154028D02*
X164658D01*
X154028Y333047D02*
X164658D01*
X167252Y358350D02*
Y364650D01*
X156228Y358350D02*
Y364650D01*
Y358350D02*
X167252D01*
X156228Y364650D02*
X167252D01*
X166339Y345866D02*
Y354134D01*
X152953Y345866D02*
Y354134D01*
Y345866D02*
X166339D01*
X152953Y354134D02*
X166339D01*
X129343Y344657D02*
Y364343D01*
X109657D02*
X129343D01*
X109657Y344657D02*
X129343D01*
X109657D02*
Y364343D01*
X340953Y414866D02*
X354339D01*
X340953Y423134D02*
X354339D01*
Y414866D02*
Y423134D01*
X340953Y414866D02*
Y423134D01*
X348063Y425216D02*
Y439783D01*
X355937D01*
X348063Y425216D02*
X355937D01*
Y439783D01*
X340807Y441366D02*
X354193D01*
X340807Y449634D02*
X354193D01*
Y441366D02*
Y449634D01*
X340807Y441366D02*
Y449634D01*
X130850Y318988D02*
X137150D01*
X130850Y330012D02*
X137150D01*
X130850Y318988D02*
Y330012D01*
X137150Y318988D02*
Y330012D01*
X214850Y324138D02*
Y334768D01*
X221150Y324138D02*
Y334768D01*
X214850Y324138D02*
X221150D01*
X214850Y334768D02*
X221150D01*
X318736Y472173D02*
X348264D01*
X318736Y493827D02*
X348264D01*
Y472173D02*
Y493827D01*
X318736Y472173D02*
Y493827D01*
X150272Y387457D02*
Y394543D01*
X146728Y387457D02*
Y394543D01*
X150272D01*
X146728Y387457D02*
X150272D01*
X314488Y417150D02*
X325512D01*
X314488Y410850D02*
X325512D01*
X314488D02*
Y417150D01*
X325512Y410850D02*
Y417150D01*
X314488Y442650D02*
X325512D01*
X314488Y436350D02*
X325512D01*
X314488D02*
Y442650D01*
X325512Y436350D02*
Y442650D01*
X314488Y434650D02*
X325512D01*
X314488Y428350D02*
X325512D01*
X314488D02*
Y434650D01*
X325512Y428350D02*
Y434650D01*
X314488Y425650D02*
X325512D01*
X314488Y419350D02*
X325512D01*
X314488D02*
Y425650D01*
X325512Y419350D02*
Y425650D01*
X288965Y418579D02*
Y428421D01*
X272035Y418579D02*
Y428421D01*
Y418579D02*
X288965D01*
X272035Y428421D02*
X288965D01*
X274839Y417650D02*
X285862D01*
X274839Y411350D02*
X285862D01*
X274839D02*
Y417650D01*
X285862Y411350D02*
Y417650D01*
X181000Y487532D02*
Y491469D01*
X179032Y489500D02*
X182969D01*
X135138Y442240D02*
Y450902D01*
X139862Y442240D02*
Y450902D01*
X135138Y442240D02*
X139862D01*
X135138Y450902D02*
X139862D01*
X267618Y448079D02*
Y465008D01*
X257382Y448079D02*
Y465008D01*
X267618D01*
X257382Y448079D02*
X267618D01*
X225874Y451126D02*
Y466874D01*
X210126Y451126D02*
Y466874D01*
X225874D01*
X210126Y451126D02*
X225874D01*
X262228Y491543D02*
X265772D01*
X262228Y484457D02*
X265772D01*
Y491543D01*
X262228Y484457D02*
Y491543D01*
X256228Y477043D02*
X259772D01*
X256228Y469957D02*
X259772D01*
Y477043D01*
X256228Y469957D02*
Y477043D01*
X241118Y471535D02*
Y488465D01*
X230882Y471535D02*
Y488465D01*
X241118D01*
X230882Y471535D02*
X241118D01*
X368421Y322098D02*
Y396902D01*
X308579D02*
X368421D01*
X308579Y322098D02*
Y396902D01*
Y322098D02*
X368421D01*
X238705Y411858D02*
Y444142D01*
X214295D02*
X238705D01*
X214295Y411858D02*
X238705D01*
X214295D02*
Y444142D01*
X113358Y496035D02*
X150366D01*
Y462965D02*
Y496035D01*
X113358Y462965D02*
X150366D01*
X113358D02*
Y496035D01*
X202972Y426614D02*
Y453386D01*
X162028Y426614D02*
Y453386D01*
Y426614D02*
X202972D01*
X162028Y453386D02*
X202972D01*
X254850Y426988D02*
X261150D01*
X254850Y438012D02*
X261150D01*
X254850Y426988D02*
Y438012D01*
X261150Y426988D02*
Y438012D01*
X185205Y371858D02*
Y404142D01*
X160795D02*
X185205D01*
X160795Y371858D02*
X185205D01*
X160795D02*
Y404142D01*
X286012Y428850D02*
Y435150D01*
X274988Y428850D02*
Y435150D01*
Y428850D02*
X286012D01*
X274988Y435150D02*
X286012D01*
X203945Y380094D02*
X222055D01*
X203945Y391906D02*
X222055D01*
Y380094D02*
Y391906D01*
X203945Y380094D02*
Y391906D01*
X182232Y416650D02*
X192862D01*
X182232Y410350D02*
X192862D01*
X182232D02*
Y416650D01*
X192862Y410350D02*
Y416650D01*
X164988Y410350D02*
Y416650D01*
X176012Y410350D02*
Y416650D01*
X164988D02*
X176012D01*
X164988Y410350D02*
X176012D01*
M02*
