G04*
G04 #@! TF.GenerationSoftware,Altium Limited,Altium Designer,21.1.1 (26)*
G04*
G04 Layer_Color=16711935*
%FSLAX25Y25*%
%MOIN*%
G70*
G04*
G04 #@! TF.SameCoordinates,BDA2E955-75C2-487D-9455-DF565B8534AD*
G04*
G04*
G04 #@! TF.FilePolarity,Negative*
G04*
G01*
G75*
%ADD81C,0.06693*%
%ADD82R,0.06693X0.06693*%
%ADD83O,0.06509X0.08674*%
%ADD84O,0.05328X0.07887*%
%ADD85C,0.03950*%
%ADD86C,0.04500*%
%ADD87C,0.06706*%
%ADD88R,0.06706X0.06706*%
%ADD89C,0.02769*%
D81*
X121815Y417000D02*
D03*
D82*
X141500D02*
D03*
D83*
X195665Y478083D02*
D03*
X166335D02*
D03*
D84*
X196256Y493043D02*
D03*
X165744D02*
D03*
D85*
X190843Y482217D02*
D03*
X171157D02*
D03*
D86*
X302500Y480500D02*
D03*
X307500D02*
D03*
X302500Y475500D02*
D03*
X307500D02*
D03*
X302539Y470500D02*
D03*
X307500D02*
D03*
X302500Y465500D02*
D03*
X307500D02*
D03*
X302500Y460500D02*
D03*
X307500D02*
D03*
D87*
X235358Y415205D02*
D03*
Y440795D02*
D03*
X217642D02*
D03*
X181858Y375205D02*
D03*
Y400795D02*
D03*
X164142D02*
D03*
D88*
X217642Y415205D02*
D03*
X164142Y375205D02*
D03*
D89*
X115563Y350563D02*
D03*
Y354500D02*
D03*
Y358437D02*
D03*
X119500Y350563D02*
D03*
Y354500D02*
D03*
Y358437D02*
D03*
X123437Y350563D02*
D03*
Y354500D02*
D03*
Y358437D02*
D03*
X138000Y358500D02*
D03*
X140000Y331500D02*
D03*
X134000D02*
D03*
X132484Y355484D02*
D03*
X158500Y466500D02*
D03*
X258500Y497000D02*
D03*
X268500Y434000D02*
D03*
X268461Y420961D02*
D03*
X292000Y390500D02*
D03*
X300500Y374500D02*
D03*
X380000Y491500D02*
D03*
X366000Y465000D02*
D03*
X370500Y428000D02*
D03*
X284500Y330500D02*
D03*
X357500Y464000D02*
D03*
X366000Y480500D02*
D03*
X316500Y485000D02*
D03*
X316000Y490500D02*
D03*
X354000Y475500D02*
D03*
X373500Y486500D02*
D03*
X269500Y318000D02*
D03*
X371500Y362500D02*
D03*
X249500Y325000D02*
D03*
X246500Y331000D02*
D03*
X273000Y346000D02*
D03*
X253000D02*
D03*
X280500Y327500D02*
D03*
X279719Y340781D02*
D03*
X276000Y339000D02*
D03*
X246500Y345000D02*
D03*
X302500Y325000D02*
D03*
X241000Y345000D02*
D03*
X258000Y421000D02*
D03*
X227500D02*
D03*
X241500Y348500D02*
D03*
X317500Y448500D02*
D03*
X306000Y442000D02*
D03*
X278000Y406000D02*
D03*
X249000Y410000D02*
D03*
X292000Y441500D02*
D03*
X284000Y407500D02*
D03*
X261000Y406000D02*
D03*
X255500Y408000D02*
D03*
X313500Y451000D02*
D03*
X294000Y449500D02*
D03*
X292500Y418500D02*
D03*
X245000Y426000D02*
D03*
X255500Y339870D02*
D03*
X335000Y452500D02*
D03*
X265000Y438500D02*
D03*
X155000Y493000D02*
D03*
X155500Y489000D02*
D03*
X159500Y483500D02*
D03*
X305500Y413500D02*
D03*
X298000Y412500D02*
D03*
X122000Y373000D02*
D03*
X254500Y324000D02*
D03*
X344500Y439000D02*
D03*
X350500Y414000D02*
D03*
X233500Y391500D02*
D03*
X234000Y388000D02*
D03*
X295500Y397500D02*
D03*
X234000Y384000D02*
D03*
X220000Y348500D02*
D03*
X184500Y327500D02*
D03*
X104500Y347000D02*
D03*
X169000Y324500D02*
D03*
X105000Y353500D02*
D03*
X159500Y416500D02*
D03*
X140000Y342000D02*
D03*
X295669Y380169D02*
D03*
X359000Y411000D02*
D03*
X157000Y435000D02*
D03*
X197000Y413500D02*
D03*
X198000Y442500D02*
D03*
X128500D02*
D03*
X189000Y487500D02*
D03*
X196000Y463500D02*
D03*
X231057Y463597D02*
D03*
X229000Y476500D02*
D03*
X216000Y479000D02*
D03*
X237500Y456500D02*
D03*
X218000Y469468D02*
D03*
X223500Y469500D02*
D03*
X213000D02*
D03*
X215000Y485000D02*
D03*
X258827Y489673D02*
D03*
X271500Y479000D02*
D03*
X258000Y467000D02*
D03*
X231500Y459500D02*
D03*
X256000D02*
D03*
X232500Y448000D02*
D03*
X176000Y472500D02*
D03*
X272500Y484000D02*
D03*
X218000Y459000D02*
D03*
X219969Y460969D02*
D03*
X216032D02*
D03*
Y457032D02*
D03*
X219969D02*
D03*
M02*
