G04*
G04 #@! TF.GenerationSoftware,Altium Limited,Altium Designer,21.1.1 (26)*
G04*
G04 Layer_Color=16711935*
%FSLAX25Y25*%
%MOIN*%
G70*
G04*
G04 #@! TF.SameCoordinates,BDA2E955-75C2-487D-9455-DF565B8534AD*
G04*
G04*
G04 #@! TF.FilePolarity,Positive*
G04*
G01*
G75*
%ADD98C,0.00394*%
%ADD100C,0.00100*%
D98*
X116941Y349972D02*
X116677Y350957D01*
X115957Y351677D01*
X114972Y351941D01*
X113988Y351677D01*
X113268Y350957D01*
X113004Y349972D01*
X113268Y348988D01*
X113988Y348268D01*
X114972Y348004D01*
X115957Y348268D01*
X116677Y348988D01*
X116941Y349972D01*
X331138Y489299D02*
X330874Y490283D01*
X330153Y491004D01*
X329169Y491268D01*
X328185Y491004D01*
X327465Y490283D01*
X327201Y489299D01*
X327465Y488315D01*
X328185Y487594D01*
X329169Y487331D01*
X330153Y487594D01*
X330874Y488315D01*
X331138Y489299D01*
X217606Y456638D02*
X217343Y457622D01*
X216622Y458343D01*
X215638Y458606D01*
X214653Y458343D01*
X213933Y457622D01*
X213669Y456638D01*
X213933Y455653D01*
X214653Y454933D01*
X215638Y454669D01*
X216622Y454933D01*
X217343Y455653D01*
X217606Y456638D01*
X155996Y334228D02*
Y337772D01*
X162689Y334228D02*
Y337772D01*
X155996D02*
X162689D01*
X155996Y334228D02*
X162689D01*
X166071Y358646D02*
Y364354D01*
X157410Y358646D02*
Y364354D01*
Y358646D02*
X166071D01*
X157410Y364354D02*
X166071D01*
X162992Y348228D02*
Y351772D01*
X156299Y348228D02*
Y351772D01*
Y348228D02*
X162992D01*
X156299Y351772D02*
X162992D01*
X111626Y346626D02*
X127374D01*
X111626Y362374D02*
X127374D01*
X111626Y346626D02*
Y362374D01*
X127374Y346626D02*
Y362374D01*
X344299Y417228D02*
X350992D01*
X344299Y420772D02*
X350992D01*
Y417228D02*
Y420772D01*
X344299Y417228D02*
Y420772D01*
X349047Y426201D02*
X354953D01*
X349047D02*
Y438799D01*
X354953Y426201D02*
Y438799D01*
X349047D02*
X354953D01*
X344153Y443728D02*
X350846D01*
X344153Y447272D02*
X350846D01*
Y443728D02*
Y447272D01*
X344153Y443728D02*
Y447272D01*
X131146Y320169D02*
X136854D01*
X131146Y328831D02*
X136854D01*
X131146Y320169D02*
Y328831D01*
X136854Y320169D02*
Y328831D01*
X215342Y325122D02*
Y333784D01*
X220657Y325122D02*
Y333784D01*
X215342Y325122D02*
X220657D01*
X215342Y333784D02*
X220657D01*
X325626Y473157D02*
X341374D01*
X325626Y492843D02*
X341374D01*
Y473157D02*
Y492843D01*
X325626Y473157D02*
Y492843D01*
X149681Y388835D02*
Y393165D01*
X147319Y388835D02*
Y393165D01*
X149681D01*
X147319Y388835D02*
X149681D01*
X315669Y416854D02*
X324331D01*
X315669Y411146D02*
X324331D01*
X315669D02*
Y416854D01*
X324331Y411146D02*
Y416854D01*
X315669Y442354D02*
X324331D01*
X315669Y436646D02*
X324331D01*
X315669D02*
Y442354D01*
X324331Y436646D02*
Y442354D01*
X315669Y434354D02*
X324331D01*
X315669Y428646D02*
X324331D01*
X315669D02*
Y434354D01*
X324331Y428646D02*
Y434354D01*
X315669Y425354D02*
X324331D01*
X315669Y419646D02*
X324331D01*
X315669D02*
Y425354D01*
X324331Y419646D02*
Y425354D01*
X284634Y420843D02*
Y426157D01*
X276366Y420843D02*
Y426157D01*
Y420843D02*
X284634D01*
X276366Y426157D02*
X284634D01*
X276020Y417354D02*
X284681D01*
X276020Y411646D02*
X284681D01*
X276020D02*
Y417354D01*
X284681Y411646D02*
Y417354D01*
X165252Y476508D02*
Y497768D01*
X196748Y476508D02*
Y497768D01*
X165252Y476508D02*
X196748D01*
X195567Y497768D02*
X196748D01*
X195567D02*
Y502492D01*
X166433D02*
X195567D01*
X166433Y497768D02*
Y502492D01*
X165252Y497768D02*
X166433D01*
X136319Y444406D02*
Y448736D01*
X138681Y444406D02*
Y448736D01*
X136319Y444406D02*
X138681D01*
X136319Y448736D02*
X138681D01*
X265354Y452213D02*
Y460874D01*
X259646Y452213D02*
Y460874D01*
X265354D01*
X259646Y452213D02*
X265354D01*
X223906Y453094D02*
Y464906D01*
X212094Y453094D02*
Y464906D01*
X223906D01*
X212094Y453094D02*
X223906D01*
X262917Y490067D02*
X265083D01*
X262917Y485933D02*
X265083D01*
Y490067D01*
X262917Y485933D02*
Y490067D01*
X256917Y475567D02*
X259083D01*
X256917Y471433D02*
X259083D01*
Y475567D01*
X256917Y471433D02*
Y475567D01*
X238854Y475669D02*
Y484331D01*
X233146Y475669D02*
Y484331D01*
X238854D01*
X233146Y475669D02*
X238854D01*
X214689Y439811D02*
X238311D01*
Y416189D02*
Y439811D01*
X214689Y416189D02*
X238311D01*
X214689D02*
Y439811D01*
X144461Y463949D02*
Y467098D01*
X117689Y463949D02*
X144461D01*
X138161Y467098D02*
X144461D01*
X138161D02*
Y491902D01*
X144461D01*
X114539Y465917D02*
X117689D01*
Y463949D02*
Y465917D01*
X114539D02*
Y493083D01*
X117689D01*
Y495051D01*
X144461Y491902D02*
Y495051D01*
X117689D02*
X144461D01*
X190571Y427008D02*
Y452992D01*
X166161Y427008D02*
Y452992D01*
Y427008D02*
X190571D01*
X166161Y452992D02*
X190571D01*
X255146Y428169D02*
X260854D01*
X255146Y436831D02*
X260854D01*
X255146Y428169D02*
Y436831D01*
X260854Y428169D02*
Y436831D01*
X161189Y399811D02*
X184811D01*
Y376189D02*
Y399811D01*
X161189Y376189D02*
X184811D01*
X161189D02*
Y399811D01*
X284831Y429146D02*
Y434854D01*
X276169Y429146D02*
Y434854D01*
Y429146D02*
X284831D01*
X276169Y434854D02*
X284831D01*
X206110Y380488D02*
X219890D01*
X206110Y391512D02*
X219890D01*
Y380488D02*
Y391512D01*
X206110Y380488D02*
Y391512D01*
X183217Y416157D02*
X191878D01*
X183217Y410843D02*
X191878D01*
X183217D02*
Y416157D01*
X191878Y410843D02*
Y416157D01*
X166169Y410646D02*
Y416354D01*
X174831Y410646D02*
Y416354D01*
X166169D02*
X174831D01*
X166169Y410646D02*
X174831D01*
D100*
X121033Y381063D02*
X125955D01*
X121033D02*
Y388937D01*
X125955D01*
Y381063D02*
Y388937D01*
X119163Y384213D02*
X121033D01*
X119163D02*
Y385787D01*
X121033D01*
Y384213D02*
Y385787D01*
X125955Y388346D02*
X127825D01*
Y386772D02*
Y388346D01*
X125955Y386772D02*
X127825D01*
X125955D02*
Y388346D01*
Y383228D02*
X127825D01*
Y381654D02*
Y383228D01*
X125955Y381654D02*
X127825D01*
X125955D02*
Y383228D01*
M02*
