G04*
G04 #@! TF.GenerationSoftware,Altium Limited,Altium Designer,21.1.1 (26)*
G04*
G04 Layer_Physical_Order=2*
G04 Layer_Color=16711680*
%FSLAX25Y25*%
%MOIN*%
G70*
G04*
G04 #@! TF.SameCoordinates,BDA2E955-75C2-487D-9455-DF565B8534AD*
G04*
G04*
G04 #@! TF.FilePolarity,Positive*
G04*
G01*
G75*
%ADD13C,0.00600*%
%ADD15C,0.01000*%
%ADD81C,0.06693*%
%ADD82R,0.06693X0.06693*%
%ADD91O,0.05709X0.07874*%
%ADD92O,0.04528X0.07087*%
%ADD93C,0.03150*%
%ADD94C,0.03700*%
%ADD95C,0.05906*%
%ADD96R,0.05906X0.05906*%
%ADD97C,0.01968*%
D13*
X140000Y342000D02*
X173500Y375500D01*
X229000Y465500D02*
X231000Y463500D01*
X136000Y356500D02*
X138000Y358500D01*
X136000Y335500D02*
Y356500D01*
Y335500D02*
X140000Y331500D01*
X132484Y333016D02*
X134000Y331500D01*
X132484Y333016D02*
Y355484D01*
X291500Y491000D02*
X296500Y496000D01*
X291500Y457500D02*
Y491000D01*
Y457500D02*
X296500Y452500D01*
Y448351D02*
Y452500D01*
X293649Y445500D02*
X296500Y448351D01*
X268461Y420961D02*
Y433961D01*
X268500Y434000D01*
X292000Y390500D02*
Y400000D01*
X293000Y401000D01*
X297500D01*
X294000Y405000D02*
X348000D01*
X283500Y394500D02*
X294000Y405000D01*
X348000D02*
X350500Y407500D01*
X247000Y394500D02*
X283500D01*
X283000Y396000D02*
X293500Y406500D01*
X333500D02*
X338500Y411500D01*
X293500Y406500D02*
X333500D01*
X245000Y396000D02*
X283000D01*
X297500Y401000D02*
X300500Y398000D01*
Y374500D02*
Y398000D01*
X366000Y465000D02*
X380000Y479000D01*
Y491500D01*
X370500Y428000D02*
X376500Y422000D01*
Y311000D02*
Y422000D01*
X375000Y309500D02*
X376500Y311000D01*
X301500Y309500D02*
X375000D01*
X284500Y326500D02*
X301500Y309500D01*
X284500Y326500D02*
Y330500D01*
X366000Y480500D02*
X367500D01*
X373500Y486500D01*
X246500Y331000D02*
X256500D01*
X269500Y318000D01*
X359000Y411000D02*
X371500Y398500D01*
Y362500D02*
Y398500D01*
X379500Y308000D02*
Y446500D01*
X358000Y468000D02*
X379500Y446500D01*
X377000Y305500D02*
X379500Y308000D01*
X378000Y309500D02*
Y443500D01*
X357500Y464000D02*
X378000Y443500D01*
X376000Y307500D02*
X378000Y309500D01*
X316000Y490500D02*
X318500Y488000D01*
Y479000D02*
Y488000D01*
Y479000D02*
X329500Y468000D01*
X358000D01*
X276500Y305500D02*
X377000D01*
X255000Y327000D02*
X276500Y305500D01*
X251500Y327000D02*
X255000D01*
X249500Y325000D02*
X251500Y327000D01*
X253000Y346000D02*
X273000D01*
X280500Y327500D02*
X300500Y307500D01*
X376000D01*
X248000Y343500D02*
X277000D01*
X279719Y340781D01*
X246500Y345000D02*
X248000Y343500D01*
X241000Y345000D02*
X244000Y342000D01*
X273000D02*
X276000Y339000D01*
X244000Y342000D02*
X273000D01*
X225500Y348500D02*
X234000Y340000D01*
X255370D02*
X255500Y339870D01*
X234000Y340000D02*
X255370D01*
X316500Y476500D02*
Y485000D01*
Y476500D02*
X356000Y437000D01*
Y405000D02*
Y437000D01*
X353500Y402500D02*
X356000Y405000D01*
X310500Y402500D02*
X353500D01*
X304500Y396500D02*
X310500Y402500D01*
X304500Y327000D02*
Y396500D01*
X302500Y325000D02*
X304500Y327000D01*
X354000Y475500D02*
X371000D01*
X376000Y480500D01*
Y491500D01*
X296500Y496000D02*
X371500D01*
X376000Y491500D01*
X290500Y445500D02*
X293649D01*
X287000Y442000D02*
X290500Y445500D01*
X262500Y442000D02*
X287000D01*
X261500Y441000D02*
X262500Y442000D01*
X261500Y439500D02*
Y441000D01*
Y439500D02*
X263000Y438000D01*
Y426000D02*
Y438000D01*
X258000Y421000D02*
X263000Y426000D01*
X227500Y414500D02*
Y421000D01*
X220000Y407000D02*
X227500Y414500D01*
X199500Y407000D02*
X220000D01*
X199000Y406500D02*
X199500Y407000D01*
X199000Y372500D02*
Y406500D01*
X217000Y354500D02*
X230500D01*
X199000Y372500D02*
X217000Y354500D01*
X236500Y348500D02*
X241500D01*
X230500Y354500D02*
X236500Y348500D01*
X306000Y442000D02*
X311000D01*
X317500Y448500D01*
X275000Y403000D02*
X278000Y406000D01*
X256000Y403000D02*
X275000D01*
X249000Y410000D02*
X256000Y403000D01*
X302500Y452000D02*
Y460500D01*
X292000Y441500D02*
X302500Y452000D01*
X263500Y408500D02*
X283000D01*
X284000Y407500D01*
X261000Y406000D02*
X263500Y408500D01*
X294421Y408000D02*
X294500Y407921D01*
X295921D01*
X293000Y408000D02*
X294421D01*
X290000Y411000D02*
X293000Y408000D01*
X258500Y411000D02*
X290000D01*
X255500Y408000D02*
X258500Y411000D01*
X255500Y408000D02*
X255579Y407921D01*
X302750Y480750D02*
Y483250D01*
X302500Y480500D02*
X302750Y480750D01*
Y483250D02*
X303500Y484000D01*
X310000D01*
X311500Y482500D01*
Y467500D02*
Y482500D01*
Y467500D02*
X313500Y465500D01*
Y451000D02*
Y465500D01*
X291500Y447000D02*
X294000Y449500D01*
X255500Y447000D02*
X291500D01*
X253000Y444500D02*
X255500Y447000D01*
X253000Y434000D02*
Y444500D01*
X245000Y426000D02*
X253000Y434000D01*
X252500Y418500D02*
X292500D01*
X245000Y426000D02*
X252500Y418500D01*
X240000Y431000D02*
X245000Y426000D01*
X227437Y431000D02*
X240000D01*
X217642Y440795D02*
X227437Y431000D01*
X220000Y348500D02*
X232500Y336000D01*
X197000Y371500D02*
X220000Y348500D01*
X225500D01*
X293500Y473000D02*
X296000Y470500D01*
X302539D01*
X293500Y473000D02*
Y480000D01*
X299500Y486000D01*
X310500D01*
X313500Y483000D01*
Y469500D02*
Y483000D01*
Y469500D02*
X325500Y457500D01*
X333500D01*
X338000Y453000D01*
Y441000D02*
Y453000D01*
X307000Y410000D02*
X338000Y441000D01*
X298000Y410000D02*
X307000D01*
X295921Y407921D02*
X298000Y410000D01*
X321000Y438500D02*
X335000Y452500D01*
X294500Y438500D02*
X321000D01*
X307500Y451500D02*
Y460500D01*
X294500Y438500D02*
X307500Y451500D01*
X265000Y438500D02*
X294500D01*
X152500Y490500D02*
X155000Y493000D01*
X154000Y487500D02*
X155500Y489000D01*
X154000Y465000D02*
Y487500D01*
Y465000D02*
X164000Y455000D01*
X193000D01*
X219000Y429000D01*
X234500D01*
X248000Y415500D01*
X303500D01*
X305500Y413500D01*
X152500Y461000D02*
Y490500D01*
X160000Y453500D02*
X191500D01*
X152500Y461000D02*
X160000Y453500D01*
X191500D02*
X218000Y427000D01*
X231500D01*
X246000Y412500D01*
X298000D01*
X95500Y361500D02*
X107000Y373000D01*
X122000D01*
X95500Y322500D02*
Y361500D01*
Y322500D02*
X100000Y318000D01*
X248500D02*
X254500Y324000D01*
X100000Y318000D02*
X248500D01*
X338500Y433000D02*
X344500Y439000D01*
X338500Y411500D02*
Y433000D01*
X233500Y391500D02*
X240500D01*
X245000Y396000D01*
X350500Y407500D02*
Y414000D01*
X240500Y388000D02*
X247000Y394500D01*
X234000Y388000D02*
X240500D01*
X295500Y397500D02*
X295669Y397331D01*
Y380169D02*
Y397331D01*
X225500Y405347D02*
X235358Y415205D01*
X225500Y392500D02*
X234000Y384000D01*
X225500Y392500D02*
Y405347D01*
X118500Y327500D02*
X184500D01*
X104500Y341500D02*
X118500Y327500D01*
X104500Y341500D02*
Y347000D01*
X97500Y344000D02*
Y352500D01*
Y344000D02*
X117000Y324500D01*
X98500Y353500D02*
X105000D01*
X97500Y352500D02*
X98500Y353500D01*
X117000Y324500D02*
X169000D01*
X173500Y375500D02*
Y399000D01*
X159500Y413000D02*
X173500Y399000D01*
X159500Y413000D02*
Y416500D01*
X140000Y342370D02*
X140500Y342870D01*
X140000Y342000D02*
Y342370D01*
X141500Y417000D02*
X157705Y400795D01*
X164142D01*
X197000Y371500D02*
Y413500D01*
X232500Y336000D02*
X282500D01*
X295669Y349169D01*
Y380169D01*
X155500Y433500D02*
X157000Y435000D01*
X155500Y420500D02*
Y433500D01*
Y420500D02*
X159500Y416500D01*
X197000Y413500D02*
X200500D01*
X202500Y415500D01*
Y438000D01*
X198000Y442500D02*
X202500Y438000D01*
X229000Y465500D02*
Y476500D01*
X216000Y477000D02*
X223500Y469500D01*
X216000Y477000D02*
Y479000D01*
X219647Y462853D02*
X222919D01*
X229271Y456500D01*
X237500D01*
X213000Y469500D02*
X219647Y462853D01*
X218000Y469468D02*
X227968Y459500D01*
X231500D01*
X215000Y485000D02*
X219673Y489673D01*
X258827D01*
X258000Y467000D02*
X270000Y479000D01*
X271500D01*
X231500Y459500D02*
X250500D01*
X258000Y467000D01*
D15*
X156500Y468500D02*
X158500Y466500D01*
X156500Y468500D02*
Y484500D01*
X159000Y487000D02*
X171000D01*
X156500Y484500D02*
X159000Y487000D01*
X171000D02*
X177500Y493500D01*
X187500D01*
X195000Y486000D02*
X206500D01*
X187500Y493500D02*
X195000Y486000D01*
X217500Y497000D02*
X258500D01*
X206500Y486000D02*
X217500Y497000D01*
X159500Y483500D02*
X160500Y482500D01*
X128500Y442500D02*
X198000D01*
X183500Y487500D02*
X189000D01*
X172000Y476000D02*
X183500Y487500D01*
X172000Y470000D02*
Y476000D01*
X178500Y463500D02*
X196000D01*
X172000Y470000D02*
X178500Y463500D01*
X160500Y475500D02*
Y482500D01*
Y475500D02*
X179500Y456500D01*
X203000D01*
X211500Y448000D01*
X232500D01*
X244500D01*
X256000Y459500D01*
X176000Y472500D02*
X198500D01*
X219000Y493000D01*
X263500D02*
X272500Y484000D01*
X219000Y493000D02*
X263500D01*
D81*
X121815Y417000D02*
D03*
D82*
X141500D02*
D03*
D91*
X195665Y478083D02*
D03*
X166335D02*
D03*
D92*
X196256Y493043D02*
D03*
X165744D02*
D03*
D93*
X190843Y482217D02*
D03*
X171157D02*
D03*
D94*
X302500Y480500D02*
D03*
X307500D02*
D03*
X302500Y475500D02*
D03*
X307500D02*
D03*
X302539Y470500D02*
D03*
X307500D02*
D03*
X302500Y465500D02*
D03*
X307500D02*
D03*
X302500Y460500D02*
D03*
X307500D02*
D03*
D95*
X235358Y415205D02*
D03*
Y440795D02*
D03*
X217642D02*
D03*
X181858Y375205D02*
D03*
Y400795D02*
D03*
X164142D02*
D03*
D96*
X217642Y415205D02*
D03*
X164142Y375205D02*
D03*
D97*
X115563Y350563D02*
D03*
Y354500D02*
D03*
Y358437D02*
D03*
X119500Y350563D02*
D03*
Y354500D02*
D03*
Y358437D02*
D03*
X123437Y350563D02*
D03*
Y354500D02*
D03*
Y358437D02*
D03*
X138000Y358500D02*
D03*
X140000Y331500D02*
D03*
X134000D02*
D03*
X132484Y355484D02*
D03*
X158500Y466500D02*
D03*
X258500Y497000D02*
D03*
X268500Y434000D02*
D03*
X268461Y420961D02*
D03*
X292000Y390500D02*
D03*
X300500Y374500D02*
D03*
X380000Y491500D02*
D03*
X366000Y465000D02*
D03*
X370500Y428000D02*
D03*
X284500Y330500D02*
D03*
X357500Y464000D02*
D03*
X366000Y480500D02*
D03*
X316500Y485000D02*
D03*
X316000Y490500D02*
D03*
X354000Y475500D02*
D03*
X373500Y486500D02*
D03*
X269500Y318000D02*
D03*
X371500Y362500D02*
D03*
X249500Y325000D02*
D03*
X246500Y331000D02*
D03*
X273000Y346000D02*
D03*
X253000D02*
D03*
X280500Y327500D02*
D03*
X279719Y340781D02*
D03*
X276000Y339000D02*
D03*
X246500Y345000D02*
D03*
X302500Y325000D02*
D03*
X241000Y345000D02*
D03*
X258000Y421000D02*
D03*
X227500D02*
D03*
X241500Y348500D02*
D03*
X317500Y448500D02*
D03*
X306000Y442000D02*
D03*
X278000Y406000D02*
D03*
X249000Y410000D02*
D03*
X292000Y441500D02*
D03*
X284000Y407500D02*
D03*
X261000Y406000D02*
D03*
X255500Y408000D02*
D03*
X313500Y451000D02*
D03*
X294000Y449500D02*
D03*
X292500Y418500D02*
D03*
X245000Y426000D02*
D03*
X255500Y339870D02*
D03*
X335000Y452500D02*
D03*
X265000Y438500D02*
D03*
X155000Y493000D02*
D03*
X155500Y489000D02*
D03*
X159500Y483500D02*
D03*
X305500Y413500D02*
D03*
X298000Y412500D02*
D03*
X122000Y373000D02*
D03*
X254500Y324000D02*
D03*
X344500Y439000D02*
D03*
X350500Y414000D02*
D03*
X233500Y391500D02*
D03*
X234000Y388000D02*
D03*
X295500Y397500D02*
D03*
X234000Y384000D02*
D03*
X220000Y348500D02*
D03*
X184500Y327500D02*
D03*
X104500Y347000D02*
D03*
X169000Y324500D02*
D03*
X105000Y353500D02*
D03*
X159500Y416500D02*
D03*
X140000Y342000D02*
D03*
X295669Y380169D02*
D03*
X359000Y411000D02*
D03*
X157000Y435000D02*
D03*
X197000Y413500D02*
D03*
X198000Y442500D02*
D03*
X128500D02*
D03*
X189000Y487500D02*
D03*
X196000Y463500D02*
D03*
X231057Y463597D02*
D03*
X229000Y476500D02*
D03*
X216000Y479000D02*
D03*
X237500Y456500D02*
D03*
X218000Y469468D02*
D03*
X223500Y469500D02*
D03*
X213000D02*
D03*
X215000Y485000D02*
D03*
X258827Y489673D02*
D03*
X271500Y479000D02*
D03*
X258000Y467000D02*
D03*
X231500Y459500D02*
D03*
X256000D02*
D03*
X232500Y448000D02*
D03*
X176000Y472500D02*
D03*
X272500Y484000D02*
D03*
X218000Y459000D02*
D03*
X219969Y460969D02*
D03*
X216032D02*
D03*
Y457032D02*
D03*
X219969D02*
D03*
M02*
