M48
;Layer_Color=9474304
;FILE_FORMAT=2:4
INCH,TZ
;TYPE=PLATED
T1F00S00C0.0079
T2F00S00C0.0118
T4F00S00C0.0295
T6F00S00C0.0394
T7F00S00C0.0433
;TYPE=NON_PLATED
T8F00S00C0.0315
%
T01
X11556Y35056
Y35450
Y35844
X11950
Y35450
Y35056
X12344
Y35450
Y35844
T02
X10450Y34700
X10500Y35350
X13248Y35548
X13800Y35850
X14000Y34200
Y33150
X13400
X12200Y37300
X12850Y44250
X15700Y43500
X15950Y41650
X19700Y41350
X19800Y44250
X19600Y46350
X21603Y46097
X21800Y45900
X21603Y45703
X21997
Y46097
X23150Y45950
X23106Y46360
X23750Y45650
X23250Y44800
X22750Y42100
X24500Y42600
X25800Y42100
X26846Y42096
X26850Y43400
X26500Y43850
X29200Y44150
X29400Y44950
X30600Y44200
X30550Y41350
X29800Y41250
X29250Y41850
X28400Y40750
X27800Y40600
X26100
X25550Y40800
X24900Y41000
X23350Y39150
X23400Y38800
Y38400
X24150Y34850
X24100Y34500
X24650
X25300Y34600
X25550Y33987
X25450Y32400
X24950Y32500
X24650Y33100
X26950Y31800
X28050Y32750
X28450Y33050
X27972Y34078
X27600Y33900
X27300Y34600
X30250Y32500
X30050Y37450
X29567Y38017
X29200Y39050
X29550Y39750
X25600Y45950
X25800Y46700
X15850Y46650
X16900Y32450
X18450Y32750
X22000Y34850
X37150Y36250
X35900Y41100
X35050Y41400
X34450Y43900
X33500Y45250
X31750Y44850
X31350Y45100
X35750Y46400
X36600Y46500
X37050Y42800
X36600Y48050
X37350Y48650
X38000Y49150
X35400Y47550
X31650Y48500
X31600Y49050
X27250Y48400
X27150Y47900
X25883Y48967
X25850Y49700
X22900Y47650
X22350Y46950
X21800Y46947
X21300Y46950
X21600Y47900
X21500Y48500
X18900Y48750
X17600Y47250
X15950Y48350
X15550Y48900
X15500Y49300
T04
X30250Y46050
Y46550
X30750
Y46050
Y47050
X30254
X30250Y47550
Y48050
X30750
Y47550
T06
X16414Y37520
X18186
Y40080
X16414
X21764Y41520
X23536
Y44080
X21764
T07
X12181Y41700
X14150
T08
X17116Y48222
X19084
M30
