G04*
G04 #@! TF.GenerationSoftware,Altium Limited,Altium Designer,21.1.1 (26)*
G04*
G04 Layer_Color=8388736*
%FSLAX25Y25*%
%MOIN*%
G70*
G04*
G04 #@! TF.SameCoordinates,BDA2E955-75C2-487D-9455-DF565B8534AD*
G04*
G04*
G04 #@! TF.FilePolarity,Negative*
G04*
G01*
G75*
%ADD23R,0.02362X0.01968*%
%ADD28R,0.04473X0.01775*%
%ADD30R,0.03740X0.02756*%
%ADD31R,0.03150X0.03150*%
%ADD32R,0.03197X0.02985*%
%ADD35R,0.05906X0.01181*%
%ADD36R,0.01181X0.05906*%
%ADD37R,0.02648X0.02816*%
%ADD41R,0.03150X0.01181*%
%ADD42R,0.03543X0.02362*%
%ADD45R,0.03788X0.03681*%
%ADD47R,0.03985X0.04560*%
%ADD48R,0.01860X0.02029*%
%ADD55R,0.04147X0.04540*%
%ADD56R,0.04540X0.06115*%
%ADD57R,0.04540X0.04934*%
%ADD58R,0.02178X0.03950*%
%ADD59R,0.04147X0.02178*%
%ADD60R,0.11036X0.11430*%
%ADD61R,0.07887X0.04737*%
%ADD62R,0.06115X0.04540*%
%ADD63R,0.05721X0.04737*%
%ADD64O,0.09461X0.03162*%
%ADD65R,0.03162X0.03359*%
%ADD66R,0.06312X0.06706*%
%ADD67R,0.08477X0.04540*%
%ADD68R,0.02572X0.05918*%
%ADD69R,0.03713X0.03871*%
%ADD70R,0.06902X0.06706*%
G04:AMPARAMS|DCode=71|XSize=17.84mil|YSize=31.62mil|CornerRadius=5.97mil|HoleSize=0mil|Usage=FLASHONLY|Rotation=180.000|XOffset=0mil|YOffset=0mil|HoleType=Round|Shape=RoundedRectangle|*
%AMROUNDEDRECTD71*
21,1,0.01784,0.01968,0,0,180.0*
21,1,0.00591,0.03162,0,0,180.0*
1,1,0.01194,-0.00295,0.00984*
1,1,0.01194,0.00295,0.00984*
1,1,0.01194,0.00295,-0.00984*
1,1,0.01194,-0.00295,-0.00984*
%
%ADD71ROUNDEDRECTD71*%
G04:AMPARAMS|DCode=72|XSize=17.84mil|YSize=31.62mil|CornerRadius=5.97mil|HoleSize=0mil|Usage=FLASHONLY|Rotation=90.000|XOffset=0mil|YOffset=0mil|HoleType=Round|Shape=RoundedRectangle|*
%AMROUNDEDRECTD72*
21,1,0.01784,0.01968,0,0,90.0*
21,1,0.00591,0.03162,0,0,90.0*
1,1,0.01194,0.00984,0.00295*
1,1,0.01194,0.00984,-0.00295*
1,1,0.01194,-0.00984,-0.00295*
1,1,0.01194,-0.00984,0.00295*
%
%ADD72ROUNDEDRECTD72*%
G04:AMPARAMS|DCode=73|XSize=74.93mil|YSize=74.93mil|CornerRadius=6.01mil|HoleSize=0mil|Usage=FLASHONLY|Rotation=90.000|XOffset=0mil|YOffset=0mil|HoleType=Round|Shape=RoundedRectangle|*
%AMROUNDEDRECTD73*
21,1,0.07493,0.06291,0,0,90.0*
21,1,0.06291,0.07493,0,0,90.0*
1,1,0.01202,0.03146,0.03146*
1,1,0.01202,0.03146,-0.03146*
1,1,0.01202,-0.03146,-0.03146*
1,1,0.01202,-0.03146,0.03146*
%
%ADD73ROUNDEDRECTD73*%
%ADD74R,0.02965X0.03162*%
%ADD75R,0.14186X0.06706*%
%ADD76R,0.14580X0.04737*%
%ADD77R,0.07887X0.04343*%
%ADD78R,0.25210X0.22257*%
%ADD79R,0.05328X0.11430*%
%ADD80R,0.04737X0.05721*%
%ADD81C,0.06693*%
%ADD82R,0.06693X0.06693*%
%ADD83O,0.06509X0.08674*%
%ADD84O,0.05328X0.07887*%
%ADD85C,0.03950*%
%ADD86C,0.04500*%
%ADD87C,0.06706*%
%ADD88R,0.06706X0.06706*%
%ADD89C,0.02769*%
D23*
X178500Y462468D02*
D03*
Y458531D02*
D03*
D28*
X120000Y385000D02*
D03*
X126988Y387559D02*
D03*
Y382441D02*
D03*
D30*
X148500Y371000D02*
D03*
Y376315D02*
D03*
D31*
X298500Y330752D02*
D03*
Y337248D02*
D03*
X222000Y478252D02*
D03*
Y484748D02*
D03*
D32*
X290000Y331032D02*
D03*
Y335969D02*
D03*
X281500Y458532D02*
D03*
Y463468D02*
D03*
D35*
X241059Y392264D02*
D03*
Y390295D02*
D03*
Y388327D02*
D03*
Y386358D02*
D03*
Y384390D02*
D03*
Y382421D02*
D03*
Y380453D02*
D03*
Y378484D02*
D03*
Y376516D02*
D03*
Y374547D02*
D03*
Y372579D02*
D03*
Y370610D02*
D03*
Y368642D02*
D03*
Y366673D02*
D03*
Y364705D02*
D03*
Y362736D02*
D03*
X285941D02*
D03*
Y364705D02*
D03*
Y366673D02*
D03*
Y368642D02*
D03*
Y370610D02*
D03*
Y372579D02*
D03*
Y374547D02*
D03*
Y376516D02*
D03*
Y378484D02*
D03*
Y380453D02*
D03*
Y382421D02*
D03*
Y384390D02*
D03*
Y386358D02*
D03*
Y388327D02*
D03*
Y390295D02*
D03*
Y392264D02*
D03*
D36*
X248736Y355059D02*
D03*
X250705D02*
D03*
X252673D02*
D03*
X254642D02*
D03*
X256610D02*
D03*
X258579D02*
D03*
X260547D02*
D03*
X262516D02*
D03*
X264484D02*
D03*
X266453D02*
D03*
X268421D02*
D03*
X270390D02*
D03*
X272358D02*
D03*
X274327D02*
D03*
X276295D02*
D03*
X278264D02*
D03*
Y399941D02*
D03*
X276295D02*
D03*
X274327D02*
D03*
X272358D02*
D03*
X270390D02*
D03*
X268421D02*
D03*
X266453D02*
D03*
X264484D02*
D03*
X262516D02*
D03*
X260547D02*
D03*
X258579D02*
D03*
X256610D02*
D03*
X254642D02*
D03*
X252673D02*
D03*
X250705D02*
D03*
X248736D02*
D03*
D37*
X243500Y461384D02*
D03*
Y457616D02*
D03*
D41*
X210500Y479031D02*
D03*
Y481000D02*
D03*
Y482969D02*
D03*
Y484937D02*
D03*
D42*
X209516Y476472D02*
D03*
Y487496D02*
D03*
D45*
X279500Y489317D02*
D03*
Y483683D02*
D03*
D47*
X118500Y449012D02*
D03*
Y442500D02*
D03*
D48*
X335000Y461000D02*
D03*
Y463981D02*
D03*
D55*
X156685Y336000D02*
D03*
X162000D02*
D03*
D56*
X164890Y361500D02*
D03*
X158591D02*
D03*
X316850Y414000D02*
D03*
X323150D02*
D03*
X316850Y439500D02*
D03*
X323150D02*
D03*
X316850Y431500D02*
D03*
X323150D02*
D03*
X316850Y422500D02*
D03*
X323150D02*
D03*
X277201Y414500D02*
D03*
X283500D02*
D03*
X283650Y432000D02*
D03*
X277350D02*
D03*
X167350Y413500D02*
D03*
X173650D02*
D03*
D57*
X162500Y350000D02*
D03*
X156791D02*
D03*
X350500Y419000D02*
D03*
X344791D02*
D03*
X350354Y445500D02*
D03*
X344646D02*
D03*
D58*
X114579Y346626D02*
D03*
X116547D02*
D03*
X118516D02*
D03*
X120484D02*
D03*
X122453D02*
D03*
X124421D02*
D03*
Y362374D02*
D03*
X122453D02*
D03*
X120484D02*
D03*
X118516D02*
D03*
X116547D02*
D03*
X114579D02*
D03*
D59*
X127276Y349579D02*
D03*
Y351547D02*
D03*
Y353516D02*
D03*
Y355484D02*
D03*
Y357453D02*
D03*
Y359421D02*
D03*
X111724D02*
D03*
Y357453D02*
D03*
Y355484D02*
D03*
Y353516D02*
D03*
Y351547D02*
D03*
Y349579D02*
D03*
D60*
X119500Y354500D02*
D03*
D61*
X352000Y427579D02*
D03*
Y437421D02*
D03*
D62*
X134000Y321350D02*
D03*
Y327650D02*
D03*
X258000Y429350D02*
D03*
Y435650D02*
D03*
D63*
X218000Y326500D02*
D03*
Y332405D02*
D03*
D64*
X342949Y475500D02*
D03*
Y480500D02*
D03*
Y485500D02*
D03*
Y490500D02*
D03*
X324051Y475500D02*
D03*
Y480500D02*
D03*
Y485500D02*
D03*
Y490500D02*
D03*
D65*
X148500Y392673D02*
D03*
Y389327D02*
D03*
D66*
X284240Y423500D02*
D03*
X276760D02*
D03*
D67*
X313500Y374264D02*
D03*
Y380169D02*
D03*
Y350642D02*
D03*
Y356547D02*
D03*
Y362453D02*
D03*
Y368358D02*
D03*
Y386075D02*
D03*
Y391980D02*
D03*
X363500D02*
D03*
Y386075D02*
D03*
Y380169D02*
D03*
Y374264D02*
D03*
Y368358D02*
D03*
Y362453D02*
D03*
Y356547D02*
D03*
Y350642D02*
D03*
D68*
X186118Y478083D02*
D03*
X175882D02*
D03*
X183559D02*
D03*
X181000D02*
D03*
X178441D02*
D03*
D69*
X137500Y444642D02*
D03*
Y448500D02*
D03*
D70*
X262500Y460087D02*
D03*
Y453000D02*
D03*
X236000Y483543D02*
D03*
Y476457D02*
D03*
D71*
X215047Y453488D02*
D03*
X217016D02*
D03*
X218984D02*
D03*
X220953D02*
D03*
Y464512D02*
D03*
X218984D02*
D03*
X217016D02*
D03*
X215047D02*
D03*
D72*
X223512Y456047D02*
D03*
Y458016D02*
D03*
Y459984D02*
D03*
Y461953D02*
D03*
X212488D02*
D03*
Y459984D02*
D03*
Y458016D02*
D03*
Y456047D02*
D03*
D73*
X218000Y459000D02*
D03*
D74*
X264000Y489673D02*
D03*
Y486327D02*
D03*
X258000Y475173D02*
D03*
Y471827D02*
D03*
D75*
X120445Y466311D02*
D03*
Y492689D02*
D03*
D76*
X143083Y475563D02*
D03*
Y483437D02*
D03*
D77*
X199035Y431024D02*
D03*
Y448976D02*
D03*
D78*
X174626Y440000D02*
D03*
D79*
X219398Y386000D02*
D03*
X206602D02*
D03*
D80*
X184594Y413500D02*
D03*
X190500D02*
D03*
D81*
X121815Y417000D02*
D03*
D82*
X141500D02*
D03*
D83*
X195665Y478083D02*
D03*
X166335D02*
D03*
D84*
X196256Y493043D02*
D03*
X165744D02*
D03*
D85*
X190843Y482217D02*
D03*
X171157D02*
D03*
D86*
X302500Y480500D02*
D03*
X307500D02*
D03*
X302500Y475500D02*
D03*
X307500D02*
D03*
X302539Y470500D02*
D03*
X307500D02*
D03*
X302500Y465500D02*
D03*
X307500D02*
D03*
X302500Y460500D02*
D03*
X307500D02*
D03*
D87*
X235358Y415205D02*
D03*
Y440795D02*
D03*
X217642D02*
D03*
X181858Y375205D02*
D03*
Y400795D02*
D03*
X164142D02*
D03*
D88*
X217642Y415205D02*
D03*
X164142Y375205D02*
D03*
D89*
X115563Y350563D02*
D03*
Y354500D02*
D03*
Y358437D02*
D03*
X119500Y350563D02*
D03*
Y354500D02*
D03*
Y358437D02*
D03*
X123437Y350563D02*
D03*
Y354500D02*
D03*
Y358437D02*
D03*
X138000Y358500D02*
D03*
X140000Y331500D02*
D03*
X134000D02*
D03*
X132484Y355484D02*
D03*
X158500Y466500D02*
D03*
X258500Y497000D02*
D03*
X268500Y434000D02*
D03*
X268461Y420961D02*
D03*
X292000Y390500D02*
D03*
X300500Y374500D02*
D03*
X380000Y491500D02*
D03*
X366000Y465000D02*
D03*
X370500Y428000D02*
D03*
X284500Y330500D02*
D03*
X357500Y464000D02*
D03*
X366000Y480500D02*
D03*
X316500Y485000D02*
D03*
X316000Y490500D02*
D03*
X354000Y475500D02*
D03*
X373500Y486500D02*
D03*
X269500Y318000D02*
D03*
X371500Y362500D02*
D03*
X249500Y325000D02*
D03*
X246500Y331000D02*
D03*
X273000Y346000D02*
D03*
X253000D02*
D03*
X280500Y327500D02*
D03*
X279719Y340781D02*
D03*
X276000Y339000D02*
D03*
X246500Y345000D02*
D03*
X302500Y325000D02*
D03*
X241000Y345000D02*
D03*
X258000Y421000D02*
D03*
X227500D02*
D03*
X241500Y348500D02*
D03*
X317500Y448500D02*
D03*
X306000Y442000D02*
D03*
X278000Y406000D02*
D03*
X249000Y410000D02*
D03*
X292000Y441500D02*
D03*
X284000Y407500D02*
D03*
X261000Y406000D02*
D03*
X255500Y408000D02*
D03*
X313500Y451000D02*
D03*
X294000Y449500D02*
D03*
X292500Y418500D02*
D03*
X245000Y426000D02*
D03*
X255500Y339870D02*
D03*
X335000Y452500D02*
D03*
X265000Y438500D02*
D03*
X155000Y493000D02*
D03*
X155500Y489000D02*
D03*
X159500Y483500D02*
D03*
X305500Y413500D02*
D03*
X298000Y412500D02*
D03*
X122000Y373000D02*
D03*
X254500Y324000D02*
D03*
X344500Y439000D02*
D03*
X350500Y414000D02*
D03*
X233500Y391500D02*
D03*
X234000Y388000D02*
D03*
X295500Y397500D02*
D03*
X234000Y384000D02*
D03*
X220000Y348500D02*
D03*
X184500Y327500D02*
D03*
X104500Y347000D02*
D03*
X169000Y324500D02*
D03*
X105000Y353500D02*
D03*
X159500Y416500D02*
D03*
X140000Y342000D02*
D03*
X295669Y380169D02*
D03*
X359000Y411000D02*
D03*
X157000Y435000D02*
D03*
X197000Y413500D02*
D03*
X198000Y442500D02*
D03*
X128500D02*
D03*
X189000Y487500D02*
D03*
X196000Y463500D02*
D03*
X231057Y463597D02*
D03*
X229000Y476500D02*
D03*
X216000Y479000D02*
D03*
X237500Y456500D02*
D03*
X218000Y469468D02*
D03*
X223500Y469500D02*
D03*
X213000D02*
D03*
X215000Y485000D02*
D03*
X258827Y489673D02*
D03*
X271500Y479000D02*
D03*
X258000Y467000D02*
D03*
X231500Y459500D02*
D03*
X256000D02*
D03*
X232500Y448000D02*
D03*
X176000Y472500D02*
D03*
X272500Y484000D02*
D03*
X218000Y459000D02*
D03*
X219969Y460969D02*
D03*
X216032D02*
D03*
Y457032D02*
D03*
X219969D02*
D03*
M02*
